<svg id="svg" version="1.1" xmlns="http://www.w3.org/2000/svg" xmlns:xlink="http://www.w3.org/1999/xlink" width="400" height="400" viewBox="0, 0, 400,400"><g id="svgg"><path id="path0" d="M105.622 111.077 C 105.622 111.838,105.682 112.150,105.756 111.769 C 105.829 111.388,105.829 110.765,105.756 110.385 C 105.682 110.004,105.622 110.315,105.622 111.077 M105.682 128.615 C 105.682 137.500,105.721 141.135,105.769 136.692 C 105.817 132.250,105.817 124.981,105.769 120.538 C 105.721 116.096,105.682 119.731,105.682 128.615 M301.451 137.844 C 301.215 138.182,300.930 138.366,300.819 138.254 C 300.707 138.143,300.615 138.290,300.615 138.582 C 300.615 138.874,300.479 139.029,300.311 138.925 C 300.137 138.817,300.085 138.941,300.190 139.215 C 300.303 139.509,300.205 139.692,299.935 139.692 C 299.386 139.692,297.385 141.506,297.129 142.235 C 297.025 142.534,296.608 142.904,296.204 143.058 C 295.800 143.212,295.393 143.626,295.301 143.978 C 295.182 144.433,294.981 144.559,294.602 144.414 C 294.227 144.270,294.113 144.338,294.214 144.643 C 294.336 145.008,297.097 145.090,311.641 145.156 L 328.923 145.236 328.923 153.839 L 328.923 162.442 329.615 162.178 C 329.996 162.033,330.289 161.696,330.267 161.428 C 330.244 161.161,330.488 160.858,330.809 160.756 C 331.131 160.655,331.314 160.443,331.217 160.286 C 331.120 160.128,331.395 160.000,331.828 160.000 C 332.261 160.000,332.615 159.853,332.615 159.674 C 332.615 159.495,332.477 159.434,332.308 159.538 C 332.138 159.643,332.000 159.567,332.000 159.370 C 332.000 159.173,332.197 159.087,332.438 159.179 C 332.685 159.274,333.367 158.885,333.999 158.289 C 334.881 157.457,335.001 157.227,334.560 157.211 C 334.105 157.195,334.129 157.140,334.692 156.913 C 335.073 156.760,335.385 156.476,335.385 156.282 C 335.385 156.084,335.646 155.997,335.977 156.083 C 336.393 156.192,336.520 156.111,336.406 155.811 C 336.306 155.553,336.444 155.385,336.754 155.385 C 337.036 155.385,337.182 155.246,337.077 155.077 C 336.972 154.908,337.033 154.769,337.213 154.769 C 337.392 154.769,337.538 154.475,337.538 154.116 C 337.538 153.595,337.624 153.534,337.964 153.816 C 338.652 154.387,338.721 153.765,338.757 146.655 C 338.809 136.356,340.664 137.231,318.769 137.231 C 302.248 137.231,301.872 137.244,301.451 137.844 M288.308 151.110 C 288.308 151.297,288.102 151.371,287.850 151.275 C 287.585 151.173,287.423 151.257,287.465 151.473 C 287.506 151.678,287.364 151.811,287.150 151.768 C 286.936 151.725,286.509 152.105,286.200 152.613 C 285.891 153.121,285.533 153.433,285.405 153.307 C 285.276 153.180,285.215 153.354,285.270 153.692 C 285.400 154.496,285.012 155.092,284.490 154.891 C 284.233 154.793,284.001 155.031,283.878 155.520 C 283.730 156.111,283.482 156.308,282.884 156.308 C 282.315 156.308,282.137 156.435,282.259 156.753 C 282.363 157.023,282.193 157.274,281.830 157.390 C 281.494 157.496,281.231 157.856,281.231 158.208 C 281.231 158.675,281.095 158.783,280.702 158.632 C 280.411 158.520,280.261 158.517,280.369 158.625 C 280.638 158.895,279.357 160.327,279.028 160.124 C 278.883 160.034,278.682 160.177,278.581 160.440 C 278.480 160.704,278.250 160.828,278.069 160.717 C 277.864 160.590,277.815 160.705,277.938 161.026 C 278.069 161.367,277.976 161.538,277.661 161.538 C 277.095 161.538,276.257 162.308,276.527 162.579 C 276.632 162.684,276.492 162.769,276.215 162.769 C 275.872 162.769,275.774 162.932,275.908 163.281 C 276.039 163.623,275.986 163.720,275.748 163.573 C 275.515 163.429,275.455 163.518,275.575 163.830 C 275.690 164.131,275.587 164.308,275.297 164.308 C 275.043 164.308,274.750 164.530,274.646 164.801 C 274.542 165.073,274.275 165.225,274.052 165.140 C 273.662 164.990,272.803 165.987,272.780 166.615 C 272.774 166.785,272.631 166.935,272.462 166.950 C 271.866 167.001,271.077 167.454,271.077 167.743 C 271.077 167.904,271.237 167.938,271.432 167.817 C 271.652 167.681,271.704 167.732,271.568 167.952 C 271.447 168.148,271.159 168.308,270.927 168.308 C 270.363 168.308,269.488 169.208,269.708 169.563 C 269.804 169.719,269.676 169.846,269.424 169.846 C 269.171 169.846,268.871 170.141,268.756 170.502 C 268.589 171.029,268.489 171.074,268.247 170.733 C 268.022 170.414,267.982 170.471,268.088 170.961 C 268.201 171.480,268.110 171.583,267.649 171.462 C 267.224 171.351,267.116 171.436,267.247 171.778 C 267.346 172.035,267.257 172.350,267.050 172.478 C 266.789 172.640,266.752 172.579,266.928 172.278 C 267.068 172.041,266.886 172.107,266.522 172.425 C 266.159 172.744,265.784 173.250,265.689 173.549 C 265.594 173.849,265.036 174.322,264.450 174.600 C 263.864 174.878,263.385 175.246,263.385 175.417 C 263.385 175.588,263.544 175.630,263.740 175.509 C 263.962 175.372,264.011 175.425,263.872 175.650 C 263.750 175.848,263.527 175.934,263.378 175.842 C 263.228 175.750,262.904 176.059,262.658 176.529 C 262.412 177.000,262.128 177.350,262.028 177.308 C 261.659 177.151,261.232 177.238,261.267 177.462 C 261.386 178.216,261.168 178.769,260.751 178.769 C 260.467 178.769,260.361 178.624,260.491 178.414 C 260.628 178.192,260.575 178.142,260.350 178.281 C 260.152 178.404,260.061 178.618,260.147 178.758 C 260.233 178.898,260.083 179.097,259.812 179.201 C 259.542 179.305,259.397 179.589,259.491 179.833 C 259.652 180.253,258.657 180.832,258.054 180.669 C 257.914 180.631,257.888 180.879,257.997 181.221 C 258.147 181.694,258.082 181.799,257.725 181.662 C 257.403 181.539,257.195 181.728,257.059 182.269 C 256.951 182.701,256.576 183.146,256.226 183.257 C 255.393 183.521,254.132 184.792,254.403 185.094 C 254.520 185.223,254.441 185.229,254.228 185.107 C 253.708 184.807,252.929 185.633,252.899 186.516 C 252.885 186.909,252.805 187.058,252.719 186.846 C 252.634 186.635,252.442 186.462,252.292 186.462 C 252.142 186.462,252.099 186.669,252.196 186.923 C 252.310 187.220,252.190 187.385,251.861 187.385 C 251.579 187.385,251.430 187.517,251.530 187.679 C 251.630 187.841,251.293 188.191,250.779 188.456 C 250.266 188.722,249.846 189.166,249.846 189.444 C 249.846 189.722,249.762 189.865,249.660 189.762 C 249.557 189.659,249.315 189.710,249.121 189.875 C 248.928 190.040,248.523 190.345,248.221 190.552 C 247.759 190.870,247.890 190.912,249.059 190.819 C 250.712 190.687,252.376 191.568,253.092 192.953 L 253.554 193.846 257.509 193.846 C 261.810 193.846,262.398 194.061,262.038 195.498 C 261.797 196.459,261.143 196.606,257.107 196.611 L 253.752 196.615 252.645 197.812 C 249.926 200.751,245.631 199.624,245.055 195.819 C 244.929 194.988,244.769 194.473,244.701 194.675 C 244.632 194.877,244.377 194.966,244.134 194.873 C 243.891 194.780,243.692 194.850,243.692 195.028 C 243.692 195.207,243.346 195.726,242.923 196.183 C 242.500 196.639,242.154 197.209,242.154 197.448 C 242.154 197.687,242.009 197.793,241.833 197.684 C 241.457 197.452,240.553 198.112,240.769 198.462 C 240.850 198.593,240.676 198.681,240.381 198.658 C 240.017 198.629,239.878 198.800,239.946 199.196 C 240.020 199.623,239.914 199.725,239.546 199.584 C 239.235 199.464,239.121 199.515,239.247 199.719 C 239.487 200.108,238.223 201.538,237.639 201.538 C 237.414 201.538,237.265 201.708,237.308 201.916 C 237.350 202.123,237.081 202.340,236.709 202.396 C 236.240 202.468,236.091 202.647,236.220 202.984 C 236.343 203.305,236.265 203.422,235.987 203.329 C 234.298 202.766,233.443 237.444,235.109 238.952 C 235.729 239.513,236.477 239.539,252.570 239.550 C 261.818 239.557,265.812 239.520,261.447 239.468 C 256.410 239.409,253.576 239.265,253.693 239.075 C 253.795 238.910,253.675 238.854,253.424 238.950 C 253.132 239.062,252.995 238.955,253.040 238.648 C 253.126 238.062,253.473 237.695,253.949 237.685 C 254.146 237.681,254.288 237.434,254.263 237.136 C 254.228 236.706,254.307 236.667,254.648 236.950 C 255.159 237.374,256.125 236.758,255.792 236.221 C 255.667 236.017,255.786 235.970,256.110 236.095 C 256.547 236.262,256.578 236.197,256.304 235.685 C 255.969 235.060,256.400 234.788,256.772 235.390 C 257.048 235.835,257.613 235.407,257.418 234.900 C 257.232 234.415,258.645 232.603,259.181 232.640 C 259.424 232.656,259.415 232.714,259.154 232.819 C 258.942 232.905,258.769 233.189,258.769 233.452 C 258.769 234.061,259.858 232.720,260.294 231.575 C 260.462 231.132,260.826 230.769,261.102 230.769 C 261.404 230.769,261.539 230.599,261.441 230.343 C 261.323 230.037,261.466 229.957,261.946 230.062 C 262.481 230.178,262.523 230.143,262.156 229.886 C 261.766 229.612,261.761 229.505,262.125 229.167 C 262.360 228.948,262.466 228.922,262.362 229.109 C 262.239 229.331,262.431 229.400,262.912 229.308 C 263.318 229.231,263.733 228.954,263.833 228.694 C 263.984 228.298,263.936 228.286,263.538 228.616 C 262.774 229.250,262.704 228.783,263.464 228.122 C 263.843 227.792,264.292 227.457,264.462 227.377 C 264.631 227.296,264.750 227.058,264.726 226.846 C 264.703 226.635,264.815 226.462,264.975 226.462 C 265.136 226.462,265.168 226.302,265.048 226.106 C 264.916 225.894,264.963 225.834,265.162 225.958 C 265.346 226.071,265.731 225.850,266.017 225.467 C 266.366 224.999,266.477 224.947,266.355 225.309 C 266.184 225.813,266.221 225.816,266.932 225.350 C 267.643 224.884,268.056 224.354,267.385 224.769 C 266.949 225.038,267.002 224.646,267.464 224.184 C 267.677 223.971,268.000 223.846,268.182 223.907 C 268.364 223.968,268.513 223.812,268.513 223.561 C 268.513 223.309,268.363 223.187,268.179 223.289 C 267.996 223.391,268.026 223.282,268.246 223.045 C 268.466 222.809,268.743 222.597,268.862 222.574 C 270.143 222.328,270.564 222.043,269.984 221.816 C 269.482 221.620,269.525 221.578,270.249 221.560 C 270.724 221.548,271.043 221.425,270.957 221.286 C 270.782 221.003,271.838 220.000,272.311 220.000 C 272.479 220.000,272.615 219.847,272.615 219.659 C 272.615 219.464,272.390 219.405,272.088 219.521 C 271.740 219.655,271.818 219.476,272.319 218.995 C 272.736 218.594,273.163 218.308,273.269 218.358 C 273.595 218.514,275.077 216.980,275.077 216.486 C 275.077 216.192,275.252 216.087,275.551 216.201 C 275.812 216.301,276.003 216.262,275.976 216.115 C 275.865 215.505,276.018 215.052,276.280 215.214 C 276.796 215.533,277.508 215.048,277.308 214.513 C 277.135 214.052,277.172 214.046,277.679 214.459 C 278.202 214.885,278.226 214.866,278.009 214.182 C 277.821 213.591,277.869 213.481,278.251 213.628 C 278.603 213.763,278.696 213.648,278.607 213.186 C 278.506 212.664,278.562 212.623,278.943 212.939 C 279.323 213.255,279.363 213.226,279.186 212.762 C 279.059 212.433,279.094 212.282,279.270 212.391 C 279.434 212.492,279.769 212.448,280.015 212.292 C 280.402 212.047,280.400 212.007,280.000 211.991 C 279.746 211.981,279.954 211.782,280.462 211.550 C 280.969 211.317,281.212 211.116,281.000 211.102 C 280.788 211.088,280.615 210.924,280.615 210.736 C 280.615 210.549,280.830 210.478,281.093 210.579 C 281.367 210.684,281.490 210.632,281.382 210.458 C 281.279 210.291,281.410 210.154,281.674 210.154 C 281.938 210.154,282.154 209.943,282.154 209.686 C 282.154 209.428,282.485 209.066,282.891 208.882 C 283.309 208.691,283.591 208.328,283.544 208.042 C 283.497 207.765,283.744 207.227,284.091 206.846 C 284.438 206.465,284.608 206.154,284.468 206.154 C 284.328 206.154,284.494 205.910,284.838 205.613 C 285.784 204.792,285.601 203.563,284.514 203.439 C 283.827 203.360,283.435 203.580,282.655 204.482 C 281.768 205.508,281.603 205.584,281.033 205.228 C 279.552 204.303,279.594 203.784,281.220 202.899 C 282.909 201.980,283.233 201.481,282.738 200.558 C 282.314 199.764,280.709 199.947,279.457 200.932 L 278.616 201.593 278.091 200.412 L 277.565 199.231 278.552 198.968 C 280.996 198.317,281.269 198.124,281.170 197.110 L 281.077 196.154 279.154 196.207 L 277.231 196.261 277.231 195.053 C 277.231 193.735,277.539 193.579,278.909 194.203 C 280.100 194.746,281.231 194.130,281.231 192.938 C 281.231 192.087,281.103 191.980,279.538 191.525 C 277.780 191.014,277.612 190.768,278.247 189.625 L 278.627 188.942 280.246 189.692 C 283.245 191.081,284.009 189.167,281.180 187.352 L 279.645 186.367 280.614 185.414 L 281.582 184.462 282.773 185.827 C 284.946 188.321,286.531 186.659,284.427 184.092 C 283.816 183.346,283.366 182.699,283.427 182.654 C 283.488 182.609,284.050 182.280,284.675 181.922 L 285.811 181.272 286.343 182.713 C 287.630 186.198,289.837 185.908,288.805 182.390 C 288.251 180.501,288.335 180.308,289.710 180.308 C 290.832 180.308,290.883 180.404,290.782 182.321 C 290.712 183.652,291.722 184.533,292.770 184.055 C 293.454 183.744,293.538 183.519,293.538 182.007 C 293.538 180.357,293.563 180.308,294.385 180.312 C 295.883 180.321,296.041 180.618,295.478 182.380 C 294.513 185.396,296.848 186.116,297.989 183.154 C 298.703 181.300,298.608 181.349,299.936 182.158 L 300.948 182.776 300.006 183.772 C 298.891 184.951,298.555 185.986,299.080 186.619 C 299.723 187.393,300.518 187.134,301.689 185.769 L 302.810 184.462 303.680 185.526 L 304.551 186.591 303.891 186.975 C 303.528 187.187,302.932 187.520,302.567 187.716 C 301.907 188.071,301.532 189.058,301.777 189.794 C 301.877 190.092,302.005 190.097,302.345 189.815 C 302.700 189.521,302.746 189.548,302.590 189.956 C 302.482 190.237,302.547 190.462,302.736 190.462 C 302.924 190.462,303.077 190.057,303.077 189.564 C 303.077 188.343,303.362 187.692,303.897 187.692 C 304.157 187.692,304.252 187.841,304.124 188.048 C 303.987 188.269,304.040 188.319,304.265 188.180 C 304.463 188.058,304.562 187.855,304.485 187.730 C 304.407 187.604,304.751 187.165,305.249 186.754 C 305.747 186.343,306.154 185.832,306.154 185.619 C 306.154 185.405,306.397 185.231,306.695 185.231 C 306.993 185.231,307.410 184.954,307.621 184.615 C 307.832 184.277,308.229 184.000,308.502 184.000 C 308.930 184.000,308.940 183.928,308.576 183.479 C 308.344 183.193,308.311 183.053,308.504 183.168 C 308.918 183.417,309.681 182.588,309.688 181.881 C 309.691 181.535,309.915 181.416,310.428 181.488 C 310.985 181.567,311.119 181.477,310.982 181.119 C 310.857 180.793,310.940 180.700,311.250 180.819 C 311.552 180.935,311.643 180.845,311.528 180.545 C 311.434 180.300,311.605 179.903,311.909 179.665 C 312.414 179.268,312.425 179.277,312.033 179.776 C 311.658 180.255,311.668 180.298,312.110 180.128 C 312.388 180.021,312.615 179.733,312.615 179.487 C 312.615 179.242,312.752 179.125,312.920 179.229 C 313.088 179.333,313.149 179.221,313.056 178.979 C 312.952 178.709,313.137 178.477,313.540 178.372 C 313.956 178.263,314.157 178.001,314.096 177.646 C 314.043 177.341,314.173 177.070,314.385 177.045 C 314.596 177.020,314.977 176.983,315.231 176.962 C 315.485 176.940,315.692 176.658,315.692 176.333 C 315.692 176.009,315.865 175.673,316.077 175.588 C 316.356 175.474,316.367 175.362,316.116 175.177 C 314.635 174.089,313.988 170.487,314.768 167.679 C 315.383 165.463,318.102 163.692,320.888 163.692 C 323.525 163.692,323.385 164.030,323.385 157.713 C 323.385 152.251,323.366 152.090,322.672 151.438 L 321.960 150.769 305.134 150.769 C 293.037 150.769,288.308 150.865,288.308 151.110 M142.032 163.745 C 142.188 163.996,142.077 164.037,141.666 163.880 C 141.217 163.709,141.162 163.741,141.435 164.016 C 141.632 164.215,141.943 164.284,142.127 164.170 C 142.555 163.906,142.561 163.385,142.136 163.385 C 141.956 163.385,141.910 163.547,142.032 163.745 M320.330 166.413 C 318.549 166.665,317.231 168.316,317.231 170.297 C 317.231 172.127,318.322 173.612,319.000 172.705 C 319.305 172.296,319.389 172.282,319.404 172.633 C 319.415 172.877,319.549 172.765,319.702 172.385 C 319.855 172.004,320.138 171.692,320.331 171.692 C 320.523 171.692,320.609 171.505,320.521 171.276 C 320.409 170.984,320.588 170.885,321.121 170.943 C 321.664 171.003,321.798 170.924,321.593 170.667 C 321.436 170.469,321.418 170.031,321.555 169.692 C 321.787 169.116,321.804 169.114,321.825 169.657 C 321.844 170.173,321.936 170.147,322.653 169.431 C 323.096 168.988,323.571 168.694,323.708 168.779 C 323.845 168.864,324.058 168.771,324.180 168.573 C 324.311 168.361,324.270 168.295,324.080 168.412 C 323.902 168.522,323.680 168.412,323.586 168.168 C 323.473 167.872,323.564 167.781,323.862 167.895 C 324.107 167.989,324.308 167.904,324.308 167.707 C 324.308 167.510,324.446 167.434,324.615 167.538 C 324.785 167.643,324.925 167.478,324.928 167.172 C 324.931 166.742,324.993 166.711,325.197 167.033 C 325.383 167.326,325.525 167.348,325.673 167.108 C 326.014 166.557,322.524 166.103,320.330 166.413 M289.361 188.420 C 285.281 190.266,283.662 194.786,285.750 198.500 C 286.834 200.429,288.882 202.061,289.746 201.686 C 290.055 201.551,290.470 201.467,290.669 201.498 C 290.868 201.529,291.117 201.414,291.224 201.242 C 291.340 201.053,291.211 201.009,290.897 201.129 C 290.532 201.270,290.424 201.200,290.535 200.895 C 290.621 200.657,290.848 200.496,291.038 200.538 C 291.229 200.581,291.385 200.416,291.385 200.172 C 291.385 199.898,291.614 199.772,291.982 199.843 C 292.400 199.923,292.529 199.825,292.411 199.517 C 292.290 199.203,292.493 199.067,293.121 199.041 C 293.640 199.020,293.780 198.948,293.462 198.865 C 292.985 198.740,292.976 198.672,293.383 198.266 C 293.635 198.013,293.953 197.876,294.090 197.960 C 294.227 198.045,294.527 197.811,294.757 197.442 C 295.152 196.808,295.142 196.794,294.588 197.208 C 294.265 197.450,294.375 197.277,294.833 196.824 C 295.692 195.974,296.203 195.730,295.817 196.355 C 295.684 196.570,295.732 196.627,295.939 196.499 C 296.127 196.383,296.208 196.099,296.119 195.867 C 296.031 195.636,296.108 195.354,296.292 195.241 C 296.475 195.127,296.532 194.871,296.417 194.671 C 296.303 194.471,296.322 194.410,296.461 194.536 C 296.599 194.661,296.933 194.592,297.202 194.382 C 297.637 194.043,297.644 194.061,297.264 194.546 C 297.028 194.846,296.901 195.157,296.981 195.238 C 297.062 195.318,297.315 195.033,297.544 194.604 C 297.774 194.175,298.120 193.886,298.314 193.960 C 298.508 194.034,298.667 193.895,298.667 193.650 C 298.667 193.378,298.477 193.270,298.179 193.372 C 297.784 193.508,297.791 193.463,298.220 193.129 C 301.045 190.926,293.126 186.717,289.361 188.420 M105.682 219.231 C 105.682 228.538,105.721 232.391,105.769 227.791 C 105.817 223.191,105.817 215.576,105.769 210.868 C 105.721 206.160,105.682 209.923,105.682 219.231 M228.385 210.358 C 228.173 210.443,228.000 210.653,228.000 210.823 C 228.000 211.187,227.028 212.477,226.692 212.559 C 226.565 212.590,226.323 212.615,226.154 212.615 C 225.985 212.615,225.846 212.762,225.846 212.941 C 225.846 213.120,226.019 213.167,226.231 213.046 C 226.454 212.917,226.508 212.942,226.359 213.105 C 226.218 213.259,225.941 213.391,225.744 213.399 C 225.546 213.406,225.425 213.596,225.474 213.821 C 225.531 214.082,225.386 214.161,225.074 214.041 C 224.773 213.926,224.661 213.979,224.784 214.178 C 224.895 214.357,224.707 214.576,224.367 214.665 C 224.027 214.753,223.676 215.104,223.588 215.444 C 223.486 215.834,223.288 215.976,223.050 215.830 C 222.810 215.681,222.753 215.725,222.894 215.952 C 223.014 216.148,222.967 216.308,222.787 216.308 C 222.608 216.308,222.496 216.474,222.538 216.678 C 222.581 216.882,222.477 217.057,222.308 217.068 C 221.881 217.093,220.146 218.866,220.243 219.177 C 220.287 219.316,220.158 219.328,219.955 219.203 C 219.698 219.044,219.650 219.152,219.795 219.565 C 219.995 220.136,219.987 220.136,219.539 219.557 C 218.957 218.805,218.826 249.585,219.406 250.832 C 220.280 252.712,220.556 252.763,230.385 252.841 C 236.468 252.889,239.385 252.809,239.385 252.592 C 239.385 252.416,239.512 252.350,239.668 252.446 C 240.063 252.691,240.973 251.715,240.725 251.312 C 240.612 251.131,240.652 251.063,240.813 251.163 C 240.974 251.263,241.307 251.217,241.553 251.061 C 241.924 250.826,241.909 250.778,241.465 250.774 C 240.957 250.769,240.956 250.737,241.462 250.147 C 241.755 249.804,242.042 249.666,242.100 249.839 C 242.158 250.012,242.337 250.154,242.498 250.154 C 242.674 250.154,242.664 249.916,242.472 249.557 C 242.243 249.131,242.254 248.898,242.508 248.740 C 242.729 248.604,242.781 248.655,242.645 248.876 C 242.373 249.316,242.628 249.328,243.405 248.912 C 243.732 248.737,244.000 248.450,244.000 248.275 C 244.000 248.100,244.209 247.747,244.464 247.492 C 244.720 247.236,244.838 246.880,244.726 246.700 C 244.592 246.482,244.795 246.440,245.331 246.574 C 245.972 246.735,246.101 246.681,245.959 246.311 C 245.861 246.056,245.942 245.846,246.139 245.846 C 246.336 245.846,246.412 245.708,246.308 245.538 C 246.188 245.345,242.920 245.231,237.520 245.231 L 228.923 245.231 228.887 227.923 C 228.867 218.404,228.867 210.512,228.887 210.385 C 228.907 210.258,228.888 210.165,228.846 210.178 C 228.804 210.191,228.596 210.272,228.385 210.358 M323.169 216.229 C 324.658 216.286,327.012 216.286,328.400 216.229 C 329.788 216.172,328.569 216.126,325.692 216.126 C 322.815 216.126,321.680 216.173,323.169 216.229 M283.177 239.615 C 290.255 239.661,301.747 239.661,308.715 239.615 C 315.683 239.569,309.892 239.531,295.846 239.531 C 281.800 239.532,276.099 239.569,283.177 239.615 M235.283 254.973 C 235.170 255.087,235.088 255.606,235.101 256.128 C 235.115 256.650,235.195 256.904,235.281 256.692 C 235.366 256.481,235.667 256.306,235.949 256.303 C 236.392 256.299,236.399 256.258,236.000 256.000 C 235.746 255.836,235.685 255.700,235.864 255.697 C 236.801 255.683,237.267 254.903,236.379 254.835 C 235.890 254.798,235.396 254.860,235.283 254.973 M242.215 268.229 C 243.687 268.285,246.180 268.285,247.754 268.229 C 249.328 268.174,248.123 268.127,245.077 268.127 C 242.031 268.127,240.743 268.173,242.215 268.229 M309.923 268.227 C 310.896 268.288,312.488 268.288,313.462 268.227 C 314.435 268.166,313.638 268.116,311.692 268.116 C 309.746 268.116,308.950 268.166,309.923 268.227 M163.915 290.603 C 161.443 291.893,160.728 294.682,162.370 296.634 C 163.928 298.484,163.504 298.448,182.814 298.386 C 192.520 298.355,198.973 298.286,197.154 298.232 C 193.900 298.135,193.237 297.886,194.470 297.226 C 194.837 297.030,195.003 296.740,194.873 296.523 C 194.716 296.262,194.791 296.267,195.131 296.542 C 195.526 296.862,195.686 296.835,196.036 296.388 C 196.416 295.905,196.407 295.888,195.959 296.239 C 195.546 296.561,195.426 296.551,195.283 296.180 C 195.170 295.885,195.425 295.590,196.017 295.328 C 196.515 295.107,196.923 294.745,196.923 294.522 C 196.923 294.300,197.055 294.199,197.215 294.298 C 197.566 294.515,198.223 293.402,197.922 293.101 C 197.806 292.985,197.972 292.991,198.291 293.113 C 198.739 293.285,198.811 293.237,198.607 292.898 C 198.382 292.526,198.420 292.523,198.864 292.884 C 199.231 293.182,199.385 293.199,199.385 292.943 C 199.385 292.743,199.516 292.660,199.676 292.759 C 199.837 292.858,199.914 292.662,199.849 292.322 C 199.784 291.983,199.881 291.612,200.066 291.497 C 200.268 291.373,200.315 291.432,200.183 291.645 C 200.062 291.840,200.077 292.000,200.217 292.000 C 200.356 292.000,200.606 291.688,200.773 291.308 C 201.053 290.670,201.334 290.602,204.308 290.445 C 206.085 290.351,197.915 290.248,186.154 290.216 C 168.007 290.166,164.640 290.225,163.915 290.603 M145.957 293.077 C 145.860 293.331,145.573 293.538,145.319 293.538 C 145.028 293.538,144.925 293.715,145.040 294.016 C 145.146 294.290,145.094 294.413,144.920 294.306 C 144.752 294.202,144.615 294.333,144.615 294.597 C 144.615 295.029,144.256 295.215,143.615 295.113 C 143.488 295.093,143.385 295.277,143.385 295.521 C 143.385 295.765,143.109 296.158,142.771 296.395 C 142.434 296.631,142.261 296.938,142.387 297.077 C 142.512 297.215,142.380 297.245,142.093 297.142 C 141.721 297.009,141.619 297.083,141.741 297.400 C 141.847 297.676,141.723 297.846,141.418 297.846 C 141.146 297.846,140.923 297.988,140.923 298.161 C 140.923 298.335,140.574 298.609,140.148 298.771 C 139.722 298.933,139.238 299.423,139.072 299.859 C 138.906 300.295,138.647 300.576,138.497 300.484 C 138.347 300.391,138.152 300.588,138.065 300.923 C 137.977 301.257,137.560 301.663,137.137 301.823 C 136.714 301.984,136.258 302.298,136.125 302.519 C 135.961 302.792,136.074 302.773,136.473 302.462 C 136.882 302.143,136.828 302.295,136.302 302.953 C 135.882 303.477,135.465 303.796,135.376 303.661 C 135.287 303.526,135.032 303.825,134.811 304.325 C 134.590 304.825,134.289 305.160,134.143 305.070 C 133.997 304.980,133.727 305.185,133.545 305.527 C 133.362 305.868,133.091 306.114,132.942 306.074 C 132.584 305.976,130.831 307.935,130.587 308.706 C 130.481 309.039,130.306 309.176,130.197 309.009 C 130.082 308.831,129.744 308.962,129.385 309.323 C 129.046 309.663,128.941 309.843,129.150 309.724 C 129.410 309.576,129.471 309.665,129.341 310.002 C 129.237 310.274,128.962 310.424,128.730 310.335 C 128.498 310.246,128.290 310.307,128.269 310.471 C 128.248 310.635,128.213 310.942,128.192 311.154 C 128.170 311.365,127.887 311.539,127.563 311.540 C 127.239 311.540,126.916 311.714,126.846 311.924 C 126.775 312.135,126.522 312.308,126.282 312.308 C 126.042 312.308,125.846 312.569,125.846 312.888 C 125.846 313.207,125.509 313.689,125.097 313.959 C 124.100 314.612,122.769 315.957,122.769 316.312 C 122.769 316.468,122.562 316.516,122.308 316.419 C 122.024 316.310,121.846 316.420,121.846 316.703 C 121.846 316.957,121.638 317.245,121.385 317.342 C 121.131 317.439,120.923 317.731,120.923 317.990 C 120.923 318.250,120.701 318.462,120.429 318.462 C 120.116 318.462,119.999 318.631,120.111 318.923 C 120.209 319.177,120.154 319.385,119.990 319.385 C 119.640 319.385,118.308 320.664,118.308 321.000 C 118.308 321.127,118.210 321.196,118.090 321.154 C 117.971 321.112,117.663 321.354,117.408 321.692 C 117.127 322.064,116.939 322.148,116.933 321.905 C 116.927 321.683,116.777 321.592,116.599 321.702 C 116.421 321.812,116.327 322.058,116.390 322.248 C 116.560 322.758,114.186 324.978,113.750 324.717 C 113.549 324.596,113.592 324.757,113.846 325.075 C 114.268 325.604,114.258 325.635,113.735 325.439 C 113.280 325.268,113.204 325.333,113.367 325.756 C 113.479 326.049,113.478 326.196,113.364 326.082 C 113.251 325.968,112.955 326.078,112.708 326.325 C 112.460 326.573,112.096 326.682,111.898 326.569 C 111.700 326.456,111.640 326.475,111.764 326.612 C 111.888 326.749,111.497 327.325,110.896 327.892 C 109.556 329.155,109.733 329.177,112.001 328.024 C 113.310 327.359,113.861 327.215,114.116 327.470 C 114.372 327.725,114.462 327.680,114.462 327.296 C 114.462 326.931,116.169 325.920,120.231 323.879 C 123.404 322.286,126.692 320.627,127.538 320.194 C 128.385 319.761,130.877 318.516,133.077 317.428 C 135.277 316.340,137.631 315.160,138.308 314.806 C 138.985 314.452,140.806 313.547,142.354 312.795 C 146.232 310.912,148.354 309.538,147.385 309.538 C 147.187 309.538,147.077 306.513,147.077 301.077 C 147.077 293.684,147.017 292.615,146.606 292.615 C 146.347 292.615,146.055 292.823,145.957 293.077 M105.682 309.538 C 105.682 318.592,105.721 322.296,105.769 317.769 C 105.817 313.242,105.817 305.835,105.769 301.308 C 105.721 296.781,105.682 300.485,105.682 309.538 M202.692 298.382 C 203.919 298.441,205.927 298.441,207.154 298.382 C 208.381 298.324,207.377 298.276,204.923 298.276 C 202.469 298.276,201.465 298.324,202.692 298.382 M216.385 298.384 C 220.235 298.433,226.535 298.433,230.385 298.384 C 234.235 298.335,231.085 298.296,223.385 298.296 C 215.685 298.296,212.535 298.335,216.385 298.384 M238.231 298.374 C 238.696 298.445,239.458 298.445,239.923 298.374 C 240.388 298.304,240.008 298.246,239.077 298.246 C 238.146 298.246,237.765 298.304,238.231 298.374 M241.615 298.374 C 242.081 298.445,242.842 298.445,243.308 298.374 C 243.773 298.304,243.392 298.246,242.462 298.246 C 241.531 298.246,241.150 298.304,241.615 298.374 M252.538 298.384 C 257.150 298.432,264.696 298.432,269.308 298.384 C 273.919 298.337,270.146 298.297,260.923 298.297 C 251.700 298.297,247.927 298.337,252.538 298.384 M278.231 298.366 C 278.527 298.443,279.012 298.443,279.308 298.366 C 279.604 298.289,279.362 298.225,278.769 298.225 C 278.177 298.225,277.935 298.289,278.231 298.366 M255.830 338.796 C 255.716 338.980,255.761 339.269,255.931 339.438 C 256.136 339.643,256.307 339.634,256.445 339.411 C 256.559 339.227,256.497 339.077,256.308 339.077 C 256.118 339.077,256.049 338.938,256.154 338.769 C 256.258 338.600,256.275 338.462,256.190 338.462 C 256.106 338.462,255.943 338.612,255.830 338.796 M261.538 341.846 C 261.357 342.185,261.319 342.462,261.454 342.462 C 261.588 342.462,261.871 342.185,262.082 341.846 C 262.295 341.505,262.333 341.231,262.167 341.231 C 262.003 341.231,261.720 341.508,261.538 341.846 " stroke="none" fill="#6ac8fb" fill-rule="evenodd"></path><path id="path1" d="M337.538 154.116 C 337.538 154.475,337.392 154.769,337.213 154.769 C 337.033 154.769,336.972 154.908,337.077 155.077 C 337.182 155.246,337.036 155.385,336.754 155.385 C 336.444 155.385,336.306 155.553,336.406 155.811 C 336.520 156.111,336.393 156.192,335.977 156.083 C 335.646 155.997,335.385 156.084,335.385 156.282 C 335.385 156.476,335.073 156.760,334.692 156.913 C 334.129 157.140,334.105 157.195,334.560 157.211 C 335.001 157.227,334.881 157.457,333.999 158.289 C 333.367 158.885,332.685 159.274,332.438 159.179 C 332.197 159.087,332.000 159.173,332.000 159.370 C 332.000 159.567,332.138 159.643,332.308 159.538 C 332.477 159.434,332.615 159.495,332.615 159.674 C 332.615 159.853,332.261 160.000,331.828 160.000 C 331.395 160.000,331.120 160.128,331.217 160.286 C 331.314 160.443,331.122 160.657,330.789 160.763 C 330.426 160.878,330.253 161.131,330.355 161.396 C 330.462 161.677,330.233 161.948,329.724 162.142 C 327.983 162.804,328.922 163.692,331.361 163.692 C 337.742 163.692,340.036 172.960,334.435 176.109 C 333.375 176.704,332.544 176.924,331.339 176.928 C 330.433 176.930,329.518 177.043,329.305 177.178 C 329.000 177.372,328.935 181.193,328.997 195.250 L 329.077 213.077 331.139 213.254 C 335.035 213.589,337.149 215.498,337.433 218.936 C 337.831 223.756,335.670 226.312,330.870 226.697 L 328.923 226.853 328.923 236.042 L 328.923 245.231 287.520 245.231 C 259.997 245.231,246.181 245.334,246.308 245.538 C 246.412 245.708,246.336 245.846,246.139 245.846 C 245.942 245.846,245.861 246.056,245.959 246.311 C 246.101 246.681,245.972 246.735,245.331 246.574 C 244.795 246.440,244.592 246.482,244.726 246.700 C 244.838 246.880,244.720 247.236,244.464 247.492 C 244.209 247.747,244.000 248.100,244.000 248.275 C 244.000 248.450,243.732 248.737,243.405 248.912 C 242.628 249.328,242.373 249.316,242.645 248.876 C 242.781 248.655,242.729 248.604,242.508 248.740 C 242.254 248.898,242.243 249.131,242.472 249.557 C 242.664 249.916,242.674 250.154,242.498 250.154 C 242.337 250.154,242.158 250.012,242.100 249.839 C 242.042 249.666,241.755 249.804,241.462 250.147 C 240.956 250.737,240.957 250.769,241.465 250.774 C 241.909 250.778,241.924 250.826,241.553 251.061 C 241.307 251.217,240.974 251.263,240.813 251.163 C 240.652 251.063,240.612 251.131,240.725 251.312 C 240.973 251.715,240.063 252.691,239.668 252.446 C 239.512 252.350,239.385 252.418,239.385 252.597 C 239.385 252.825,253.849 252.923,287.528 252.923 C 339.829 252.923,337.488 252.997,338.018 251.329 C 338.115 251.021,338.324 250.769,338.482 250.769 C 338.659 250.769,338.760 232.005,338.745 202.077 C 338.732 175.296,338.649 153.563,338.561 153.782 C 338.439 154.087,338.302 154.096,337.970 153.821 C 337.623 153.533,337.538 153.591,337.538 154.116 M325.575 166.692 C 325.671 167.300,325.499 167.492,325.231 167.077 C 324.978 166.686,324.932 166.700,324.928 167.172 C 324.925 167.478,324.785 167.643,324.615 167.538 C 324.446 167.434,324.308 167.510,324.308 167.707 C 324.308 167.904,324.107 167.989,323.862 167.895 C 323.564 167.781,323.473 167.872,323.586 168.168 C 323.680 168.412,323.902 168.522,324.080 168.412 C 324.270 168.295,324.311 168.361,324.180 168.573 C 324.058 168.771,323.845 168.864,323.708 168.779 C 323.571 168.694,323.096 168.988,322.653 169.431 C 321.936 170.147,321.844 170.173,321.825 169.657 C 321.804 169.114,321.787 169.116,321.555 169.692 C 321.418 170.031,321.436 170.469,321.593 170.667 C 321.798 170.924,321.664 171.003,321.121 170.943 C 320.625 170.889,320.412 170.990,320.506 171.236 C 320.586 171.443,320.435 171.696,320.172 171.797 C 319.908 171.898,319.690 172.227,319.688 172.529 C 319.684 172.946,319.621 172.979,319.423 172.667 C 319.215 172.338,319.124 172.358,318.968 172.763 C 318.861 173.042,318.634 173.184,318.464 173.078 C 318.293 172.973,318.154 172.961,318.154 173.051 C 318.154 173.871,320.236 174.153,326.215 174.144 C 332.960 174.133,333.070 174.109,334.204 172.389 C 335.279 170.759,334.741 168.206,333.052 166.928 C 332.422 166.451,325.502 166.233,325.575 166.692 M316.077 175.615 C 315.865 175.686,315.692 176.009,315.692 176.333 C 315.692 176.658,315.485 176.940,315.231 176.962 C 314.977 176.983,314.596 177.020,314.385 177.045 C 314.173 177.070,314.043 177.341,314.096 177.646 C 314.157 178.001,313.956 178.263,313.540 178.372 C 313.137 178.477,312.952 178.709,313.056 178.979 C 313.149 179.221,313.088 179.333,312.920 179.229 C 312.752 179.125,312.615 179.242,312.615 179.487 C 312.615 179.733,312.388 180.021,312.110 180.128 C 311.668 180.298,311.658 180.255,312.033 179.776 C 312.425 179.277,312.414 179.268,311.909 179.665 C 311.605 179.903,311.434 180.300,311.528 180.545 C 311.643 180.845,311.552 180.935,311.250 180.819 C 310.940 180.700,310.857 180.793,310.982 181.119 C 311.119 181.477,310.985 181.567,310.428 181.488 C 309.915 181.416,309.691 181.535,309.688 181.881 C 309.681 182.588,308.918 183.417,308.504 183.168 C 308.311 183.053,308.344 183.193,308.576 183.479 C 308.940 183.928,308.930 184.000,308.502 184.000 C 308.229 184.000,307.832 184.277,307.621 184.615 C 307.410 184.954,306.993 185.231,306.695 185.231 C 306.397 185.231,306.154 185.405,306.154 185.619 C 306.154 185.832,305.747 186.343,305.249 186.754 C 304.751 187.165,304.407 187.604,304.485 187.730 C 304.562 187.855,304.463 188.058,304.265 188.180 C 304.040 188.319,303.987 188.269,304.124 188.048 C 304.252 187.841,304.157 187.692,303.897 187.692 C 303.384 187.692,303.077 188.336,303.077 189.410 C 303.077 190.319,303.188 190.326,304.525 189.499 C 305.723 188.759,306.143 188.960,306.243 190.322 C 306.301 191.118,306.195 191.224,305.155 191.400 C 303.713 191.644,302.782 192.445,302.995 193.258 C 303.244 194.212,304.104 194.511,305.603 194.166 C 306.329 193.998,307.027 193.858,307.154 193.854 C 307.281 193.850,307.385 194.404,307.385 195.085 L 307.385 196.325 305.390 196.120 C 303.484 195.925,303.384 195.949,303.123 196.650 C 302.654 197.913,303.254 198.432,305.754 198.925 C 306.671 199.106,306.718 199.175,306.437 199.944 C 306.271 200.398,306.073 200.946,305.997 201.162 C 305.897 201.446,305.520 201.340,304.628 200.777 C 303.131 199.832,301.963 199.763,301.696 200.604 C 301.410 201.504,302.022 202.382,303.438 203.104 L 304.701 203.749 303.720 204.720 L 302.739 205.692 301.656 204.520 C 299.449 202.131,297.715 203.748,299.832 206.221 L 300.939 207.514 299.792 208.205 L 298.646 208.897 298.215 207.602 C 297.693 206.038,297.025 205.231,296.253 205.231 C 295.264 205.231,294.952 206.473,295.521 208.148 C 296.100 209.854,296.167 209.707,294.692 209.973 L 293.538 210.182 293.538 208.654 C 293.538 206.603,293.323 206.154,292.336 206.154 C 291.121 206.154,290.769 206.694,290.769 208.559 C 290.769 210.137,290.732 210.216,290.077 210.040 C 289.696 209.938,289.158 209.853,288.881 209.850 C 288.418 209.846,288.415 209.694,288.841 208.000 C 289.358 205.950,289.070 205.118,287.905 205.293 C 287.249 205.391,287.098 205.600,286.228 207.610 L 285.664 208.911 284.542 208.149 C 283.537 207.466,283.432 207.446,283.531 207.963 C 283.604 208.339,283.384 208.657,282.898 208.878 C 282.489 209.065,282.154 209.428,282.154 209.686 C 282.154 209.943,281.938 210.154,281.674 210.154 C 281.410 210.154,281.279 210.291,281.382 210.458 C 281.490 210.632,281.367 210.684,281.093 210.579 C 280.830 210.478,280.615 210.549,280.615 210.736 C 280.615 210.924,280.788 211.088,281.000 211.102 C 281.212 211.116,280.969 211.317,280.462 211.550 C 279.954 211.782,279.746 211.981,280.000 211.991 C 280.400 212.007,280.402 212.047,280.015 212.292 C 279.769 212.448,279.434 212.492,279.270 212.391 C 279.094 212.282,279.059 212.433,279.186 212.762 C 279.363 213.226,279.323 213.255,278.943 212.939 C 278.562 212.623,278.506 212.664,278.607 213.186 C 278.696 213.648,278.603 213.763,278.251 213.628 C 277.869 213.481,277.821 213.591,278.009 214.182 C 278.226 214.866,278.202 214.885,277.679 214.459 C 277.172 214.046,277.135 214.052,277.308 214.513 C 277.508 215.048,276.796 215.533,276.280 215.214 C 276.018 215.052,275.865 215.505,275.976 216.115 C 276.003 216.262,275.812 216.301,275.551 216.201 C 275.252 216.087,275.077 216.192,275.077 216.486 C 275.077 216.980,273.595 218.514,273.269 218.358 C 273.163 218.308,272.736 218.594,272.319 218.995 C 271.818 219.476,271.740 219.655,272.088 219.521 C 272.390 219.405,272.615 219.464,272.615 219.659 C 272.615 219.847,272.479 220.000,272.311 220.000 C 271.838 220.000,270.782 221.003,270.957 221.286 C 271.043 221.425,270.724 221.548,270.249 221.560 C 269.525 221.578,269.482 221.620,269.984 221.816 C 270.601 222.058,270.557 222.089,268.923 222.579 C 268.178 222.802,267.990 223.155,268.370 223.616 C 268.704 224.021,268.694 224.075,268.310 223.948 C 268.058 223.865,267.677 223.971,267.464 224.184 C 267.002 224.646,266.949 225.038,267.385 224.769 C 268.056 224.354,267.643 224.884,266.932 225.350 C 266.221 225.816,266.184 225.813,266.355 225.309 C 266.477 224.947,266.366 224.999,266.017 225.467 C 265.731 225.850,265.346 226.071,265.162 225.958 C 264.963 225.834,264.916 225.894,265.048 226.106 C 265.168 226.302,265.136 226.462,264.975 226.462 C 264.815 226.462,264.703 226.635,264.726 226.846 C 264.750 227.058,264.700 227.236,264.615 227.243 C 264.305 227.267,262.778 228.727,262.918 228.867 C 262.997 228.946,263.276 228.833,263.538 228.616 C 263.936 228.286,263.984 228.298,263.833 228.694 C 263.733 228.954,263.318 229.231,262.912 229.308 C 262.431 229.400,262.239 229.331,262.362 229.109 C 262.466 228.922,262.360 228.948,262.125 229.167 C 261.761 229.505,261.766 229.612,262.156 229.886 C 262.523 230.143,262.481 230.178,261.946 230.062 C 261.495 229.963,261.325 230.042,261.425 230.302 C 261.507 230.515,261.289 230.763,260.940 230.854 C 260.592 230.945,260.308 231.248,260.308 231.528 C 260.308 231.807,260.179 231.957,260.021 231.859 C 259.864 231.762,259.635 231.844,259.512 232.043 C 259.373 232.268,259.423 232.320,259.645 232.183 C 260.185 231.849,260.070 232.275,259.385 233.147 C 258.960 233.687,258.769 233.781,258.769 233.452 C 258.769 233.189,258.942 232.905,259.154 232.819 C 259.415 232.714,259.424 232.656,259.181 232.640 C 258.645 232.603,257.232 234.415,257.418 234.900 C 257.613 235.407,257.048 235.835,256.772 235.390 C 256.400 234.788,255.969 235.060,256.304 235.685 C 256.578 236.197,256.547 236.262,256.110 236.095 C 255.786 235.970,255.667 236.017,255.792 236.221 C 256.125 236.758,255.159 237.374,254.648 236.950 C 254.307 236.667,254.228 236.706,254.263 237.136 C 254.288 237.434,254.146 237.681,253.949 237.685 C 253.101 237.702,252.703 238.926,253.451 239.214 C 253.772 239.337,312.479 239.485,321.876 239.387 C 323.160 239.373,323.385 238.350,323.385 232.502 L 323.385 226.769 321.769 226.756 C 317.059 226.716,314.382 224.141,314.487 219.751 C 314.587 215.627,317.134 213.231,321.420 213.231 L 323.385 213.231 323.385 195.264 C 323.385 175.014,323.655 176.923,320.790 176.923 C 319.682 176.923,318.740 176.695,317.815 176.204 C 317.071 175.809,316.288 175.544,316.077 175.615 M298.599 192.116 C 298.711 192.472,298.571 192.856,298.236 193.117 C 297.814 193.445,297.801 193.502,298.179 193.372 C 298.477 193.270,298.667 193.378,298.667 193.650 C 298.667 193.895,298.508 194.034,298.314 193.960 C 298.120 193.886,297.774 194.175,297.544 194.604 C 297.315 195.033,297.062 195.318,296.981 195.238 C 296.901 195.157,297.028 194.846,297.264 194.546 C 297.644 194.061,297.637 194.043,297.202 194.382 C 296.933 194.592,296.599 194.661,296.461 194.536 C 296.322 194.410,296.303 194.471,296.417 194.671 C 296.532 194.871,296.475 195.127,296.292 195.241 C 296.108 195.354,296.031 195.636,296.119 195.867 C 296.208 196.099,296.127 196.383,295.939 196.499 C 295.732 196.627,295.684 196.570,295.817 196.355 C 296.203 195.730,295.692 195.974,294.833 196.824 C 294.375 197.277,294.265 197.450,294.588 197.208 C 295.142 196.794,295.152 196.808,294.757 197.442 C 294.527 197.811,294.227 198.045,294.090 197.960 C 293.953 197.876,293.635 198.013,293.383 198.266 C 292.976 198.672,292.985 198.740,293.462 198.865 C 293.780 198.948,293.640 199.020,293.121 199.041 C 292.493 199.067,292.290 199.203,292.411 199.517 C 292.529 199.825,292.400 199.923,291.982 199.843 C 291.614 199.772,291.385 199.898,291.385 200.172 C 291.385 200.416,291.229 200.581,291.038 200.538 C 290.848 200.496,290.621 200.657,290.535 200.895 C 290.424 201.200,290.532 201.270,290.897 201.129 C 291.211 201.009,291.340 201.053,291.224 201.242 C 291.117 201.414,290.813 201.516,290.547 201.470 C 290.281 201.423,290.010 201.539,289.943 201.728 C 289.518 202.936,294.921 202.200,296.757 200.800 C 299.055 199.047,300.208 194.455,298.891 192.308 C 298.611 191.852,298.493 191.774,298.599 192.116 M105.616 200.462 C 105.619 201.138,105.682 201.379,105.756 200.996 C 105.830 200.614,105.827 200.060,105.750 199.766 C 105.673 199.471,105.613 199.785,105.616 200.462 M319.374 216.466 C 317.038 217.251,316.440 220.728,318.318 222.605 L 319.405 223.692 326.005 223.692 L 332.606 223.692 333.611 222.794 C 335.080 221.482,335.104 218.655,333.659 217.209 L 332.703 216.253 326.502 216.203 C 322.984 216.175,319.900 216.289,319.374 216.466 M236.764 255.069 C 236.856 255.218,236.635 255.435,236.272 255.550 C 235.753 255.714,235.703 255.818,236.036 256.029 C 236.380 256.246,236.364 256.299,235.956 256.303 C 234.371 256.318,234.740 264.625,236.405 266.414 C 237.836 267.951,238.165 267.999,247.603 268.065 C 260.080 268.152,260.000 268.204,260.000 259.869 L 260.000 254.756 248.298 254.777 C 241.616 254.788,236.668 254.914,236.764 255.069 M298.978 254.971 C 298.863 255.086,298.769 257.414,298.769 260.146 C 298.769 268.033,298.765 268.031,310.949 268.125 C 323.604 268.223,323.817 268.073,323.630 259.231 L 323.538 254.923 311.362 254.843 C 304.666 254.798,299.093 254.856,298.978 254.971 M277.017 275.679 C 275.052 276.877,274.934 277.329,274.823 284.057 L 274.723 290.143 241.592 290.182 C 203.565 290.227,201.219 290.291,200.773 291.308 C 200.606 291.688,200.356 292.000,200.217 292.000 C 200.077 292.000,200.062 291.840,200.183 291.645 C 200.315 291.432,200.268 291.373,200.066 291.497 C 199.881 291.612,199.784 291.983,199.849 292.322 C 199.914 292.662,199.837 292.858,199.676 292.759 C 199.516 292.660,199.385 292.743,199.385 292.943 C 199.385 293.199,199.231 293.182,198.864 292.884 C 198.420 292.523,198.382 292.526,198.607 292.898 C 198.811 293.237,198.739 293.285,198.291 293.113 C 197.972 292.991,197.806 292.985,197.922 293.101 C 198.223 293.402,197.566 294.515,197.215 294.298 C 197.055 294.199,196.923 294.300,196.923 294.522 C 196.923 294.745,196.515 295.107,196.017 295.328 C 195.425 295.590,195.170 295.885,195.283 296.180 C 195.426 296.551,195.546 296.561,195.959 296.239 C 196.407 295.888,196.416 295.905,196.036 296.388 C 195.701 296.816,195.518 296.854,195.173 296.567 C 194.880 296.324,194.766 296.316,194.829 296.542 C 194.881 296.728,194.646 297.086,194.308 297.338 C 193.970 297.590,193.777 297.880,193.880 297.982 C 193.982 298.085,213.480 298.167,237.209 298.166 L 280.351 298.165 281.287 297.498 C 282.959 296.308,283.077 295.597,283.076 286.702 C 283.076 277.662,282.971 277.123,280.954 275.775 C 279.673 274.919,278.317 274.886,277.017 275.679 " stroke="none" fill="#47ccfb" fill-rule="evenodd"></path><path id="path2" d="M100.769 69.037 C 97.723 70.612,94.954 71.992,94.615 72.103 C 92.731 72.723,68.764 85.149,68.687 85.545 C 68.624 85.877,70.707 87.060,75.914 89.649 C 79.938 91.649,83.490 93.424,83.806 93.592 C 86.602 95.077,91.659 97.616,93.538 98.477 C 94.808 99.059,96.592 99.981,97.504 100.527 C 98.416 101.072,99.625 101.672,100.191 101.858 C 100.756 102.045,102.452 102.868,103.959 103.686 L 106.698 105.175 118.041 99.475 C 124.280 96.341,130.215 93.369,131.231 92.871 C 142.243 87.472,145.193 85.950,145.211 85.659 C 145.232 85.290,143.994 84.595,138.308 81.789 C 136.277 80.787,131.292 78.289,127.231 76.238 C 123.169 74.188,119.503 72.361,119.084 72.178 C 118.665 71.996,117.003 71.169,115.392 70.341 C 105.601 65.311,107.624 65.492,100.769 69.037 M66.769 107.065 L 66.769 126.438 68.231 127.159 C 69.035 127.555,71.423 128.777,73.538 129.873 C 75.654 130.970,78.423 132.362,79.692 132.968 C 80.962 133.573,87.123 136.650,93.385 139.805 C 99.646 142.960,104.942 145.476,105.154 145.396 C 105.456 145.281,105.538 141.124,105.538 126.033 L 105.538 106.817 102.385 105.273 C 100.650 104.424,98.331 103.255,97.231 102.675 C 95.719 101.878,82.832 95.415,75.538 91.796 C 75.200 91.628,73.235 90.636,71.171 89.592 C 69.108 88.547,67.273 87.692,67.095 87.692 C 66.869 87.692,66.769 93.657,66.769 107.065 M130.000 95.809 C 121.200 100.233,113.169 104.293,112.154 104.831 C 111.138 105.370,109.788 106.019,109.154 106.274 L 108.000 106.738 108.000 126.138 C 108.000 142.698,108.064 145.538,108.437 145.538 C 108.798 145.538,122.515 138.813,130.154 134.891 C 131.254 134.326,135.408 132.236,139.385 130.246 C 143.362 128.256,146.718 126.487,146.843 126.314 C 147.337 125.632,146.963 87.858,146.462 87.810 C 146.208 87.786,138.800 91.385,130.000 95.809 M164.069 104.509 C 161.058 106.000,160.622 109.339,163.171 111.385 L 164.129 112.154 186.834 112.229 C 204.759 112.288,209.546 112.223,209.573 111.921 C 209.591 111.711,209.579 111.211,209.546 110.812 C 209.508 110.356,209.610 110.162,209.820 110.291 C 210.003 110.405,210.157 110.732,210.161 111.018 C 210.165 111.311,210.387 111.094,210.670 110.520 C 211.033 109.782,211.242 109.613,211.427 109.905 C 211.608 110.190,211.684 110.199,211.688 109.938 C 211.690 109.735,211.450 109.414,211.154 109.225 C 210.670 108.916,210.681 108.894,211.264 109.016 C 212.028 109.174,212.925 108.740,212.918 108.215 C 212.915 107.990,212.798 108.025,212.615 108.308 C 212.364 108.696,212.316 108.678,212.312 108.195 C 212.309 107.762,212.467 107.662,212.954 107.789 C 213.475 107.926,213.569 107.844,213.444 107.364 C 213.358 107.037,213.414 106.692,213.567 106.598 C 213.721 106.503,213.846 106.580,213.846 106.769 C 213.846 106.958,213.987 107.026,214.159 106.920 C 214.331 106.814,214.393 106.599,214.297 106.444 C 214.201 106.288,214.306 106.232,214.531 106.318 C 214.756 106.404,215.214 106.253,215.547 105.982 C 216.041 105.580,216.056 105.519,215.625 105.654 C 215.335 105.745,215.013 105.683,214.910 105.517 C 214.807 105.351,214.838 105.235,214.977 105.260 C 215.600 105.368,216.020 105.205,215.846 104.923 C 215.742 104.754,215.837 104.601,216.059 104.584 C 216.280 104.567,215.977 104.436,215.385 104.293 C 213.132 103.752,165.190 103.953,164.069 104.509 M94.602 164.114 C 88.164 167.351,82.280 170.290,81.525 170.644 C 76.830 172.850,68.755 177.229,68.678 177.611 C 68.595 178.027,104.331 196.179,106.401 196.772 C 107.060 196.961,112.308 194.549,122.000 189.602 C 123.185 188.998,124.608 188.279,125.163 188.004 C 125.718 187.730,126.064 187.387,125.932 187.242 C 125.800 187.097,125.848 187.067,126.039 187.176 C 126.483 187.429,132.923 184.387,132.923 183.924 C 132.923 183.796,133.190 183.692,133.516 183.692 C 133.843 183.692,134.293 183.517,134.516 183.304 C 135.200 182.650,136.628 181.808,137.259 181.687 C 137.588 181.624,138.073 181.355,138.338 181.091 C 138.602 180.826,138.928 180.677,139.061 180.759 C 139.194 180.841,139.542 180.644,139.834 180.321 C 140.126 179.998,140.560 179.809,140.798 179.900 C 141.088 180.011,141.231 179.846,141.231 179.399 C 141.231 179.033,141.369 178.818,141.538 178.923 C 141.709 179.029,141.848 178.797,141.851 178.403 C 141.854 177.896,141.930 177.810,142.116 178.103 C 142.323 178.430,142.416 178.409,142.574 177.998 C 142.682 177.715,142.690 177.351,142.591 177.191 C 142.484 177.018,142.723 176.977,143.171 177.090 C 143.655 177.211,144.019 177.131,144.170 176.871 C 144.300 176.646,144.298 176.559,144.167 176.678 C 144.035 176.797,143.724 176.691,143.477 176.444 C 143.230 176.197,142.879 176.086,142.698 176.198 C 142.516 176.310,142.210 176.185,142.017 175.921 C 141.824 175.657,141.395 175.394,141.064 175.336 C 140.732 175.278,140.392 175.146,140.308 175.043 C 140.223 174.940,138.700 174.098,136.923 173.172 C 135.146 172.246,133.415 171.337,133.077 171.150 C 130.754 169.872,106.821 158.161,106.593 158.191 C 106.436 158.211,101.040 160.877,94.602 164.114 M66.769 199.193 C 66.769 214.183,66.853 218.452,67.154 218.685 C 67.627 219.052,68.017 219.250,78.301 224.347 C 82.866 226.609,86.792 228.417,87.024 228.364 C 87.259 228.310,87.356 228.412,87.243 228.595 C 87.062 228.889,87.450 229.059,88.077 228.960 C 88.204 228.939,88.308 229.070,88.308 229.249 C 88.308 229.428,88.446 229.489,88.615 229.385 C 88.785 229.280,88.923 229.319,88.923 229.471 C 88.923 229.623,89.241 229.892,89.629 230.069 C 90.474 230.454,92.000 229.798,92.000 229.049 C 92.000 228.755,91.856 228.666,91.615 228.810 C 91.309 228.994,91.308 228.946,91.613 228.569 C 91.823 228.310,91.927 228.030,91.845 227.947 C 91.762 227.865,92.006 227.809,92.386 227.822 C 92.784 227.836,93.044 227.683,93.000 227.462 C 92.958 227.250,93.131 227.077,93.385 227.077 C 93.638 227.077,93.846 226.938,93.846 226.769 C 93.846 226.600,94.115 226.462,94.443 226.462 C 94.772 226.462,95.125 226.325,95.229 226.157 C 95.336 225.983,95.213 225.931,94.939 226.036 C 94.676 226.137,94.462 226.069,94.462 225.885 C 94.462 225.701,94.808 225.463,95.231 225.357 C 95.654 225.251,96.000 225.032,96.000 224.872 C 96.000 224.711,95.827 224.683,95.615 224.810 C 95.322 224.986,95.312 224.936,95.574 224.598 C 95.763 224.354,96.007 223.946,96.116 223.692 C 96.236 223.413,96.269 223.483,96.199 223.872 C 96.134 224.235,96.248 224.513,96.462 224.513 C 96.669 224.513,96.779 224.284,96.706 224.004 C 96.632 223.724,96.825 223.304,97.132 223.070 C 97.612 222.706,97.637 222.707,97.308 223.076 C 97.096 223.314,96.923 223.637,96.923 223.795 C 96.923 224.255,98.202 222.502,98.294 221.915 C 98.347 221.582,98.593 221.424,98.958 221.491 C 99.277 221.549,99.434 221.491,99.307 221.362 C 99.035 221.086,99.942 219.996,100.432 220.009 C 100.618 220.015,100.527 220.160,100.231 220.332 C 99.935 220.505,99.694 220.812,99.697 221.015 C 99.700 221.267,99.774 221.280,99.928 221.054 C 100.052 220.873,100.396 220.635,100.692 220.526 C 101.384 220.270,101.384 219.778,100.692 219.597 C 100.195 219.467,100.196 219.453,100.710 219.420 C 101.017 219.401,101.191 219.262,101.098 219.112 C 101.006 218.962,101.171 218.650,101.465 218.419 C 101.943 218.045,101.957 218.055,101.600 218.511 C 101.332 218.855,101.306 219.087,101.524 219.222 C 101.701 219.331,101.846 219.259,101.846 219.062 C 101.846 218.865,102.054 218.783,102.308 218.881 C 102.562 218.978,102.769 218.935,102.769 218.785 C 102.769 218.635,102.853 218.293,102.956 218.025 C 103.084 217.693,102.962 217.531,102.571 217.514 C 102.230 217.500,102.159 217.426,102.395 217.331 C 102.612 217.244,102.981 217.331,103.214 217.524 C 103.505 217.766,103.700 217.775,103.837 217.553 C 103.947 217.376,103.894 217.231,103.720 217.231 C 103.352 217.231,103.653 216.253,104.117 215.943 C 104.706 215.550,104.963 216.057,104.403 216.508 C 103.890 216.922,103.900 216.931,104.538 216.622 C 105.348 216.229,105.466 215.385,104.710 215.385 C 104.233 215.385,104.235 215.352,104.733 214.988 C 105.218 214.633,105.294 213.762,105.451 206.753 L 105.627 198.915 101.044 196.672 C 98.524 195.438,96.046 194.205,95.538 193.932 C 90.738 191.347,67.762 180.000,67.330 180.000 C 66.793 180.000,66.769 180.822,66.769 199.193 M134.656 185.699 C 134.551 185.970,134.326 186.107,134.156 186.001 C 133.986 185.896,133.846 185.952,133.846 186.126 C 133.846 186.300,133.616 186.354,133.334 186.246 C 133.014 186.123,132.898 186.172,133.024 186.376 C 133.145 186.571,132.792 186.783,132.143 186.905 C 131.547 187.017,131.131 187.223,131.217 187.363 C 131.304 187.503,130.978 187.697,130.494 187.794 C 130.009 187.890,129.398 188.184,129.136 188.446 C 128.874 188.709,128.473 188.923,128.244 188.923 C 128.016 188.923,127.487 189.163,127.069 189.456 C 126.651 189.749,126.170 190.001,126.000 190.016 C 125.148 190.094,123.717 190.867,123.894 191.154 C 124.010 191.342,123.949 191.389,123.749 191.266 C 123.319 191.000,121.538 191.887,121.538 192.367 C 121.538 192.560,121.454 192.634,121.351 192.531 C 121.201 192.381,117.565 194.020,115.055 195.369 C 114.598 195.615,113.376 196.232,109.616 198.114 L 108.001 198.923 108.001 205.308 C 108.000 210.208,108.089 211.693,108.385 211.697 C 108.668 211.700,108.659 211.772,108.352 211.966 C 108.122 212.112,108.054 212.305,108.201 212.396 C 108.549 212.611,109.593 211.849,109.321 211.578 C 109.207 211.464,109.417 211.158,109.788 210.899 C 110.158 210.639,110.462 210.217,110.462 209.961 C 110.462 209.654,110.698 209.529,111.154 209.594 C 111.629 209.662,111.967 209.465,112.231 208.965 C 112.756 207.971,112.714 207.676,112.077 207.905 C 111.497 208.113,111.530 208.065,112.444 207.374 C 112.971 206.976,113.009 206.977,112.769 207.385 C 112.532 207.787,112.566 207.790,113.032 207.412 C 113.458 207.066,113.486 206.919,113.168 206.693 C 112.892 206.496,112.982 206.455,113.461 206.560 C 113.842 206.643,114.232 206.584,114.329 206.428 C 114.425 206.272,114.668 206.237,114.867 206.352 C 115.067 206.467,115.128 206.447,115.003 206.308 C 114.877 206.170,114.927 205.873,115.114 205.648 C 115.301 205.423,115.368 204.995,115.264 204.696 C 115.105 204.239,115.149 204.248,115.539 204.753 C 115.924 205.250,116.067 205.281,116.386 204.938 C 116.619 204.687,116.631 204.602,116.417 204.722 C 116.223 204.831,115.973 204.682,115.862 204.392 C 115.751 204.102,115.753 203.959,115.868 204.073 C 116.147 204.352,118.154 202.801,118.154 202.307 C 118.154 202.092,118.500 201.690,118.923 201.413 C 119.346 201.136,119.692 201.039,119.692 201.198 C 119.692 201.357,119.519 201.557,119.308 201.642 C 119.024 201.757,119.020 201.804,119.293 201.822 C 119.497 201.835,119.893 201.362,120.174 200.769 C 120.456 200.177,120.877 199.692,121.112 199.692 C 121.347 199.692,121.538 199.546,121.538 199.366 C 121.538 199.187,121.402 199.125,121.234 199.229 C 121.063 199.334,121.006 199.218,121.104 198.963 C 121.200 198.713,121.483 198.431,121.732 198.335 C 122.024 198.223,122.117 198.296,121.993 198.542 C 121.887 198.752,121.998 198.683,122.238 198.389 C 122.479 198.096,122.763 197.943,122.869 198.049 C 122.976 198.155,123.161 197.980,123.281 197.659 C 123.556 196.930,124.364 196.306,124.736 196.536 C 124.891 196.632,124.925 196.560,124.812 196.376 C 124.698 196.193,124.748 195.954,124.923 195.846 C 125.098 195.738,125.167 195.530,125.077 195.384 C 124.987 195.238,125.167 194.936,125.477 194.713 C 125.787 194.490,126.134 194.057,126.249 193.750 C 126.364 193.442,126.611 193.287,126.800 193.404 C 127.041 193.553,127.019 193.702,126.725 193.908 C 126.387 194.145,126.396 194.177,126.769 194.075 C 127.023 194.006,127.247 193.640,127.267 193.262 C 127.320 192.239,128.923 191.081,128.923 192.065 C 128.923 192.251,129.120 192.220,129.398 191.989 C 129.727 191.716,129.774 191.497,129.552 191.275 C 129.179 190.902,129.126 190.445,129.462 190.498 C 130.265 190.625,130.732 190.415,130.573 190.000 C 130.358 189.439,130.801 189.396,131.368 189.923 C 131.700 190.231,131.739 190.231,131.565 189.923 C 131.445 189.710,131.510 189.538,131.712 189.538 C 131.991 189.538,131.991 189.437,131.712 189.101 C 131.417 188.745,131.457 188.692,131.931 188.816 C 132.320 188.917,132.513 188.807,132.513 188.484 C 132.513 188.218,132.389 188.000,132.238 188.000 C 132.087 188.000,132.055 187.852,132.167 187.671 C 132.279 187.491,132.571 187.420,132.816 187.514 C 133.062 187.608,133.187 187.563,133.095 187.413 C 132.827 186.980,133.731 186.780,134.161 187.178 C 134.464 187.457,134.500 187.447,134.323 187.134 C 134.191 186.902,134.323 186.477,134.635 186.133 C 134.932 185.804,135.101 185.460,135.010 185.369 C 134.920 185.279,134.760 185.427,134.656 185.699 M128.123 192.231 C 128.244 192.442,128.220 192.615,128.069 192.615 C 127.918 192.615,127.795 192.810,127.795 193.048 C 127.795 193.285,127.966 193.414,128.175 193.334 C 128.589 193.175,128.584 192.467,128.165 192.086 C 128.020 191.954,128.001 192.019,128.123 192.231 " stroke="none" fill="#e0b4fc" fill-rule="evenodd"></path><path id="path3" d="M282.308 111.077 C 282.203 111.246,282.274 111.385,282.465 111.385 C 282.673 111.385,282.628 111.570,282.352 111.846 C 282.098 112.100,281.727 112.308,281.528 112.308 C 281.328 112.308,281.244 112.514,281.341 112.766 C 281.437 113.017,281.417 113.209,281.297 113.191 C 280.744 113.108,280.224 113.250,280.408 113.433 C 280.731 113.757,279.982 114.462,279.314 114.462 C 278.863 114.462,278.756 114.600,278.906 114.991 C 279.018 115.282,279.010 115.420,278.887 115.298 C 278.576 114.986,277.510 116.013,277.747 116.396 C 277.859 116.577,277.789 116.617,277.583 116.489 C 277.372 116.359,277.132 116.521,276.997 116.885 C 276.872 117.224,276.631 117.510,276.462 117.520 C 276.292 117.530,276.150 117.642,276.146 117.769 C 276.112 118.736,275.414 119.205,275.116 118.462 C 274.653 117.305,274.706 123.260,275.171 124.587 C 276.241 127.641,281.070 127.861,282.538 124.923 C 282.999 123.999,283.076 122.916,283.076 117.308 C 283.077 111.312,282.925 110.079,282.308 111.077 M257.077 137.462 C 255.955 137.621,255.304 138.114,255.509 138.649 C 255.598 138.881,255.497 138.983,255.264 138.893 C 254.904 138.755,254.000 139.526,254.000 139.970 C 254.000 140.071,253.822 140.134,253.605 140.109 C 253.286 140.073,253.285 140.164,253.594 140.571 C 253.806 140.849,253.853 140.969,253.698 140.837 C 253.543 140.704,253.231 140.912,253.003 141.298 L 252.590 142.000 252.787 141.277 C 253.079 140.206,251.969 141.358,251.411 142.706 C 251.186 143.248,250.803 143.692,250.560 143.692 C 250.293 143.692,250.205 143.540,250.339 143.308 C 250.467 143.084,250.443 143.031,250.280 143.179 C 250.126 143.321,249.983 143.563,249.962 143.718 C 249.940 143.873,249.906 144.147,249.885 144.326 C 249.863 144.505,249.731 144.580,249.590 144.493 C 249.449 144.406,249.333 144.536,249.333 144.783 C 249.333 145.171,252.347 145.231,271.888 145.231 C 292.850 145.231,294.428 145.194,294.245 144.716 C 294.092 144.318,294.171 144.248,294.590 144.409 C 294.982 144.560,295.181 144.439,295.301 143.978 C 295.393 143.626,295.800 143.212,296.204 143.058 C 296.608 142.904,297.025 142.534,297.129 142.235 C 297.385 141.506,299.386 139.692,299.935 139.692 C 300.205 139.692,300.303 139.509,300.190 139.215 C 300.085 138.941,300.137 138.817,300.311 138.925 C 300.479 139.029,300.615 138.889,300.615 138.615 C 300.615 138.342,300.726 138.186,300.861 138.270 C 300.997 138.353,301.276 138.152,301.482 137.822 C 301.836 137.256,260.872 136.923,257.077 137.462 M242.769 151.095 C 242.769 151.274,242.631 151.335,242.462 151.231 C 242.150 151.038,242.026 151.463,242.147 152.308 C 242.183 152.562,242.118 152.677,242.004 152.564 C 241.889 152.451,241.524 152.629,241.194 152.960 C 240.863 153.290,240.460 153.478,240.296 153.378 C 240.133 153.277,240.000 153.320,240.000 153.473 C 240.000 153.627,239.723 154.071,239.385 154.462 C 239.046 154.852,238.769 155.384,238.769 155.644 C 238.769 156.015,238.669 155.988,238.307 155.520 C 237.994 155.116,237.899 155.081,238.013 155.412 C 238.106 155.681,237.941 156.097,237.647 156.335 C 237.191 156.706,237.151 156.706,237.373 156.337 C 237.553 156.038,237.520 155.975,237.266 156.132 C 237.058 156.261,236.979 156.649,237.085 157.026 C 237.235 157.562,237.206 157.602,236.936 157.231 C 236.651 156.838,236.488 156.906,235.851 157.682 C 235.306 158.346,235.203 158.659,235.474 158.831 C 235.730 158.994,235.680 159.069,235.314 159.072 C 234.454 159.080,234.442 159.449,234.531 182.769 C 234.607 202.853,234.661 204.982,235.077 204.127 C 235.356 203.552,235.709 203.235,235.972 203.323 C 236.265 203.421,236.345 203.312,236.220 202.984 C 236.091 202.647,236.240 202.468,236.709 202.396 C 237.081 202.340,237.350 202.123,237.308 201.916 C 237.265 201.708,237.414 201.538,237.639 201.538 C 238.223 201.538,239.487 200.108,239.247 199.719 C 239.121 199.515,239.235 199.464,239.546 199.584 C 239.914 199.725,240.020 199.623,239.946 199.196 C 239.878 198.800,240.017 198.629,240.381 198.658 C 240.676 198.681,240.850 198.593,240.769 198.462 C 240.553 198.112,241.457 197.452,241.833 197.684 C 242.009 197.793,242.154 197.687,242.154 197.448 C 242.154 197.209,242.500 196.639,242.923 196.183 C 243.346 195.726,243.692 195.207,243.692 195.028 C 243.692 194.850,243.896 194.782,244.146 194.877 C 244.473 195.003,244.750 194.626,245.141 193.526 C 245.439 192.687,245.858 192.000,246.072 192.000 C 246.286 192.000,246.462 191.893,246.462 191.763 C 246.462 191.632,247.085 191.185,247.846 190.769 C 248.608 190.353,249.231 189.898,249.231 189.757 C 249.231 189.617,249.369 189.588,249.538 189.692 C 249.708 189.797,249.846 189.670,249.846 189.411 C 249.846 189.151,250.266 188.722,250.779 188.456 C 251.293 188.191,251.630 187.841,251.530 187.679 C 251.430 187.517,251.579 187.385,251.861 187.385 C 252.190 187.385,252.310 187.220,252.196 186.923 C 252.099 186.669,252.142 186.462,252.292 186.462 C 252.442 186.462,252.634 186.635,252.719 186.846 C 252.805 187.058,252.885 186.909,252.899 186.516 C 252.929 185.633,253.708 184.807,254.228 185.107 C 254.441 185.229,254.520 185.223,254.403 185.094 C 254.132 184.792,255.393 183.521,256.226 183.257 C 256.576 183.146,256.951 182.701,257.059 182.269 C 257.195 181.728,257.403 181.539,257.725 181.662 C 258.082 181.799,258.147 181.694,257.997 181.221 C 257.888 180.879,257.914 180.631,258.054 180.669 C 258.657 180.832,259.652 180.253,259.491 179.833 C 259.397 179.589,259.542 179.305,259.812 179.201 C 260.083 179.097,260.233 178.898,260.147 178.758 C 260.061 178.618,260.152 178.404,260.350 178.281 C 260.575 178.142,260.628 178.192,260.491 178.414 C 260.361 178.624,260.467 178.769,260.751 178.769 C 261.168 178.769,261.386 178.216,261.267 177.462 C 261.232 177.238,261.659 177.151,262.028 177.308 C 262.128 177.350,262.412 177.000,262.658 176.529 C 262.904 176.059,263.228 175.750,263.378 175.842 C 263.527 175.934,263.750 175.848,263.872 175.650 C 264.011 175.425,263.962 175.372,263.740 175.509 C 263.544 175.630,263.385 175.588,263.385 175.417 C 263.385 175.246,263.864 174.878,264.450 174.600 C 265.036 174.322,265.594 173.849,265.689 173.549 C 265.784 173.250,266.159 172.744,266.522 172.425 C 266.886 172.107,267.068 172.041,266.928 172.278 C 266.752 172.579,266.789 172.640,267.050 172.478 C 267.257 172.350,267.346 172.035,267.247 171.778 C 267.116 171.436,267.224 171.351,267.649 171.462 C 268.110 171.583,268.201 171.480,268.088 170.961 C 267.982 170.471,268.022 170.414,268.247 170.733 C 268.489 171.074,268.589 171.029,268.756 170.502 C 268.871 170.141,269.171 169.846,269.424 169.846 C 269.676 169.846,269.804 169.719,269.708 169.563 C 269.488 169.208,270.363 168.308,270.927 168.308 C 271.159 168.308,271.447 168.148,271.568 167.952 C 271.704 167.732,271.652 167.681,271.432 167.817 C 271.237 167.938,271.077 167.904,271.077 167.743 C 271.077 167.454,271.866 167.001,272.462 166.950 C 272.631 166.935,272.774 166.785,272.780 166.615 C 272.803 165.987,273.662 164.990,274.052 165.140 C 274.275 165.225,274.542 165.073,274.646 164.801 C 274.750 164.530,275.043 164.308,275.297 164.308 C 275.587 164.308,275.690 164.131,275.575 163.830 C 275.455 163.518,275.515 163.429,275.748 163.573 C 275.986 163.720,276.039 163.623,275.908 163.281 C 275.774 162.932,275.872 162.769,276.215 162.769 C 276.492 162.769,276.632 162.684,276.527 162.579 C 276.257 162.308,277.095 161.538,277.661 161.538 C 277.976 161.538,278.069 161.367,277.938 161.026 C 277.815 160.705,277.864 160.590,278.069 160.717 C 278.250 160.828,278.480 160.704,278.581 160.440 C 278.682 160.177,278.883 160.034,279.028 160.124 C 279.357 160.327,280.638 158.895,280.369 158.625 C 280.261 158.517,280.411 158.520,280.702 158.632 C 281.095 158.783,281.231 158.675,281.231 158.208 C 281.231 157.856,281.494 157.496,281.830 157.390 C 282.193 157.274,282.363 157.023,282.259 156.753 C 282.137 156.435,282.315 156.308,282.884 156.308 C 283.482 156.308,283.730 156.111,283.878 155.520 C 284.001 155.031,284.233 154.793,284.490 154.891 C 285.012 155.092,285.400 154.496,285.270 153.692 C 285.215 153.354,285.276 153.180,285.405 153.307 C 285.533 153.433,285.891 153.121,286.200 152.613 C 286.509 152.105,286.936 151.725,287.150 151.768 C 287.364 151.811,287.506 151.678,287.465 151.473 C 287.423 151.257,287.585 151.173,287.850 151.275 C 288.102 151.371,288.308 151.297,288.308 151.110 C 288.308 150.864,281.980 150.769,265.538 150.769 C 249.718 150.769,242.769 150.869,242.769 151.095 M228.068 165.710 C 227.692 165.973,227.385 166.329,227.385 166.501 C 227.385 166.673,227.602 166.596,227.868 166.330 C 228.560 165.638,228.815 165.731,228.173 166.441 C 227.877 166.768,227.454 166.966,227.234 166.882 C 227.013 166.797,226.633 167.013,226.389 167.362 C 226.145 167.711,225.834 167.893,225.700 167.767 C 225.565 167.641,225.519 167.745,225.598 167.997 C 225.755 168.498,225.174 169.231,224.619 169.231 C 224.428 169.231,224.334 169.335,224.411 169.462 C 224.488 169.588,224.358 169.871,224.122 170.089 C 223.885 170.307,223.692 170.406,223.692 170.308 C 223.692 170.210,223.499 170.308,223.263 170.526 C 223.027 170.745,222.881 171.002,222.939 171.097 C 222.996 171.193,222.636 171.513,222.137 171.807 C 221.639 172.102,221.231 172.467,221.231 172.619 C 221.231 172.771,220.885 173.241,220.462 173.664 C 220.038 174.087,219.673 174.613,219.649 174.832 C 219.625 175.051,219.506 174.677,219.385 174.000 C 219.263 173.323,219.145 183.162,219.121 195.864 C 219.083 215.985,219.136 219.036,219.539 219.557 C 219.987 220.136,219.995 220.136,219.795 219.565 C 219.650 219.152,219.698 219.044,219.955 219.203 C 220.158 219.328,220.287 219.316,220.243 219.177 C 220.146 218.866,221.881 217.093,222.308 217.068 C 222.477 217.057,222.581 216.882,222.538 216.678 C 222.496 216.474,222.608 216.308,222.787 216.308 C 222.967 216.308,223.014 216.148,222.894 215.952 C 222.753 215.725,222.810 215.681,223.050 215.830 C 223.288 215.976,223.486 215.834,223.588 215.444 C 223.676 215.104,224.027 214.753,224.367 214.665 C 224.707 214.576,224.895 214.357,224.784 214.178 C 224.661 213.979,224.773 213.926,225.074 214.041 C 225.386 214.161,225.531 214.082,225.474 213.821 C 225.425 213.596,225.546 213.406,225.744 213.399 C 225.941 213.391,226.218 213.259,226.359 213.105 C 226.508 212.942,226.454 212.917,226.231 213.046 C 226.019 213.167,225.846 213.120,225.846 212.941 C 225.846 212.762,225.985 212.615,226.154 212.615 C 226.323 212.615,226.565 212.590,226.692 212.559 C 227.055 212.471,228.000 211.174,228.000 210.765 C 228.000 210.562,228.204 210.474,228.454 210.570 C 228.851 210.722,228.909 207.915,228.919 187.987 C 228.925 175.471,228.890 165.231,228.841 165.231 C 228.792 165.231,228.445 165.446,228.068 165.710 M131.385 262.749 C 131.385 262.919,131.154 262.969,130.873 262.861 C 130.528 262.729,130.433 262.783,130.583 263.025 C 130.718 263.243,130.609 263.385,130.308 263.385 C 130.034 263.385,129.878 263.495,129.962 263.630 C 130.045 263.765,129.986 264.077,129.831 264.322 C 129.616 264.662,129.547 264.671,129.543 264.363 C 129.540 264.057,129.419 264.075,129.057 264.437 C 128.793 264.702,128.640 265.023,128.717 265.151 C 128.795 265.280,128.676 265.554,128.452 265.760 C 128.132 266.056,128.018 266.056,127.915 265.760 C 127.843 265.554,127.685 265.827,127.564 266.367 C 127.405 267.076,127.213 267.299,126.875 267.170 C 126.595 267.062,126.102 267.317,125.652 267.803 C 125.237 268.250,125.059 268.615,125.256 268.615 C 125.885 268.615,124.976 269.458,124.113 269.675 C 123.563 269.813,123.384 270.016,123.514 270.355 C 123.645 270.695,123.563 270.786,123.238 270.661 C 122.970 270.558,122.807 270.640,122.850 270.857 C 122.890 271.063,122.755 271.198,122.550 271.158 C 122.330 271.114,122.250 271.278,122.357 271.555 C 122.471 271.853,122.382 271.992,122.115 271.936 C 121.882 271.886,121.729 272.026,121.774 272.245 C 121.822 272.477,121.628 272.606,121.313 272.553 C 120.931 272.489,120.798 272.631,120.867 273.031 C 120.921 273.350,120.829 273.517,120.657 273.410 C 120.488 273.306,120.262 273.364,120.154 273.538 C 120.046 273.713,119.815 273.768,119.640 273.660 C 119.466 273.552,119.498 273.792,119.712 274.194 C 120.059 274.845,120.049 274.880,119.616 274.524 C 119.070 274.073,118.580 274.522,118.955 275.129 C 119.106 275.373,119.008 275.424,118.650 275.287 C 118.359 275.175,118.189 275.193,118.271 275.326 C 118.354 275.459,118.294 275.769,118.138 276.015 C 117.944 276.321,117.854 276.341,117.851 276.077 C 117.848 275.865,117.703 275.692,117.528 275.692 C 117.312 275.692,117.315 275.890,117.538 276.308 C 117.804 276.803,117.772 276.923,117.377 276.923 C 117.106 276.923,116.978 276.775,117.091 276.593 C 117.204 276.410,117.014 276.438,116.667 276.654 C 116.322 276.870,116.096 277.137,116.164 277.247 C 116.232 277.357,116.074 277.711,115.813 278.032 C 115.553 278.353,115.440 278.421,115.563 278.183 C 115.714 277.892,115.667 277.826,115.417 277.980 C 115.131 278.157,115.130 278.308,115.413 278.650 C 115.704 279.000,115.691 279.057,115.349 278.926 C 115.095 278.828,114.792 279.046,114.609 279.457 C 114.389 279.952,114.077 280.131,113.534 280.076 C 112.988 280.020,112.891 280.077,113.195 280.274 C 113.540 280.496,113.503 280.613,113.005 280.879 C 112.666 281.061,112.318 281.139,112.232 281.053 C 112.146 280.967,111.991 281.117,111.888 281.387 C 111.779 281.672,111.827 281.799,112.004 281.690 C 112.436 281.423,112.380 281.817,111.920 282.277 C 111.707 282.491,111.357 282.606,111.141 282.534 C 110.926 282.463,110.789 282.541,110.837 282.710 C 110.884 282.878,110.809 283.020,110.669 283.026 C 110.288 283.042,109.231 284.344,109.231 284.798 C 109.231 285.016,109.071 285.293,108.876 285.414 C 108.655 285.550,108.604 285.498,108.740 285.278 C 108.861 285.083,108.864 284.923,108.747 284.923 C 108.448 284.923,106.462 287.064,106.462 287.386 C 106.462 287.532,106.177 287.741,105.829 287.852 C 105.031 288.105,105.207 288.688,106.184 289.034 C 106.800 289.252,107.542 288.965,110.322 287.434 C 112.186 286.408,114.676 285.156,115.856 284.652 C 117.035 284.148,119.396 282.974,121.103 282.044 C 122.810 281.114,125.648 279.687,127.411 278.872 C 129.173 278.058,131.803 276.749,133.254 275.964 C 134.706 275.179,136.182 274.445,136.535 274.333 C 136.888 274.221,138.539 273.375,140.204 272.452 C 141.869 271.529,143.681 270.624,144.231 270.440 C 145.958 269.863,145.397 269.418,138.846 266.156 C 135.335 264.408,132.219 262.857,131.923 262.709 C 131.589 262.542,131.385 262.557,131.385 262.749 M144.308 272.758 C 143.546 273.162,141.815 274.030,140.462 274.687 C 137.238 276.252,121.343 284.189,120.154 284.828 C 118.551 285.689,113.459 288.210,111.538 289.093 C 110.523 289.559,109.312 290.206,108.846 290.530 L 108.000 291.119 108.000 310.310 C 108.000 329.311,108.006 329.500,108.615 329.454 C 108.954 329.428,109.231 329.275,109.231 329.114 C 109.231 328.953,109.314 328.903,109.415 329.005 C 109.680 329.270,111.959 326.978,111.762 326.645 C 111.671 326.492,111.746 326.458,111.928 326.571 C 112.109 326.683,112.460 326.573,112.708 326.325 C 112.955 326.078,113.251 325.968,113.364 326.082 C 113.478 326.196,113.479 326.049,113.367 325.756 C 113.204 325.333,113.280 325.268,113.735 325.439 C 114.258 325.635,114.268 325.604,113.846 325.075 C 113.592 324.757,113.549 324.596,113.750 324.717 C 114.186 324.978,116.560 322.758,116.390 322.248 C 116.327 322.058,116.421 321.812,116.599 321.702 C 116.777 321.592,116.927 321.683,116.933 321.905 C 116.940 322.191,117.052 322.165,117.317 321.816 C 117.524 321.545,117.831 321.303,118.000 321.277 C 118.169 321.252,118.308 321.127,118.308 321.000 C 118.308 320.664,119.640 319.385,119.990 319.385 C 120.154 319.385,120.209 319.177,120.111 318.923 C 119.999 318.631,120.116 318.462,120.429 318.462 C 120.701 318.462,120.923 318.250,120.923 317.990 C 120.923 317.731,121.131 317.439,121.385 317.342 C 121.638 317.245,121.846 316.957,121.846 316.703 C 121.846 316.420,122.024 316.310,122.308 316.419 C 122.562 316.516,122.769 316.468,122.769 316.312 C 122.769 315.957,124.100 314.612,125.097 313.959 C 125.509 313.689,125.846 313.207,125.846 312.888 C 125.846 312.569,126.042 312.308,126.282 312.308 C 126.522 312.308,126.775 312.135,126.846 311.924 C 126.916 311.714,127.239 311.540,127.563 311.540 C 127.887 311.539,128.170 311.365,128.192 311.154 C 128.213 310.942,128.248 310.635,128.269 310.471 C 128.290 310.307,128.498 310.246,128.730 310.335 C 128.962 310.424,129.237 310.274,129.341 310.002 C 129.471 309.665,129.410 309.576,129.150 309.724 C 128.941 309.843,129.046 309.663,129.385 309.323 C 129.744 308.962,130.082 308.831,130.197 309.009 C 130.306 309.176,130.481 309.039,130.587 308.706 C 130.831 307.935,132.584 305.976,132.942 306.074 C 133.091 306.114,133.362 305.868,133.545 305.527 C 133.727 305.185,133.997 304.980,134.143 305.070 C 134.289 305.160,134.590 304.825,134.811 304.325 C 135.032 303.825,135.287 303.526,135.376 303.661 C 135.465 303.796,135.882 303.477,136.302 302.953 C 136.828 302.295,136.882 302.143,136.473 302.462 C 136.074 302.773,135.961 302.792,136.125 302.519 C 136.258 302.298,136.714 301.984,137.137 301.823 C 137.560 301.663,137.977 301.257,138.065 300.923 C 138.152 300.588,138.347 300.391,138.497 300.484 C 138.647 300.576,138.906 300.295,139.072 299.859 C 139.238 299.423,139.722 298.933,140.148 298.771 C 140.574 298.609,140.923 298.335,140.923 298.161 C 140.923 297.988,141.146 297.846,141.418 297.846 C 141.723 297.846,141.847 297.676,141.741 297.400 C 141.619 297.083,141.721 297.009,142.093 297.142 C 142.380 297.245,142.512 297.215,142.387 297.077 C 142.261 296.938,142.434 296.631,142.771 296.395 C 143.109 296.158,143.385 295.765,143.385 295.521 C 143.385 295.277,143.488 295.093,143.615 295.113 C 144.256 295.215,144.615 295.029,144.615 294.597 C 144.615 294.333,144.752 294.202,144.920 294.306 C 145.094 294.413,145.146 294.290,145.040 294.016 C 144.925 293.715,145.028 293.538,145.319 293.538 C 145.573 293.538,145.860 293.331,145.957 293.077 C 146.055 292.823,146.348 292.615,146.610 292.615 C 147.031 292.615,147.076 291.441,147.004 282.385 C 146.912 270.741,147.068 271.296,144.308 272.758 M103.231 290.154 C 103.335 290.323,103.170 290.471,102.864 290.483 C 102.367 290.502,102.374 290.533,102.923 290.769 C 103.425 290.985,103.442 291.038,103.018 291.055 C 102.732 291.067,102.413 291.214,102.310 291.381 C 102.200 291.559,102.353 291.613,102.676 291.512 C 103.125 291.371,103.114 291.411,102.615 291.724 C 102.277 291.936,101.831 292.327,101.625 292.593 C 101.419 292.859,101.246 292.968,101.241 292.835 C 101.235 292.703,100.801 293.083,100.276 293.682 C 99.751 294.280,99.066 294.769,98.756 294.769 C 98.445 294.769,98.105 294.908,98.000 295.077 C 97.895 295.246,98.034 295.385,98.308 295.385 C 98.582 295.385,98.725 295.515,98.627 295.673 C 98.529 295.832,98.171 295.909,97.831 295.843 C 97.492 295.778,97.295 295.856,97.395 296.016 C 97.494 296.176,97.428 296.308,97.249 296.308 C 97.070 296.308,96.923 296.511,96.923 296.758 C 96.923 297.006,96.642 297.359,96.299 297.543 C 95.956 297.727,95.770 298.030,95.885 298.217 C 96.001 298.404,95.970 298.479,95.817 298.385 C 95.663 298.290,95.123 298.561,94.615 298.987 C 93.998 299.506,93.891 299.695,94.290 299.560 C 94.874 299.363,94.874 299.374,94.320 299.987 C 93.705 300.666,93.373 300.824,93.711 300.277 C 93.854 300.046,93.708 300.052,93.251 300.297 C 92.882 300.494,92.505 300.853,92.412 301.095 C 92.319 301.337,92.101 301.447,91.928 301.340 C 91.753 301.232,91.675 301.334,91.754 301.570 C 91.911 302.040,91.315 302.769,90.773 302.769 C 90.582 302.769,90.488 302.873,90.565 303.000 C 90.710 303.239,89.996 304.043,89.802 303.859 C 89.742 303.801,89.514 303.948,89.296 304.185 C 89.077 304.422,88.969 304.615,89.054 304.615 C 89.139 304.615,88.902 304.936,88.527 305.328 C 88.153 305.719,87.719 305.973,87.563 305.892 C 87.404 305.810,87.377 305.998,87.502 306.325 C 87.625 306.644,87.637 306.816,87.529 306.708 C 87.265 306.445,86.154 307.420,86.154 307.915 C 86.154 308.131,85.877 308.308,85.538 308.308 C 85.200 308.308,84.923 308.454,84.923 308.634 C 84.923 308.813,84.785 308.874,84.615 308.769 C 84.446 308.665,84.308 308.726,84.308 308.905 C 84.308 309.084,84.463 309.231,84.653 309.231 C 84.890 309.231,84.877 309.376,84.612 309.696 C 84.399 309.952,84.005 310.126,83.735 310.081 C 83.465 310.036,83.235 310.208,83.224 310.462 C 83.212 310.715,83.071 310.905,82.909 310.882 C 82.748 310.859,82.340 311.110,82.004 311.439 C 81.424 312.006,81.423 312.025,81.977 311.812 C 82.385 311.656,82.495 311.697,82.340 311.948 C 82.218 312.146,81.969 312.308,81.787 312.308 C 81.432 312.308,80.001 313.848,80.000 314.231 C 80.000 314.358,79.784 314.462,79.520 314.462 C 79.235 314.462,79.130 314.606,79.261 314.818 C 79.412 315.063,79.269 315.118,78.800 314.996 C 78.206 314.841,78.170 314.881,78.521 315.308 C 78.872 315.736,78.835 315.776,78.231 315.621 C 76.351 315.136,79.120 317.013,82.517 318.526 C 83.388 318.913,88.716 321.550,94.357 324.385 C 99.999 327.219,104.822 329.538,105.076 329.538 C 105.482 329.538,105.538 327.190,105.538 310.162 L 105.538 290.785 104.631 290.316 C 103.591 289.778,102.953 289.704,103.231 290.154 M100.073 293.128 C 99.860 293.214,99.541 293.584,99.364 293.950 C 99.089 294.520,99.103 294.549,99.459 294.154 C 99.687 293.900,100.069 293.519,100.306 293.308 C 100.760 292.904,100.715 292.870,100.073 293.128 " stroke="none" fill="#8fc3fb" fill-rule="evenodd"></path><path id="path4" d="M215.538 104.308 C 216.046 104.437,216.280 104.559,216.059 104.579 C 215.837 104.599,215.742 104.754,215.846 104.923 C 216.020 105.205,215.600 105.368,214.977 105.260 C 214.838 105.235,214.807 105.351,214.910 105.517 C 215.013 105.683,215.335 105.745,215.625 105.654 C 216.056 105.519,216.041 105.580,215.547 105.982 C 215.214 106.253,214.756 106.404,214.531 106.318 C 214.306 106.232,214.201 106.288,214.297 106.444 C 214.393 106.599,214.331 106.814,214.159 106.920 C 213.987 107.026,213.846 106.958,213.846 106.769 C 213.846 106.580,213.721 106.503,213.567 106.598 C 213.414 106.692,213.358 107.037,213.444 107.364 C 213.569 107.844,213.475 107.926,212.954 107.789 C 212.467 107.662,212.309 107.762,212.312 108.195 C 212.316 108.678,212.364 108.696,212.615 108.308 C 212.798 108.025,212.915 107.990,212.918 108.215 C 212.925 108.740,212.028 109.174,211.264 109.016 C 210.681 108.894,210.670 108.916,211.154 109.225 C 211.450 109.414,211.690 109.735,211.688 109.938 C 211.684 110.199,211.608 110.190,211.427 109.905 C 211.242 109.613,211.033 109.782,210.670 110.520 C 210.387 111.094,210.165 111.311,210.161 111.018 C 210.157 110.732,210.019 110.415,209.855 110.313 C 209.681 110.205,209.573 110.583,209.597 111.218 L 209.638 112.308 242.204 112.308 L 274.769 112.308 274.793 114.692 C 274.829 118.314,275.171 119.672,275.782 118.615 C 275.978 118.277,276.141 117.896,276.146 117.769 C 276.150 117.642,276.285 117.549,276.446 117.561 C 276.607 117.574,276.848 117.288,276.982 116.926 C 277.135 116.514,277.370 116.352,277.613 116.491 C 277.826 116.614,277.896 116.599,277.769 116.459 C 277.483 116.144,278.443 115.029,278.807 115.254 C 278.952 115.343,278.987 115.202,278.887 114.939 C 278.759 114.606,278.889 114.462,279.314 114.462 C 279.982 114.462,280.731 113.757,280.408 113.433 C 280.224 113.250,280.744 113.108,281.297 113.191 C 281.417 113.209,281.437 113.017,281.341 112.766 C 281.244 112.514,281.328 112.308,281.528 112.308 C 282.067 112.308,282.934 111.388,282.407 111.375 C 282.132 111.368,282.175 111.232,282.538 110.956 C 283.979 109.863,282.849 105.871,280.769 104.702 L 279.538 104.010 247.077 104.041 C 229.223 104.059,215.031 104.179,215.538 104.308 M220.769 138.008 C 220.092 138.425,219.677 138.769,219.846 138.772 C 220.015 138.776,219.946 138.910,219.692 139.070 C 219.294 139.322,219.218 141.504,219.135 154.989 C 219.048 169.256,219.214 175.949,219.626 174.787 C 219.712 174.542,220.109 174.017,220.507 173.619 C 220.905 173.221,221.231 172.771,221.231 172.619 C 221.231 172.467,221.639 172.102,222.137 171.807 C 222.636 171.513,222.996 171.193,222.939 171.097 C 222.881 171.002,223.027 170.745,223.263 170.526 C 223.499 170.308,223.692 170.210,223.692 170.308 C 223.692 170.406,223.885 170.307,224.122 170.089 C 224.358 169.871,224.488 169.588,224.411 169.462 C 224.334 169.335,224.428 169.231,224.619 169.231 C 225.174 169.231,225.755 168.498,225.598 167.997 C 225.519 167.745,225.565 167.641,225.700 167.767 C 225.834 167.893,226.145 167.711,226.389 167.362 C 226.633 167.013,227.013 166.797,227.234 166.882 C 227.454 166.966,227.877 166.768,228.173 166.441 C 228.815 165.731,228.560 165.638,227.868 166.330 C 227.602 166.596,227.385 166.668,227.385 166.491 C 227.385 166.313,227.731 165.941,228.154 165.664 L 228.923 165.160 228.923 155.195 L 228.923 145.231 238.769 145.192 C 244.185 145.171,248.765 145.137,248.948 145.115 C 249.391 145.064,250.173 143.973,249.985 143.668 C 249.903 143.536,249.998 143.327,250.196 143.204 C 250.421 143.065,250.474 143.115,250.337 143.337 C 250.210 143.543,250.304 143.692,250.560 143.692 C 250.803 143.692,251.186 143.248,251.411 142.706 C 251.969 141.358,253.079 140.206,252.787 141.277 L 252.590 142.000 253.003 141.298 C 253.231 140.912,253.543 140.704,253.698 140.837 C 253.853 140.969,253.806 140.849,253.594 140.571 C 253.285 140.164,253.286 140.073,253.605 140.109 C 253.822 140.134,254.000 140.071,254.000 139.970 C 254.000 139.526,254.904 138.755,255.264 138.893 C 255.497 138.983,255.598 138.881,255.509 138.649 C 255.304 138.115,255.954 137.622,257.077 137.458 C 257.585 137.384,249.900 137.307,240.000 137.286 L 222.000 137.250 220.769 138.008 M234.486 155.308 C 234.499 157.804,234.580 159.673,234.665 159.462 C 234.751 159.250,235.051 159.075,235.333 159.072 C 235.691 159.069,235.733 158.996,235.474 158.831 C 235.203 158.659,235.306 158.346,235.851 157.682 C 236.488 156.906,236.651 156.838,236.936 157.231 C 237.206 157.602,237.235 157.562,237.085 157.026 C 236.979 156.649,237.058 156.261,237.266 156.132 C 237.520 155.975,237.553 156.038,237.373 156.337 C 237.151 156.706,237.191 156.706,237.647 156.335 C 237.941 156.097,238.106 155.681,238.013 155.412 C 237.899 155.081,237.994 155.116,238.307 155.520 C 238.669 155.988,238.769 156.015,238.769 155.644 C 238.769 155.384,239.046 154.852,239.385 154.462 C 239.723 154.071,240.000 153.627,240.000 153.473 C 240.000 153.320,240.133 153.277,240.296 153.378 C 240.460 153.478,240.863 153.290,241.194 152.960 C 241.524 152.629,241.889 152.451,242.004 152.564 C 242.118 152.677,242.183 152.562,242.147 152.308 C 242.026 151.463,242.150 151.038,242.462 151.231 C 242.631 151.335,242.769 151.274,242.769 151.095 C 242.769 150.882,241.334 150.769,238.615 150.769 L 234.462 150.769 234.486 155.308 M143.876 176.972 C 144.027 177.216,143.840 177.257,143.251 177.109 C 142.746 176.983,142.482 177.015,142.591 177.191 C 142.690 177.351,142.682 177.715,142.574 177.998 C 142.416 178.409,142.323 178.430,142.116 178.103 C 141.930 177.810,141.854 177.896,141.851 178.403 C 141.848 178.797,141.709 179.029,141.538 178.923 C 141.369 178.818,141.231 179.033,141.231 179.399 C 141.231 179.846,141.088 180.011,140.798 179.900 C 140.560 179.809,140.117 180.009,139.813 180.344 C 139.073 181.162,139.957 180.834,142.722 179.263 C 143.796 178.653,144.810 178.154,144.975 178.154 C 145.553 178.154,145.071 177.144,144.369 176.885 C 143.867 176.700,143.724 176.725,143.876 176.972 M142.615 181.575 C 140.923 182.450,139.437 183.319,139.312 183.506 C 139.188 183.693,139.084 183.740,139.082 183.611 C 139.074 183.223,135.323 185.241,134.726 185.954 C 134.421 186.318,134.245 186.823,134.335 187.077 C 134.460 187.430,134.413 187.454,134.135 187.178 C 133.732 186.778,132.829 186.983,133.095 187.413 C 133.187 187.563,133.062 187.608,132.816 187.514 C 132.571 187.420,132.279 187.491,132.167 187.671 C 132.055 187.852,132.087 188.000,132.238 188.000 C 132.389 188.000,132.513 188.218,132.513 188.484 C 132.513 188.807,132.320 188.917,131.931 188.816 C 131.457 188.692,131.417 188.745,131.712 189.101 C 131.991 189.437,131.991 189.538,131.712 189.538 C 131.510 189.538,131.445 189.710,131.565 189.923 C 131.739 190.231,131.700 190.231,131.368 189.923 C 130.801 189.396,130.358 189.439,130.573 190.000 C 130.732 190.415,130.265 190.625,129.462 190.498 C 129.126 190.445,129.179 190.902,129.552 191.275 C 129.774 191.497,129.727 191.716,129.398 191.989 C 129.120 192.220,128.923 192.251,128.923 192.065 C 128.923 191.081,127.320 192.239,127.267 193.262 C 127.247 193.640,127.023 194.006,126.769 194.075 C 126.396 194.177,126.387 194.145,126.725 193.908 C 127.019 193.702,127.041 193.553,126.800 193.404 C 126.611 193.287,126.364 193.442,126.249 193.750 C 126.134 194.057,125.787 194.490,125.477 194.713 C 125.167 194.936,124.987 195.238,125.077 195.384 C 125.167 195.530,125.098 195.738,124.923 195.846 C 124.748 195.954,124.698 196.193,124.812 196.376 C 124.925 196.560,124.891 196.632,124.736 196.536 C 124.364 196.306,123.556 196.930,123.281 197.659 C 123.161 197.980,122.976 198.155,122.869 198.049 C 122.763 197.943,122.479 198.096,122.238 198.389 C 121.998 198.683,121.887 198.752,121.993 198.542 C 122.117 198.296,122.024 198.223,121.732 198.335 C 121.483 198.431,121.200 198.713,121.104 198.963 C 121.006 199.218,121.063 199.334,121.234 199.229 C 121.402 199.125,121.538 199.187,121.538 199.366 C 121.538 199.546,121.347 199.692,121.112 199.692 C 120.877 199.692,120.456 200.177,120.174 200.769 C 119.893 201.362,119.497 201.835,119.293 201.822 C 119.020 201.804,119.024 201.757,119.308 201.642 C 119.519 201.557,119.692 201.357,119.692 201.198 C 119.692 201.039,119.346 201.136,118.923 201.413 C 118.500 201.690,118.154 202.092,118.154 202.307 C 118.154 202.801,116.147 204.352,115.868 204.073 C 115.753 203.959,115.751 204.102,115.862 204.392 C 115.973 204.682,116.223 204.831,116.417 204.722 C 116.631 204.602,116.619 204.687,116.386 204.938 C 116.067 205.281,115.924 205.250,115.539 204.753 C 115.149 204.248,115.105 204.239,115.264 204.696 C 115.368 204.995,115.301 205.423,115.114 205.648 C 114.927 205.873,114.877 206.170,115.003 206.308 C 115.128 206.447,115.067 206.467,114.867 206.352 C 114.668 206.237,114.425 206.272,114.329 206.428 C 114.232 206.584,113.842 206.643,113.461 206.560 C 112.982 206.455,112.892 206.496,113.168 206.693 C 113.486 206.919,113.458 207.066,113.032 207.412 C 112.566 207.790,112.532 207.787,112.769 207.385 C 113.009 206.977,112.971 206.976,112.444 207.374 C 111.530 208.065,111.497 208.113,112.077 207.905 C 112.714 207.676,112.756 207.971,112.231 208.965 C 111.967 209.465,111.629 209.662,111.154 209.594 C 110.698 209.529,110.462 209.654,110.462 209.961 C 110.462 210.217,110.170 210.631,109.813 210.881 C 109.456 211.131,109.248 211.470,109.349 211.635 C 109.528 211.925,108.703 212.457,108.231 212.357 C 108.104 212.330,108.000 217.985,108.000 224.923 C 108.000 234.810,108.083 237.538,108.385 237.538 C 108.867 237.538,112.828 235.691,116.462 233.771 C 117.985 232.967,120.269 231.804,121.538 231.187 C 125.571 229.227,141.724 221.198,145.164 219.444 C 147.264 218.373,147.106 220.151,147.008 198.769 C 146.909 177.046,147.430 179.087,142.615 181.575 M128.491 192.757 C 128.526 192.994,128.384 193.254,128.175 193.334 C 127.966 193.414,127.795 193.285,127.795 193.048 C 127.795 192.810,127.918 192.615,128.069 192.615 C 128.220 192.615,128.244 192.442,128.123 192.231 C 128.001 192.019,128.020 191.954,128.165 192.086 C 128.310 192.218,128.457 192.520,128.491 192.757 M105.231 212.908 C 105.231 214.327,105.110 214.809,104.692 215.052 C 104.179 215.351,104.179 215.366,104.692 215.375 C 105.461 215.389,105.358 216.224,104.538 216.622 C 103.900 216.931,103.890 216.922,104.403 216.508 C 104.963 216.057,104.706 215.550,104.117 215.943 C 103.653 216.253,103.352 217.231,103.720 217.231 C 103.894 217.231,103.947 217.376,103.837 217.553 C 103.700 217.775,103.505 217.766,103.214 217.524 C 102.981 217.331,102.612 217.244,102.395 217.331 C 102.159 217.426,102.230 217.500,102.571 217.514 C 102.962 217.531,103.084 217.693,102.956 218.025 C 102.853 218.293,102.769 218.635,102.769 218.785 C 102.769 218.935,102.562 218.978,102.308 218.881 C 102.054 218.783,101.846 218.865,101.846 219.062 C 101.846 219.259,101.701 219.331,101.524 219.222 C 101.306 219.087,101.332 218.855,101.600 218.511 C 101.957 218.055,101.943 218.045,101.465 218.419 C 101.171 218.650,100.999 218.951,101.084 219.088 C 101.169 219.226,100.994 219.402,100.696 219.479 C 100.184 219.613,100.184 219.623,100.692 219.657 C 100.988 219.676,101.231 219.835,101.231 220.010 C 101.231 220.184,100.988 220.416,100.692 220.526 C 100.396 220.635,100.052 220.873,99.928 221.054 C 99.774 221.280,99.700 221.267,99.697 221.015 C 99.694 220.812,99.935 220.505,100.231 220.332 C 100.527 220.160,100.618 220.015,100.432 220.009 C 99.942 219.996,99.035 221.086,99.307 221.362 C 99.434 221.491,99.277 221.549,98.958 221.491 C 98.593 221.424,98.347 221.582,98.294 221.915 C 98.202 222.502,96.923 224.255,96.923 223.795 C 96.923 223.637,97.096 223.314,97.308 223.076 C 97.637 222.707,97.612 222.706,97.132 223.070 C 96.825 223.304,96.632 223.724,96.706 224.004 C 96.779 224.284,96.669 224.513,96.462 224.513 C 96.248 224.513,96.134 224.235,96.199 223.872 C 96.269 223.483,96.236 223.413,96.116 223.692 C 96.007 223.946,95.763 224.354,95.574 224.598 C 95.312 224.936,95.322 224.986,95.615 224.810 C 95.827 224.683,96.000 224.711,96.000 224.872 C 96.000 225.032,95.654 225.251,95.231 225.357 C 94.808 225.463,94.462 225.701,94.462 225.885 C 94.462 226.069,94.676 226.137,94.939 226.036 C 95.213 225.931,95.336 225.983,95.229 226.157 C 95.125 226.325,94.772 226.462,94.443 226.462 C 94.115 226.462,93.846 226.600,93.846 226.769 C 93.846 226.938,93.638 227.077,93.385 227.077 C 93.131 227.077,92.958 227.250,93.000 227.462 C 93.044 227.683,92.784 227.836,92.386 227.822 C 92.006 227.809,91.762 227.865,91.845 227.947 C 91.927 228.030,91.823 228.310,91.613 228.569 C 91.308 228.946,91.309 228.994,91.615 228.810 C 91.856 228.666,92.000 228.755,92.000 229.048 C 92.000 229.631,90.889 230.259,90.378 229.965 C 90.170 229.845,90.106 229.864,90.235 230.006 C 90.753 230.576,104.573 237.538,105.187 237.538 C 105.445 237.538,105.538 234.030,105.538 224.308 C 105.538 217.031,105.469 211.077,105.385 211.077 C 105.300 211.077,105.231 211.901,105.231 212.908 M99.231 253.871 C 95.338 255.868,91.462 257.818,90.615 258.206 C 84.507 261.003,68.769 269.250,68.769 269.654 C 68.769 269.967,73.062 272.287,81.538 276.553 C 88.562 280.087,94.723 283.206,95.231 283.483 C 96.671 284.270,103.388 287.357,103.514 287.290 C 103.577 287.258,103.901 287.478,104.235 287.781 C 104.839 288.327,106.462 288.019,106.462 287.357 C 106.462 287.056,108.464 284.923,108.747 284.923 C 108.864 284.923,108.861 285.083,108.740 285.278 C 108.604 285.498,108.655 285.550,108.876 285.414 C 109.071 285.293,109.231 285.016,109.231 284.798 C 109.231 284.344,110.288 283.042,110.669 283.026 C 110.809 283.020,110.884 282.878,110.837 282.710 C 110.789 282.541,110.926 282.463,111.141 282.534 C 111.357 282.606,111.707 282.491,111.920 282.277 C 112.380 281.817,112.436 281.423,112.004 281.690 C 111.827 281.799,111.779 281.672,111.888 281.387 C 111.991 281.117,112.146 280.967,112.232 281.053 C 112.318 281.139,112.666 281.061,113.005 280.879 C 113.503 280.613,113.540 280.496,113.195 280.274 C 112.891 280.077,112.988 280.020,113.534 280.076 C 114.077 280.131,114.389 279.952,114.609 279.457 C 114.779 279.074,115.091 278.827,115.302 278.908 C 115.513 278.989,115.657 278.956,115.623 278.835 C 115.589 278.714,115.725 278.322,115.924 277.964 C 116.123 277.605,116.228 277.254,116.157 277.183 C 116.086 277.112,116.313 276.876,116.662 276.658 C 117.010 276.440,117.203 276.411,117.091 276.593 C 116.978 276.775,117.106 276.923,117.377 276.923 C 117.772 276.923,117.804 276.803,117.538 276.308 C 117.315 275.890,117.312 275.692,117.528 275.692 C 117.703 275.692,117.848 275.865,117.851 276.077 C 117.854 276.341,117.944 276.321,118.138 276.015 C 118.294 275.769,118.354 275.459,118.271 275.326 C 118.189 275.193,118.359 275.175,118.650 275.287 C 119.008 275.424,119.106 275.373,118.955 275.129 C 118.580 274.522,119.070 274.073,119.616 274.524 C 120.049 274.880,120.059 274.845,119.712 274.194 C 119.498 273.792,119.466 273.552,119.640 273.660 C 119.815 273.768,120.046 273.713,120.154 273.538 C 120.262 273.364,120.488 273.306,120.657 273.410 C 120.829 273.517,120.921 273.350,120.867 273.031 C 120.798 272.631,120.931 272.489,121.313 272.553 C 121.628 272.606,121.822 272.477,121.774 272.245 C 121.729 272.026,121.882 271.886,122.115 271.936 C 122.382 271.992,122.471 271.853,122.357 271.555 C 122.250 271.278,122.330 271.114,122.550 271.158 C 122.755 271.198,122.890 271.063,122.850 270.857 C 122.807 270.640,122.970 270.558,123.238 270.661 C 123.563 270.786,123.645 270.695,123.514 270.355 C 123.384 270.016,123.563 269.813,124.113 269.675 C 124.976 269.458,125.885 268.615,125.256 268.615 C 125.059 268.615,125.237 268.250,125.652 267.803 C 126.102 267.317,126.595 267.062,126.875 267.170 C 127.213 267.299,127.405 267.076,127.564 266.367 C 127.685 265.827,127.843 265.554,127.915 265.760 C 128.018 266.056,128.132 266.056,128.452 265.760 C 128.676 265.554,128.795 265.280,128.717 265.151 C 128.640 265.023,128.793 264.702,129.057 264.437 C 129.419 264.075,129.540 264.057,129.543 264.363 C 129.547 264.671,129.616 264.662,129.831 264.322 C 129.986 264.077,130.045 263.765,129.962 263.630 C 129.878 263.495,130.034 263.385,130.308 263.385 C 130.609 263.385,130.718 263.243,130.583 263.025 C 130.433 262.783,130.528 262.729,130.873 262.861 C 131.179 262.979,131.382 262.907,131.378 262.683 C 131.374 262.476,129.678 261.489,127.609 260.487 C 125.539 259.486,122.808 258.136,121.538 257.486 C 115.811 254.554,106.772 250.158,106.551 250.197 C 106.417 250.221,103.123 251.874,99.231 253.871 M66.771 291.308 L 66.772 310.615 69.924 312.202 C 71.658 313.074,73.838 314.101,74.769 314.484 C 75.700 314.867,76.704 315.386,77.000 315.638 C 77.297 315.891,77.538 315.949,77.538 315.769 C 77.538 315.582,77.836 315.519,78.231 315.621 C 78.835 315.776,78.872 315.736,78.521 315.308 C 78.170 314.881,78.206 314.841,78.800 314.996 C 79.269 315.118,79.412 315.063,79.261 314.818 C 79.130 314.606,79.235 314.462,79.520 314.462 C 79.784 314.462,80.000 314.358,80.000 314.231 C 80.001 313.848,81.432 312.308,81.787 312.308 C 81.969 312.308,82.218 312.146,82.340 311.948 C 82.495 311.697,82.385 311.656,81.977 311.812 C 81.423 312.025,81.424 312.006,82.004 311.439 C 82.340 311.110,82.748 310.859,82.909 310.882 C 83.071 310.905,83.212 310.715,83.224 310.462 C 83.235 310.208,83.465 310.036,83.735 310.081 C 84.005 310.126,84.399 309.952,84.612 309.696 C 84.877 309.376,84.890 309.231,84.653 309.231 C 84.463 309.231,84.308 309.084,84.308 308.905 C 84.308 308.726,84.446 308.665,84.615 308.769 C 84.785 308.874,84.923 308.813,84.923 308.634 C 84.923 308.454,85.200 308.308,85.538 308.308 C 85.877 308.308,86.154 308.131,86.154 307.915 C 86.154 307.420,87.265 306.445,87.529 306.708 C 87.637 306.816,87.625 306.644,87.502 306.325 C 87.377 305.998,87.404 305.810,87.563 305.892 C 87.719 305.973,88.153 305.719,88.527 305.328 C 88.902 304.936,89.139 304.615,89.054 304.615 C 88.969 304.615,89.077 304.422,89.296 304.186 C 89.514 303.950,89.762 303.797,89.846 303.846 C 90.096 303.991,90.749 303.160,90.546 302.956 C 90.443 302.853,90.530 302.769,90.740 302.769 C 91.310 302.769,91.915 302.053,91.754 301.570 C 91.675 301.334,91.753 301.232,91.928 301.340 C 92.101 301.447,92.319 301.337,92.412 301.095 C 92.505 300.853,92.882 300.494,93.251 300.297 C 93.796 300.005,93.875 300.016,93.677 300.354 C 93.542 300.582,93.733 300.505,94.101 300.183 C 94.910 299.473,94.937 299.348,94.231 299.583 C 93.935 299.682,94.108 299.414,94.615 298.987 C 95.123 298.561,95.663 298.290,95.817 298.385 C 95.970 298.479,96.001 298.404,95.885 298.217 C 95.770 298.030,95.956 297.727,96.299 297.543 C 96.642 297.359,96.923 297.006,96.923 296.758 C 96.923 296.511,97.070 296.308,97.249 296.308 C 97.428 296.308,97.494 296.176,97.395 296.016 C 97.295 295.856,97.492 295.778,97.831 295.843 C 98.171 295.909,98.529 295.832,98.627 295.673 C 98.725 295.515,98.582 295.385,98.308 295.385 C 98.034 295.385,97.895 295.246,98.000 295.077 C 98.105 294.908,98.445 294.769,98.756 294.769 C 99.066 294.769,99.751 294.280,100.276 293.682 C 100.801 293.083,101.235 292.703,101.241 292.835 C 101.246 292.968,101.419 292.859,101.625 292.593 C 101.831 292.327,102.277 291.936,102.615 291.724 C 103.114 291.411,103.125 291.371,102.676 291.512 C 102.353 291.613,102.200 291.559,102.310 291.381 C 102.413 291.214,102.732 291.067,103.018 291.055 C 103.442 291.038,103.425 290.985,102.923 290.769 C 102.397 290.543,102.386 290.502,102.846 290.483 C 104.109 290.432,102.667 288.956,101.333 288.934 C 100.967 288.928,100.621 288.810,100.564 288.672 C 100.450 288.393,97.312 286.769,87.231 281.773 C 83.508 279.928,79.423 277.868,78.154 277.195 C 74.217 275.108,67.667 272.000,67.207 272.000 C 66.833 272.000,66.769 274.811,66.771 291.308 M100.306 293.308 C 100.069 293.519,99.687 293.900,99.459 294.154 C 99.103 294.549,99.089 294.520,99.364 293.950 C 99.640 293.378,100.053 293.043,100.600 292.947 C 100.676 292.934,100.544 293.096,100.306 293.308 " stroke="none" fill="#abbcfc" fill-rule="evenodd"></path></g></svg>