<svg width="128" height="128" viewBox="0 0 128 128" fill="none" xmlns="http://www.w3.org/2000/svg">
<g filter="url(#filter0_i)">
<circle cx="64" cy="64" r="64" fill="url(#paint0_radial)"/>
</g>
<path fill-rule="evenodd" clip-rule="evenodd" d="M68.9469 97.6471C70.5781 90.5299 71.7123 80.5646 71.9862 69.2979L74.4855 69.3586C74.2089 80.7339 73.0636 90.876 71.3837 98.2056C70.5461 101.86 69.5608 104.883 68.4474 107.021C67.8917 108.088 67.2724 108.997 66.5732 109.655C65.869 110.316 65.0038 110.793 64.0001 110.793C62.848 110.793 61.8835 110.169 61.1222 109.347C60.3583 108.522 59.6795 107.377 59.0696 106.02C57.8459 103.297 56.7796 99.4456 55.9137 94.8087L58.3713 94.3498C59.2216 98.904 60.2439 102.534 61.3499 104.995C61.9048 106.23 62.4511 107.103 62.9561 107.648C63.4637 108.196 63.812 108.293 64.0001 108.293C64.1656 108.293 64.4486 108.22 64.861 107.833C65.2782 107.441 65.7437 106.8 66.23 105.866C67.2008 104.002 68.129 101.216 68.9469 97.6471Z" fill="url(#paint1_linear)"/>
<path fill-rule="evenodd" clip-rule="evenodd" d="M59.836 27.2922C58.34 32.524 57.1519 39.9742 56.5002 48.7224L54.0072 48.5367C54.6657 39.6963 55.8721 32.0612 57.4324 26.6049C58.2099 23.886 59.0948 21.6371 60.0863 20.0403C61.0293 18.5216 62.3135 17.209 64 17.209C65.0037 17.209 65.8689 17.6856 66.573 18.3475C67.2723 19.0047 67.8915 19.9139 68.4473 20.9812C69.5606 23.1193 70.5459 26.1417 71.3835 29.7964C73.0634 37.126 74.2087 47.2681 74.4852 58.6434L71.986 58.7041C71.7121 47.4374 70.5779 37.4721 68.9467 30.3549C68.1288 26.7861 67.2006 24.0001 66.2299 22.1358C65.7436 21.2019 65.2781 20.5613 64.8608 20.1691C64.4485 19.7815 64.1654 19.709 64 19.709C63.7079 19.709 63.0733 19.9691 62.2101 21.3591C61.3954 22.6711 60.5867 24.667 59.836 27.2922Z" fill="url(#paint2_linear)"/>
<path fill-rule="evenodd" clip-rule="evenodd" d="M56.5003 48.7228C56.145 53.4927 55.9501 58.6367 55.9501 64.001C55.9501 75.7121 56.8793 86.3591 58.3713 94.3495L55.9138 94.8083C54.3873 86.6334 53.45 75.8279 53.45 64.001C53.45 58.5771 53.6471 53.3711 54.0072 48.5371L56.5003 48.7228Z" fill="url(#paint3_linear)"/>
<path fill-rule="evenodd" clip-rule="evenodd" d="M55.334 68.2477C47.2243 63.2968 40.218 58.2767 35.0144 53.8404L33.3924 55.7429C38.7178 60.283 45.8364 65.3786 54.0314 70.3815L55.334 68.2477Z" fill="url(#paint4_linear)"/>
<path fill-rule="evenodd" clip-rule="evenodd" d="M90.6143 85.1104C83.6356 82.9648 74.4391 78.9649 64.5455 73.5693L63.3486 75.7641C73.3374 81.2117 82.6927 85.2904 89.8796 87.5C93.4632 88.6018 96.573 89.2596 98.9811 89.3644C100.183 89.4167 101.28 89.335 102.199 89.0581C103.124 88.7791 103.969 88.2682 104.471 87.399C105.318 85.9326 104.816 84.1558 103.965 82.5727C103.069 80.9073 101.551 79.006 99.5678 76.9616C95.5889 72.8588 89.5319 67.9688 82.1514 62.9547L80.7465 65.0227C88.0503 69.9846 93.9566 74.7666 97.7732 78.702C99.6883 80.6767 101.026 82.3861 101.763 83.7569C102.544 85.2099 102.453 85.8946 102.306 86.149C102.223 86.2923 102.019 86.5011 101.477 86.6644C100.929 86.8297 100.142 86.9125 99.0898 86.8668C96.9901 86.7754 94.1136 86.1863 90.6143 85.1104Z" fill="url(#paint5_linear)"/>
<path fill-rule="evenodd" clip-rule="evenodd" d="M67.9735 57.028C72.5474 59.6688 76.842 62.3665 80.7465 65.0191L82.1514 62.9511C78.1947 60.2631 73.8483 57.5331 69.2235 54.8629C58.2806 48.5451 47.8094 43.7349 39.7236 41.0489C35.6906 39.7091 32.1888 38.8767 29.491 38.6728C28.1456 38.5711 26.9277 38.6196 25.917 38.8832C24.9044 39.1474 23.9668 39.6666 23.4257 40.6038C22.8452 41.6092 22.909 42.7664 23.247 43.8444C23.5863 44.9268 24.2498 46.0978 25.1348 47.3167C26.9102 49.7621 29.7562 52.6416 33.3922 55.7415L35.0141 53.839C31.4421 50.7937 28.7654 48.0621 27.1578 45.8479C26.3512 44.7369 25.858 43.8159 25.6325 43.0965C25.4055 42.3725 25.496 42.0179 25.5908 41.8538C25.6794 41.7003 25.9112 41.4684 26.548 41.3023C27.1867 41.1357 28.0983 41.0747 29.3026 41.1657C31.7045 41.3472 34.9837 42.1086 38.9355 43.4214C46.8196 46.0404 57.1342 50.7699 67.9735 57.028Z" fill="url(#paint6_linear)"/>
<path fill-rule="evenodd" clip-rule="evenodd" d="M64.8834 54.305C73.281 49.7389 81.1712 46.1806 87.6184 43.9152L86.7897 41.5565C80.1886 43.876 72.1748 47.4947 63.6892 52.1087L64.8834 54.305Z" fill="url(#paint7_linear)"/>
<path fill-rule="evenodd" clip-rule="evenodd" d="M32.383 76.5941C37.6921 71.6481 45.7009 65.7116 55.2645 59.8606L53.9599 57.7281C44.3039 63.6355 36.1476 69.6703 30.6789 74.7649C27.9521 77.3052 25.843 79.6581 24.5584 81.6822C23.917 82.6926 23.4433 83.6794 23.2263 84.6102C23.0078 85.5478 23.0293 86.5315 23.5293 87.3975C24.3747 88.8618 26.1604 89.3164 27.9535 89.3717C29.8394 89.4299 32.2395 89.0679 34.9947 88.3762C40.5237 86.9881 47.7696 84.1977 55.785 80.3256L54.6976 78.0746C46.7656 81.9063 39.6888 84.6202 34.3859 85.9514C31.7251 86.6194 29.5819 86.9208 28.0306 86.8729C26.3865 86.8222 25.8409 86.4014 25.6944 86.1475C25.6119 86.0047 25.5335 85.7249 25.661 85.1778C25.7902 84.6239 26.1086 83.9049 26.6691 83.0218C27.788 81.2589 29.7209 79.0742 32.383 76.5941Z" fill="url(#paint8_linear)"/>
<path fill-rule="evenodd" clip-rule="evenodd" d="M68.0772 70.9736C63.4772 73.6294 58.9686 76.0117 54.6977 78.0748L55.7851 80.3259C60.1133 78.2351 64.6761 75.824 69.3272 73.1386C80.2701 66.8207 89.6715 60.1575 96.0405 54.498C99.2173 51.6751 101.689 49.0587 103.215 46.8243C103.975 45.7099 104.542 44.6311 104.819 43.6239C105.097 42.6149 105.116 41.5433 104.575 40.6061C104.001 39.6121 102.984 39.0892 101.896 38.8397C100.806 38.5894 99.482 38.5719 98.0102 38.7191C95.0577 39.0145 91.2122 40.0058 86.7899 41.5597L87.6187 43.9184C91.9615 42.3924 95.5926 41.4735 98.2591 41.2067C99.5968 41.0729 100.618 41.1113 101.337 41.2763C102.06 41.4421 102.316 41.6938 102.41 41.8561C102.499 42.0096 102.583 42.3263 102.409 42.9608C102.234 43.5972 101.831 44.4172 101.15 45.4147C99.7918 47.404 97.4927 49.8632 94.3799 52.6292C88.1697 58.1475 78.9166 64.7155 68.0772 70.9736Z" fill="url(#paint9_linear)"/>
<ellipse cx="57.5393" cy="94.4688" rx="3.26564" ry="3.26564" fill="white"/>
<ellipse rx="3.26569" ry="3.26568" transform="matrix(0.499997 -0.866027 -0.866024 -0.500003 34.3314 54.3622)" fill="white"/>
<ellipse rx="3.26565" ry="3.26564" transform="matrix(0.499999 0.866026 0.866024 -0.500002 87.2075 43.1699)" fill="white"/>
<path fill-rule="evenodd" clip-rule="evenodd" d="M64.0014 58.3134C67.1414 58.3134 69.6869 60.8589 69.6869 63.9989C69.6869 67.1389 67.1414 69.6843 64.0014 69.6843C60.8615 69.6843 58.316 67.1389 58.316 63.9989C58.316 60.8589 60.8615 58.3134 64.0014 58.3134Z" fill="white"/>
<defs>
<filter id="filter0_i" x="0" y="0" width="128" height="128" filterUnits="userSpaceOnUse" color-interpolation-filters="sRGB">
<feFlood flood-opacity="0" result="BackgroundImageFix"/>
<feBlend mode="normal" in="SourceGraphic" in2="BackgroundImageFix" result="shape"/>
<feColorMatrix in="SourceAlpha" type="matrix" values="0 0 0 0 0 0 0 0 0 0 0 0 0 0 0 0 0 0 127 0" result="hardAlpha"/>
<feOffset/>
<feGaussianBlur stdDeviation="10.6667"/>
<feComposite in2="hardAlpha" operator="arithmetic" k2="-1" k3="1"/>
<feColorMatrix type="matrix" values="0 0 0 0 1 0 0 0 0 1 0 0 0 0 1 0 0 0 0.62 0"/>
<feBlend mode="overlay" in2="shape" result="effect1_innerShadow"/>
</filter>
<radialGradient id="paint0_radial" cx="0" cy="0" r="1" gradientUnits="userSpaceOnUse" gradientTransform="translate(21.3333 21.3333) rotate(45) scale(150.849)">
<stop stop-color="#F386FF"/>
<stop offset="0.486936" stop-color="#375DF1"/>
<stop offset="0.813073" stop-color="#A4FAFF"/>
</radialGradient>
<linearGradient id="paint1_linear" x1="65.1996" y1="110.793" x2="77.2781" y2="70.1273" gradientUnits="userSpaceOnUse">
<stop offset="0.377307" stop-color="white" stop-opacity="0.6"/>
<stop offset="0.992239" stop-color="white" stop-opacity="0"/>
</linearGradient>
<linearGradient id="paint2_linear" x1="64.2462" y1="17.209" x2="79.8259" y2="56.6047" gradientUnits="userSpaceOnUse">
<stop offset="0.634963" stop-color="white" stop-opacity="0.81"/>
<stop offset="1" stop-color="white" stop-opacity="0"/>
</linearGradient>
<linearGradient id="paint3_linear" x1="58.323" y1="48.5371" x2="58.323" y2="94.8616" gradientUnits="userSpaceOnUse">
<stop stop-color="white" stop-opacity="0.81"/>
<stop offset="0.646422" stop-color="white"/>
</linearGradient>
<linearGradient id="paint4_linear" x1="35.0822" y1="53.5171" x2="55.5111" y2="67.9277" gradientUnits="userSpaceOnUse">
<stop stop-color="white" stop-opacity="0.6"/>
<stop offset="1" stop-color="white" stop-opacity="0"/>
</linearGradient>
<linearGradient id="paint5_linear" x1="106.854" y1="87.2362" x2="61.556" y2="79.6979" gradientUnits="userSpaceOnUse">
<stop offset="0.60731" stop-color="white" stop-opacity="0.81"/>
<stop offset="1" stop-color="white" stop-opacity="0"/>
</linearGradient>
<linearGradient id="paint6_linear" x1="80.9398" y1="62.5209" x2="22.1386" y2="40.7183" gradientUnits="userSpaceOnUse">
<stop stop-color="white" stop-opacity="0.81"/>
<stop offset="0.478389" stop-color="white"/>
</linearGradient>
<linearGradient id="paint7_linear" x1="88.0859" y1="44.0901" x2="63.5883" y2="55.4731" gradientUnits="userSpaceOnUse">
<stop stop-color="white" stop-opacity="0.6"/>
<stop offset="1" stop-color="white" stop-opacity="0"/>
</linearGradient>
<linearGradient id="paint8_linear" x1="22.169" y1="87.5636" x2="52.8355" y2="55.5832" gradientUnits="userSpaceOnUse">
<stop offset="0.54518" stop-color="white" stop-opacity="0.81"/>
<stop offset="1" stop-color="white" stop-opacity="0"/>
</linearGradient>
<linearGradient id="paint9_linear" x1="105.834" y1="39.4478" x2="56.3194" y2="80.6318" gradientUnits="userSpaceOnUse">
<stop offset="0.518582" stop-color="white"/>
<stop offset="1" stop-color="white" stop-opacity="0.81"/>
</linearGradient>
</defs>
</svg>
