<svg id="svg" version="1.1" xmlns="http://www.w3.org/2000/svg" xmlns:xlink="http://www.w3.org/1999/xlink" width="400" height="400" viewBox="0, 0, 400,400"><g id="svgg"><path id="path0" d="M85.922 98.757 L 79.997 98.923 79.922 208.552 C 79.846 317.958,79.847 318.181,80.462 318.328 C 80.800 318.409,137.195 318.438,205.784 318.392 L 330.492 318.308 330.554 312.077 L 330.615 305.846 319.330 305.846 C 309.470 305.846,307.983 305.785,307.559 305.362 C 307.121 304.923,307.075 295.916,307.078 209.900 L 307.081 114.923 288.540 114.844 L 270.000 114.765 270.000 210.009 C 270.000 294.331,269.947 305.288,269.538 305.554 C 268.730 306.082,256.036 305.786,255.684 305.231 C 255.502 304.942,255.392 276.991,255.392 230.769 L 255.392 156.769 236.850 156.769 C 220.505 156.769,218.326 156.824,218.462 157.231 C 218.729 158.034,218.627 305.167,218.359 305.436 C 217.888 305.907,204.779 305.750,204.196 305.266 C 203.722 304.872,203.684 301.980,203.697 267.112 L 203.711 229.385 185.695 229.385 L 167.678 229.385 167.682 267.077 C 167.685 290.454,167.576 304.945,167.394 305.231 C 167.089 305.711,155.581 306.117,153.941 305.705 L 153.231 305.527 153.231 286.001 L 153.231 266.476 134.615 266.476 L 116.000 266.476 116.000 285.843 C 116.000 304.675,115.984 305.218,115.405 305.528 C 114.637 305.939,93.880 305.955,93.231 305.545 C 92.822 305.287,92.761 293.386,92.697 201.934 C 92.639 118.891,92.548 98.613,92.235 98.603 C 92.021 98.596,89.180 98.665,85.922 98.757 " stroke="none" fill="#141c34" fill-rule="evenodd"></path><path id="path1" d="M85.767 98.452 L 79.688 98.615 79.689 208.461 C 79.689 283.623,79.789 318.324,80.006 318.361 C 80.180 318.391,80.216 318.357,80.085 318.285 C 79.874 318.169,79.871 99.103,80.082 98.893 C 80.128 98.847,83.032 98.780,86.535 98.745 C 90.038 98.709,92.831 98.562,92.742 98.417 C 92.652 98.272,92.414 98.184,92.213 98.221 C 92.011 98.258,89.111 98.362,85.767 98.452 M92.767 202.154 C 92.767 258.423,92.803 281.442,92.846 253.308 C 92.889 225.173,92.889 179.135,92.846 151.000 C 92.803 122.865,92.767 145.885,92.767 202.154 M276.615 114.685 C 293.708 114.899,307.313 114.902,307.183 114.692 C 307.105 114.565,298.706 114.493,288.520 114.532 C 278.334 114.571,272.977 114.640,276.615 114.685 M307.229 210.154 C 307.229 262.362,307.264 283.719,307.308 257.615 C 307.351 231.512,307.351 188.796,307.308 162.692 C 307.264 136.588,307.229 157.946,307.229 210.154 M269.998 210.154 C 269.998 262.192,270.034 283.481,270.077 257.462 C 270.120 231.442,270.120 188.865,270.077 162.846 C 270.034 136.827,269.998 158.115,269.998 210.154 M255.461 230.975 C 255.387 302.579,255.411 305.538,256.071 305.538 C 256.266 305.538,256.254 305.383,256.038 305.123 C 255.786 304.820,255.673 284.875,255.615 231.046 L 255.537 157.385 255.461 230.975 M218.613 231.231 C 218.613 271.677,218.649 288.177,218.692 267.898 C 218.736 247.619,218.736 214.527,218.692 194.360 C 218.649 174.193,218.613 190.785,218.613 231.231 M167.385 267.528 C 167.385 304.163,167.373 304.908,166.789 305.220 C 165.911 305.690,154.075 305.645,153.600 305.169 C 153.319 304.889,153.231 304.887,153.231 305.163 C 153.231 306.059,166.828 306.124,167.392 305.231 C 167.690 304.759,167.836 230.154,167.538 230.154 C 167.454 230.154,167.385 246.972,167.385 267.528 M203.767 267.554 C 203.691 305.430,203.694 305.549,204.754 305.534 C 204.932 305.531,204.869 305.398,204.615 305.237 C 204.211 304.982,204.135 300.350,203.998 267.627 L 203.841 230.308 203.767 267.554 M115.798 266.629 C 115.698 266.890,115.703 267.190,115.808 267.295 C 115.914 267.401,116.000 267.267,116.000 266.997 C 116.000 266.727,116.242 266.443,116.538 266.366 C 117.043 266.234,117.042 266.223,116.529 266.190 C 116.227 266.170,115.899 266.368,115.798 266.629 M92.923 305.163 C 92.923 305.804,94.114 305.866,104.769 305.774 L 115.231 305.684 104.446 305.611 C 96.552 305.558,93.563 305.439,93.292 305.169 C 93.012 304.889,92.923 304.887,92.923 305.163 M269.355 305.229 C 269.191 305.393,266.250 305.566,262.760 305.616 L 256.462 305.706 262.769 305.771 C 268.366 305.829,270.357 305.639,269.817 305.099 C 269.726 305.008,269.518 305.067,269.355 305.229 M208.231 305.768 C 209.965 305.823,212.804 305.823,214.538 305.768 C 216.273 305.713,214.854 305.668,211.385 305.668 C 207.915 305.668,206.496 305.713,208.231 305.768 M313.636 305.769 C 316.820 305.819,321.943 305.819,325.020 305.769 C 328.098 305.719,325.492 305.678,319.231 305.678 C 312.969 305.678,310.451 305.719,313.636 305.769 M330.589 312.154 C 330.589 315.200,330.635 316.405,330.691 314.831 C 330.747 313.257,330.747 310.764,330.690 309.292 C 330.634 307.820,330.588 309.108,330.589 312.154 " stroke="none" fill="#141c2c" fill-rule="evenodd"></path><path id="path2" d="" stroke="none" fill="#181c34" fill-rule="evenodd"></path><path id="path3" d="" stroke="none" fill="#181c34" fill-rule="evenodd"></path><path id="path4" d="" stroke="none" fill="#181c34" fill-rule="evenodd"></path></g></svg>