<svg id="svg" version="1.1" xmlns="http://www.w3.org/2000/svg" xmlns:xlink="http://www.w3.org/1999/xlink" width="400" height="400" viewBox="0, 0, 400,400"><g id="svgg"><path id="path0" d="M80.462 89.847 C 77.077 89.949,74.289 90.060,74.266 90.093 C 74.243 90.127,74.275 91.019,74.337 92.077 C 74.398 93.135,74.530 124.185,74.629 161.077 C 74.727 197.969,74.829 228.396,74.855 228.692 C 74.952 229.822,75.822 228.370,75.744 227.208 C 75.696 226.498,75.785 226.175,75.994 226.304 C 76.172 226.414,76.244 226.623,76.154 226.769 C 76.064 226.915,76.165 227.135,76.380 227.259 C 76.594 227.382,76.680 227.383,76.571 227.261 C 76.462 227.139,76.684 226.729,77.064 226.348 C 77.444 225.968,77.834 225.458,77.931 225.213 C 78.078 224.843,78.156 224.839,78.400 225.187 C 78.745 225.680,78.928 225.432,79.219 224.077 C 79.337 223.527,79.554 223.077,79.701 223.077 C 80.168 223.077,81.538 221.641,81.538 221.151 C 81.538 220.893,81.740 220.604,81.986 220.509 C 82.335 220.376,82.307 220.564,81.863 221.354 C 81.477 222.043,81.386 222.510,81.582 222.801 C 81.812 223.141,81.853 223.118,81.782 222.687 C 81.728 222.360,81.999 221.984,82.462 221.746 C 82.885 221.527,83.210 221.105,83.185 220.807 C 83.157 220.487,83.297 220.326,83.526 220.414 C 83.795 220.517,83.882 220.292,83.810 219.679 C 83.754 219.194,83.864 218.699,84.055 218.581 C 84.246 218.463,84.327 218.492,84.234 218.645 C 84.141 218.798,84.262 219.106,84.504 219.329 C 84.876 219.674,84.923 219.623,84.808 218.992 C 84.639 218.061,85.032 217.379,85.553 217.701 C 85.834 217.875,85.898 217.768,85.780 217.318 C 85.646 216.805,85.732 216.724,86.262 216.862 C 86.617 216.955,86.738 217.087,86.531 217.156 C 86.323 217.226,86.154 217.426,86.154 217.602 C 86.154 217.797,86.331 217.774,86.609 217.544 C 86.970 217.244,86.991 217.029,86.712 216.506 C 86.409 215.937,86.424 215.898,86.818 216.223 C 87.534 216.813,87.535 216.704,87.537 151.081 C 87.538 96.734,87.486 89.699,87.077 89.681 C 86.823 89.670,83.846 89.745,80.462 89.847 " stroke="none" fill="#bdb7fc" fill-rule="evenodd"></path><path id="path1" d="M301.921 236.231 C 301.880 236.950,301.849 237.609,301.852 237.696 C 301.864 237.992,300.927 239.653,300.652 239.823 C 300.501 239.917,300.396 239.753,300.419 239.458 C 300.443 239.164,300.669 238.829,300.923 238.714 C 301.333 238.528,301.333 238.503,300.923 238.488 C 300.669 238.479,300.254 238.605,300.000 238.769 C 299.688 238.971,299.664 239.069,299.926 239.072 C 300.232 239.076,300.235 239.202,299.941 239.672 C 299.736 240.000,299.493 240.224,299.400 240.170 C 298.834 239.843,297.838 240.641,298.130 241.187 C 298.453 241.790,297.574 243.010,297.134 242.570 C 297.023 242.459,297.173 242.173,297.466 241.934 C 297.961 241.530,297.957 241.520,297.408 241.792 C 296.862 242.062,296.632 242.560,296.546 243.656 C 296.520 243.984,296.430 243.968,296.150 243.585 C 295.827 243.143,295.747 243.173,295.438 243.852 C 295.247 244.272,294.934 244.615,294.743 244.615 C 294.552 244.615,294.478 244.830,294.579 245.093 C 294.680 245.356,294.635 245.492,294.479 245.396 C 294.324 245.299,294.113 245.355,294.011 245.520 C 293.910 245.685,293.624 245.742,293.377 245.647 C 293.127 245.551,292.845 245.692,292.740 245.966 C 292.636 246.237,292.434 246.386,292.292 246.298 C 292.001 246.118,292.151 247.190,292.495 247.746 C 292.646 247.991,292.543 248.038,292.170 247.895 C 291.768 247.741,291.670 247.805,291.798 248.141 C 291.895 248.391,291.819 248.691,291.631 248.807 C 291.437 248.927,291.375 248.879,291.489 248.695 C 291.599 248.518,291.477 248.291,291.217 248.191 C 290.950 248.089,290.670 248.208,290.571 248.465 C 290.476 248.715,290.252 248.830,290.074 248.720 C 289.890 248.606,289.842 248.667,289.962 248.862 C 290.078 249.050,290.377 249.126,290.625 249.031 C 290.874 248.935,291.077 248.988,291.077 249.148 C 291.077 249.547,289.638 250.173,289.152 249.986 C 288.914 249.895,288.517 250.355,288.148 251.148 C 287.750 252.006,287.353 252.447,287.003 252.419 C 286.709 252.396,286.551 252.511,286.652 252.675 C 286.753 252.838,286.544 253.177,286.187 253.427 C 285.830 253.677,285.538 254.048,285.538 254.251 C 285.538 254.455,285.262 254.794,284.923 255.006 C 284.585 255.217,284.308 255.605,284.308 255.867 C 284.308 256.129,284.163 256.254,283.985 256.145 C 283.762 256.007,283.767 255.820,284.000 255.538 C 284.247 255.241,284.238 255.070,283.967 254.903 C 283.741 254.763,283.677 254.804,283.804 255.008 C 283.917 255.192,283.860 255.435,283.676 255.548 C 283.493 255.662,283.417 255.948,283.508 256.185 C 283.605 256.438,283.479 256.615,283.203 256.615 C 282.944 256.615,282.804 256.500,282.891 256.359 C 282.979 256.218,282.850 256.103,282.607 256.103 C 282.333 256.103,282.263 256.230,282.424 256.436 C 282.880 257.018,282.706 257.874,282.150 257.780 C 281.865 257.732,281.646 257.821,281.663 257.977 C 281.679 258.134,281.277 258.439,280.769 258.656 C 280.262 258.872,280.007 259.055,280.204 259.063 C 280.400 259.071,280.531 259.281,280.495 259.530 C 280.396 260.198,280.000 260.493,280.000 259.897 C 280.000 259.615,279.775 259.385,279.501 259.385 C 279.106 259.385,279.077 259.475,279.362 259.819 C 279.608 260.116,279.620 260.316,279.400 260.452 C 279.222 260.562,279.077 260.497,279.077 260.308 C 279.077 260.118,278.936 260.051,278.764 260.157 C 278.592 260.263,278.524 260.467,278.612 260.610 C 278.701 260.753,278.599 260.953,278.387 261.054 C 278.174 261.155,278.312 261.180,278.693 261.109 C 279.074 261.038,279.308 261.106,279.213 261.259 C 279.118 261.413,278.772 261.538,278.443 261.538 C 278.115 261.538,277.846 261.644,277.846 261.772 C 277.846 261.901,277.584 262.169,277.264 262.369 C 276.753 262.689,276.698 262.651,276.806 262.059 C 276.876 261.677,276.844 261.585,276.731 261.846 C 276.622 262.100,276.378 262.507,276.189 262.751 C 275.928 263.090,275.937 263.140,276.231 262.964 C 276.496 262.805,276.608 262.953,276.591 263.443 C 276.578 263.834,276.497 263.981,276.412 263.769 C 276.128 263.067,275.618 263.372,275.768 264.154 C 275.848 264.577,275.795 264.923,275.650 264.923 C 275.504 264.923,275.380 264.750,275.375 264.538 C 275.369 264.318,275.177 264.403,274.923 264.738 C 274.680 265.059,274.548 265.430,274.630 265.563 C 274.712 265.695,274.618 265.903,274.422 266.024 C 274.174 266.178,274.111 266.004,274.215 265.458 C 274.324 264.888,274.252 264.715,273.954 264.830 C 273.727 264.916,273.619 265.112,273.712 265.263 C 273.806 265.415,273.728 265.538,273.538 265.538 C 273.349 265.538,273.295 265.700,273.417 265.898 C 273.564 266.136,273.476 266.196,273.158 266.074 C 272.645 265.877,272.599 266.315,273.056 267.048 C 273.233 267.331,273.213 267.410,272.997 267.276 C 272.816 267.165,272.598 267.247,272.512 267.460 C 272.418 267.693,272.347 267.633,272.332 267.308 C 272.319 267.012,272.174 266.769,272.010 266.769 C 271.846 266.769,271.800 267.000,271.908 267.281 C 272.039 267.623,271.986 267.720,271.748 267.573 C 271.508 267.424,271.458 267.525,271.595 267.884 C 271.756 268.302,271.681 268.369,271.241 268.200 C 270.789 268.027,270.750 268.068,271.037 268.414 C 271.309 268.742,271.290 268.926,270.954 269.205 C 270.670 269.441,270.449 269.460,270.325 269.259 C 269.915 268.595,269.221 269.254,269.594 269.954 C 269.910 270.545,269.894 270.572,269.448 270.204 C 269.014 269.846,268.923 269.893,268.754 270.566 C 268.647 270.992,268.365 271.415,268.126 271.507 C 267.598 271.709,267.559 271.333,268.056 270.836 C 268.257 270.636,268.349 270.400,268.262 270.313 C 268.175 270.226,267.917 270.502,267.690 270.927 C 267.324 271.612,267.344 271.752,267.869 272.159 C 268.419 272.586,268.400 272.597,267.598 272.310 C 267.026 272.106,266.798 272.106,266.924 272.309 C 267.300 272.917,266.718 273.278,266.276 272.711 C 265.883 272.206,265.869 272.228,266.126 272.952 C 266.391 273.698,266.356 273.742,265.590 273.621 C 265.033 273.532,264.898 273.581,265.168 273.772 C 265.490 274.000,265.478 274.128,265.107 274.437 C 264.714 274.763,264.642 276.401,264.623 285.464 C 264.608 292.716,264.493 296.238,264.263 296.516 C 263.800 297.074,251.386 297.109,250.831 296.554 C 250.579 296.302,250.444 294.612,250.408 291.246 C 250.378 288.530,250.301 286.896,250.236 287.615 C 250.171 288.335,250.004 288.923,249.864 288.923 C 249.725 288.923,249.534 289.214,249.441 289.569 C 249.338 289.963,249.132 290.129,248.913 289.994 C 248.643 289.827,248.638 289.929,248.892 290.404 C 249.391 291.335,249.305 291.533,248.692 290.866 C 248.396 290.543,248.265 290.447,248.402 290.653 C 248.554 290.883,248.435 291.164,248.094 291.383 C 247.591 291.705,247.589 291.723,248.077 291.571 C 248.373 291.479,248.615 291.522,248.615 291.666 C 248.615 291.810,248.325 292.004,247.969 292.097 C 247.558 292.205,247.407 292.403,247.555 292.642 C 247.704 292.883,247.659 292.939,247.432 292.799 C 247.237 292.678,247.077 292.380,247.077 292.136 C 247.077 291.892,246.915 291.692,246.718 291.692 C 246.521 291.692,246.446 291.780,246.553 291.887 C 246.660 291.993,246.598 292.361,246.415 292.702 C 246.137 293.222,246.164 293.293,246.580 293.133 C 246.853 293.028,247.077 293.077,247.077 293.240 C 247.077 293.404,246.835 293.541,246.538 293.543 C 246.078 293.547,246.067 293.591,246.462 293.846 C 246.856 294.101,246.845 294.145,246.385 294.149 C 246.088 294.152,245.846 294.004,245.846 293.821 C 245.846 293.637,245.673 293.548,245.462 293.622 C 245.250 293.696,245.121 293.998,245.174 294.294 C 245.229 294.592,245.135 294.746,244.964 294.640 C 244.794 294.536,244.309 294.796,243.886 295.219 C 243.463 295.642,243.232 296.059,243.372 296.146 C 243.513 296.233,243.711 296.088,243.812 295.825 C 243.913 295.561,244.142 295.436,244.320 295.546 C 244.883 295.894,243.968 296.674,243.220 296.486 C 242.650 296.343,242.560 296.434,242.631 297.082 C 242.677 297.502,242.589 297.846,242.434 297.846 C 242.280 297.846,242.154 297.622,242.154 297.347 C 242.154 296.933,242.073 296.915,241.682 297.239 C 241.423 297.455,241.260 297.780,241.321 297.963 C 241.457 298.371,240.216 299.425,240.001 299.084 C 239.916 298.949,239.487 299.232,239.049 299.713 C 238.461 300.357,238.360 300.628,238.664 300.745 C 238.898 300.835,239.077 300.701,239.077 300.434 C 239.077 300.175,239.215 300.049,239.385 300.154 C 239.879 300.459,239.741 300.866,239.072 301.078 C 238.732 301.187,238.532 301.404,238.629 301.561 C 238.866 301.943,238.563 301.920,237.749 301.494 L 237.077 301.141 237.692 301.854 C 238.031 302.246,238.135 302.466,237.923 302.342 C 237.687 302.205,237.538 302.294,237.538 302.573 C 237.538 302.832,237.127 303.118,236.584 303.238 C 236.059 303.353,235.343 303.734,234.992 304.085 C 234.620 304.456,234.543 304.650,234.807 304.549 C 235.110 304.432,235.275 304.590,235.308 305.030 C 235.345 305.525,235.291 305.578,235.087 305.247 C 234.863 304.885,234.732 304.879,234.335 305.208 C 234.070 305.428,233.929 305.731,234.022 305.881 C 234.114 306.031,234.044 306.154,233.864 306.154 C 233.685 306.154,233.538 306.423,233.538 306.751 C 233.538 307.444,233.055 307.847,232.772 307.390 C 232.666 307.218,232.749 307.077,232.956 307.077 C 233.164 307.077,233.237 306.981,233.120 306.863 C 233.002 306.746,232.483 307.162,231.967 307.789 C 231.450 308.416,230.886 308.842,230.714 308.735 C 230.528 308.620,230.542 308.807,230.749 309.194 L 231.099 309.846 277.703 309.897 C 303.336 309.926,324.550 309.960,324.846 309.974 C 325.343 309.998,325.385 309.497,325.385 303.538 L 325.385 297.077 313.846 296.923 L 302.308 296.769 302.152 265.846 C 302.066 248.838,301.962 235.512,301.921 236.231 M293.427 246.308 C 293.330 246.562,293.419 246.771,293.625 246.774 C 293.869 246.777,293.844 246.877,293.553 247.061 C 293.307 247.217,293.009 247.284,292.890 247.210 C 292.581 247.020,292.934 245.846,293.300 245.846 C 293.467 245.846,293.525 246.054,293.427 246.308 M289.231 250.923 C 289.231 251.346,289.115 251.692,288.974 251.692 C 288.777 251.692,288.727 250.743,288.897 250.231 C 289.019 249.867,289.231 250.307,289.231 250.923 " stroke="none" fill="#34cefb" fill-rule="evenodd"></path><path id="path2" d="M276.504 106.076 C 287.349 106.155,288.248 106.202,288.377 106.696 C 288.556 107.389,288.331 108.050,287.987 107.838 C 287.840 107.747,287.795 107.435,287.889 107.144 C 288.028 106.710,288.001 106.695,287.742 107.062 C 287.568 107.308,287.493 107.620,287.577 107.755 C 287.660 107.890,287.574 108.000,287.385 108.000 C 287.195 108.000,287.117 108.123,287.209 108.273 C 287.302 108.423,287.137 108.527,286.843 108.504 C 286.450 108.473,286.334 108.653,286.409 109.182 C 286.492 109.773,286.403 109.869,285.914 109.714 C 285.213 109.491,284.464 110.238,284.719 110.903 C 284.835 111.205,284.745 111.297,284.446 111.182 C 284.201 111.088,284.000 111.173,284.000 111.370 C 284.000 111.567,283.890 111.660,283.755 111.577 C 283.117 111.183,281.230 113.602,281.450 114.530 C 281.604 115.181,281.585 115.191,281.187 114.680 C 280.739 114.103,279.385 114.887,279.385 115.722 C 279.385 115.895,279.256 115.957,279.098 115.859 C 278.941 115.762,278.723 115.826,278.614 116.003 C 278.505 116.179,278.530 116.285,278.669 116.238 C 278.809 116.192,278.923 116.292,278.923 116.462 C 278.923 116.631,278.646 116.734,278.308 116.691 C 277.855 116.634,277.803 116.685,278.110 116.884 C 278.581 117.188,278.050 117.701,277.571 117.405 C 277.179 117.162,276.932 117.969,277.147 118.791 C 277.296 119.360,277.232 119.451,276.796 119.284 C 276.161 119.040,275.148 119.853,275.772 120.105 C 275.997 120.196,275.932 120.269,275.615 120.283 C 275.307 120.297,275.067 120.078,275.053 119.769 C 275.033 119.339,274.992 119.323,274.849 119.692 C 274.750 119.946,274.450 120.318,274.181 120.519 C 273.741 120.848,273.754 120.936,274.308 121.388 C 274.646 121.665,274.760 121.810,274.560 121.710 C 274.360 121.610,274.117 121.656,274.021 121.812 C 273.924 121.968,273.534 122.028,273.154 121.944 C 272.598 121.823,272.552 121.858,272.923 122.122 C 273.319 122.406,273.306 122.453,272.828 122.457 C 272.522 122.459,272.341 122.575,272.427 122.713 C 272.512 122.852,272.320 123.154,272.000 123.385 C 271.680 123.615,271.488 123.918,271.573 124.056 C 271.659 124.194,271.582 124.308,271.403 124.308 C 271.224 124.308,271.077 124.454,271.077 124.634 C 271.077 124.813,271.250 124.860,271.462 124.738 C 271.673 124.616,271.743 124.631,271.616 124.771 C 271.489 124.910,271.005 125.063,270.539 125.110 C 269.735 125.191,269.722 125.173,270.290 124.752 C 270.618 124.507,270.743 124.308,270.568 124.308 C 270.226 124.308,269.231 125.298,269.231 125.640 C 269.231 125.753,269.377 125.846,269.557 125.846 C 269.736 125.846,269.784 125.686,269.663 125.491 C 269.530 125.276,269.578 125.219,269.785 125.347 C 270.219 125.615,269.796 126.838,269.201 127.034 C 268.852 127.150,268.842 127.089,269.149 126.717 C 269.455 126.345,269.443 126.256,269.086 126.256 C 268.842 126.256,268.714 126.372,268.801 126.513 C 268.889 126.655,268.602 126.907,268.164 127.073 C 267.727 127.239,267.289 127.584,267.191 127.840 C 267.093 128.095,266.898 128.233,266.758 128.147 C 266.618 128.061,266.404 128.152,266.281 128.350 C 266.151 128.561,266.191 128.628,266.379 128.513 C 266.555 128.404,266.771 128.588,266.858 128.921 C 266.990 129.426,266.924 129.478,266.463 129.232 C 265.943 128.953,265.305 130.009,265.488 130.846 C 265.516 130.973,265.407 131.077,265.247 131.077 C 265.070 131.077,264.946 127.423,264.932 121.788 C 264.920 116.679,264.835 112.425,264.744 112.334 C 264.582 112.172,264.779 204.668,264.942 205.502 C 265.008 205.838,265.102 205.823,265.389 205.430 C 265.589 205.157,265.866 205.034,266.003 205.159 C 266.140 205.283,266.158 205.220,266.042 205.018 C 265.911 204.790,266.244 204.456,266.921 204.134 C 267.520 203.850,268.098 203.474,268.206 203.300 C 268.320 203.116,268.253 203.075,268.048 203.201 C 267.638 203.454,267.624 203.183,268.000 202.308 C 268.258 201.708,268.265 201.708,268.286 202.292 C 268.307 202.872,269.069 202.504,269.082 201.908 C 269.089 201.564,270.715 200.049,270.889 200.223 C 270.976 200.309,271.138 200.018,271.249 199.575 C 271.364 199.118,271.670 198.767,271.956 198.765 C 272.398 198.760,272.403 198.718,272.000 198.430 C 271.629 198.165,271.674 198.130,272.230 198.252 C 272.611 198.336,273.001 198.276,273.098 198.120 C 273.194 197.964,273.437 197.931,273.637 198.048 C 273.836 198.164,273.736 197.959,273.414 197.591 C 272.826 196.922,273.121 196.629,273.750 197.258 C 273.991 197.498,274.150 197.485,274.321 197.210 C 274.473 196.964,274.430 196.906,274.201 197.048 C 274.006 197.168,273.846 197.120,273.846 196.941 C 273.846 196.762,274.158 196.604,274.538 196.591 C 274.919 196.578,275.059 196.497,274.849 196.413 C 274.225 196.160,275.238 195.348,275.873 195.591 C 276.309 195.758,276.373 195.668,276.224 195.099 C 276.014 194.294,276.253 193.468,276.629 193.701 C 276.770 193.788,277.321 193.595,277.853 193.272 C 278.492 192.883,278.681 192.628,278.410 192.520 C 278.142 192.413,278.193 192.348,278.557 192.332 C 278.863 192.319,279.028 192.170,278.925 192.002 C 278.821 191.835,278.878 191.454,279.051 191.156 C 279.350 190.643,279.366 190.643,279.375 191.154 C 279.380 191.450,279.488 191.688,279.615 191.683 C 279.978 191.667,280.923 190.883,280.923 190.597 C 280.923 190.455,280.757 190.505,280.554 190.708 C 280.105 191.157,279.692 191.186,279.692 190.769 C 279.692 190.600,279.861 190.496,280.067 190.538 C 280.273 190.581,280.688 190.131,280.989 189.538 C 281.291 188.946,281.538 188.635,281.538 188.846 C 281.538 189.058,281.685 189.231,281.864 189.231 C 282.044 189.231,282.111 189.102,282.014 188.945 C 281.917 188.788,282.116 188.571,282.457 188.463 C 283.020 188.284,283.249 187.730,283.091 186.932 C 283.058 186.767,283.353 186.902,283.746 187.231 C 284.140 187.560,284.288 187.633,284.077 187.392 C 283.546 186.787,283.595 186.358,284.170 186.579 C 284.445 186.685,284.567 186.633,284.458 186.456 C 284.354 186.287,284.484 186.067,284.748 185.966 C 285.012 185.864,285.151 185.658,285.057 185.506 C 284.963 185.355,285.022 185.231,285.187 185.231 C 285.352 185.231,285.569 185.404,285.668 185.615 C 285.768 185.827,285.797 185.614,285.734 185.143 C 285.671 184.672,285.693 184.359,285.782 184.448 C 285.871 184.537,286.164 184.438,286.433 184.228 C 286.861 183.895,286.872 183.911,286.524 184.357 C 286.255 184.701,286.229 184.934,286.447 185.068 C 286.624 185.177,286.787 185.190,286.808 185.095 C 286.829 185.000,286.881 184.785,286.923 184.615 C 286.965 184.446,287.019 184.065,287.043 183.769 C 287.080 183.305,287.130 183.295,287.399 183.692 C 287.633 184.039,287.664 183.952,287.524 183.346 C 287.372 182.689,287.509 182.415,288.254 181.884 C 289.212 181.202,290.020 181.008,289.692 181.538 C 289.588 181.708,289.649 181.846,289.828 181.846 C 290.249 181.846,290.245 181.445,289.819 181.019 C 289.578 180.778,289.592 180.619,289.867 180.449 C 290.113 180.297,290.171 180.339,290.029 180.568 C 289.909 180.763,289.956 180.923,290.136 180.923 C 290.315 180.923,290.462 180.785,290.462 180.615 C 290.462 180.446,290.704 180.306,291.000 180.303 C 291.460 180.299,291.471 180.255,291.077 180.000 C 290.823 179.836,290.767 179.700,290.953 179.697 C 291.139 179.694,291.454 179.381,291.655 179.000 C 291.860 178.609,291.949 178.549,291.859 178.862 C 291.759 179.208,291.824 179.340,292.030 179.212 C 292.212 179.100,292.293 178.746,292.210 178.427 C 292.042 177.786,292.460 177.346,292.766 177.841 C 293.087 178.360,293.538 178.193,293.538 177.557 C 293.538 177.228,293.679 176.872,293.851 176.766 C 294.023 176.660,294.100 176.469,294.021 176.342 C 293.943 176.215,294.321 176.155,294.862 176.209 C 295.403 176.263,295.673 176.226,295.462 176.128 C 295.250 176.029,295.077 175.814,295.077 175.649 C 295.077 175.483,295.215 175.434,295.385 175.538 C 295.554 175.643,295.692 175.582,295.692 175.403 C 295.692 175.224,296.004 175.061,296.385 175.041 C 296.944 175.011,296.900 174.959,296.154 174.769 C 295.646 174.640,295.470 174.518,295.762 174.498 C 296.054 174.478,296.524 174.110,296.806 173.680 C 297.087 173.250,297.610 172.743,297.967 172.553 C 298.574 172.229,298.586 172.244,298.154 172.796 C 297.727 173.340,297.733 173.353,298.231 172.962 C 298.527 172.730,298.769 172.280,298.769 171.962 C 298.769 171.645,298.898 171.385,299.054 171.385 C 299.211 171.385,299.399 171.212,299.472 171.000 C 299.544 170.788,299.568 170.858,299.523 171.154 C 299.479 171.450,299.568 171.692,299.721 171.692 C 299.875 171.692,300.000 171.485,300.000 171.231 C 300.000 170.977,300.138 170.769,300.308 170.769 C 300.477 170.769,300.615 170.611,300.615 170.419 C 300.615 170.226,300.858 169.884,301.154 169.659 C 301.483 169.409,301.543 169.247,301.308 169.241 C 301.096 169.235,300.923 169.097,300.923 168.933 C 300.923 168.769,301.124 168.712,301.369 168.806 C 301.890 169.006,302.000 161.679,302.000 126.769 L 302.000 106.000 283.385 105.995 C 273.146 105.992,270.050 106.029,276.504 106.076 M268.317 127.983 C 267.878 128.803,267.416 129.043,267.542 128.386 C 267.599 128.089,267.656 127.742,267.669 127.615 C 267.682 127.488,267.905 127.385,268.165 127.385 C 268.537 127.385,268.569 127.511,268.317 127.983 M247.231 148.308 C 247.335 148.477,247.266 148.615,247.077 148.615 C 246.888 148.615,246.806 148.734,246.895 148.878 C 246.985 149.023,246.708 149.300,246.281 149.495 C 245.853 149.689,245.588 149.985,245.691 150.152 C 245.800 150.328,245.668 150.374,245.375 150.261 C 244.972 150.107,244.953 150.016,245.282 149.808 C 245.591 149.612,245.550 149.547,245.118 149.543 C 244.692 149.540,244.586 149.699,244.706 150.160 C 244.827 150.622,244.639 150.900,243.973 151.245 C 243.091 151.701,242.765 152.308,243.403 152.308 C 243.582 152.308,243.643 152.169,243.538 152.000 C 243.434 151.831,243.495 151.692,243.674 151.692 C 243.853 151.692,244.000 151.826,244.000 151.989 C 244.000 152.430,242.882 152.947,242.361 152.747 C 241.801 152.532,241.393 153.105,241.889 153.411 C 242.129 153.559,242.166 153.499,242.000 153.231 C 241.825 152.948,241.870 152.902,242.153 153.076 C 242.467 153.270,242.430 153.416,241.988 153.739 C 241.538 154.068,241.370 154.074,241.177 153.769 C 241.015 153.515,240.931 153.626,240.928 154.095 C 240.925 154.489,240.786 154.721,240.615 154.615 C 240.349 154.451,240.147 155.341,240.279 156.100 C 240.303 156.239,240.187 156.269,240.021 156.167 C 239.855 156.064,239.806 155.754,239.912 155.478 C 240.041 155.142,239.985 155.050,239.745 155.198 C 239.547 155.321,239.385 155.609,239.385 155.839 C 239.385 156.068,239.281 156.314,239.154 156.385 C 239.027 156.456,239.089 156.475,239.292 156.427 C 239.504 156.376,239.587 156.531,239.488 156.790 C 239.393 157.039,239.157 157.211,238.965 157.172 C 238.229 157.027,236.870 157.572,237.017 157.955 C 237.099 158.170,236.765 158.614,236.274 158.942 C 235.783 159.270,235.450 159.719,235.533 159.939 C 235.626 160.184,235.547 160.254,235.329 160.119 C 235.094 159.975,235.036 160.066,235.159 160.386 C 235.267 160.666,235.158 160.944,234.904 161.042 C 234.660 161.135,234.462 161.072,234.462 160.901 C 234.462 160.731,234.268 160.770,234.032 160.988 C 233.796 161.206,233.666 161.488,233.743 161.615 C 233.820 161.742,233.606 161.846,233.267 161.846 C 232.929 161.846,232.578 161.965,232.489 162.109 C 232.400 162.254,232.703 162.304,233.163 162.221 C 233.643 162.134,233.891 162.186,233.744 162.343 C 233.497 162.605,233.390 162.640,232.538 162.735 C 232.271 162.766,232.294 162.869,232.615 163.077 C 232.987 163.317,232.938 163.376,232.366 163.380 C 231.976 163.382,231.736 163.514,231.833 163.671 C 232.062 164.041,230.765 164.957,230.364 164.709 C 230.179 164.594,230.158 164.681,230.311 164.928 C 230.495 165.226,230.421 165.281,230.034 165.133 C 229.703 165.005,229.581 165.051,229.707 165.255 C 229.818 165.434,229.606 165.659,229.236 165.756 C 228.779 165.875,228.683 166.006,228.938 166.163 C 229.196 166.322,229.108 166.459,228.656 166.602 C 228.295 166.717,228.000 166.948,228.000 167.116 C 228.000 167.284,227.876 167.344,227.725 167.251 C 227.574 167.158,227.362 167.432,227.255 167.861 C 227.137 168.328,226.921 168.556,226.716 168.428 C 226.485 168.286,226.421 168.471,226.520 168.989 C 226.641 169.621,226.565 169.735,226.103 169.614 C 225.425 169.437,223.522 171.167,223.836 171.675 C 223.951 171.862,223.880 171.977,223.677 171.931 C 223.474 171.884,223.238 172.039,223.152 172.274 C 223.048 172.560,223.127 172.621,223.392 172.457 C 223.653 172.295,223.712 172.335,223.565 172.573 C 223.442 172.771,223.213 172.853,223.056 172.756 C 222.898 172.659,222.769 172.716,222.769 172.884 C 222.769 173.052,222.490 173.278,222.149 173.386 C 221.780 173.503,221.617 173.729,221.747 173.945 C 221.866 174.145,221.703 174.100,221.385 173.846 C 221.066 173.592,220.879 173.523,220.969 173.692 C 221.178 174.084,220.134 175.095,219.805 174.821 C 219.670 174.708,219.747 174.861,219.977 175.161 C 220.335 175.628,220.329 175.681,219.939 175.532 C 219.346 175.304,218.645 176.156,218.893 176.802 C 219.043 177.194,218.944 177.268,218.447 177.138 C 218.060 177.037,217.744 177.139,217.645 177.397 C 217.555 177.631,217.217 177.907,216.895 178.009 C 216.572 178.111,216.308 178.367,216.308 178.577 C 216.308 178.787,216.089 179.228,215.821 179.557 C 215.341 180.146,215.337 180.145,215.532 179.538 C 215.686 179.056,215.648 179.003,215.354 179.295 C 215.060 179.586,215.064 179.768,215.374 180.141 C 215.708 180.543,215.668 180.615,215.115 180.615 C 214.667 180.615,214.462 180.809,214.462 181.231 C 214.462 181.569,214.288 181.812,214.077 181.769 C 213.785 181.711,213.653 179.648,213.530 173.231 C 213.440 168.577,213.361 184.154,213.354 207.846 C 213.340 255.330,213.362 256.923,214.021 256.923 C 214.263 256.923,214.462 256.718,214.462 256.467 C 214.462 256.217,214.807 255.925,215.229 255.819 C 215.651 255.713,215.927 255.515,215.842 255.378 C 215.758 255.241,215.862 255.059,216.075 254.974 C 216.378 254.851,216.376 254.813,216.065 254.794 C 215.741 254.774,215.741 254.690,216.065 254.340 C 216.283 254.104,216.565 253.974,216.692 254.050 C 216.819 254.127,216.923 254.037,216.923 253.851 C 216.923 253.664,217.165 253.552,217.462 253.602 C 217.883 253.673,217.990 253.492,217.952 252.769 C 217.926 252.262,217.972 252.019,218.055 252.231 C 218.137 252.442,218.347 252.615,218.520 252.615 C 218.693 252.615,218.758 252.415,218.664 252.170 C 218.516 251.784,219.573 251.131,219.966 251.366 C 220.116 251.456,220.604 250.699,220.611 250.366 C 220.613 250.230,220.456 250.216,220.260 250.337 C 220.040 250.473,219.988 250.421,220.124 250.201 C 220.245 250.006,220.552 249.846,220.806 249.846 C 221.076 249.846,221.176 249.993,221.048 250.201 C 220.916 250.414,220.963 250.473,221.164 250.349 C 221.349 250.234,221.445 249.854,221.378 249.504 C 221.289 249.044,221.381 248.915,221.705 249.039 C 221.952 249.134,222.154 249.084,222.154 248.929 C 222.154 248.462,223.514 247.162,223.872 247.286 C 224.055 247.350,224.205 247.196,224.205 246.945 C 224.205 246.694,224.099 246.554,223.970 246.634 C 223.841 246.714,223.635 246.617,223.512 246.419 C 223.373 246.193,223.423 246.141,223.647 246.280 C 223.844 246.401,224.080 246.303,224.173 246.062 C 224.265 245.821,224.645 245.647,225.016 245.676 C 226.027 245.754,226.485 245.277,226.260 244.380 C 226.132 243.870,226.176 243.670,226.389 243.801 C 226.881 244.105,227.749 243.669,227.572 243.207 C 227.473 242.948,227.578 242.863,227.862 242.972 C 228.107 243.066,228.308 242.989,228.308 242.802 C 228.308 242.615,228.065 242.459,227.769 242.457 C 227.309 242.453,227.298 242.409,227.692 242.155 C 228.015 241.947,228.256 241.993,228.493 242.311 C 228.945 242.913,229.959 241.884,229.667 241.121 C 229.555 240.830,229.625 240.615,229.831 240.615 C 230.037 240.615,230.091 240.451,229.959 240.231 C 229.786 239.942,229.852 239.946,230.221 240.246 C 230.773 240.693,231.268 240.251,230.894 239.645 C 230.761 239.430,230.809 239.373,231.014 239.500 C 231.411 239.745,232.084 238.659,231.758 238.299 C 231.637 238.165,231.696 238.145,231.888 238.255 C 232.285 238.481,233.026 237.744,232.715 237.433 C 232.604 237.322,232.684 237.231,232.893 237.231 C 233.138 237.231,233.205 237.476,233.082 237.923 C 232.897 238.596,232.905 238.599,233.369 238.018 C 233.631 237.690,233.846 237.244,233.846 237.029 C 233.846 236.516,234.991 235.911,235.439 236.187 C 235.652 236.319,235.702 236.265,235.568 236.048 C 235.447 235.852,235.503 235.692,235.692 235.692 C 235.882 235.692,235.960 235.570,235.868 235.419 C 235.775 235.269,235.905 234.976,236.157 234.766 C 236.759 234.267,236.746 233.730,236.138 233.964 C 235.864 234.069,235.741 234.017,235.848 233.843 C 236.114 233.413,236.498 233.465,237.035 234.002 C 237.323 234.290,237.572 234.348,237.691 234.156 C 237.796 233.986,237.728 233.846,237.538 233.846 C 237.349 233.846,237.274 233.718,237.370 233.562 C 237.467 233.405,237.302 233.203,237.004 233.113 C 236.706 233.023,236.904 232.987,237.445 233.034 C 237.986 233.081,238.366 233.018,238.290 232.894 C 238.213 232.770,238.317 232.612,238.521 232.544 C 238.810 232.448,238.810 232.369,238.523 232.192 C 238.320 232.066,238.154 232.110,238.154 232.290 C 238.154 232.469,237.998 232.615,237.808 232.615 C 237.568 232.615,237.577 232.478,237.841 232.160 C 238.115 231.830,238.372 231.788,238.781 232.006 C 239.699 232.498,239.811 232.352,239.034 231.675 C 238.391 231.115,238.382 231.078,238.955 231.354 C 239.603 231.666,240.974 230.419,241.594 228.956 C 241.752 228.582,241.808 228.568,241.825 228.899 C 241.836 229.139,241.617 229.589,241.337 229.899 C 241.032 230.236,240.970 230.462,241.183 230.462 C 241.379 230.462,241.540 230.358,241.541 230.231 C 241.543 230.104,242.026 229.491,242.616 228.868 C 243.467 227.972,243.584 227.716,243.181 227.638 C 242.727 227.549,242.733 227.490,243.242 227.077 C 243.555 226.823,243.721 226.765,243.611 226.949 C 243.501 227.132,243.592 227.282,243.812 227.282 C 244.052 227.282,244.179 226.986,244.130 226.541 C 244.072 226.007,244.172 225.846,244.486 225.967 C 244.739 226.064,244.923 225.948,244.923 225.692 C 244.923 225.426,245.106 225.320,245.383 225.427 C 245.636 225.524,245.753 225.748,245.643 225.926 C 245.521 226.123,245.593 226.157,245.825 226.013 C 246.101 225.843,246.114 225.683,245.873 225.442 C 245.689 225.258,245.541 224.893,245.543 224.631 C 245.547 224.211,245.583 224.209,245.846 224.615 C 246.109 225.022,246.278 224.851,246.200 224.260 C 246.185 224.149,246.384 223.978,246.641 223.879 C 246.898 223.780,247.032 223.823,246.939 223.975 C 246.845 224.126,247.045 224.178,247.384 224.089 C 247.723 224.001,248.000 223.817,248.000 223.682 C 248.000 223.546,248.093 223.193,248.206 222.898 C 248.341 222.547,248.295 222.433,248.074 222.570 C 247.887 222.685,247.635 222.617,247.512 222.419 C 247.378 222.202,247.423 222.141,247.624 222.265 C 247.807 222.379,248.046 222.329,248.154 222.154 C 248.262 221.979,248.470 221.910,248.615 222.000 C 248.761 222.090,248.969 222.021,249.077 221.846 C 249.185 221.671,249.424 221.621,249.607 221.735 C 249.802 221.855,249.853 221.799,249.730 221.599 C 249.614 221.411,249.281 221.330,248.990 221.418 C 248.699 221.506,248.820 221.369,249.257 221.113 L 250.053 220.649 250.257 204.889 C 250.370 196.221,250.462 179.875,250.462 168.565 L 250.462 148.000 248.751 148.000 C 247.689 148.000,247.113 148.117,247.231 148.308 M174.114 221.028 C 174.302 221.255,174.366 221.531,174.256 221.641 C 174.147 221.751,173.871 221.687,173.644 221.498 C 173.338 221.244,173.231 221.250,173.231 221.519 C 173.231 221.723,173.062 221.785,172.846 221.661 C 172.635 221.539,172.561 221.549,172.681 221.683 C 172.994 222.029,172.371 223.077,171.853 223.077 C 171.616 223.077,171.322 223.237,171.201 223.432 C 171.065 223.652,171.117 223.704,171.337 223.568 C 171.532 223.447,171.692 223.511,171.692 223.710 C 171.692 223.912,171.438 224.005,171.116 223.921 C 170.673 223.805,170.574 223.903,170.690 224.347 C 170.774 224.669,170.681 224.923,170.479 224.923 C 170.280 224.923,170.195 225.049,170.290 225.202 C 170.385 225.356,170.214 225.416,169.911 225.337 C 169.599 225.255,169.112 225.468,168.786 225.827 C 168.467 226.181,168.370 226.462,168.568 226.462 C 168.763 226.462,168.923 226.677,168.923 226.941 C 168.923 227.205,168.792 227.340,168.631 227.240 C 168.357 227.071,167.823 227.770,167.697 228.462 C 167.666 228.631,167.564 228.838,167.471 228.923 C 167.377 229.008,167.367 228.709,167.448 228.259 C 167.556 227.663,167.485 227.484,167.184 227.599 C 166.958 227.686,166.849 227.881,166.943 228.032 C 167.037 228.184,166.958 228.308,166.769 228.308 C 166.580 228.308,166.525 228.470,166.648 228.668 C 166.794 228.905,166.706 228.965,166.389 228.843 C 165.887 228.650,165.828 229.082,166.262 229.777 C 166.554 230.244,165.813 230.165,165.466 229.692 C 165.340 229.520,165.238 229.629,165.235 229.941 C 165.233 230.247,165.089 230.410,164.915 230.303 C 164.742 230.196,164.638 230.291,164.685 230.516 C 164.731 230.740,164.586 230.885,164.362 230.839 C 164.138 230.792,164.042 230.896,164.149 231.069 C 164.256 231.243,164.163 231.387,163.941 231.389 C 163.649 231.393,163.665 231.476,164.000 231.692 C 164.399 231.950,164.392 231.991,163.949 231.995 C 163.667 231.998,163.378 232.104,163.307 232.231 C 163.236 232.358,163.217 232.296,163.266 232.093 C 163.315 231.885,163.162 231.797,162.915 231.892 C 162.548 232.033,162.458 231.184,162.363 226.722 C 162.301 223.787,162.274 238.163,162.304 258.669 C 162.335 279.741,162.240 296.164,162.087 296.438 C 161.677 297.171,148.468 297.169,148.187 296.436 C 148.084 296.169,148.000 287.385,148.000 276.916 C 148.000 266.448,147.896 257.840,147.769 257.787 C 147.642 257.735,144.838 257.767,141.538 257.859 C 138.238 257.951,135.842 258.055,136.213 258.090 C 136.583 258.125,136.974 258.295,137.080 258.467 C 137.186 258.639,137.437 258.681,137.637 258.561 C 137.836 258.441,137.792 258.599,137.538 258.912 C 137.124 259.422,137.067 259.428,136.977 258.971 C 136.923 258.691,136.754 258.462,136.602 258.462 C 136.451 258.462,136.407 258.671,136.505 258.927 C 136.638 259.272,136.544 259.338,136.138 259.182 C 135.765 259.039,135.662 259.086,135.812 259.330 C 135.934 259.527,135.892 259.931,135.718 260.228 C 135.423 260.736,135.403 260.733,135.394 260.193 C 135.386 259.709,135.309 259.680,134.909 260.012 C 134.648 260.229,134.511 260.607,134.605 260.853 C 134.718 261.148,134.629 261.243,134.342 261.132 C 133.949 260.982,133.411 261.887,133.505 262.538 C 133.523 262.665,133.314 262.769,133.039 262.769 C 132.627 262.769,132.608 262.688,132.929 262.300 C 133.652 261.429,133.084 261.594,132.266 262.493 C 131.820 262.983,131.569 263.385,131.709 263.385 C 131.848 263.385,131.942 263.647,131.918 263.968 C 131.882 264.442,131.743 264.503,131.182 264.289 C 130.621 264.076,130.526 264.118,130.677 264.510 C 130.827 264.901,130.721 264.949,130.126 264.760 C 129.476 264.554,129.437 264.584,129.798 265.019 C 130.258 265.573,130.037 266.154,129.366 266.154 C 129.123 266.154,128.622 266.455,128.254 266.823 C 127.862 267.215,127.777 267.418,128.049 267.314 C 128.317 267.211,128.513 267.306,128.513 267.538 C 128.513 267.760,128.334 267.873,128.115 267.789 C 127.894 267.704,127.423 268.094,127.057 268.664 C 126.693 269.230,126.482 269.415,126.587 269.077 C 126.743 268.572,126.667 268.600,126.165 269.231 C 125.828 269.654,125.547 270.138,125.541 270.308 C 125.534 270.477,125.395 270.408,125.231 270.154 C 125.014 269.818,124.931 269.802,124.928 270.095 C 124.925 270.335,124.768 270.404,124.538 270.267 C 124.236 270.085,124.237 270.138,124.542 270.515 C 124.862 270.910,124.835 271.071,124.388 271.421 C 123.887 271.814,123.879 271.800,124.287 271.231 C 124.559 270.851,124.429 270.910,123.947 271.385 C 123.518 271.808,123.239 272.350,123.328 272.589 C 123.430 272.865,123.358 272.943,123.129 272.802 C 122.931 272.679,122.769 272.743,122.769 272.943 C 122.769 273.221,122.667 273.221,122.335 272.946 C 121.812 272.512,121.471 272.931,121.849 273.543 C 122.187 274.090,121.664 274.769,120.904 274.769 C 120.596 274.769,120.257 274.910,120.151 275.082 C 120.044 275.254,119.807 275.302,119.624 275.188 C 119.419 275.062,119.378 275.126,119.518 275.352 C 119.695 275.638,119.847 275.639,120.188 275.356 C 120.549 275.057,120.592 275.087,120.425 275.522 C 120.280 275.901,119.991 276.011,119.424 275.903 C 118.673 275.759,118.661 275.776,119.219 276.183 C 119.584 276.450,119.654 276.615,119.402 276.615 C 118.992 276.615,117.510 278.023,117.710 278.223 C 117.769 278.282,117.537 278.330,117.195 278.330 C 116.614 278.330,116.609 278.304,117.115 277.934 C 117.413 277.716,117.501 277.538,117.311 277.538 C 116.839 277.538,115.610 279.310,115.832 279.669 C 115.930 279.828,115.848 280.058,115.650 280.180 C 115.425 280.319,115.372 280.269,115.509 280.048 C 115.630 279.852,115.582 279.692,115.403 279.692 C 115.224 279.692,115.077 279.879,115.077 280.107 C 115.077 280.693,114.150 281.641,113.145 282.081 C 112.675 282.288,112.211 282.664,112.113 282.919 C 112.015 283.173,111.830 283.316,111.701 283.236 C 111.572 283.156,111.482 283.399,111.502 283.776 C 111.522 284.153,111.377 284.431,111.179 284.393 C 110.917 284.343,110.810 285.766,110.784 289.639 C 110.765 292.562,110.640 295.362,110.506 295.861 L 110.264 296.769 99.399 296.850 C 91.637 296.908,88.414 296.831,88.113 296.582 C 87.853 296.365,87.692 296.351,87.692 296.545 C 87.692 297.101,88.491 297.195,93.677 297.253 C 97.980 297.302,98.723 297.377,98.425 297.736 C 98.170 298.044,97.963 298.071,97.676 297.833 C 97.377 297.585,97.180 297.715,96.867 298.368 C 96.639 298.842,96.289 299.231,96.088 299.231 C 95.887 299.231,95.550 299.404,95.338 299.615 C 95.080 299.874,95.066 300.000,95.297 300.000 C 95.486 300.000,95.711 299.827,95.796 299.615 C 95.889 299.386,95.961 299.448,95.976 299.769 C 95.989 300.065,95.784 300.308,95.520 300.308 C 95.256 300.308,95.126 300.446,95.231 300.615 C 95.500 301.051,94.973 300.998,94.478 300.538 C 94.227 300.306,94.141 300.293,94.261 300.506 C 94.554 301.030,93.765 302.334,93.221 302.227 C 92.509 302.087,90.333 304.144,90.561 304.740 C 90.665 305.010,90.608 305.231,90.434 305.231 C 90.260 305.231,90.202 305.368,90.306 305.535 C 90.410 305.705,90.296 305.763,90.047 305.668 C 89.802 305.574,89.496 305.666,89.368 305.873 C 89.220 306.113,89.264 306.170,89.491 306.029 C 89.703 305.898,89.846 306.008,89.846 306.300 C 89.846 306.672,89.715 306.721,89.308 306.504 C 88.426 306.035,86.520 307.778,87.100 308.525 C 87.509 309.053,87.501 309.054,86.892 308.537 C 86.360 308.086,86.256 308.073,86.256 308.460 C 86.256 308.715,86.395 308.923,86.564 308.923 C 87.496 308.923,86.285 309.296,84.878 309.442 C 83.972 309.536,83.173 309.665,83.103 309.730 C 82.883 309.929,158.217 309.852,159.892 309.651 C 161.156 309.499,161.542 309.314,161.805 308.736 C 162.012 308.282,162.305 308.077,162.591 308.187 C 163.315 308.465,163.791 308.028,163.347 307.494 C 163.047 307.132,163.059 307.061,163.409 307.136 C 163.650 307.188,163.808 307.047,163.762 306.823 C 163.715 306.599,163.819 306.503,163.992 306.611 C 164.166 306.718,164.310 306.555,164.312 306.249 C 164.315 305.937,164.417 305.828,164.543 306.000 C 164.890 306.473,165.631 306.551,165.339 306.085 C 164.925 305.421,164.962 304.957,165.415 305.131 C 165.790 305.275,165.981 304.927,165.892 304.260 C 165.878 304.149,166.047 303.989,166.269 303.903 C 166.559 303.792,166.631 303.972,166.523 304.535 C 166.418 305.081,166.482 305.255,166.730 305.101 C 166.926 304.980,167.020 304.772,166.938 304.639 C 166.856 304.507,166.988 304.136,167.231 303.815 C 167.484 303.480,167.677 303.395,167.683 303.615 C 167.688 303.827,167.812 304.000,167.957 304.000 C 168.103 304.000,168.152 303.631,168.066 303.180 C 167.938 302.513,168.003 302.397,168.416 302.555 C 168.751 302.684,168.923 302.590,168.923 302.280 C 168.923 301.986,168.779 301.896,168.538 302.041 C 168.245 302.217,168.235 302.167,168.497 301.828 C 168.686 301.584,168.930 301.177,169.039 300.923 C 169.148 300.669,169.176 300.789,169.100 301.189 L 168.962 301.917 169.655 301.266 C 170.036 300.908,170.546 300.613,170.789 300.611 C 171.160 300.607,171.156 300.558,170.769 300.308 C 170.434 300.091,170.418 300.008,170.710 300.005 C 170.932 300.002,171.034 299.871,170.936 299.714 C 170.839 299.556,170.900 299.340,171.072 299.234 C 171.244 299.128,171.385 299.195,171.385 299.385 C 171.385 299.574,171.530 299.639,171.707 299.529 C 171.928 299.393,171.916 299.192,171.670 298.896 C 171.386 298.554,171.410 298.462,171.786 298.462 C 172.048 298.462,172.337 298.704,172.428 299.000 C 172.519 299.296,172.548 299.158,172.493 298.692 C 172.432 298.175,172.540 297.846,172.770 297.846 C 172.978 297.846,173.494 297.574,173.917 297.241 C 174.341 296.908,174.752 296.700,174.831 296.779 C 175.128 297.076,174.979 295.827,174.665 295.385 C 174.394 295.003,174.412 294.990,174.769 295.308 C 175.350 295.826,176.021 295.796,175.816 295.262 C 175.725 295.025,175.801 294.739,175.984 294.625 C 176.168 294.512,176.225 294.269,176.111 294.085 C 175.985 293.881,176.049 293.840,176.275 293.980 C 176.546 294.147,176.555 294.318,176.308 294.615 C 176.074 294.897,176.070 295.084,176.293 295.222 C 176.470 295.331,176.615 295.206,176.615 294.944 C 176.615 294.681,176.892 294.294,177.231 294.082 C 177.569 293.871,177.846 293.516,177.846 293.292 C 177.846 293.064,178.001 292.983,178.201 293.106 C 178.417 293.240,178.473 293.191,178.345 292.983 C 178.143 292.657,181.775 288.615,182.269 288.615 C 182.395 288.615,182.420 288.741,182.325 288.894 C 182.231 289.048,182.455 289.095,182.823 288.998 L 183.493 288.823 182.829 288.577 C 182.389 288.415,182.227 288.166,182.351 287.845 C 182.517 287.411,182.606 287.418,183.168 287.910 C 183.594 288.283,183.709 288.312,183.523 288.000 C 183.042 287.193,183.117 286.814,183.853 286.332 C 184.398 285.974,184.613 285.952,184.750 286.239 C 184.849 286.446,184.872 286.304,184.801 285.923 C 184.653 285.122,185.071 285.000,185.477 285.726 C 185.730 286.178,185.772 286.177,185.951 285.710 C 186.066 285.410,186.021 285.276,185.843 285.387 C 185.411 285.654,185.465 285.260,185.923 284.802 C 186.318 284.407,186.548 284.308,187.067 284.308 C 187.231 284.308,187.286 284.100,187.188 283.846 C 187.091 283.592,187.173 283.385,187.370 283.385 C 187.567 283.385,187.643 283.246,187.538 283.076 C 187.433 282.907,187.678 282.643,188.082 282.489 C 188.780 282.223,190.049 280.688,189.924 280.259 C 189.892 280.148,190.311 280.124,190.856 280.206 C 191.812 280.350,191.825 280.338,191.231 279.850 C 190.852 279.540,190.790 279.392,191.070 279.466 C 191.686 279.628,192.636 278.694,192.699 277.866 C 192.743 277.275,192.793 277.253,193.107 277.682 C 193.434 278.128,193.482 278.128,193.652 277.685 C 193.760 277.404,193.711 277.278,193.535 277.387 C 193.368 277.490,193.231 277.487,193.231 277.381 C 193.231 277.139,194.228 276.126,194.363 276.231 C 194.674 276.473,195.034 276.246,194.898 275.892 C 194.807 275.654,195.108 275.250,195.600 274.950 L 196.462 274.425 195.735 275.059 C 195.336 275.407,195.163 275.692,195.351 275.692 C 195.539 275.692,195.796 275.692,195.923 275.692 C 196.050 275.692,196.159 275.588,196.165 275.462 C 196.190 274.929,196.975 273.842,197.224 273.996 C 197.373 274.088,197.583 273.884,197.691 273.543 C 197.799 273.202,197.983 272.923,198.100 272.923 C 198.452 272.923,199.173 221.638,198.832 220.846 C 198.778 220.719,193.116 220.615,186.252 220.615 C 175.846 220.615,173.828 220.684,174.114 221.028 M191.961 278.800 C 191.391 279.161,191.077 279.144,191.077 278.751 C 191.077 278.572,191.201 278.502,191.352 278.595 C 191.504 278.689,191.728 278.524,191.850 278.229 C 192.018 277.821,192.109 277.793,192.227 278.113 C 192.313 278.344,192.193 278.653,191.961 278.800 M112.846 282.839 C 112.759 283.267,112.137 284.000,111.861 284.000 C 111.760 284.000,111.905 283.654,112.182 283.231 C 112.733 282.390,112.966 282.253,112.846 282.839 M74.468 300.846 C 74.408 305.119,74.347 308.846,74.333 309.128 C 74.319 309.410,74.484 309.677,74.700 309.721 C 74.916 309.764,74.985 309.741,74.854 309.670 C 74.723 309.598,74.659 306.666,74.712 303.154 C 74.765 299.642,74.756 295.938,74.693 294.923 C 74.630 293.908,74.529 296.573,74.468 300.846 M91.479 304.198 C 91.277 304.280,91.186 304.581,91.277 304.866 C 91.419 305.309,91.394 305.318,91.111 304.923 C 90.634 304.261,90.692 303.997,91.308 304.024 C 91.604 304.038,91.681 304.116,91.479 304.198 " stroke="none" fill="#6bc5fb" fill-rule="evenodd"></path><path id="path3" d="M264.726 110.692 C 264.830 113.188,264.925 118.796,264.937 123.154 C 264.950 127.888,265.076 131.077,265.249 131.077 C 265.408 131.077,265.516 130.973,265.488 130.846 C 265.305 130.009,265.943 128.953,266.463 129.232 C 266.924 129.478,266.990 129.426,266.858 128.921 C 266.771 128.588,266.555 128.404,266.379 128.513 C 266.191 128.628,266.151 128.561,266.281 128.350 C 266.404 128.152,266.618 128.061,266.758 128.147 C 266.898 128.233,267.093 128.095,267.191 127.840 C 267.289 127.584,267.727 127.239,268.164 127.073 C 268.602 126.907,268.889 126.655,268.801 126.513 C 268.714 126.372,268.842 126.256,269.086 126.256 C 269.443 126.256,269.455 126.345,269.149 126.717 C 268.842 127.089,268.852 127.150,269.201 127.034 C 269.796 126.838,270.219 125.615,269.785 125.347 C 269.578 125.219,269.530 125.276,269.663 125.491 C 269.784 125.686,269.736 125.846,269.557 125.846 C 269.377 125.846,269.231 125.729,269.231 125.586 C 269.231 125.259,270.266 124.308,270.621 124.308 C 270.767 124.308,270.618 124.507,270.290 124.752 C 269.722 125.173,269.735 125.191,270.539 125.110 C 271.005 125.063,271.489 124.910,271.616 124.771 C 271.743 124.631,271.673 124.616,271.462 124.738 C 271.250 124.860,271.077 124.813,271.077 124.634 C 271.077 124.454,271.224 124.308,271.403 124.308 C 271.582 124.308,271.659 124.194,271.573 124.056 C 271.488 123.918,271.680 123.615,272.000 123.385 C 272.320 123.154,272.512 122.852,272.427 122.713 C 272.341 122.575,272.522 122.459,272.828 122.457 C 273.306 122.453,273.319 122.406,272.923 122.122 C 272.552 121.858,272.598 121.823,273.154 121.944 C 273.534 122.028,273.924 121.968,274.021 121.812 C 274.117 121.656,274.360 121.610,274.560 121.710 C 274.760 121.810,274.646 121.665,274.308 121.388 C 273.754 120.936,273.741 120.848,274.181 120.519 C 274.450 120.318,274.750 119.946,274.849 119.692 C 274.992 119.323,275.033 119.339,275.053 119.769 C 275.067 120.078,275.307 120.297,275.615 120.283 C 275.932 120.269,275.997 120.196,275.772 120.105 C 275.148 119.853,276.161 119.040,276.796 119.284 C 277.232 119.451,277.296 119.360,277.147 118.791 C 276.932 117.969,277.179 117.162,277.571 117.405 C 278.050 117.701,278.581 117.188,278.110 116.884 C 277.803 116.685,277.855 116.634,278.308 116.691 C 278.646 116.734,278.923 116.631,278.923 116.462 C 278.923 116.292,278.809 116.192,278.669 116.238 C 278.530 116.285,278.505 116.179,278.614 116.003 C 278.723 115.826,278.941 115.762,279.098 115.859 C 279.256 115.957,279.385 115.895,279.385 115.722 C 279.385 114.887,280.739 114.103,281.187 114.680 C 281.585 115.191,281.604 115.181,281.450 114.530 C 281.230 113.602,283.117 111.183,283.755 111.577 C 283.890 111.660,284.000 111.567,284.000 111.370 C 284.000 111.173,284.201 111.088,284.446 111.182 C 284.745 111.297,284.835 111.205,284.719 110.903 C 284.464 110.238,285.213 109.491,285.914 109.714 C 286.403 109.869,286.492 109.773,286.409 109.182 C 286.334 108.653,286.450 108.473,286.843 108.504 C 287.137 108.527,287.302 108.423,287.209 108.273 C 287.117 108.123,287.195 108.000,287.385 108.000 C 287.574 108.000,287.660 107.890,287.577 107.755 C 287.493 107.620,287.568 107.308,287.742 107.062 C 288.001 106.695,288.028 106.710,287.889 107.144 C 287.795 107.435,287.840 107.747,287.987 107.838 C 288.331 108.051,288.556 107.388,288.376 106.692 C 288.246 106.191,287.413 106.154,276.386 106.154 L 264.537 106.154 264.726 110.692 M267.669 127.615 C 267.656 127.742,267.599 128.089,267.542 128.386 C 267.416 129.043,267.878 128.803,268.317 127.983 C 268.569 127.511,268.537 127.385,268.165 127.385 C 267.905 127.385,267.682 127.488,267.669 127.615 M213.220 148.231 C 213.175 149.149,213.301 161.758,213.369 163.231 C 213.416 164.246,213.473 168.827,213.496 173.410 C 213.533 180.594,213.602 181.744,214.000 181.744 C 214.254 181.744,214.462 181.490,214.462 181.179 C 214.462 180.810,214.686 180.615,215.115 180.615 C 215.668 180.615,215.708 180.543,215.374 180.141 C 215.064 179.768,215.060 179.586,215.354 179.295 C 215.648 179.003,215.686 179.056,215.532 179.538 C 215.337 180.145,215.341 180.146,215.821 179.557 C 216.089 179.228,216.308 178.787,216.308 178.577 C 216.308 178.367,216.572 178.111,216.895 178.009 C 217.217 177.907,217.555 177.631,217.645 177.397 C 217.744 177.139,218.060 177.037,218.447 177.138 C 218.944 177.268,219.043 177.194,218.893 176.802 C 218.645 176.156,219.346 175.304,219.939 175.532 C 220.332 175.682,220.336 175.634,219.967 175.179 C 219.731 174.889,219.677 174.725,219.846 174.815 C 220.237 175.024,221.249 173.981,220.974 173.651 C 220.862 173.516,221.038 173.608,221.367 173.856 C 221.695 174.105,221.866 174.145,221.747 173.945 C 221.617 173.729,221.780 173.503,222.149 173.386 C 222.490 173.278,222.769 173.052,222.769 172.884 C 222.769 172.716,222.898 172.659,223.056 172.756 C 223.213 172.853,223.442 172.771,223.565 172.573 C 223.712 172.335,223.653 172.295,223.392 172.457 C 223.127 172.621,223.048 172.560,223.152 172.274 C 223.238 172.039,223.474 171.884,223.677 171.931 C 223.880 171.977,223.951 171.862,223.836 171.675 C 223.522 171.167,225.425 169.437,226.103 169.614 C 226.565 169.735,226.641 169.621,226.520 168.989 C 226.421 168.471,226.485 168.286,226.716 168.428 C 226.921 168.556,227.137 168.328,227.255 167.861 C 227.362 167.432,227.574 167.158,227.725 167.251 C 227.876 167.344,228.000 167.284,228.000 167.116 C 228.000 166.948,228.295 166.717,228.656 166.602 C 229.108 166.459,229.196 166.322,228.938 166.163 C 228.683 166.006,228.779 165.875,229.236 165.756 C 229.606 165.659,229.818 165.434,229.707 165.255 C 229.581 165.051,229.703 165.005,230.034 165.133 C 230.421 165.281,230.495 165.226,230.311 164.928 C 230.158 164.681,230.179 164.594,230.364 164.709 C 230.765 164.957,232.062 164.041,231.833 163.671 C 231.736 163.514,231.976 163.382,232.366 163.380 C 232.938 163.376,232.987 163.317,232.615 163.077 C 232.294 162.869,232.271 162.766,232.538 162.735 C 233.390 162.640,233.497 162.605,233.744 162.343 C 233.891 162.186,233.643 162.134,233.163 162.221 C 232.703 162.304,232.400 162.254,232.489 162.109 C 232.578 161.965,232.929 161.846,233.267 161.846 C 233.606 161.846,233.820 161.742,233.743 161.615 C 233.666 161.488,233.796 161.206,234.032 160.988 C 234.268 160.770,234.462 160.731,234.462 160.901 C 234.462 161.072,234.660 161.135,234.904 161.042 C 235.158 160.944,235.267 160.666,235.159 160.386 C 235.025 160.037,235.088 159.971,235.380 160.151 C 235.664 160.326,235.714 160.285,235.547 160.013 C 235.199 159.451,236.030 159.032,236.605 159.479 C 237.018 159.800,237.024 159.779,236.658 159.311 C 236.300 158.855,236.308 158.750,236.715 158.594 C 236.977 158.493,237.119 158.220,237.030 157.987 C 236.870 157.572,238.186 157.018,238.965 157.172 C 239.157 157.211,239.393 157.039,239.488 156.790 C 239.587 156.531,239.504 156.376,239.292 156.427 C 239.089 156.475,239.027 156.456,239.154 156.385 C 239.281 156.314,239.385 156.068,239.385 155.839 C 239.385 155.609,239.547 155.321,239.745 155.198 C 239.985 155.050,240.041 155.142,239.912 155.478 C 239.806 155.754,239.855 156.064,240.021 156.167 C 240.187 156.269,240.303 156.239,240.279 156.100 C 240.147 155.341,240.349 154.451,240.615 154.615 C 240.786 154.721,240.925 154.489,240.928 154.095 C 240.931 153.626,241.015 153.515,241.177 153.769 C 241.370 154.074,241.538 154.068,241.988 153.739 C 242.430 153.416,242.467 153.270,242.153 153.076 C 241.870 152.902,241.825 152.948,242.000 153.231 C 242.166 153.499,242.129 153.559,241.889 153.411 C 241.393 153.105,241.801 152.532,242.361 152.747 C 242.882 152.947,244.000 152.430,244.000 151.989 C 244.000 151.826,243.853 151.692,243.674 151.692 C 243.495 151.692,243.434 151.831,243.538 152.000 C 243.643 152.169,243.582 152.308,243.403 152.308 C 242.765 152.308,243.091 151.701,243.973 151.245 C 244.639 150.900,244.827 150.622,244.706 150.160 C 244.586 149.699,244.692 149.540,245.118 149.543 C 245.550 149.547,245.591 149.612,245.282 149.808 C 244.953 150.016,244.972 150.107,245.375 150.261 C 245.668 150.374,245.800 150.328,245.691 150.152 C 245.588 149.985,245.853 149.689,246.281 149.495 C 246.708 149.300,246.985 149.023,246.895 148.878 C 246.806 148.734,246.888 148.615,247.077 148.615 C 247.266 148.615,247.335 148.477,247.231 148.308 C 247.007 147.945,213.237 147.869,213.220 148.231 M74.594 251.936 L 74.610 309.564 75.337 309.746 C 76.103 309.939,84.331 309.675,85.385 309.424 C 85.723 309.344,86.208 309.265,86.462 309.250 C 86.735 309.233,86.798 309.129,86.615 308.995 C 86.446 308.871,86.263 308.565,86.208 308.316 C 86.135 307.984,86.298 308.026,86.818 308.470 C 87.394 308.962,87.447 308.973,87.100 308.525 C 86.520 307.778,88.426 306.035,89.308 306.504 C 89.715 306.721,89.846 306.672,89.846 306.300 C 89.846 306.008,89.703 305.898,89.491 306.029 C 89.264 306.170,89.220 306.113,89.368 305.873 C 89.496 305.666,89.802 305.574,90.047 305.668 C 90.296 305.763,90.410 305.705,90.306 305.535 C 90.202 305.368,90.260 305.231,90.434 305.231 C 90.608 305.231,90.665 305.010,90.561 304.740 C 90.333 304.144,92.509 302.087,93.221 302.227 C 93.765 302.334,94.554 301.030,94.261 300.506 C 94.141 300.293,94.227 300.306,94.478 300.538 C 94.973 300.998,95.500 301.051,95.231 300.615 C 95.126 300.446,95.256 300.308,95.520 300.308 C 95.784 300.308,95.989 300.065,95.976 299.769 C 95.961 299.448,95.889 299.386,95.796 299.615 C 95.711 299.827,95.497 300.000,95.321 300.000 C 95.125 300.000,95.146 299.825,95.376 299.548 C 95.583 299.300,95.902 299.127,96.086 299.164 C 96.270 299.201,96.614 298.842,96.851 298.368 C 97.175 297.716,97.377 297.585,97.676 297.833 C 97.963 298.071,98.170 298.044,98.425 297.736 C 98.723 297.377,97.980 297.302,93.677 297.253 C 90.872 297.222,88.377 297.120,88.134 297.027 C 87.753 296.881,87.692 291.033,87.692 254.531 C 87.692 231.252,87.624 212.274,87.540 212.357 C 87.456 212.441,87.362 213.430,87.331 214.555 C 87.282 216.324,87.213 216.549,86.818 216.223 C 86.424 215.898,86.409 215.937,86.712 216.506 C 86.991 217.029,86.970 217.244,86.609 217.544 C 86.331 217.774,86.154 217.797,86.154 217.602 C 86.154 217.426,86.323 217.226,86.531 217.156 C 86.738 217.087,86.617 216.955,86.262 216.862 C 85.732 216.724,85.646 216.805,85.780 217.318 C 85.898 217.768,85.834 217.875,85.553 217.701 C 85.032 217.379,84.639 218.061,84.808 218.992 C 84.923 219.623,84.876 219.674,84.504 219.329 C 84.262 219.106,84.141 218.798,84.234 218.645 C 84.327 218.492,84.246 218.463,84.055 218.581 C 83.864 218.699,83.754 219.194,83.810 219.679 C 83.882 220.292,83.795 220.517,83.526 220.414 C 83.297 220.326,83.157 220.487,83.185 220.807 C 83.210 221.105,82.885 221.527,82.462 221.746 C 81.999 221.984,81.728 222.360,81.782 222.687 C 81.853 223.118,81.812 223.141,81.582 222.801 C 81.386 222.510,81.477 222.043,81.863 221.354 C 82.307 220.564,82.335 220.376,81.986 220.509 C 81.740 220.604,81.538 220.893,81.538 221.151 C 81.538 221.641,80.168 223.077,79.701 223.077 C 79.554 223.077,79.337 223.527,79.219 224.077 C 78.928 225.432,78.745 225.680,78.400 225.187 C 78.156 224.839,78.078 224.843,77.931 225.213 C 77.834 225.458,77.444 225.968,77.064 226.348 C 76.684 226.729,76.462 227.139,76.571 227.261 C 76.680 227.383,76.594 227.382,76.380 227.259 C 76.165 227.135,76.064 226.915,76.154 226.769 C 76.244 226.623,76.172 226.414,75.994 226.304 C 75.785 226.175,75.696 226.498,75.744 227.208 C 75.794 227.951,75.634 228.489,75.258 228.849 C 74.720 229.363,74.713 229.355,75.072 228.655 C 75.313 228.184,75.327 227.999,75.110 228.133 C 74.870 228.282,74.747 223.517,74.676 211.324 C 74.622 201.965,74.585 220.240,74.594 251.936 M162.403 220.846 C 162.044 221.716,162.529 232.040,162.921 231.889 C 163.162 231.797,163.314 231.887,163.266 232.093 C 163.217 232.296,163.236 232.358,163.307 232.231 C 163.378 232.104,163.667 231.998,163.949 231.995 C 164.392 231.991,164.399 231.950,164.000 231.692 C 163.665 231.476,163.649 231.393,163.941 231.389 C 164.163 231.387,164.256 231.243,164.149 231.069 C 164.042 230.896,164.138 230.792,164.362 230.839 C 164.586 230.885,164.731 230.740,164.685 230.516 C 164.638 230.291,164.742 230.196,164.915 230.303 C 165.089 230.410,165.233 230.247,165.235 229.941 C 165.238 229.629,165.340 229.520,165.466 229.692 C 165.813 230.165,166.554 230.244,166.262 229.777 C 165.828 229.082,165.887 228.650,166.389 228.843 C 166.706 228.965,166.794 228.905,166.648 228.668 C 166.525 228.470,166.580 228.308,166.769 228.308 C 166.958 228.308,167.037 228.184,166.943 228.032 C 166.849 227.881,166.958 227.686,167.184 227.599 C 167.483 227.484,167.555 227.657,167.446 228.228 C 167.338 228.791,167.401 228.949,167.668 228.784 C 167.873 228.657,167.967 228.480,167.877 228.390 C 167.609 228.121,168.314 227.045,168.631 227.240 C 168.792 227.340,168.923 227.205,168.923 226.941 C 168.923 226.677,168.763 226.462,168.568 226.462 C 168.370 226.462,168.467 226.181,168.786 225.827 C 169.112 225.468,169.599 225.255,169.911 225.337 C 170.214 225.416,170.385 225.356,170.290 225.202 C 170.195 225.049,170.280 224.923,170.479 224.923 C 170.681 224.923,170.774 224.669,170.690 224.347 C 170.574 223.903,170.673 223.805,171.116 223.921 C 171.438 224.005,171.692 223.912,171.692 223.710 C 171.692 223.511,171.532 223.447,171.337 223.568 C 171.117 223.704,171.065 223.652,171.201 223.432 C 171.322 223.237,171.616 223.077,171.853 223.077 C 172.371 223.077,172.994 222.029,172.681 221.683 C 172.561 221.549,172.635 221.539,172.846 221.661 C 173.062 221.785,173.231 221.723,173.231 221.519 C 173.231 221.250,173.338 221.244,173.644 221.498 C 174.180 221.944,174.559 221.565,174.114 221.028 C 173.737 220.574,162.586 220.401,162.403 220.846 M110.662 257.846 C 110.430 258.606,110.985 284.431,111.231 284.308 C 111.400 284.223,111.522 283.915,111.502 283.622 C 111.482 283.330,111.572 283.156,111.701 283.236 C 111.830 283.316,112.015 283.173,112.113 282.919 C 112.211 282.664,112.675 282.288,113.145 282.081 C 114.150 281.641,115.077 280.693,115.077 280.107 C 115.077 279.879,115.224 279.692,115.403 279.692 C 115.582 279.692,115.629 279.865,115.507 280.077 C 115.381 280.297,115.404 280.353,115.562 280.209 C 115.714 280.070,115.840 279.724,115.842 279.440 C 115.845 279.099,116.056 278.954,116.462 279.013 C 116.946 279.084,116.983 279.039,116.635 278.806 C 116.149 278.479,116.663 277.538,117.327 277.538 C 117.508 277.538,117.413 277.716,117.115 277.934 C 116.609 278.304,116.614 278.330,117.195 278.330 C 117.537 278.330,117.769 278.282,117.710 278.223 C 117.510 278.023,118.992 276.615,119.402 276.615 C 119.654 276.615,119.584 276.450,119.219 276.183 C 118.661 275.776,118.673 275.759,119.424 275.903 C 119.991 276.011,120.280 275.901,120.425 275.522 C 120.592 275.087,120.549 275.057,120.188 275.356 C 119.847 275.639,119.695 275.638,119.518 275.352 C 119.378 275.126,119.419 275.062,119.624 275.188 C 119.807 275.302,120.044 275.254,120.151 275.082 C 120.257 274.910,120.596 274.769,120.904 274.769 C 121.664 274.769,122.187 274.090,121.849 273.543 C 121.471 272.931,121.812 272.512,122.335 272.946 C 122.667 273.221,122.769 273.221,122.769 272.943 C 122.769 272.743,122.931 272.679,123.129 272.802 C 123.358 272.943,123.430 272.865,123.328 272.589 C 123.239 272.350,123.518 271.808,123.947 271.385 C 124.429 270.910,124.559 270.851,124.287 271.231 C 123.879 271.800,123.887 271.814,124.388 271.421 C 124.835 271.071,124.862 270.910,124.542 270.515 C 124.237 270.138,124.236 270.085,124.538 270.267 C 124.768 270.404,124.925 270.335,124.928 270.095 C 124.931 269.802,125.014 269.818,125.231 270.154 C 125.395 270.408,125.534 270.477,125.541 270.308 C 125.547 270.138,125.828 269.654,126.165 269.231 C 126.667 268.600,126.743 268.572,126.587 269.077 C 126.482 269.415,126.693 269.230,127.057 268.664 C 127.423 268.094,127.894 267.704,128.115 267.789 C 128.334 267.873,128.513 267.760,128.513 267.538 C 128.513 267.306,128.317 267.211,128.049 267.314 C 127.777 267.418,127.862 267.215,128.254 266.823 C 128.622 266.455,129.123 266.154,129.366 266.154 C 130.037 266.154,130.258 265.573,129.798 265.019 C 129.437 264.584,129.476 264.554,130.126 264.760 C 130.721 264.949,130.827 264.901,130.677 264.510 C 130.526 264.118,130.621 264.076,131.182 264.289 C 131.743 264.503,131.882 264.442,131.918 263.968 C 131.942 263.647,131.848 263.385,131.709 263.385 C 131.569 263.385,131.820 262.983,132.266 262.493 C 133.084 261.594,133.652 261.429,132.929 262.300 C 132.608 262.688,132.627 262.769,133.039 262.769 C 133.314 262.769,133.523 262.665,133.505 262.538 C 133.411 261.887,133.949 260.982,134.342 261.132 C 134.629 261.243,134.718 261.148,134.605 260.853 C 134.511 260.607,134.648 260.229,134.909 260.012 C 135.309 259.680,135.386 259.709,135.394 260.193 C 135.403 260.733,135.423 260.736,135.718 260.228 C 135.892 259.931,135.934 259.527,135.812 259.330 C 135.662 259.086,135.765 259.039,136.138 259.182 C 136.544 259.338,136.638 259.272,136.505 258.927 C 136.407 258.671,136.451 258.462,136.602 258.462 C 136.754 258.462,136.923 258.691,136.977 258.971 C 137.066 259.423,137.128 259.414,137.528 258.894 C 137.777 258.572,137.859 258.410,137.710 258.536 C 137.562 258.661,137.234 258.592,136.982 258.382 C 136.645 258.102,134.211 257.979,127.876 257.922 C 123.121 257.880,117.313 257.810,114.970 257.769 C 112.627 257.727,110.688 257.762,110.662 257.846 M112.182 283.231 C 111.651 284.041,111.790 284.274,112.407 283.608 C 112.768 283.218,113.030 282.462,112.805 282.462 C 112.739 282.462,112.459 282.808,112.182 283.231 M90.774 304.231 C 90.777 304.358,90.928 304.669,91.111 304.923 C 91.394 305.318,91.419 305.309,91.277 304.866 C 91.186 304.581,91.277 304.280,91.479 304.198 C 91.681 304.116,91.604 304.038,91.308 304.024 C 91.012 304.011,90.771 304.104,90.774 304.231 " stroke="none" fill="#8bc0fc" fill-rule="evenodd"></path><path id="path4" d="M301.877 157.846 C 301.820 163.685,301.795 168.582,301.822 168.730 C 301.849 168.878,301.658 168.917,301.397 168.817 C 301.136 168.717,300.923 168.769,300.923 168.933 C 300.923 169.097,301.096 169.235,301.308 169.241 C 301.543 169.247,301.483 169.409,301.154 169.659 C 300.858 169.884,300.615 170.226,300.615 170.419 C 300.615 170.611,300.477 170.769,300.308 170.769 C 300.138 170.769,300.000 170.977,300.000 171.231 C 300.000 171.485,299.875 171.692,299.721 171.692 C 299.568 171.692,299.479 171.450,299.523 171.154 C 299.568 170.858,299.544 170.788,299.472 171.000 C 299.399 171.212,299.211 171.385,299.054 171.385 C 298.898 171.385,298.769 171.645,298.769 171.962 C 298.769 172.280,298.527 172.730,298.231 172.962 C 297.733 173.353,297.727 173.340,298.154 172.796 C 298.586 172.244,298.574 172.229,297.967 172.553 C 297.610 172.743,297.087 173.250,296.806 173.680 C 296.524 174.110,296.054 174.478,295.762 174.498 C 295.470 174.518,295.646 174.640,296.154 174.769 C 296.900 174.959,296.944 175.011,296.385 175.041 C 296.004 175.061,295.692 175.224,295.692 175.403 C 295.692 175.582,295.554 175.643,295.385 175.538 C 295.215 175.434,295.077 175.483,295.077 175.649 C 295.077 175.814,295.250 176.029,295.462 176.128 C 295.673 176.226,295.403 176.263,294.862 176.209 C 294.321 176.155,293.943 176.215,294.021 176.342 C 294.100 176.469,294.023 176.660,293.851 176.766 C 293.679 176.872,293.538 177.228,293.538 177.557 C 293.538 178.193,293.087 178.360,292.766 177.841 C 292.460 177.346,292.042 177.786,292.210 178.427 C 292.293 178.746,292.212 179.100,292.030 179.212 C 291.824 179.340,291.759 179.208,291.859 178.862 C 291.949 178.549,291.860 178.609,291.655 179.000 C 291.454 179.381,291.139 179.694,290.953 179.697 C 290.767 179.700,290.823 179.836,291.077 180.000 C 291.471 180.255,291.460 180.299,291.000 180.303 C 290.704 180.306,290.462 180.446,290.462 180.615 C 290.462 180.785,290.315 180.923,290.136 180.923 C 289.956 180.923,289.909 180.763,290.029 180.568 C 290.171 180.339,290.113 180.297,289.867 180.449 C 289.592 180.619,289.578 180.778,289.819 181.019 C 290.245 181.445,290.249 181.846,289.828 181.846 C 289.649 181.846,289.588 181.708,289.692 181.538 C 290.020 181.008,289.212 181.202,288.254 181.884 C 287.509 182.415,287.372 182.689,287.524 183.346 C 287.664 183.952,287.633 184.039,287.399 183.692 C 287.130 183.295,287.080 183.305,287.043 183.769 C 286.961 184.795,286.922 184.923,286.692 184.923 C 286.565 184.923,286.375 184.923,286.270 184.923 C 286.165 184.923,286.269 184.681,286.501 184.385 C 286.874 183.908,286.867 183.890,286.433 184.228 C 286.164 184.438,285.871 184.537,285.782 184.448 C 285.693 184.359,285.671 184.672,285.734 185.143 C 285.797 185.614,285.768 185.827,285.668 185.615 C 285.569 185.404,285.352 185.231,285.187 185.231 C 285.022 185.231,284.963 185.355,285.057 185.506 C 285.151 185.658,285.012 185.864,284.748 185.966 C 284.484 186.067,284.354 186.287,284.458 186.456 C 284.567 186.633,284.445 186.685,284.170 186.579 C 283.595 186.358,283.546 186.787,284.077 187.392 C 284.288 187.633,284.140 187.560,283.746 187.231 C 283.353 186.902,283.058 186.767,283.091 186.932 C 283.249 187.730,283.020 188.284,282.457 188.463 C 282.116 188.571,281.917 188.788,282.014 188.945 C 282.111 189.102,282.044 189.231,281.864 189.231 C 281.685 189.231,281.538 189.058,281.538 188.846 C 281.538 188.635,281.291 188.946,280.989 189.538 C 280.688 190.131,280.273 190.581,280.067 190.538 C 279.861 190.496,279.692 190.600,279.692 190.769 C 279.692 191.186,280.105 191.157,280.554 190.708 C 280.757 190.505,280.923 190.455,280.923 190.597 C 280.923 190.883,279.978 191.667,279.615 191.683 C 279.488 191.688,279.380 191.450,279.375 191.154 C 279.366 190.643,279.350 190.643,279.051 191.156 C 278.878 191.454,278.821 191.835,278.925 192.002 C 279.028 192.170,278.863 192.319,278.557 192.332 C 278.193 192.348,278.142 192.413,278.410 192.520 C 278.681 192.628,278.492 192.883,277.853 193.272 C 277.321 193.595,276.770 193.788,276.629 193.701 C 276.253 193.468,276.014 194.294,276.224 195.099 C 276.373 195.668,276.309 195.758,275.873 195.591 C 275.238 195.348,274.225 196.160,274.849 196.413 C 275.059 196.497,274.919 196.578,274.538 196.591 C 274.158 196.604,273.846 196.762,273.846 196.941 C 273.846 197.120,274.006 197.168,274.201 197.048 C 274.430 196.906,274.473 196.964,274.321 197.210 C 274.150 197.485,273.991 197.498,273.750 197.258 C 273.121 196.629,272.826 196.922,273.414 197.591 C 273.736 197.959,273.836 198.164,273.637 198.048 C 273.437 197.931,273.194 197.964,273.098 198.120 C 273.001 198.276,272.611 198.336,272.230 198.252 C 271.674 198.130,271.629 198.165,272.000 198.430 C 272.403 198.718,272.398 198.760,271.956 198.765 C 271.670 198.767,271.364 199.118,271.249 199.575 C 271.138 200.018,270.976 200.309,270.889 200.223 C 270.715 200.049,269.089 201.564,269.082 201.908 C 269.069 202.504,268.307 202.872,268.286 202.292 C 268.265 201.708,268.258 201.708,268.000 202.308 C 267.624 203.183,267.638 203.454,268.048 203.201 C 268.253 203.075,268.320 203.116,268.206 203.300 C 268.098 203.474,267.520 203.850,266.921 204.134 C 266.244 204.456,265.911 204.790,266.042 205.018 C 266.158 205.220,266.140 205.283,266.003 205.159 C 265.866 205.034,265.585 205.162,265.380 205.443 C 265.076 205.859,264.995 205.415,264.948 203.063 C 264.915 201.472,264.828 200.110,264.752 200.034 C 264.677 199.959,264.615 216.761,264.615 237.371 C 264.615 271.155,264.662 274.806,265.091 274.449 C 265.474 274.132,265.489 273.999,265.168 273.772 C 264.898 273.581,265.033 273.532,265.590 273.621 C 266.356 273.742,266.391 273.698,266.126 272.952 C 265.869 272.228,265.883 272.206,266.276 272.711 C 266.718 273.278,267.300 272.917,266.924 272.309 C 266.798 272.106,267.026 272.106,267.598 272.310 C 268.400 272.597,268.419 272.586,267.869 272.159 C 267.344 271.752,267.324 271.612,267.690 270.927 C 267.917 270.502,268.175 270.226,268.262 270.313 C 268.349 270.400,268.257 270.636,268.056 270.836 C 267.559 271.333,267.598 271.709,268.126 271.507 C 268.365 271.415,268.647 270.992,268.754 270.566 C 268.923 269.893,269.014 269.846,269.448 270.204 C 269.894 270.572,269.910 270.545,269.594 269.954 C 269.221 269.254,269.915 268.595,270.325 269.259 C 270.449 269.460,270.670 269.441,270.954 269.205 C 271.290 268.926,271.309 268.742,271.037 268.414 C 270.750 268.068,270.789 268.027,271.241 268.200 C 271.681 268.369,271.756 268.302,271.595 267.884 C 271.458 267.525,271.508 267.424,271.748 267.573 C 271.986 267.720,272.039 267.623,271.908 267.281 C 271.800 267.000,271.846 266.769,272.010 266.769 C 272.174 266.769,272.319 267.012,272.332 267.308 C 272.347 267.633,272.418 267.693,272.512 267.460 C 272.598 267.247,272.816 267.165,272.997 267.276 C 273.213 267.410,273.233 267.331,273.056 267.048 C 272.599 266.315,272.645 265.877,273.158 266.074 C 273.476 266.196,273.564 266.136,273.417 265.898 C 273.295 265.700,273.349 265.538,273.538 265.538 C 273.728 265.538,273.806 265.415,273.712 265.263 C 273.619 265.112,273.727 264.916,273.954 264.830 C 274.252 264.715,274.324 264.888,274.215 265.458 C 274.111 266.004,274.174 266.178,274.422 266.024 C 274.618 265.903,274.712 265.695,274.630 265.563 C 274.548 265.430,274.680 265.059,274.923 264.738 C 275.177 264.403,275.369 264.318,275.375 264.538 C 275.380 264.750,275.504 264.923,275.650 264.923 C 275.795 264.923,275.848 264.577,275.768 264.154 C 275.618 263.372,276.128 263.067,276.412 263.769 C 276.497 263.981,276.578 263.834,276.591 263.443 C 276.608 262.953,276.496 262.805,276.231 262.964 C 275.937 263.140,275.928 263.090,276.189 262.751 C 276.378 262.507,276.622 262.100,276.731 261.846 C 276.844 261.585,276.876 261.677,276.806 262.059 C 276.698 262.651,276.753 262.689,277.264 262.369 C 277.584 262.169,277.846 261.901,277.846 261.772 C 277.846 261.644,278.115 261.538,278.443 261.538 C 278.772 261.538,279.118 261.413,279.213 261.259 C 279.308 261.106,279.074 261.038,278.693 261.109 C 278.312 261.180,278.174 261.155,278.387 261.054 C 278.599 260.953,278.701 260.753,278.612 260.610 C 278.524 260.467,278.592 260.263,278.764 260.157 C 278.936 260.051,279.077 260.118,279.077 260.308 C 279.077 260.497,279.222 260.562,279.400 260.452 C 279.620 260.316,279.608 260.116,279.362 259.819 C 279.077 259.475,279.106 259.385,279.501 259.385 C 279.775 259.385,280.000 259.615,280.000 259.897 C 280.000 260.493,280.396 260.198,280.495 259.530 C 280.531 259.281,280.400 259.071,280.204 259.063 C 280.007 259.055,280.236 258.882,280.714 258.678 C 281.191 258.475,281.578 258.169,281.574 258.000 C 281.570 257.831,281.814 257.732,282.117 257.780 C 282.704 257.873,282.895 257.038,282.424 256.436 C 282.263 256.230,282.333 256.103,282.607 256.103 C 282.850 256.103,282.979 256.218,282.891 256.359 C 282.804 256.500,282.944 256.615,283.203 256.615 C 283.479 256.615,283.605 256.438,283.508 256.185 C 283.417 255.948,283.493 255.662,283.676 255.548 C 283.860 255.435,283.917 255.192,283.804 255.008 C 283.677 254.804,283.741 254.763,283.967 254.903 C 284.238 255.070,284.247 255.241,284.000 255.538 C 283.767 255.820,283.762 256.007,283.985 256.145 C 284.163 256.254,284.308 256.129,284.308 255.867 C 284.308 255.605,284.585 255.217,284.923 255.006 C 285.262 254.794,285.538 254.455,285.538 254.251 C 285.538 254.048,285.830 253.677,286.187 253.427 C 286.544 253.177,286.753 252.838,286.652 252.675 C 286.551 252.511,286.709 252.396,287.003 252.419 C 287.353 252.447,287.750 252.006,288.148 251.148 C 288.517 250.355,288.914 249.895,289.152 249.986 C 289.638 250.173,291.077 249.547,291.077 249.148 C 291.077 248.988,290.874 248.935,290.625 249.031 C 290.377 249.126,290.078 249.050,289.962 248.862 C 289.842 248.667,289.890 248.606,290.074 248.720 C 290.252 248.830,290.476 248.715,290.571 248.465 C 290.670 248.208,290.950 248.089,291.217 248.191 C 291.477 248.291,291.599 248.518,291.489 248.695 C 291.375 248.879,291.437 248.927,291.631 248.807 C 291.819 248.691,291.895 248.391,291.798 248.141 C 291.670 247.805,291.768 247.741,292.170 247.895 C 292.543 248.038,292.646 247.991,292.495 247.746 C 292.151 247.190,292.001 246.118,292.292 246.298 C 292.434 246.386,292.636 246.237,292.740 245.966 C 292.845 245.692,293.127 245.551,293.377 245.647 C 293.624 245.742,293.910 245.685,294.011 245.520 C 294.113 245.355,294.324 245.299,294.479 245.396 C 294.635 245.492,294.680 245.356,294.579 245.093 C 294.478 244.830,294.552 244.615,294.743 244.615 C 294.934 244.615,295.247 244.272,295.438 243.852 C 295.747 243.173,295.827 243.143,296.150 243.585 C 296.430 243.968,296.520 243.984,296.546 243.656 C 296.632 242.560,296.862 242.062,297.408 241.792 C 297.957 241.520,297.961 241.530,297.466 241.934 C 297.173 242.173,297.023 242.459,297.134 242.570 C 297.574 243.010,298.453 241.790,298.130 241.187 C 297.838 240.641,298.834 239.843,299.400 240.170 C 299.493 240.224,299.736 240.000,299.941 239.672 C 300.235 239.202,300.232 239.076,299.926 239.072 C 299.664 239.069,299.688 238.971,300.000 238.769 C 300.254 238.605,300.669 238.479,300.923 238.488 C 301.333 238.503,301.333 238.528,300.923 238.714 C 300.531 238.892,300.157 240.000,300.489 240.000 C 300.705 240.000,301.561 238.532,301.768 237.808 C 301.978 237.070,302.257 159.524,302.078 151.538 C 302.025 149.169,301.934 152.008,301.877 157.846 M250.222 210.067 L 250.154 220.596 249.308 221.087 C 248.842 221.357,248.699 221.506,248.990 221.418 C 249.281 221.330,249.614 221.411,249.730 221.599 C 249.853 221.799,249.802 221.855,249.607 221.735 C 249.424 221.621,249.185 221.671,249.077 221.846 C 248.969 222.021,248.761 222.090,248.615 222.000 C 248.470 221.910,248.262 221.979,248.154 222.154 C 248.046 222.329,247.807 222.379,247.624 222.265 C 247.423 222.141,247.378 222.202,247.512 222.419 C 247.635 222.617,247.887 222.685,248.074 222.570 C 248.295 222.433,248.341 222.547,248.206 222.898 C 248.093 223.193,248.000 223.546,248.000 223.682 C 248.000 223.817,247.723 224.001,247.384 224.089 C 247.045 224.178,246.845 224.126,246.939 223.975 C 247.032 223.823,246.898 223.780,246.641 223.879 C 246.384 223.978,246.185 224.149,246.200 224.260 C 246.278 224.851,246.109 225.022,245.846 224.615 C 245.583 224.209,245.547 224.211,245.543 224.631 C 245.541 224.893,245.689 225.258,245.873 225.442 C 246.114 225.683,246.101 225.843,245.825 226.013 C 245.593 226.157,245.521 226.123,245.643 225.926 C 245.753 225.748,245.636 225.524,245.383 225.427 C 245.106 225.320,244.923 225.426,244.923 225.692 C 244.923 225.948,244.739 226.064,244.486 225.967 C 244.172 225.846,244.072 226.007,244.130 226.541 C 244.179 226.986,244.052 227.282,243.812 227.282 C 243.592 227.282,243.501 227.132,243.611 226.949 C 243.721 226.765,243.555 226.823,243.242 227.077 C 242.733 227.490,242.727 227.549,243.181 227.638 C 243.584 227.716,243.467 227.972,242.616 228.868 C 242.026 229.491,241.543 230.104,241.541 230.231 C 241.540 230.358,241.379 230.462,241.183 230.462 C 240.970 230.462,241.032 230.236,241.337 229.899 C 241.617 229.589,241.836 229.139,241.825 228.899 C 241.808 228.568,241.752 228.582,241.594 228.956 C 240.974 230.419,239.603 231.666,238.955 231.354 C 238.382 231.078,238.391 231.115,239.034 231.675 C 239.811 232.352,239.699 232.498,238.781 232.006 C 238.372 231.788,238.115 231.830,237.841 232.160 C 237.610 232.438,237.588 232.615,237.783 232.615 C 237.959 232.615,238.158 232.449,238.226 232.246 C 238.322 231.958,238.400 231.958,238.577 232.246 C 238.703 232.449,238.651 232.615,238.462 232.615 C 238.272 232.615,238.188 232.729,238.273 232.867 C 238.359 233.006,237.986 233.081,237.445 233.034 C 236.904 232.987,236.706 233.023,237.004 233.113 C 237.302 233.203,237.467 233.405,237.370 233.562 C 237.274 233.718,237.349 233.846,237.538 233.846 C 237.728 233.846,237.796 233.986,237.691 234.156 C 237.572 234.348,237.323 234.290,237.035 234.002 C 236.498 233.465,236.114 233.413,235.848 233.843 C 235.741 234.017,235.864 234.069,236.138 233.964 C 236.746 233.730,236.759 234.267,236.157 234.766 C 235.905 234.976,235.775 235.269,235.868 235.419 C 235.960 235.570,235.882 235.692,235.692 235.692 C 235.503 235.692,235.447 235.852,235.568 236.048 C 235.702 236.265,235.652 236.319,235.439 236.187 C 234.991 235.911,233.846 236.516,233.846 237.029 C 233.846 237.244,233.631 237.690,233.369 238.018 C 232.905 238.599,232.897 238.596,233.082 237.923 C 233.198 237.502,233.136 237.231,232.926 237.231 C 232.735 237.231,232.655 237.354,232.748 237.504 C 232.945 237.822,232.193 238.528,231.895 238.305 C 231.783 238.222,231.757 238.241,231.835 238.348 C 232.091 238.696,231.364 239.716,231.014 239.500 C 230.809 239.373,230.761 239.430,230.894 239.645 C 231.268 240.251,230.773 240.693,230.221 240.246 C 229.852 239.946,229.786 239.942,229.959 240.231 C 230.091 240.451,230.037 240.615,229.831 240.615 C 229.625 240.615,229.555 240.830,229.667 241.121 C 229.959 241.884,228.945 242.913,228.493 242.311 C 228.256 241.993,228.015 241.947,227.692 242.155 C 227.298 242.409,227.309 242.453,227.769 242.457 C 228.065 242.459,228.308 242.615,228.308 242.802 C 228.308 242.989,228.107 243.066,227.862 242.972 C 227.578 242.863,227.473 242.948,227.572 243.207 C 227.749 243.669,226.881 244.105,226.389 243.801 C 226.176 243.670,226.132 243.870,226.260 244.380 C 226.485 245.277,226.027 245.754,225.016 245.676 C 224.645 245.647,224.265 245.821,224.173 246.062 C 224.080 246.303,223.844 246.401,223.647 246.280 C 223.423 246.141,223.373 246.193,223.512 246.419 C 223.635 246.617,223.841 246.714,223.970 246.634 C 224.099 246.554,224.205 246.694,224.205 246.945 C 224.205 247.196,224.055 247.350,223.872 247.286 C 223.514 247.162,222.154 248.462,222.154 248.929 C 222.154 249.084,221.952 249.134,221.705 249.039 C 221.381 248.915,221.289 249.044,221.378 249.504 C 221.445 249.854,221.349 250.234,221.164 250.349 C 220.963 250.473,220.916 250.414,221.048 250.201 C 221.176 249.993,221.076 249.846,220.806 249.846 C 220.552 249.846,220.245 250.006,220.124 250.201 C 219.988 250.421,220.040 250.473,220.260 250.337 C 220.456 250.216,220.613 250.230,220.611 250.366 C 220.604 250.699,220.116 251.456,219.966 251.366 C 219.573 251.131,218.516 251.784,218.664 252.170 C 218.758 252.415,218.693 252.615,218.520 252.615 C 218.347 252.615,218.137 252.442,218.055 252.231 C 217.972 252.019,217.926 252.262,217.952 252.769 C 217.990 253.492,217.883 253.673,217.462 253.602 C 217.165 253.552,216.923 253.664,216.923 253.851 C 216.923 254.037,216.819 254.127,216.692 254.050 C 216.565 253.974,216.293 254.094,216.086 254.317 C 215.790 254.637,215.790 254.756,216.086 254.876 C 216.364 254.989,216.357 255.035,216.059 255.053 C 215.837 255.066,215.732 255.201,215.826 255.352 C 215.919 255.503,215.651 255.713,215.229 255.819 C 214.807 255.925,214.462 256.217,214.462 256.467 C 214.462 256.718,214.259 256.923,214.012 256.923 C 213.656 256.923,213.540 256.323,213.460 254.077 C 213.404 252.512,213.330 261.345,213.295 273.708 C 213.246 290.707,213.141 296.275,212.862 296.554 C 212.245 297.170,199.880 297.066,199.253 296.440 C 198.824 296.010,198.769 293.809,198.769 276.850 C 198.769 266.341,198.709 257.804,198.635 257.878 C 198.561 257.952,198.472 261.367,198.437 265.468 C 198.402 269.568,198.264 272.923,198.131 272.923 C 197.997 272.923,197.799 273.202,197.691 273.543 C 197.583 273.884,197.373 274.088,197.224 273.996 C 196.975 273.842,196.190 274.929,196.165 275.462 C 196.159 275.588,196.050 275.692,195.923 275.692 C 195.796 275.692,195.539 275.692,195.351 275.692 C 195.163 275.692,195.336 275.407,195.735 275.059 L 196.462 274.425 195.600 274.950 C 195.108 275.250,194.807 275.654,194.898 275.892 C 194.986 276.120,194.923 276.308,194.760 276.308 C 194.241 276.308,194.010 276.407,193.615 276.802 C 193.158 277.260,193.103 277.654,193.535 277.387 C 193.711 277.278,193.760 277.404,193.652 277.685 C 193.482 278.128,193.434 278.128,193.107 277.682 C 192.793 277.253,192.743 277.275,192.699 277.866 C 192.636 278.694,191.686 279.628,191.070 279.466 C 190.790 279.392,190.852 279.540,191.231 279.850 C 191.825 280.338,191.812 280.350,190.856 280.206 C 190.311 280.124,189.892 280.148,189.924 280.259 C 190.049 280.688,188.780 282.223,188.082 282.489 C 187.678 282.643,187.433 282.907,187.538 283.076 C 187.643 283.246,187.567 283.385,187.370 283.385 C 187.173 283.385,187.091 283.592,187.188 283.846 C 187.345 284.254,187.235 284.339,186.604 284.297 C 186.381 284.282,185.538 285.139,185.538 285.381 C 185.538 285.487,185.675 285.490,185.843 285.387 C 186.021 285.276,186.066 285.410,185.951 285.710 C 185.772 286.177,185.730 286.178,185.477 285.726 C 185.071 285.000,184.653 285.122,184.801 285.923 C 184.872 286.304,184.849 286.446,184.750 286.239 C 184.613 285.952,184.398 285.974,183.853 286.332 C 183.117 286.814,183.042 287.193,183.523 288.000 C 183.709 288.312,183.594 288.283,183.168 287.910 C 182.606 287.418,182.517 287.411,182.351 287.845 C 182.227 288.166,182.389 288.415,182.829 288.577 L 183.493 288.823 182.823 288.998 C 182.455 289.095,182.231 289.048,182.325 288.894 C 182.420 288.741,182.395 288.615,182.269 288.615 C 181.775 288.615,178.143 292.657,178.345 292.983 C 178.473 293.191,178.417 293.240,178.201 293.106 C 178.001 292.983,177.846 293.064,177.846 293.292 C 177.846 293.516,177.569 293.871,177.231 294.082 C 176.892 294.294,176.615 294.681,176.615 294.944 C 176.615 295.206,176.470 295.331,176.293 295.222 C 176.070 295.084,176.074 294.897,176.308 294.615 C 176.555 294.318,176.546 294.147,176.275 293.980 C 176.049 293.840,175.985 293.881,176.111 294.085 C 176.225 294.269,176.168 294.512,175.984 294.625 C 175.801 294.739,175.725 295.025,175.816 295.262 C 176.021 295.796,175.350 295.826,174.769 295.308 C 174.412 294.990,174.394 295.003,174.665 295.385 C 174.979 295.827,175.128 297.076,174.831 296.779 C 174.752 296.700,174.341 296.908,173.917 297.241 C 173.494 297.574,172.978 297.846,172.770 297.846 C 172.540 297.846,172.432 298.175,172.493 298.692 C 172.548 299.158,172.519 299.296,172.428 299.000 C 172.337 298.704,172.048 298.462,171.786 298.462 C 171.410 298.462,171.386 298.554,171.670 298.896 C 171.916 299.192,171.928 299.393,171.707 299.529 C 171.530 299.639,171.385 299.574,171.385 299.385 C 171.385 299.195,171.244 299.128,171.072 299.234 C 170.900 299.340,170.839 299.556,170.936 299.714 C 171.034 299.871,170.932 300.002,170.710 300.005 C 170.418 300.008,170.434 300.091,170.769 300.308 C 171.156 300.558,171.160 300.607,170.789 300.611 C 170.546 300.613,170.036 300.908,169.655 301.266 L 168.962 301.917 169.100 301.189 C 169.176 300.789,169.148 300.669,169.039 300.923 C 168.930 301.177,168.686 301.584,168.497 301.828 C 168.235 302.167,168.245 302.217,168.538 302.041 C 168.779 301.896,168.923 301.986,168.923 302.280 C 168.923 302.590,168.751 302.684,168.416 302.555 C 168.003 302.397,167.938 302.513,168.066 303.180 C 168.152 303.631,168.103 304.000,167.957 304.000 C 167.812 304.000,167.688 303.827,167.683 303.615 C 167.677 303.395,167.484 303.480,167.231 303.815 C 166.988 304.136,166.856 304.507,166.938 304.639 C 167.020 304.772,166.926 304.980,166.730 305.101 C 166.482 305.255,166.418 305.081,166.523 304.535 C 166.631 303.972,166.559 303.792,166.269 303.903 C 166.047 303.989,165.878 304.149,165.892 304.260 C 165.981 304.927,165.790 305.275,165.415 305.131 C 164.962 304.957,164.925 305.421,165.339 306.085 C 165.631 306.551,164.890 306.473,164.543 306.000 C 164.417 305.828,164.315 305.937,164.312 306.249 C 164.310 306.555,164.166 306.718,163.992 306.611 C 163.819 306.503,163.715 306.599,163.762 306.823 C 163.808 307.047,163.650 307.188,163.409 307.136 C 163.050 307.059,163.042 307.126,163.367 307.517 C 163.806 308.046,163.108 308.553,162.478 308.164 C 162.301 308.055,161.998 308.312,161.805 308.736 C 161.545 309.307,161.167 309.537,160.343 309.625 C 159.731 309.690,175.388 309.766,195.136 309.794 C 221.992 309.833,231.096 309.757,231.260 309.491 C 231.388 309.283,231.345 309.219,231.157 309.335 C 230.979 309.445,230.752 309.321,230.651 309.059 C 230.551 308.798,230.594 308.661,230.748 308.756 C 230.902 308.851,231.450 308.416,231.967 307.789 C 232.483 307.162,233.002 306.746,233.120 306.863 C 233.237 306.981,233.164 307.077,232.956 307.077 C 232.749 307.077,232.666 307.218,232.772 307.390 C 233.055 307.847,233.538 307.444,233.538 306.751 C 233.538 306.423,233.685 306.154,233.864 306.154 C 234.044 306.154,234.114 306.031,234.022 305.881 C 233.929 305.731,234.070 305.428,234.335 305.208 C 234.732 304.879,234.863 304.885,235.087 305.247 C 235.291 305.578,235.345 305.525,235.308 305.030 C 235.275 304.590,235.110 304.432,234.807 304.549 C 234.543 304.650,234.620 304.456,234.992 304.085 C 235.343 303.734,236.059 303.353,236.584 303.238 C 237.127 303.118,237.538 302.832,237.538 302.573 C 237.538 302.294,237.687 302.205,237.923 302.342 C 238.135 302.466,238.031 302.246,237.692 301.854 L 237.077 301.141 237.749 301.494 C 238.563 301.920,238.866 301.943,238.629 301.561 C 238.532 301.404,238.732 301.187,239.072 301.078 C 239.741 300.866,239.879 300.459,239.385 300.154 C 239.215 300.049,239.077 300.175,239.077 300.434 C 239.077 300.701,238.898 300.835,238.664 300.745 C 238.360 300.628,238.461 300.357,239.049 299.713 C 239.487 299.232,239.916 298.949,240.001 299.084 C 240.216 299.425,241.457 298.371,241.321 297.963 C 241.260 297.780,241.423 297.455,241.682 297.239 C 242.073 296.915,242.154 296.933,242.154 297.347 C 242.154 297.622,242.280 297.846,242.434 297.846 C 242.589 297.846,242.677 297.502,242.631 297.082 C 242.560 296.434,242.650 296.343,243.220 296.486 C 243.968 296.674,244.883 295.894,244.320 295.546 C 244.142 295.436,243.913 295.561,243.812 295.825 C 243.711 296.088,243.513 296.233,243.372 296.146 C 243.232 296.059,243.463 295.642,243.886 295.219 C 244.309 294.796,244.794 294.536,244.964 294.640 C 245.135 294.746,245.229 294.592,245.174 294.294 C 245.121 293.998,245.250 293.696,245.462 293.622 C 245.673 293.548,245.846 293.637,245.846 293.821 C 245.846 294.004,246.088 294.152,246.385 294.149 C 246.845 294.145,246.856 294.101,246.462 293.846 C 246.067 293.591,246.078 293.547,246.538 293.543 C 246.835 293.541,247.077 293.404,247.077 293.240 C 247.077 293.077,246.853 293.028,246.580 293.133 C 246.164 293.293,246.137 293.222,246.415 292.702 C 246.598 292.361,246.660 291.993,246.553 291.887 C 246.446 291.780,246.521 291.692,246.718 291.692 C 246.915 291.692,247.077 291.892,247.077 292.136 C 247.077 292.380,247.237 292.678,247.432 292.799 C 247.659 292.939,247.704 292.883,247.555 292.642 C 247.407 292.403,247.558 292.205,247.969 292.097 C 248.325 292.004,248.615 291.810,248.615 291.666 C 248.615 291.522,248.373 291.479,248.077 291.571 C 247.589 291.723,247.591 291.705,248.094 291.383 C 248.435 291.164,248.554 290.883,248.402 290.653 C 248.265 290.447,248.396 290.543,248.692 290.866 C 249.305 291.533,249.391 291.335,248.892 290.404 C 248.645 289.943,248.646 289.829,248.895 289.982 C 249.082 290.098,249.328 289.942,249.441 289.635 C 249.555 289.328,249.796 288.978,249.978 288.857 C 250.290 288.650,250.635 217.404,250.386 204.462 C 250.334 201.754,250.260 204.276,250.222 210.067 M292.834 246.461 C 292.641 247.199,292.941 247.449,293.553 247.061 C 293.844 246.877,293.869 246.777,293.625 246.774 C 293.419 246.771,293.330 246.562,293.427 246.308 C 293.525 246.054,293.467 245.846,293.300 245.846 C 293.132 245.846,292.922 246.123,292.834 246.461 M288.897 250.231 C 288.727 250.743,288.777 251.692,288.974 251.692 C 289.115 251.692,289.231 251.346,289.231 250.923 C 289.231 250.307,289.019 249.867,288.897 250.231 M191.850 278.229 C 191.728 278.524,191.504 278.689,191.352 278.595 C 191.201 278.502,191.077 278.572,191.077 278.751 C 191.077 279.144,191.391 279.161,191.961 278.800 C 192.193 278.653,192.313 278.344,192.227 278.113 C 192.109 277.793,192.018 277.821,191.850 278.229 M162.285 289.538 C 162.285 293.177,162.329 294.665,162.383 292.846 C 162.438 291.027,162.438 288.050,162.383 286.231 C 162.329 284.412,162.285 285.900,162.285 289.538 " stroke="none" fill="#48cbfb" fill-rule="evenodd"></path></g></svg>