<svg id="svg" version="1.1" xmlns="http://www.w3.org/2000/svg" xmlns:xlink="http://www.w3.org/1999/xlink" width="400" height="400" viewBox="0, 0, 400,400"><g id="svgg"><path id="path0" d="M178.802 64.918 C 177.962 65.122,171.487 71.443,145.725 97.206 C 128.107 114.824,113.258 129.503,112.727 129.825 C 111.866 130.347,111.084 130.413,105.512 130.435 C 101.779 130.450,99.139 130.584,98.955 130.768 C 98.785 130.938,98.051 131.077,97.323 131.077 C 96.595 131.077,96.000 131.215,96.000 131.385 C 96.000 131.554,95.722 131.692,95.381 131.692 C 92.758 131.692,82.154 139.491,82.154 141.420 C 82.154 141.626,82.050 141.841,81.923 141.897 C 81.536 142.070,79.692 145.241,79.692 145.735 C 79.692 145.989,79.483 146.407,79.228 146.662 C 78.973 146.918,78.846 147.260,78.947 147.423 C 79.047 147.586,78.996 147.886,78.833 148.090 C 78.266 148.798,77.538 151.950,77.492 153.894 C 77.447 155.811,77.442 155.821,77.231 154.462 C 77.112 153.700,76.995 186.143,76.969 226.557 C 76.939 275.476,77.026 299.973,77.231 299.846 C 77.425 299.726,77.538 300.489,77.538 301.920 C 77.538 303.166,77.669 304.316,77.828 304.477 C 77.987 304.638,78.189 305.115,78.276 305.538 C 78.489 306.569,79.219 308.552,79.481 308.815 C 79.597 308.931,79.692 309.279,79.692 309.590 C 79.692 309.900,79.831 310.154,80.000 310.154 C 80.169 310.154,80.308 310.431,80.308 310.769 C 80.308 311.108,80.446 311.385,80.615 311.385 C 80.785 311.385,80.923 311.662,80.923 312.000 C 80.923 312.338,81.062 312.615,81.231 312.615 C 81.400 312.615,81.538 312.752,81.538 312.920 C 81.538 313.205,82.123 314.011,83.000 314.935 C 83.212 315.158,83.385 315.466,83.385 315.619 C 83.385 315.912,86.292 318.769,86.590 318.769 C 86.752 318.769,87.637 319.447,88.419 320.170 C 88.705 320.435,90.996 321.598,95.457 323.743 C 95.751 323.884,96.397 324.000,96.893 324.000 C 97.389 324.000,97.849 324.163,97.915 324.361 C 97.995 324.600,98.761 324.701,100.172 324.660 C 101.500 324.621,102.153 324.700,101.898 324.871 C 101.034 325.448,106.400 325.476,202.308 325.405 C 305.983 325.328,303.281 325.341,302.308 324.923 C 301.885 324.741,302.391 324.652,303.923 324.637 C 305.150 324.625,306.154 324.492,306.154 324.341 C 306.154 324.084,306.860 323.911,309.614 323.495 C 310.247 323.399,310.689 323.196,310.596 323.045 C 310.502 322.893,310.710 322.769,311.059 322.769 C 311.407 322.769,311.692 322.631,311.692 322.462 C 311.692 322.292,311.867 322.154,312.081 322.154 C 312.521 322.154,315.033 320.534,317.505 318.656 C 319.113 317.435,323.063 312.548,323.072 311.769 C 323.075 311.558,323.215 311.385,323.385 311.385 C 323.554 311.385,323.692 311.181,323.692 310.932 C 323.692 310.684,323.988 309.957,324.350 309.317 C 324.712 308.677,325.033 307.946,325.064 307.692 C 325.095 307.438,325.201 307.023,325.300 306.769 C 326.237 304.366,326.462 302.825,326.462 298.806 C 326.462 296.154,326.585 294.422,326.782 294.300 C 326.958 294.191,327.038 293.871,326.960 293.589 C 326.662 292.511,326.422 282.184,326.683 281.644 C 326.843 281.312,326.838 278.525,326.671 274.936 C 326.478 270.778,326.487 268.761,326.700 268.690 C 326.873 268.632,326.964 268.073,326.902 267.446 C 326.178 260.078,326.465 258.866,329.231 257.625 C 332.326 256.235,336.615 251.331,336.615 249.182 C 336.615 248.870,336.754 248.615,336.923 248.615 C 337.092 248.615,337.231 247.846,337.231 246.905 C 337.231 245.843,337.347 245.267,337.538 245.385 C 337.968 245.650,337.951 246.337,337.989 227.000 C 338.017 212.937,337.947 209.538,337.627 209.538 C 337.385 209.538,337.231 209.150,337.232 208.538 C 337.238 205.388,333.555 199.843,330.317 198.125 C 329.550 197.718,328.923 197.282,328.923 197.154 C 328.923 197.027,328.705 196.923,328.440 196.923 C 327.887 196.923,327.077 196.205,327.077 195.714 C 327.077 195.533,326.938 195.385,326.769 195.385 C 326.404 195.385,326.351 192.253,326.709 191.831 C 326.846 191.670,326.829 188.916,326.672 185.711 C 326.496 182.125,326.496 179.699,326.672 179.403 C 326.848 179.108,326.847 176.515,326.669 172.658 C 326.441 167.705,326.462 166.344,326.768 166.154 C 326.981 166.023,327.082 165.796,326.992 165.650 C 326.903 165.504,326.731 162.284,326.611 158.495 C 326.460 153.721,326.261 151.288,325.962 150.573 C 325.725 150.006,325.547 149.466,325.567 149.373 C 325.598 149.222,325.374 148.566,324.624 146.615 C 324.070 145.174,322.295 141.846,322.080 141.846 C 321.951 141.846,321.846 141.706,321.846 141.536 C 321.846 139.787,312.372 132.308,310.157 132.308 C 309.986 132.308,309.846 132.169,309.846 132.000 C 309.846 131.831,309.439 131.692,308.941 131.692 C 308.444 131.692,307.960 131.568,307.866 131.417 C 307.773 131.266,307.176 131.069,306.540 130.981 C 301.972 130.343,305.299 133.347,269.398 97.451 C 234.644 62.703,236.928 64.852,234.769 64.852 C 232.626 64.852,232.660 64.824,222.414 75.048 C 209.682 87.754,207.829 89.538,207.363 89.538 C 207.139 89.538,201.400 84.000,194.612 77.231 C 186.937 69.579,182.043 64.921,181.673 64.919 C 181.345 64.917,180.800 64.858,180.462 64.790 C 180.123 64.721,179.376 64.779,178.802 64.918 M190.661 86.227 C 196.136 91.683,200.615 96.251,200.615 96.378 C 200.615 96.804,181.203 116.454,170.221 127.143 L 166.834 130.440 147.577 130.448 L 128.320 130.455 127.852 129.550 C 127.308 128.497,127.263 128.197,127.692 128.462 C 127.862 128.566,128.000 128.431,128.000 128.161 C 128.000 127.629,178.533 76.923,179.063 76.923 C 179.240 76.923,179.385 76.785,179.385 76.615 C 179.385 75.271,181.327 76.926,190.661 86.227 M237.088 77.883 C 241.082 81.661,287.077 127.821,287.077 128.052 C 287.077 128.192,287.215 128.308,287.385 128.308 C 287.554 128.308,287.692 128.454,287.692 128.634 C 287.692 128.813,287.532 128.861,287.337 128.740 C 287.119 128.605,287.065 128.655,287.197 128.869 C 287.316 129.061,287.267 129.492,287.088 129.826 C 286.647 130.650,182.462 130.814,182.462 129.991 C 182.462 129.742,182.323 129.538,182.154 129.538 C 181.985 129.538,181.846 129.343,181.846 129.104 C 181.846 128.412,234.129 76.308,234.824 76.308 C 235.152 76.308,236.171 77.017,237.088 77.883 M110.554 139.306 C 109.166 139.362,106.812 139.363,105.323 139.306 C 103.834 139.250,104.969 139.203,107.846 139.203 C 110.723 139.202,111.941 139.249,110.554 139.306 M154.692 139.308 C 147.627 139.354,136.065 139.354,129.000 139.308 C 121.935 139.262,127.715 139.224,141.846 139.224 C 155.977 139.224,161.758 139.262,154.692 139.308 M266.692 139.308 C 249.135 139.352,220.404 139.352,202.846 139.308 C 185.288 139.264,199.654 139.228,234.769 139.228 C 269.885 139.228,284.250 139.264,266.692 139.308 M305.077 140.000 C 305.182 140.169,305.540 140.308,305.875 140.308 C 306.661 140.308,309.189 141.592,310.385 142.598 C 310.899 143.031,311.410 143.385,311.520 143.385 C 311.846 143.385,313.231 144.867,313.231 145.217 C 313.231 145.394,313.340 145.538,313.473 145.538 C 314.095 145.538,317.057 151.218,317.404 153.077 C 317.833 155.373,317.742 194.933,317.308 194.846 C 317.096 194.804,316.923 194.942,316.923 195.154 C 316.923 195.459,312.182 195.525,294.077 195.476 C 271.509 195.414,269.361 195.463,269.712 196.033 C 269.811 196.192,269.778 196.303,269.638 196.279 C 268.599 196.098,265.534 196.360,265.692 196.615 C 265.807 196.801,265.388 196.923,264.634 196.923 C 263.947 196.923,263.385 197.062,263.385 197.231 C 263.385 197.400,263.125 197.538,262.808 197.538 C 262.030 197.538,255.712 200.692,254.859 201.505 C 254.485 201.862,254.035 202.154,253.859 202.154 C 253.683 202.154,253.538 202.292,253.538 202.462 C 253.538 202.631,253.368 202.769,253.161 202.769 C 252.713 202.769,248.006 207.382,247.987 207.839 C 247.981 208.012,247.565 208.633,247.064 209.219 C 246.564 209.805,246.154 210.463,246.154 210.681 C 246.154 210.899,246.050 211.079,245.923 211.082 C 245.334 211.094,242.154 218.670,242.154 220.059 C 242.154 220.581,242.025 220.879,241.846 220.769 C 241.594 220.613,241.314 225.434,241.510 226.561 C 241.534 226.701,241.428 226.737,241.273 226.642 C 240.795 226.346,240.645 227.678,241.104 228.137 C 241.414 228.447,241.538 229.370,241.538 231.363 C 241.538 233.018,241.664 234.154,241.846 234.154 C 242.015 234.154,242.154 234.535,242.154 235.001 C 242.154 236.576,245.393 244.243,246.476 245.231 C 246.569 245.315,246.975 245.869,247.379 246.462 C 248.340 247.873,253.367 252.923,253.810 252.923 C 253.999 252.923,254.154 253.062,254.154 253.231 C 254.154 253.400,254.298 253.538,254.474 253.538 C 254.651 253.538,255.092 253.815,255.455 254.154 C 255.819 254.492,256.298 254.769,256.520 254.769 C 256.741 254.769,256.923 254.908,256.923 255.077 C 256.923 255.246,257.188 255.385,257.513 255.385 C 257.837 255.385,258.149 255.495,258.205 255.630 C 258.324 255.915,261.166 257.300,261.846 257.405 C 262.287 257.472,263.758 257.967,265.077 258.490 C 266.556 259.077,269.774 259.169,292.583 259.277 L 316.703 259.392 317.275 260.051 C 317.934 260.811,318.191 300.982,317.538 301.385 C 317.369 301.489,317.231 301.889,317.231 302.273 C 317.231 305.106,312.595 311.720,309.620 313.132 C 309.067 313.394,308.615 313.731,308.615 313.881 C 308.615 314.031,308.347 314.154,308.018 314.154 C 307.690 314.154,307.335 314.292,307.231 314.462 C 307.126 314.631,306.772 314.769,306.443 314.769 C 306.115 314.769,305.846 314.908,305.846 315.077 C 305.846 315.246,305.300 315.385,304.634 315.385 C 303.967 315.385,303.335 315.523,303.231 315.692 C 303.105 315.896,269.028 316.000,202.000 316.000 C 134.972 316.000,100.895 315.896,100.769 315.692 C 100.665 315.523,100.190 315.385,99.715 315.385 C 98.930 315.385,95.755 314.267,95.385 313.860 C 95.300 313.767,94.825 313.484,94.330 313.230 C 91.398 311.730,86.769 305.143,86.769 302.471 C 86.769 301.978,86.631 301.489,86.462 301.385 C 86.035 301.121,86.035 153.956,86.462 153.692 C 86.631 153.588,86.769 153.183,86.769 152.792 C 86.769 151.112,89.554 146.071,91.542 144.154 C 93.123 142.629,97.085 140.308,98.106 140.308 C 98.451 140.308,98.818 140.169,98.923 140.000 C 99.187 139.573,304.813 139.573,305.077 140.000 M324.729 205.338 C 325.169 205.566,325.439 205.843,325.329 205.953 C 325.218 206.064,325.283 206.154,325.473 206.154 C 325.903 206.154,327.385 207.609,327.385 208.032 C 327.385 208.204,327.523 208.258,327.692 208.154 C 327.862 208.049,328.000 208.241,328.000 208.579 C 328.000 208.918,328.138 209.280,328.308 209.385 C 329.005 209.815,328.696 245.370,327.984 246.683 C 327.296 247.950,325.643 249.538,325.012 249.538 C 324.794 249.538,324.615 249.682,324.615 249.857 C 324.615 250.061,324.064 250.102,323.082 249.972 C 321.939 249.820,321.362 249.891,320.812 250.252 C 319.823 250.900,272.720 250.880,271.939 250.231 C 271.616 249.963,270.902 249.906,269.584 250.044 C 268.255 250.183,267.692 250.137,267.692 249.890 C 267.692 249.697,267.420 249.538,267.087 249.538 C 265.925 249.538,261.201 247.248,259.251 245.739 C 256.960 243.967,253.237 239.703,253.233 238.846 C 253.232 238.635,253.092 238.462,252.923 238.462 C 252.754 238.462,252.615 238.193,252.615 237.864 C 252.615 237.536,252.477 237.182,252.308 237.077 C 252.138 236.972,252.000 236.618,252.000 236.290 C 252.000 235.961,251.877 235.692,251.727 235.692 C 251.577 235.692,251.376 235.312,251.279 234.846 C 251.183 234.381,250.939 233.308,250.737 232.462 C 250.280 230.547,250.081 224.000,250.480 224.000 C 250.639 224.000,250.769 223.444,250.769 222.765 C 250.769 222.086,250.892 221.290,251.041 220.996 C 251.191 220.702,251.467 220.081,251.656 219.615 C 252.905 216.540,254.347 214.415,257.140 211.537 C 259.139 209.477,261.155 208.014,263.312 207.060 C 263.859 206.817,264.308 206.530,264.308 206.421 C 264.308 206.218,265.441 205.938,267.463 205.642 C 268.099 205.549,268.696 205.350,268.789 205.198 C 269.091 204.710,323.783 204.847,324.729 205.338 M271.923 217.443 C 271.627 217.520,271.384 217.677,271.384 217.792 C 271.384 217.906,270.952 218.030,270.424 218.067 C 269.343 218.143,267.692 218.799,267.692 219.152 C 267.692 219.280,267.507 219.385,267.280 219.385 C 266.810 219.385,264.615 221.654,264.615 222.140 C 264.615 222.317,264.477 222.462,264.308 222.462 C 264.138 222.462,264.000 222.796,264.000 223.205 C 264.000 223.614,263.854 223.997,263.676 224.057 C 262.929 224.306,263.249 230.178,264.111 232.046 C 264.916 233.790,267.340 236.308,268.215 236.308 C 268.455 236.308,268.566 236.446,268.462 236.615 C 268.348 236.798,268.715 236.923,269.366 236.923 C 269.969 236.923,270.462 237.062,270.462 237.231 C 270.462 237.410,271.469 237.538,272.869 237.538 C 276.734 237.538,280.747 235.164,281.833 232.234 C 282.038 231.682,282.332 230.990,282.487 230.696 C 282.869 229.973,282.847 224.700,282.462 224.462 C 282.292 224.357,282.154 224.003,282.154 223.674 C 282.154 223.346,282.015 223.077,281.846 223.077 C 281.677 223.077,281.538 222.895,281.538 222.673 C 281.538 222.451,281.289 222.001,280.984 221.673 C 280.680 221.345,280.338 220.835,280.225 220.538 C 280.112 220.242,279.871 220.000,279.689 220.000 C 279.507 220.000,279.062 219.723,278.698 219.385 C 278.335 219.046,277.787 218.769,277.480 218.769 C 277.174 218.769,276.923 218.646,276.923 218.496 C 276.923 218.346,276.303 218.131,275.546 218.017 C 274.788 217.904,274.088 217.680,273.989 217.521 C 273.806 217.225,272.890 217.190,271.923 217.443 " stroke="none" fill="#141c34" fill-rule="evenodd"></path><path id="path1" d="M173.365 82.231 L 172.462 83.231 173.462 82.327 C 174.012 81.830,174.462 81.380,174.462 81.327 C 174.462 81.089,174.208 81.299,173.365 82.231 M196.000 91.789 C 196.000 91.842,196.450 92.292,197.000 92.789 L 198.000 93.692 197.096 92.692 C 196.254 91.760,196.000 91.551,196.000 91.789 M157.830 97.769 L 156.769 98.923 157.923 97.863 C 158.997 96.876,159.218 96.615,158.983 96.615 C 158.932 96.615,158.413 97.135,157.830 97.769 M133.673 121.923 L 132.769 122.923 133.769 122.019 C 134.701 121.177,134.911 120.923,134.673 120.923 C 134.620 120.923,134.170 121.373,133.673 121.923 M283.385 130.154 L 279.846 130.339 283.290 130.400 C 285.322 130.436,286.811 130.335,286.923 130.154 C 287.028 129.985,287.070 129.874,287.018 129.908 C 286.966 129.941,285.331 130.052,283.385 130.154 M101.467 130.377 C 102.020 130.445,102.851 130.444,103.313 130.374 C 103.776 130.303,103.323 130.247,102.308 130.249 C 101.292 130.251,100.914 130.308,101.467 130.377 M105.923 130.381 C 106.896 130.442,108.488 130.442,109.462 130.381 C 110.435 130.320,109.638 130.270,107.692 130.270 C 105.746 130.270,104.950 130.320,105.923 130.381 M130.217 130.382 C 131.352 130.441,133.291 130.441,134.525 130.383 C 135.759 130.324,134.831 130.276,132.462 130.275 C 130.092 130.275,129.082 130.323,130.217 130.382 M140.556 130.384 C 142.639 130.437,145.962 130.437,147.941 130.383 C 149.919 130.330,148.215 130.286,144.154 130.287 C 140.092 130.287,138.473 130.331,140.556 130.384 M154.846 130.383 C 156.665 130.438,159.642 130.438,161.462 130.383 C 163.281 130.329,161.792 130.285,158.154 130.285 C 154.515 130.285,153.027 130.329,154.846 130.383 M165.308 130.366 C 165.604 130.443,166.088 130.443,166.385 130.366 C 166.681 130.289,166.438 130.225,165.846 130.225 C 165.254 130.225,165.012 130.289,165.308 130.366 M183.933 130.381 C 184.828 130.443,186.212 130.443,187.010 130.380 C 187.808 130.316,187.077 130.265,185.385 130.266 C 183.692 130.267,183.039 130.319,183.933 130.381 M196.251 130.384 C 199.520 130.434,204.781 130.434,207.943 130.384 C 211.105 130.334,208.431 130.293,202.000 130.293 C 195.569 130.294,192.982 130.334,196.251 130.384 M218.215 130.383 C 219.687 130.439,222.180 130.439,223.754 130.383 C 225.328 130.327,224.123 130.281,221.077 130.281 C 218.031 130.281,216.743 130.326,218.215 130.383 M227.154 130.366 C 227.450 130.443,227.935 130.443,228.231 130.366 C 228.527 130.289,228.285 130.225,227.692 130.225 C 227.100 130.225,226.858 130.289,227.154 130.366 M231.477 130.383 C 232.966 130.440,235.320 130.439,236.707 130.383 C 238.095 130.326,236.877 130.279,234.000 130.280 C 231.123 130.280,229.988 130.327,231.477 130.383 M239.769 130.366 C 240.065 130.443,240.550 130.443,240.846 130.366 C 241.142 130.289,240.900 130.225,240.308 130.225 C 239.715 130.225,239.473 130.289,239.769 130.366 M244.061 130.383 C 245.534 130.439,248.026 130.439,249.600 130.383 C 251.174 130.327,249.969 130.281,246.923 130.281 C 243.877 130.281,242.589 130.326,244.061 130.383 M257.632 130.384 C 259.461 130.438,262.368 130.438,264.094 130.383 C 265.819 130.328,264.323 130.284,260.769 130.284 C 257.215 130.284,255.804 130.329,257.632 130.384 M269.938 130.383 C 271.427 130.440,273.781 130.439,275.169 130.383 C 276.557 130.326,275.338 130.279,272.462 130.280 C 269.585 130.280,268.449 130.327,269.938 130.383 M105.323 139.306 C 106.812 139.363,109.166 139.362,110.554 139.306 C 111.941 139.249,110.723 139.202,107.846 139.203 C 104.969 139.203,103.834 139.250,105.323 139.306 M129.000 139.308 C 136.065 139.354,147.627 139.354,154.692 139.308 C 161.758 139.262,155.977 139.224,141.846 139.224 C 127.715 139.224,121.935 139.262,129.000 139.308 M202.846 139.308 C 220.404 139.352,249.135 139.352,266.692 139.308 C 284.250 139.264,269.885 139.228,234.769 139.228 C 199.654 139.228,185.288 139.264,202.846 139.308 M86.290 153.935 C 86.206 154.154,86.176 156.542,86.224 159.243 L 86.310 164.154 86.463 158.846 C 86.613 153.632,86.595 153.139,86.290 153.935 M317.672 162.154 C 317.672 166.469,317.715 168.235,317.768 166.077 C 317.821 163.919,317.821 160.388,317.768 158.231 C 317.715 156.073,317.672 157.838,317.672 162.154 M326.539 157.692 C 326.543 158.369,326.606 158.610,326.679 158.227 C 326.753 157.844,326.750 157.291,326.673 156.996 C 326.596 156.702,326.536 157.015,326.539 157.692 M86.242 165.692 C 86.244 166.538,86.304 166.848,86.375 166.380 C 86.445 165.913,86.443 165.220,86.370 164.842 C 86.297 164.463,86.240 164.846,86.242 165.692 M326.572 168.923 C 326.572 170.531,326.624 171.188,326.688 170.385 C 326.751 169.581,326.751 168.265,326.688 167.462 C 326.624 166.658,326.572 167.315,326.572 168.923 M86.293 178.462 C 86.293 184.638,86.334 187.165,86.384 184.077 C 86.434 180.988,86.434 175.935,86.384 172.846 C 86.334 169.758,86.293 172.285,86.293 178.462 M317.668 176.308 C 317.668 179.777,317.713 181.196,317.768 179.462 C 317.823 177.727,317.823 174.888,317.768 173.154 C 317.713 171.419,317.668 172.838,317.668 176.308 M326.572 182.154 C 326.572 183.762,326.624 184.419,326.688 183.615 C 326.751 182.812,326.751 181.496,326.688 180.692 C 326.624 179.888,326.572 180.546,326.572 182.154 M317.662 187.385 C 317.662 190.008,317.709 191.081,317.767 189.769 C 317.825 188.458,317.825 186.312,317.767 185.000 C 317.709 183.688,317.662 184.762,317.662 187.385 M86.284 196.154 C 86.284 199.708,86.329 201.119,86.384 199.291 C 86.438 197.463,86.438 194.555,86.383 192.829 C 86.328 191.104,86.284 192.600,86.284 196.154 M326.557 193.692 C 326.559 194.708,326.616 195.086,326.685 194.533 C 326.753 193.980,326.752 193.149,326.681 192.687 C 326.611 192.224,326.555 192.677,326.557 193.692 M317.523 193.761 C 317.439 194.476,317.487 194.944,317.630 194.800 C 317.774 194.657,317.843 194.072,317.784 193.501 C 317.680 192.487,317.673 192.494,317.523 193.761 M86.242 204.154 C 86.244 205.000,86.304 205.310,86.375 204.842 C 86.445 204.374,86.443 203.682,86.370 203.303 C 86.297 202.925,86.240 203.308,86.242 204.154 M86.278 210.615 C 86.279 213.323,86.326 214.390,86.383 212.985 C 86.440 211.581,86.440 209.366,86.382 208.062 C 86.325 206.759,86.278 207.908,86.278 210.615 M86.238 216.923 C 86.238 217.685,86.298 217.996,86.371 217.615 C 86.444 217.235,86.444 216.612,86.371 216.231 C 86.298 215.850,86.238 216.162,86.238 216.923 M86.278 223.231 C 86.279 225.938,86.326 227.005,86.383 225.601 C 86.440 224.197,86.440 221.981,86.382 220.678 C 86.325 219.374,86.278 220.523,86.278 223.231 M86.288 236.154 C 86.288 240.554,86.331 242.311,86.384 240.059 C 86.437 237.806,86.436 234.206,86.384 232.059 C 86.331 229.911,86.288 231.754,86.288 236.154 M86.278 249.077 C 86.279 251.785,86.326 252.851,86.383 251.447 C 86.440 250.043,86.440 247.827,86.382 246.524 C 86.325 245.220,86.278 246.369,86.278 249.077 M274.874 250.534 C 275.070 250.658,277.515 250.737,280.308 250.709 C 285.777 250.654,285.064 250.524,278.566 250.391 C 276.339 250.345,274.678 250.409,274.874 250.534 M300.201 250.538 C 300.280 250.665,302.794 250.744,305.787 250.714 C 311.640 250.654,311.023 250.524,304.260 250.390 C 301.948 250.345,300.122 250.412,300.201 250.538 M313.336 250.534 C 313.806 250.832,320.230 250.836,320.413 250.538 C 320.492 250.412,318.851 250.308,316.768 250.308 C 314.685 250.308,313.140 250.409,313.336 250.534 M290.554 250.691 C 292.043 250.747,294.396 250.747,295.784 250.690 C 297.172 250.633,295.954 250.587,293.077 250.587 C 290.200 250.588,289.064 250.634,290.554 250.691 M86.238 255.385 C 86.238 256.146,86.298 256.458,86.371 256.077 C 86.444 255.696,86.444 255.073,86.371 254.692 C 86.298 254.312,86.238 254.623,86.238 255.385 M86.278 261.692 C 86.279 264.400,86.326 265.467,86.383 264.062 C 86.440 262.658,86.440 260.443,86.382 259.139 C 86.325 257.836,86.278 258.985,86.278 261.692 M326.533 260.615 C 326.533 261.208,326.596 261.450,326.674 261.154 C 326.751 260.858,326.751 260.373,326.674 260.077 C 326.596 259.781,326.533 260.023,326.533 260.615 M317.660 264.769 C 317.660 267.138,317.709 268.067,317.767 266.833 C 317.826 265.598,317.825 263.660,317.766 262.525 C 317.707 261.390,317.659 262.400,317.660 264.769 M86.242 268.154 C 86.244 269.000,86.304 269.310,86.375 268.842 C 86.445 268.374,86.443 267.682,86.370 267.303 C 86.297 266.925,86.240 267.308,86.242 268.154 M326.572 271.385 C 326.572 272.992,326.624 273.650,326.688 272.846 C 326.751 272.042,326.751 270.727,326.688 269.923 C 326.624 269.119,326.572 269.777,326.572 271.385 M317.631 270.769 C 317.631 271.700,317.688 272.081,317.759 271.615 C 317.829 271.150,317.829 270.388,317.759 269.923 C 317.688 269.458,317.631 269.838,317.631 270.769 M86.278 274.615 C 86.279 277.323,86.326 278.390,86.383 276.985 C 86.440 275.581,86.440 273.366,86.382 272.062 C 86.325 270.759,86.278 271.908,86.278 274.615 M317.662 277.077 C 317.662 279.615,317.710 280.613,317.767 279.294 C 317.825 277.974,317.825 275.897,317.767 274.678 C 317.708 273.459,317.661 274.538,317.662 277.077 M86.238 280.923 C 86.238 281.685,86.298 281.996,86.371 281.615 C 86.444 281.235,86.444 280.612,86.371 280.231 C 86.298 279.850,86.238 280.162,86.238 280.923 M317.631 283.385 C 317.631 284.315,317.688 284.696,317.759 284.231 C 317.829 283.765,317.829 283.004,317.759 282.538 C 317.688 282.073,317.631 282.454,317.631 283.385 M326.569 284.308 C 326.569 285.746,326.622 286.335,326.687 285.615 C 326.752 284.896,326.752 283.719,326.687 283.000 C 326.622 282.281,326.569 282.869,326.569 284.308 M86.278 287.231 C 86.279 289.938,86.326 291.005,86.383 289.601 C 86.440 288.197,86.440 285.981,86.382 284.678 C 86.325 283.374,86.278 284.523,86.278 287.231 M317.662 289.846 C 317.662 292.469,317.709 293.542,317.767 292.231 C 317.825 290.919,317.825 288.773,317.767 287.462 C 317.709 286.150,317.662 287.223,317.662 289.846 M86.277 296.769 C 86.277 299.308,86.325 300.305,86.383 298.986 C 86.441 297.667,86.440 295.590,86.382 294.371 C 86.324 293.151,86.276 294.231,86.277 296.769 M326.567 296.769 C 326.568 298.123,326.622 298.639,326.687 297.915 C 326.752 297.191,326.751 296.084,326.685 295.453 C 326.619 294.823,326.566 295.415,326.567 296.769 M317.622 296.308 C 317.622 297.069,317.682 297.381,317.756 297.000 C 317.829 296.619,317.829 295.996,317.756 295.615 C 317.682 295.235,317.622 295.546,317.622 296.308 " stroke="none" fill="#0c1434" fill-rule="evenodd"></path><path id="path2" d="M308.308 131.385 C 308.308 131.554,308.619 131.690,309.000 131.688 C 309.560 131.684,309.604 131.626,309.231 131.385 C 308.634 130.999,308.308 130.999,308.308 131.385 M303.462 139.904 C 303.758 139.982,304.242 139.982,304.538 139.904 C 304.835 139.827,304.592 139.764,304.000 139.764 C 303.408 139.764,303.165 139.827,303.462 139.904 M315.231 195.385 L 313.692 195.596 315.136 195.644 C 315.930 195.671,316.665 195.554,316.769 195.385 C 316.874 195.215,316.917 195.099,316.864 195.125 C 316.812 195.152,316.077 195.269,315.231 195.385 M276.077 195.605 C 276.542 195.676,277.304 195.676,277.769 195.605 C 278.235 195.535,277.854 195.477,276.923 195.477 C 275.992 195.477,275.612 195.535,276.077 195.605 M289.004 195.605 C 289.472 195.676,290.164 195.674,290.543 195.601 C 290.921 195.528,290.538 195.470,289.692 195.473 C 288.846 195.475,288.537 195.535,289.004 195.605 M301.615 195.605 C 302.081 195.676,302.842 195.676,303.308 195.605 C 303.773 195.535,303.392 195.477,302.462 195.477 C 301.531 195.477,301.150 195.535,301.615 195.605 M337.302 208.615 C 337.302 209.208,337.365 209.450,337.443 209.154 C 337.520 208.858,337.520 208.373,337.443 208.077 C 337.365 207.781,337.302 208.023,337.302 208.615 M328.403 221.385 C 328.405 222.400,328.462 222.778,328.531 222.225 C 328.599 221.672,328.598 220.841,328.528 220.379 C 328.457 219.917,328.401 220.369,328.403 221.385 M328.400 234.154 C 328.400 235.085,328.458 235.465,328.528 235.000 C 328.599 234.535,328.599 233.773,328.528 233.308 C 328.458 232.842,328.400 233.223,328.400 234.154 M337.302 246.769 C 337.302 247.362,337.365 247.604,337.443 247.308 C 337.520 247.012,337.520 246.527,337.443 246.231 C 337.365 245.935,337.302 246.177,337.302 246.769 M272.850 250.371 C 273.232 250.445,273.786 250.442,274.081 250.365 C 274.375 250.288,274.062 250.228,273.385 250.231 C 272.708 250.235,272.467 250.298,272.850 250.371 M285.927 250.375 C 286.395 250.445,287.087 250.443,287.466 250.370 C 287.844 250.297,287.462 250.240,286.615 250.242 C 285.769 250.244,285.460 250.304,285.927 250.375 M298.388 250.371 C 298.771 250.445,299.325 250.442,299.619 250.365 C 299.913 250.288,299.600 250.228,298.923 250.231 C 298.246 250.235,298.005 250.298,298.388 250.371 M311.311 250.371 C 311.694 250.445,312.248 250.442,312.542 250.365 C 312.836 250.288,312.523 250.228,311.846 250.231 C 311.169 250.235,310.929 250.298,311.311 250.371 M273.312 259.605 C 273.780 259.676,274.472 259.674,274.850 259.601 C 275.229 259.528,274.846 259.470,274.000 259.473 C 273.154 259.475,272.844 259.535,273.312 259.605 M286.235 259.605 C 286.703 259.676,287.395 259.674,287.773 259.601 C 288.152 259.528,287.769 259.470,286.923 259.473 C 286.077 259.475,285.767 259.535,286.235 259.605 M298.850 259.605 C 299.318 259.676,300.010 259.674,300.389 259.601 C 300.767 259.528,300.385 259.470,299.538 259.473 C 298.692 259.475,298.383 259.535,298.850 259.605 M311.773 259.605 C 312.241 259.676,312.933 259.674,313.312 259.601 C 313.690 259.528,313.308 259.470,312.462 259.473 C 311.615 259.475,311.306 259.535,311.773 259.605 M151.640 315.923 C 179.450 315.966,224.866 315.966,252.563 315.923 C 280.261 315.880,257.508 315.844,202.000 315.844 C 146.492 315.844,123.830 315.880,151.640 315.923 " stroke="none" fill="#0c132c" fill-rule="evenodd"></path><path id="path3" d="M337.947 222.000 C 337.948 223.185,338.004 223.632,338.071 222.993 C 338.137 222.355,338.136 221.386,338.068 220.839 C 338.000 220.293,337.946 220.815,337.947 222.000 M337.947 234.923 C 337.948 236.108,338.004 236.555,338.071 235.916 C 338.137 235.278,338.136 234.309,338.068 233.762 C 338.000 233.216,337.946 233.738,337.947 234.923 M105.467 325.454 C 106.020 325.522,106.851 325.521,107.313 325.451 C 107.776 325.380,107.323 325.324,106.308 325.326 C 105.292 325.328,104.914 325.385,105.467 325.454 M118.390 325.454 C 118.943 325.522,119.774 325.521,120.236 325.451 C 120.699 325.380,120.246 325.324,119.231 325.326 C 118.215 325.328,117.837 325.385,118.390 325.454 M131.006 325.454 C 131.559 325.522,132.389 325.521,132.852 325.451 C 133.314 325.380,132.862 325.324,131.846 325.326 C 130.831 325.328,130.452 325.385,131.006 325.454 M143.929 325.454 C 144.482 325.522,145.312 325.521,145.775 325.451 C 146.237 325.380,145.785 325.324,144.769 325.326 C 143.754 325.328,143.376 325.385,143.929 325.454 M156.544 325.454 C 157.097 325.522,157.928 325.521,158.390 325.451 C 158.852 325.380,158.400 325.324,157.385 325.326 C 156.369 325.328,155.991 325.385,156.544 325.454 M169.467 325.454 C 170.020 325.522,170.851 325.521,171.313 325.451 C 171.776 325.380,171.323 325.324,170.308 325.326 C 169.292 325.328,168.914 325.385,169.467 325.454 M182.390 325.454 C 182.943 325.522,183.774 325.521,184.236 325.451 C 184.699 325.380,184.246 325.324,183.231 325.326 C 182.215 325.328,181.837 325.385,182.390 325.454 M195.006 325.454 C 195.559 325.522,196.389 325.521,196.852 325.451 C 197.314 325.380,196.862 325.324,195.846 325.326 C 194.831 325.328,194.452 325.385,195.006 325.454 M207.929 325.454 C 208.482 325.522,209.312 325.521,209.775 325.451 C 210.237 325.380,209.785 325.324,208.769 325.326 C 207.754 325.328,207.376 325.385,207.929 325.454 M220.852 325.454 C 221.405 325.522,222.235 325.521,222.698 325.451 C 223.160 325.380,222.708 325.324,221.692 325.326 C 220.677 325.328,220.299 325.385,220.852 325.454 M233.467 325.454 C 234.020 325.522,234.851 325.521,235.313 325.451 C 235.776 325.380,235.323 325.324,234.308 325.326 C 233.292 325.328,232.914 325.385,233.467 325.454 M246.390 325.454 C 246.943 325.522,247.774 325.521,248.236 325.451 C 248.699 325.380,248.246 325.324,247.231 325.326 C 246.215 325.328,245.837 325.385,246.390 325.454 M259.006 325.454 C 259.559 325.522,260.389 325.521,260.852 325.451 C 261.314 325.380,260.862 325.324,259.846 325.326 C 258.831 325.328,258.452 325.385,259.006 325.454 M271.929 325.454 C 272.482 325.522,273.312 325.521,273.775 325.451 C 274.237 325.380,273.785 325.324,272.769 325.326 C 271.754 325.328,271.376 325.385,271.929 325.454 M284.852 325.454 C 285.405 325.522,286.235 325.521,286.698 325.451 C 287.160 325.380,286.708 325.324,285.692 325.326 C 284.677 325.328,284.299 325.385,284.852 325.454 M297.467 325.454 C 298.020 325.522,298.851 325.521,299.313 325.451 C 299.776 325.380,299.323 325.324,298.308 325.326 C 297.292 325.328,296.914 325.385,297.467 325.454 " stroke="none" fill="#040c24" fill-rule="evenodd"></path><path id="path4" d="M182.326 128.893 C 182.193 129.108,182.236 129.436,182.422 129.622 C 182.876 130.076,183.048 129.826,182.784 129.097 C 182.624 128.658,182.505 128.605,182.326 128.893 M301.157 325.448 C 301.540 325.522,302.094 325.519,302.388 325.442 C 302.682 325.365,302.369 325.305,301.692 325.308 C 301.015 325.312,300.775 325.375,301.157 325.448 " stroke="none" fill="#1c243c" fill-rule="evenodd"></path></g></svg>