<svg id="svg" version="1.1" xmlns="http://www.w3.org/2000/svg" xmlns:xlink="http://www.w3.org/1999/xlink" width="400" height="400" viewBox="0, 0, 400,400"><g id="svgg"><path id="path0" d="M317.998 137.154 C 318.109 137.376,317.995 137.538,317.729 137.538 C 317.475 137.538,317.168 137.698,317.048 137.894 C 316.912 138.114,316.963 138.165,317.183 138.029 C 317.379 137.909,317.538 137.891,317.538 137.989 C 317.538 138.088,317.184 138.304,316.751 138.469 C 316.317 138.633,316.037 138.887,316.127 139.033 C 316.217 139.179,315.609 139.837,314.776 140.495 C 313.635 141.397,313.301 141.844,313.421 142.308 C 313.549 142.808,313.519 142.837,313.256 142.462 C 313.018 142.123,312.931 142.107,312.928 142.403 C 312.925 142.624,312.786 142.721,312.619 142.618 C 312.449 142.513,312.390 142.627,312.486 142.876 C 312.580 143.121,312.488 143.427,312.281 143.555 C 312.025 143.713,311.984 143.659,312.154 143.385 C 312.324 143.109,312.283 143.056,312.022 143.217 C 311.742 143.390,311.832 143.665,312.368 144.265 C 315.042 147.257,316.443 149.804,317.088 152.846 C 317.841 156.402,317.741 194.183,316.976 194.875 C 316.463 195.340,314.395 195.385,293.581 195.385 C 273.616 195.385,270.606 195.445,269.606 195.863 C 268.976 196.127,267.977 196.315,267.385 196.282 C 263.314 196.054,249.407 203.814,250.085 205.935 C 250.131 206.080,250.048 206.125,249.901 206.034 C 249.623 205.862,248.499 206.971,247.595 208.308 C 244.737 212.539,244.080 213.818,242.616 217.999 C 241.885 220.086,241.538 221.622,241.538 222.778 C 241.538 223.715,241.354 225.193,241.128 226.063 C 240.903 226.933,240.815 227.828,240.933 228.053 C 241.052 228.278,241.228 229.648,241.325 231.098 C 241.421 232.548,241.632 234.071,241.792 234.482 C 241.952 234.894,242.321 236.062,242.612 237.077 C 245.573 247.413,258.018 258.716,266.493 258.765 C 266.933 258.767,267.694 258.896,268.185 259.051 C 270.071 259.648,274.154 259.724,274.154 259.162 C 274.154 258.726,274.219 258.738,274.606 259.249 C 274.854 259.577,275.079 259.742,275.106 259.615 C 275.317 258.603,275.739 257.838,275.997 257.998 C 276.360 258.222,277.020 256.396,276.800 255.775 C 276.665 255.394,276.770 255.438,277.152 255.924 C 277.696 256.617,277.697 256.617,278.089 255.989 C 278.305 255.644,278.619 255.446,278.787 255.549 C 278.955 255.653,279.054 255.555,279.008 255.331 C 278.961 255.106,279.102 254.960,279.321 255.004 C 279.623 255.066,279.641 254.941,279.398 254.486 C 278.991 253.726,278.952 252.865,279.353 253.498 C 279.569 253.839,279.685 253.809,279.955 253.345 C 280.262 252.816,280.293 252.832,280.334 253.538 C 280.369 254.137,280.412 254.178,280.528 253.726 C 280.610 253.406,281.022 252.825,281.443 252.434 C 281.865 252.043,282.138 251.608,282.050 251.466 C 281.963 251.325,282.158 251.209,282.484 251.209 C 282.810 251.209,283.077 251.341,283.077 251.502 C 283.077 251.663,283.149 251.722,283.238 251.634 C 283.956 250.916,282.885 250.533,280.058 250.497 C 262.973 250.282,254.746 245.677,251.551 234.544 C 251.271 233.568,250.832 232.122,250.576 231.331 C 247.920 223.150,254.723 210.838,264.200 206.671 C 267.804 205.087,267.312 205.112,296.440 205.011 L 323.804 204.916 324.902 205.639 C 326.844 206.917,327.418 207.043,328.113 206.348 C 328.519 205.942,328.606 205.689,328.365 205.609 C 328.164 205.542,328.000 205.351,328.000 205.184 C 328.000 205.018,328.265 204.966,328.589 205.069 C 328.914 205.172,329.281 205.090,329.406 204.888 C 329.550 204.656,329.503 204.601,329.278 204.740 C 328.765 205.057,328.841 204.451,329.369 204.013 C 329.615 203.809,330.065 203.605,330.369 203.560 C 330.768 203.501,330.896 203.257,330.828 202.691 C 330.776 202.259,330.878 201.815,331.055 201.706 C 331.245 201.588,331.307 201.690,331.206 201.953 C 331.112 202.198,331.204 202.504,331.411 202.632 C 331.652 202.780,331.708 202.736,331.568 202.509 C 331.447 202.314,331.479 202.154,331.638 202.154 C 331.798 202.154,332.007 201.854,332.102 201.488 C 332.245 200.943,332.359 200.890,332.726 201.195 C 333.037 201.453,333.238 201.467,333.379 201.241 C 333.650 200.801,332.190 199.276,330.338 198.064 C 327.604 196.275,327.299 196.051,327.049 195.647 C 326.913 195.427,326.797 186.263,326.792 175.281 C 326.778 149.926,326.699 149.269,322.904 142.984 C 321.803 141.160,317.369 135.890,317.998 137.154 M271.231 217.594 C 259.167 220.620,260.826 237.678,273.171 237.540 C 284.812 237.409,286.611 220.274,275.247 217.775 C 273.103 217.303,272.498 217.276,271.231 217.594 M276.192 256.846 C 276.213 257.312,276.166 257.518,276.089 257.306 C 276.011 257.093,275.807 257.006,275.635 257.112 C 275.453 257.225,275.468 257.035,275.672 256.653 C 276.118 255.819,276.146 255.829,276.192 256.846 M139.277 316.256 C 138.997 316.566,138.837 316.912,138.922 317.025 C 139.007 317.138,138.987 317.164,138.877 317.083 C 138.768 317.001,138.429 317.221,138.124 317.572 C 137.820 317.923,137.433 318.125,137.263 318.020 C 137.086 317.910,137.005 318.087,137.072 318.436 C 137.143 318.806,137.048 318.990,136.825 318.909 C 136.271 318.706,135.806 319.122,135.258 320.308 C 134.984 320.900,134.835 321.121,134.927 320.798 C 135.055 320.351,134.885 320.425,134.221 321.105 C 133.741 321.597,133.343 322.069,133.338 322.154 C 133.296 322.841,132.812 323.396,132.577 323.026 C 132.380 322.714,132.316 322.750,132.312 323.172 C 132.310 323.478,132.185 323.653,132.035 323.560 C 131.635 323.313,130.985 324.218,131.252 324.649 C 131.377 324.852,131.354 324.942,131.201 324.849 C 131.048 324.756,130.745 324.873,130.526 325.109 C 130.114 325.555,207.588 325.795,208.744 325.352 C 209.012 325.249,209.231 325.033,209.231 324.872 C 209.231 324.711,209.082 324.671,208.900 324.783 C 208.719 324.896,208.748 324.703,208.965 324.355 C 209.192 323.991,209.758 323.683,210.296 323.630 C 210.990 323.562,211.231 323.382,211.231 322.932 C 211.232 322.598,211.520 322.182,211.872 322.006 C 212.223 321.831,212.454 321.516,212.384 321.305 C 212.227 320.834,212.682 320.805,213.135 321.258 C 213.375 321.498,213.535 321.485,213.705 321.210 C 213.849 320.977,213.815 320.906,213.618 321.028 C 213.268 321.244,212.847 320.486,213.149 320.184 C 213.456 319.878,213.896 319.978,213.692 320.308 C 213.588 320.477,213.639 320.615,213.807 320.615 C 214.122 320.615,214.636 319.426,214.515 318.977 C 214.477 318.838,214.574 318.802,214.729 318.898 C 214.885 318.995,215.095 318.858,215.196 318.594 C 215.305 318.312,215.539 318.208,215.767 318.341 C 215.980 318.466,215.911 318.290,215.615 317.951 C 214.995 317.243,215.179 316.923,216.205 316.923 C 216.600 316.923,216.923 316.768,216.923 316.579 C 216.923 316.391,217.177 316.302,217.487 316.383 C 217.827 316.472,218.051 316.367,218.051 316.118 C 218.051 315.372,139.954 315.508,139.277 316.256 M215.521 317.510 C 215.615 317.663,215.970 317.716,216.308 317.628 C 217.155 317.406,217.078 317.231,216.136 317.231 C 215.703 317.231,215.426 317.356,215.521 317.510 " stroke="none" fill="#7dc4fc" fill-rule="evenodd"></path><path id="path1" d="M232.769 65.206 C 231.958 65.586,227.607 69.726,220.002 77.353 C 206.541 90.853,207.596 90.191,204.462 87.104 C 202.579 85.249,202.145 85.186,202.180 86.769 C 202.196 87.466,202.220 87.481,202.445 86.923 C 202.581 86.585,202.620 86.169,202.532 86.000 C 202.430 85.804,202.496 85.806,202.714 86.005 C 203.159 86.412,202.824 87.692,202.272 87.692 C 202.038 87.692,201.846 87.424,201.846 87.095 C 201.846 86.767,201.698 86.407,201.518 86.295 C 200.919 85.925,200.866 86.397,201.413 87.230 C 201.870 87.928,201.885 88.094,201.514 88.329 C 200.660 88.870,199.987 88.296,200.604 87.552 C 200.866 87.237,200.860 87.074,200.583 86.903 C 200.348 86.758,200.293 86.804,200.432 87.029 C 200.553 87.225,200.505 87.385,200.326 87.385 C 200.147 87.385,199.998 87.765,199.995 88.231 C 199.992 88.822,199.911 88.951,199.726 88.659 C 199.542 88.368,199.398 88.345,199.251 88.583 C 199.135 88.770,199.120 89.052,199.218 89.210 C 199.315 89.367,199.254 89.583,199.082 89.689 C 198.910 89.796,198.769 90.151,198.769 90.480 C 198.769 90.808,198.623 91.077,198.443 91.077 C 198.264 91.077,198.199 91.209,198.299 91.371 C 198.399 91.533,198.715 91.576,199.000 91.466 C 199.452 91.293,199.462 91.327,199.080 91.736 C 198.626 92.223,197.753 92.400,198.032 91.949 C 198.119 91.808,197.970 91.692,197.701 91.692 C 196.550 91.692,196.843 92.694,198.416 94.140 C 201.107 96.614,202.164 95.203,183.923 113.475 C 175.081 122.332,167.617 129.706,167.338 129.861 C 167.058 130.016,164.947 130.161,162.646 130.183 C 160.344 130.205,158.462 130.346,158.462 130.496 C 158.462 130.747,158.912 130.890,159.450 130.809 C 159.571 130.791,159.587 130.994,159.485 131.260 C 159.382 131.526,159.214 131.628,159.111 131.487 C 159.008 131.346,158.438 131.060,157.846 130.852 L 156.769 130.474 157.530 131.059 C 157.948 131.381,158.420 131.564,158.577 131.467 C 158.735 131.369,158.761 131.456,158.636 131.660 C 158.460 131.943,158.305 131.945,157.973 131.670 C 157.569 131.335,157.404 131.489,157.510 132.100 C 157.534 132.239,157.412 132.266,157.238 132.159 C 157.065 132.051,156.923 132.132,156.923 132.337 C 156.923 132.581,156.727 132.533,156.360 132.202 C 155.774 131.671,155.094 131.526,155.053 131.923 C 155.040 132.050,154.983 132.397,154.927 132.694 C 154.870 132.991,154.940 133.162,155.083 133.073 C 155.225 132.985,155.430 133.056,155.538 133.231 C 155.646 133.406,155.878 133.460,156.052 133.353 C 156.261 133.223,156.258 133.365,156.042 133.769 C 155.861 134.105,155.778 134.468,155.857 134.575 C 155.936 134.682,155.910 134.702,155.800 134.621 C 155.691 134.539,155.270 134.851,154.866 135.313 C 154.461 135.776,154.207 135.946,154.300 135.692 C 154.421 135.359,154.252 135.231,153.690 135.231 C 152.992 135.231,152.966 135.270,153.438 135.615 C 153.929 135.974,153.929 136.000,153.443 136.000 C 153.070 136.000,152.923 136.261,152.923 136.923 C 152.923 137.641,152.786 137.846,152.308 137.846 C 151.925 137.846,151.694 137.643,151.697 137.308 C 151.701 136.856,151.748 136.842,151.988 137.222 C 152.145 137.471,152.378 137.571,152.505 137.444 C 152.631 137.317,152.466 136.945,152.137 136.616 C 151.429 135.910,151.146 137.177,151.691 138.611 C 151.911 139.190,151.881 139.320,151.556 139.195 C 151.327 139.107,151.048 139.183,150.936 139.364 C 150.792 139.596,163.169 139.692,193.231 139.692 C 218.570 139.692,235.659 139.580,235.556 139.413 C 235.461 139.260,235.661 139.207,236.000 139.295 C 236.435 139.409,236.615 139.305,236.615 138.941 C 236.615 138.615,236.473 138.507,236.231 138.647 C 236.007 138.775,235.954 138.751,236.102 138.588 C 236.243 138.434,236.673 138.303,237.057 138.298 C 237.678 138.289,238.840 137.492,238.678 137.187 C 238.643 137.122,238.804 137.279,239.036 137.535 C 239.400 137.938,239.437 137.891,239.314 137.182 C 239.204 136.545,239.276 136.404,239.640 136.543 C 239.977 136.672,240.053 136.582,239.913 136.217 C 239.806 135.939,239.854 135.629,240.018 135.527 C 240.183 135.425,240.238 135.213,240.141 135.056 C 239.909 134.680,240.205 134.693,240.948 135.090 C 241.277 135.267,241.529 135.301,241.506 135.167 C 241.384 134.434,241.582 134.105,242.040 134.280 C 242.455 134.440,242.509 134.316,242.357 133.556 C 242.234 132.940,242.329 132.484,242.647 132.166 C 243.344 131.469,243.573 131.589,242.921 132.310 C 242.163 133.148,242.555 133.445,243.359 132.641 C 243.712 132.288,244.166 132.000,244.369 132.000 C 244.656 132.000,244.656 131.918,244.369 131.631 C 243.857 131.118,243.904 130.614,244.424 131.046 C 244.757 131.322,244.883 131.264,245.011 130.776 C 245.173 130.155,245.129 130.154,214.340 130.154 C 181.424 130.154,182.769 130.219,182.769 128.630 C 182.769 127.352,233.643 76.615,234.925 76.615 C 235.734 76.615,237.791 78.559,251.525 92.294 C 264.651 105.422,267.276 107.912,267.660 107.602 C 267.999 107.327,268.062 107.325,267.900 107.594 C 267.780 107.794,267.819 108.042,267.986 108.145 C 268.484 108.453,268.763 106.749,268.272 106.399 C 267.946 106.167,267.977 106.138,268.407 106.278 C 269.326 106.576,270.284 105.912,269.792 105.319 C 269.439 104.894,269.480 104.863,270.118 105.066 C 270.615 105.223,270.780 105.190,270.638 104.960 C 270.507 104.748,270.608 104.691,270.907 104.806 C 271.186 104.913,271.404 104.816,271.431 104.571 C 271.457 104.342,271.494 104.003,271.513 103.819 C 271.624 102.761,272.928 102.334,272.918 103.359 C 272.914 103.786,272.877 103.789,272.615 103.385 C 272.451 103.131,272.304 102.992,272.289 103.077 C 272.273 103.162,272.217 103.456,272.163 103.732 C 272.093 104.091,272.231 104.190,272.648 104.081 C 272.988 103.992,273.233 103.655,273.235 103.272 C 273.238 102.911,273.366 102.417,273.519 102.174 C 273.896 101.580,238.177 65.774,236.514 65.079 C 235.069 64.475,234.270 64.502,232.769 65.206 M200.131 89.686 C 199.247 90.355,198.894 90.247,199.735 89.565 C 200.135 89.241,200.521 89.035,200.593 89.107 C 200.665 89.178,200.457 89.439,200.131 89.686 M269.615 106.471 C 268.705 106.837,268.742 106.923,269.807 106.923 C 270.388 106.923,270.640 106.791,270.543 106.538 C 270.462 106.327,270.376 106.163,270.352 106.173 C 270.327 106.184,269.996 106.318,269.615 106.471 M156.047 132.691 C 155.695 133.043,154.987 132.702,155.236 132.300 C 155.328 132.150,155.617 132.108,155.877 132.208 C 156.185 132.327,156.244 132.494,156.047 132.691 M153.538 133.967 C 153.538 134.203,153.749 134.477,154.007 134.576 C 154.389 134.722,154.416 134.643,154.150 134.147 C 153.768 133.434,153.538 133.366,153.538 133.967 M240.124 135.740 C 239.994 135.951,240.040 136.012,240.237 135.890 C 240.419 135.777,240.632 135.929,240.710 136.227 C 240.818 136.640,240.860 136.604,240.887 136.077 C 240.925 135.341,240.490 135.148,240.124 135.740 M149.760 137.219 C 149.670 137.564,149.745 137.846,149.926 137.846 C 150.108 137.846,150.153 137.950,150.026 138.077 C 149.899 138.204,149.645 138.308,149.462 138.308 C 149.278 138.308,149.072 138.515,149.002 138.769 C 148.890 139.179,148.912 139.179,149.203 138.769 C 149.443 138.430,149.530 138.414,149.534 138.710 C 149.536 138.932,149.666 139.034,149.823 138.937 C 149.979 138.841,150.173 139.006,150.254 139.304 C 150.334 139.602,150.336 139.156,150.257 138.313 C 150.093 136.558,149.991 136.334,149.760 137.219 M84.949 200.696 C 85.019 200.740,85.421 201.051,85.841 201.388 C 86.304 201.759,86.456 201.807,86.228 201.510 C 86.021 201.241,85.943 200.929,86.054 200.818 C 86.165 200.706,85.933 200.615,85.538 200.615 C 85.144 200.615,84.878 200.651,84.949 200.696 M84.144 203.020 C 84.165 203.311,84.288 203.720,84.417 203.928 C 84.737 204.445,84.345 205.003,83.808 204.797 C 83.467 204.666,83.438 204.755,83.674 205.197 C 84.004 205.814,83.839 206.160,83.278 206.029 C 83.083 205.984,83.027 206.005,83.154 206.076 C 83.667 206.363,83.339 206.701,82.692 206.551 L 82.000 206.391 82.692 206.905 C 83.073 207.188,83.385 207.577,83.385 207.769 C 83.385 207.961,83.166 207.849,82.898 207.520 C 82.482 207.010,82.436 207.002,82.581 207.462 C 82.704 207.853,82.580 208.000,82.126 208.000 C 81.783 208.000,81.576 208.120,81.667 208.266 C 81.757 208.412,81.454 208.536,80.992 208.540 C 79.160 208.559,78.605 208.654,79.077 208.868 C 79.685 209.143,79.779 209.744,79.214 209.744 C 78.969 209.744,78.769 209.643,78.769 209.520 C 78.769 208.983,77.968 209.039,77.928 209.579 C 77.903 209.902,78.004 210.093,78.151 210.002 C 78.299 209.911,78.507 209.979,78.615 210.154 C 78.723 210.329,78.941 210.392,79.098 210.295 C 79.256 210.197,79.385 210.231,79.385 210.369 C 79.385 210.508,79.108 210.794,78.769 211.006 C 78.431 211.217,78.154 211.582,78.154 211.816 C 78.154 212.050,77.953 212.319,77.708 212.413 C 77.421 212.523,77.319 212.436,77.421 212.169 C 77.509 211.941,77.433 211.663,77.252 211.551 C 77.019 211.408,76.923 224.276,76.923 255.538 C 76.923 285.393,77.025 299.666,77.236 299.535 C 77.408 299.429,77.475 299.223,77.385 299.077 C 77.294 298.931,77.355 298.729,77.520 298.627 C 77.685 298.525,77.746 298.251,77.657 298.018 C 77.562 297.772,77.750 297.513,78.104 297.400 C 78.439 297.294,78.899 296.978,79.126 296.698 C 79.418 296.338,79.427 296.257,79.154 296.421 C 78.933 296.553,78.769 296.497,78.769 296.290 C 78.769 296.084,79.025 295.995,79.362 296.083 C 79.777 296.192,79.905 296.111,79.790 295.811 C 79.690 295.550,79.831 295.385,80.154 295.385 C 80.488 295.385,80.619 295.221,80.510 294.939 C 80.406 294.668,80.577 294.418,80.943 294.301 C 81.276 294.196,81.480 294.000,81.397 293.866 C 81.314 293.732,81.693 293.633,82.238 293.647 C 83.111 293.669,83.230 293.576,83.221 292.872 C 83.215 292.356,83.349 292.124,83.596 292.219 C 83.808 292.300,83.950 292.508,83.913 292.681 C 83.876 292.854,84.105 293.038,84.421 293.091 C 84.899 293.171,84.855 293.040,84.165 292.320 C 83.561 291.689,83.438 291.388,83.715 291.217 C 83.959 291.066,84.017 291.109,83.876 291.337 C 83.755 291.532,83.722 291.692,83.803 291.692 C 83.884 291.692,84.203 291.787,84.513 291.904 C 85.027 292.096,85.036 292.064,84.615 291.543 C 84.188 291.013,84.206 290.984,84.846 291.149 C 85.226 291.247,85.615 291.201,85.710 291.048 C 85.869 290.790,85.424 290.636,84.823 290.740 C 84.684 290.765,84.672 290.619,84.797 290.417 C 84.953 290.164,84.859 290.112,84.496 290.252 C 84.182 290.372,84.044 290.331,84.156 290.150 C 84.421 289.721,85.155 289.772,85.309 290.231 C 85.410 290.532,85.548 290.525,85.944 290.198 C 86.820 289.475,86.727 203.856,85.849 203.386 C 85.346 203.117,85.231 203.150,85.231 203.561 C 85.231 203.883,85.398 204.002,85.692 203.889 C 86.381 203.624,86.249 203.927,85.501 204.328 C 85.037 204.576,84.909 204.579,85.059 204.336 C 85.175 204.149,85.062 203.916,84.808 203.819 C 84.554 203.721,84.416 203.459,84.502 203.236 C 84.587 203.014,84.533 202.755,84.381 202.661 C 84.229 202.567,84.123 202.728,84.144 203.020 M85.271 205.336 C 85.083 205.563,85.031 205.862,85.157 206.001 C 85.282 206.139,85.209 206.152,84.995 206.028 C 84.781 205.905,84.684 205.676,84.780 205.521 C 84.877 205.364,84.719 205.328,84.427 205.440 C 84.069 205.578,83.971 205.527,84.122 205.283 C 84.244 205.085,84.630 204.923,84.979 204.923 C 85.475 204.923,85.539 205.013,85.271 205.336 M83.077 293.115 C 83.077 293.523,82.993 293.544,82.615 293.231 C 82.362 293.020,82.154 292.795,82.154 292.732 C 82.154 292.668,82.362 292.615,82.615 292.615 C 82.869 292.615,83.077 292.840,83.077 293.115 M81.676 294.181 C 81.562 294.365,81.631 294.676,81.830 294.873 C 82.105 295.146,82.136 295.085,81.961 294.615 C 81.748 294.047,81.776 294.035,82.327 294.462 C 82.879 294.889,82.892 294.883,82.501 294.385 C 82.005 293.753,81.949 293.739,81.676 294.181 " stroke="none" fill="#e1b4fc" fill-rule="evenodd"></path><path id="path2" d="M332.108 201.467 C 332.009 201.845,331.798 202.154,331.638 202.154 C 331.479 202.154,331.447 202.314,331.568 202.509 C 331.708 202.736,331.652 202.780,331.411 202.632 C 331.204 202.504,331.112 202.198,331.206 201.953 C 331.307 201.690,331.245 201.588,331.055 201.706 C 330.878 201.815,330.776 202.259,330.828 202.691 C 330.896 203.257,330.768 203.501,330.369 203.560 C 330.065 203.605,329.615 203.809,329.369 204.013 C 328.841 204.451,328.765 205.057,329.278 204.740 C 329.503 204.601,329.550 204.656,329.406 204.888 C 329.281 205.090,328.914 205.172,328.589 205.069 C 328.265 204.966,328.000 205.018,328.000 205.184 C 328.000 205.351,328.164 205.542,328.365 205.609 C 328.604 205.688,328.509 205.952,328.094 206.368 C 327.671 206.791,327.316 206.915,327.036 206.738 C 326.178 206.194,326.123 206.489,326.907 207.422 C 328.620 209.458,328.554 208.641,328.556 227.684 L 328.558 245.364 327.826 246.809 C 326.132 250.151,325.599 250.227,302.923 250.328 C 293.277 250.372,284.856 250.419,284.210 250.434 C 283.144 250.459,283.053 250.526,283.230 251.154 C 283.337 251.535,283.312 251.708,283.174 251.538 C 282.854 251.146,281.793 251.050,282.031 251.435 C 282.129 251.594,281.865 252.043,281.443 252.434 C 281.022 252.825,280.610 253.406,280.528 253.726 C 280.412 254.178,280.369 254.137,280.334 253.538 C 280.293 252.832,280.262 252.816,279.955 253.345 C 279.685 253.809,279.569 253.839,279.353 253.498 C 278.952 252.865,278.991 253.726,279.398 254.486 C 279.641 254.941,279.623 255.066,279.321 255.004 C 279.102 254.960,278.961 255.106,279.008 255.331 C 279.054 255.555,278.955 255.653,278.787 255.549 C 278.619 255.446,278.305 255.644,278.089 255.989 C 277.697 256.617,277.696 256.617,277.152 255.924 C 276.770 255.438,276.665 255.394,276.800 255.775 C 277.020 256.396,276.360 258.222,275.997 257.998 C 275.777 257.862,275.392 258.476,275.223 259.231 C 275.177 259.434,282.205 259.528,295.878 259.507 C 315.001 259.478,316.639 259.516,317.075 259.997 C 317.842 260.845,317.622 300.901,316.836 303.515 C 315.102 309.280,310.668 313.564,304.769 315.173 C 303.922 315.404,290.206 315.561,260.769 315.677 C 228.839 315.803,218.017 315.936,218.066 316.199 C 218.106 316.408,217.886 316.488,217.528 316.394 C 217.193 316.307,216.923 316.389,216.923 316.579 C 216.923 316.768,216.600 316.923,216.205 316.923 C 215.179 316.923,214.995 317.243,215.615 317.951 C 215.911 318.290,215.980 318.466,215.767 318.341 C 215.539 318.208,215.305 318.312,215.196 318.594 C 215.095 318.858,214.885 318.995,214.729 318.898 C 214.574 318.802,214.477 318.838,214.515 318.977 C 214.636 319.426,214.122 320.615,213.807 320.615 C 213.639 320.615,213.588 320.477,213.692 320.308 C 213.896 319.978,213.456 319.878,213.149 320.184 C 212.847 320.486,213.268 321.244,213.618 321.028 C 213.815 320.906,213.849 320.977,213.705 321.210 C 213.535 321.485,213.375 321.498,213.135 321.258 C 212.682 320.805,212.227 320.834,212.384 321.305 C 212.454 321.516,212.223 321.831,211.872 322.006 C 211.520 322.182,211.232 322.598,211.231 322.932 C 211.231 323.382,210.990 323.562,210.296 323.630 C 209.758 323.683,209.192 323.991,208.965 324.355 C 208.748 324.703,208.719 324.896,208.900 324.783 C 209.082 324.671,209.231 324.714,209.231 324.879 C 209.231 325.044,209.058 325.249,208.846 325.335 C 208.635 325.420,229.666 325.501,255.582 325.514 C 297.832 325.536,302.722 325.489,302.886 325.063 C 303.019 324.716,303.439 324.606,304.435 324.657 C 305.186 324.696,305.988 324.573,306.216 324.384 C 306.444 324.194,307.389 323.943,308.315 323.825 C 310.488 323.548,316.725 319.842,318.982 317.486 C 320.770 315.620,323.498 311.579,324.512 309.294 C 326.643 304.492,326.805 302.266,326.791 277.901 L 326.780 259.481 327.467 258.861 C 327.845 258.520,328.825 257.913,329.645 257.513 C 333.063 255.844,336.736 250.882,337.599 246.768 C 338.071 244.518,338.310 209.538,337.853 209.538 C 337.680 209.538,337.538 209.203,337.538 208.794 C 337.538 206.736,334.183 200.568,333.412 201.208 C 333.148 201.427,332.917 201.409,332.660 201.152 C 332.369 200.861,332.248 200.930,332.108 201.467 M275.672 256.653 C 275.468 257.035,275.453 257.225,275.635 257.112 C 275.807 257.006,276.011 257.093,276.089 257.306 C 276.166 257.518,276.213 257.312,276.192 256.846 C 276.146 255.829,276.118 255.819,275.672 256.653 M216.923 317.349 C 216.923 317.622,215.678 317.765,215.521 317.510 C 215.426 317.356,215.703 317.231,216.136 317.231 C 216.569 317.231,216.923 317.284,216.923 317.349 " stroke="none" fill="#35d0fc" fill-rule="evenodd"></path><path id="path3" d="M273.418 102.333 C 273.315 102.601,273.231 103.069,273.231 103.374 C 273.231 103.679,272.969 103.997,272.648 104.081 C 272.231 104.190,272.093 104.091,272.163 103.732 C 272.217 103.456,272.273 103.162,272.289 103.077 C 272.304 102.992,272.451 103.131,272.615 103.385 C 272.877 103.789,272.914 103.786,272.918 103.359 C 272.928 102.334,271.624 102.761,271.513 103.819 C 271.494 104.003,271.457 104.342,271.431 104.571 C 271.404 104.816,271.186 104.913,270.907 104.806 C 270.608 104.691,270.507 104.748,270.638 104.960 C 270.780 105.190,270.615 105.223,270.118 105.066 C 269.480 104.863,269.439 104.894,269.792 105.319 C 270.284 105.912,269.326 106.576,268.407 106.278 C 267.977 106.138,267.946 106.167,268.272 106.399 C 268.763 106.749,268.484 108.453,267.986 108.145 C 267.819 108.042,267.774 107.794,267.886 107.594 C 268.018 107.359,267.941 107.369,267.669 107.622 C 267.320 107.947,268.941 109.707,277.162 117.932 C 286.924 127.697,287.428 128.307,286.758 129.559 C 286.449 130.138,285.903 130.154,266.820 130.154 C 251.550 130.154,247.108 130.239,246.786 130.538 C 246.454 130.846,246.415 130.846,246.588 130.538 C 246.738 130.273,246.553 130.154,245.989 130.154 C 245.429 130.154,245.122 130.349,245.011 130.776 C 244.883 131.264,244.757 131.322,244.424 131.046 C 243.904 130.614,243.857 131.118,244.369 131.631 C 244.656 131.918,244.656 132.000,244.369 132.000 C 244.166 132.000,243.712 132.288,243.359 132.641 C 242.555 133.445,242.163 133.148,242.921 132.310 C 243.573 131.589,243.344 131.469,242.647 132.166 C 242.329 132.484,242.234 132.940,242.357 133.556 C 242.509 134.316,242.455 134.440,242.040 134.280 C 241.582 134.105,241.384 134.434,241.506 135.167 C 241.529 135.301,241.277 135.267,240.948 135.090 C 240.205 134.693,239.909 134.680,240.141 135.056 C 240.238 135.213,240.183 135.425,240.018 135.527 C 239.854 135.629,239.806 135.939,239.913 136.217 C 240.053 136.582,239.977 136.672,239.640 136.543 C 239.276 136.404,239.204 136.545,239.314 137.182 C 239.437 137.891,239.400 137.938,239.036 137.535 C 238.804 137.279,238.643 137.122,238.678 137.187 C 238.840 137.492,237.678 138.289,237.057 138.298 C 236.673 138.303,236.243 138.434,236.102 138.588 C 235.954 138.751,236.007 138.775,236.231 138.647 C 236.473 138.507,236.615 138.615,236.615 138.941 C 236.615 139.305,236.435 139.409,236.000 139.295 C 235.661 139.207,235.461 139.260,235.556 139.413 C 235.658 139.577,249.442 139.693,269.018 139.695 C 307.387 139.697,305.999 139.608,309.897 142.339 C 311.609 143.540,312.480 143.769,312.419 143.003 C 312.396 142.709,312.500 142.544,312.650 142.637 C 312.800 142.730,312.925 142.624,312.928 142.403 C 312.931 142.107,313.018 142.123,313.256 142.462 C 313.519 142.837,313.549 142.808,313.421 142.308 C 313.301 141.844,313.635 141.397,314.776 140.495 C 315.609 139.837,316.217 139.179,316.127 139.033 C 316.037 138.887,316.317 138.633,316.751 138.469 C 317.184 138.304,317.538 138.088,317.538 137.989 C 317.538 137.891,317.400 137.895,317.231 138.000 C 317.062 138.105,316.923 138.108,316.923 138.008 C 316.923 137.908,317.216 137.718,317.574 137.586 C 318.196 137.356,318.200 137.321,317.680 136.801 C 316.535 135.656,313.722 133.756,312.051 132.999 C 311.092 132.564,309.989 131.963,309.600 131.663 C 309.210 131.363,308.102 131.027,307.138 130.916 C 306.174 130.805,304.969 130.593,304.462 130.445 C 303.954 130.296,303.161 130.099,302.699 130.007 C 302.111 129.888,297.683 125.650,287.901 115.842 C 273.190 101.093,273.708 101.576,273.418 102.333 M270.543 106.538 C 270.640 106.791,270.388 106.923,269.807 106.923 C 268.742 106.923,268.705 106.837,269.615 106.471 C 269.996 106.318,270.327 106.184,270.352 106.173 C 270.376 106.163,270.462 106.327,270.543 106.538 M240.887 136.077 C 240.860 136.604,240.818 136.640,240.710 136.227 C 240.632 135.929,240.419 135.777,240.237 135.890 C 240.040 136.012,239.994 135.951,240.124 135.740 C 240.490 135.148,240.925 135.341,240.887 136.077 M84.156 290.150 C 84.044 290.331,84.182 290.372,84.496 290.252 C 84.859 290.112,84.953 290.164,84.797 290.417 C 84.672 290.619,84.684 290.765,84.823 290.740 C 85.424 290.636,85.869 290.790,85.710 291.048 C 85.615 291.201,85.226 291.247,84.846 291.149 C 84.206 290.984,84.188 291.013,84.615 291.543 C 85.036 292.064,85.027 292.096,84.513 291.904 C 84.203 291.787,83.884 291.692,83.803 291.692 C 83.722 291.692,83.755 291.532,83.876 291.337 C 84.017 291.109,83.959 291.066,83.715 291.217 C 83.438 291.388,83.561 291.689,84.165 292.320 C 84.855 293.040,84.899 293.171,84.421 293.091 C 84.105 293.038,83.876 292.854,83.913 292.681 C 83.950 292.508,83.808 292.300,83.596 292.219 C 83.349 292.124,83.215 292.356,83.221 292.872 C 83.230 293.576,83.111 293.669,82.238 293.647 C 81.693 293.633,81.314 293.732,81.397 293.866 C 81.480 294.000,81.276 294.196,80.943 294.301 C 80.577 294.418,80.406 294.668,80.510 294.939 C 80.619 295.221,80.488 295.385,80.154 295.385 C 79.831 295.385,79.690 295.550,79.790 295.811 C 79.905 296.111,79.777 296.192,79.362 296.083 C 79.025 295.995,78.769 296.084,78.769 296.290 C 78.769 296.489,78.942 296.564,79.154 296.456 C 79.365 296.349,79.225 296.537,78.842 296.875 C 78.459 297.213,77.989 297.542,77.798 297.606 C 77.607 297.670,77.431 298.061,77.408 298.476 C 77.385 298.891,77.264 299.394,77.140 299.594 C 77.015 299.794,77.054 300.044,77.226 300.151 C 77.398 300.257,77.538 301.142,77.538 302.118 C 77.538 310.506,86.139 320.819,95.538 323.701 C 96.215 323.909,97.115 324.226,97.538 324.405 C 97.962 324.585,98.876 324.695,99.570 324.650 C 100.399 324.596,100.998 324.734,101.317 325.053 C 102.020 325.757,129.855 325.793,130.557 325.092 C 130.803 324.846,131.112 324.742,131.243 324.861 C 131.375 324.980,131.380 324.898,131.254 324.679 C 130.989 324.220,131.627 323.308,132.035 323.560 C 132.185 323.653,132.310 323.478,132.312 323.172 C 132.316 322.750,132.380 322.714,132.577 323.026 C 132.812 323.396,133.296 322.841,133.338 322.154 C 133.343 322.069,133.741 321.597,134.221 321.105 C 134.885 320.425,135.055 320.351,134.927 320.798 C 134.835 321.121,134.984 320.900,135.258 320.308 C 135.806 319.122,136.271 318.706,136.825 318.909 C 137.048 318.990,137.143 318.806,137.072 318.436 C 137.005 318.087,137.086 317.910,137.263 318.020 C 137.433 318.125,137.820 317.923,138.124 317.572 C 138.429 317.221,138.790 317.036,138.927 317.159 C 139.064 317.283,139.086 317.227,138.976 317.035 C 138.866 316.843,139.004 316.496,139.282 316.266 C 139.710 315.910,136.785 315.819,120.124 315.671 C 98.459 315.478,98.280 315.463,95.094 313.570 C 88.737 309.794,86.462 304.983,86.462 295.322 C 86.462 290.182,86.424 289.802,85.950 290.193 C 85.551 290.522,85.410 290.531,85.309 290.231 C 85.155 289.772,84.421 289.721,84.156 290.150 M82.154 292.732 C 82.154 292.795,82.362 293.020,82.615 293.231 C 82.993 293.544,83.077 293.523,83.077 293.115 C 83.077 292.840,82.869 292.615,82.615 292.615 C 82.362 292.615,82.154 292.668,82.154 292.732 M82.501 294.385 C 82.892 294.883,82.879 294.889,82.327 294.462 C 81.776 294.035,81.748 294.047,81.961 294.615 C 82.136 295.085,82.105 295.146,81.830 294.873 C 81.631 294.676,81.562 294.365,81.676 294.181 C 81.949 293.739,82.005 293.753,82.501 294.385 " stroke="none" fill="#a9bcfc" fill-rule="evenodd"></path><path id="path4" d="M178.308 64.968 C 177.969 65.152,163.152 79.825,145.381 97.574 C 127.610 115.324,113.002 129.873,112.920 129.905 C 112.837 129.938,109.723 130.050,106.000 130.153 C 99.320 130.339,95.670 130.788,94.769 131.535 C 94.515 131.745,93.267 132.425,91.995 133.047 C 84.463 136.726,78.657 144.417,77.629 152.077 C 77.544 152.712,77.350 153.231,77.198 153.231 C 77.038 153.231,76.923 165.273,76.923 181.990 C 76.923 209.240,76.951 210.741,77.462 210.581 C 77.957 210.425,77.955 210.448,77.443 210.868 C 77.063 211.181,76.996 211.393,77.233 211.540 C 77.424 211.658,77.509 211.941,77.421 212.169 C 77.319 212.436,77.421 212.523,77.708 212.413 C 77.953 212.319,78.154 212.050,78.154 211.816 C 78.154 211.582,78.431 211.217,78.769 211.006 C 79.108 210.794,79.385 210.508,79.385 210.369 C 79.385 210.231,79.256 210.197,79.098 210.295 C 78.941 210.392,78.723 210.329,78.615 210.154 C 78.507 209.979,78.299 209.911,78.151 210.002 C 78.004 210.093,77.903 209.902,77.928 209.579 C 77.968 209.039,78.769 208.983,78.769 209.520 C 78.769 209.643,78.969 209.744,79.214 209.744 C 79.779 209.744,79.685 209.143,79.077 208.868 C 78.605 208.654,79.160 208.559,80.992 208.540 C 81.454 208.536,81.757 208.412,81.667 208.266 C 81.576 208.120,81.783 208.000,82.126 208.000 C 82.580 208.000,82.704 207.853,82.581 207.462 C 82.436 207.002,82.482 207.010,82.898 207.520 C 83.166 207.849,83.385 207.961,83.385 207.769 C 83.385 207.577,83.073 207.188,82.692 206.905 L 82.000 206.391 82.692 206.551 C 83.339 206.701,83.667 206.363,83.154 206.076 C 83.027 206.005,83.083 205.984,83.278 206.029 C 83.839 206.160,84.004 205.814,83.674 205.197 C 83.438 204.755,83.467 204.666,83.808 204.797 C 84.345 205.003,84.737 204.445,84.417 203.928 C 84.081 203.384,84.054 202.459,84.381 202.661 C 84.533 202.755,84.587 203.014,84.502 203.236 C 84.416 203.459,84.554 203.721,84.808 203.819 C 85.062 203.916,85.175 204.149,85.059 204.336 C 84.914 204.572,85.055 204.566,85.519 204.318 C 86.476 203.806,86.623 203.156,85.960 202.378 C 85.491 201.828,85.483 201.779,85.916 202.114 C 86.418 202.502,86.448 201.216,86.458 178.651 C 86.470 152.138,86.436 152.638,88.514 148.511 C 90.421 144.724,93.927 141.766,98.308 140.246 C 99.715 139.758,101.908 139.711,124.077 139.696 C 140.588 139.684,148.308 139.577,148.308 139.360 C 148.308 139.184,148.446 139.126,148.614 139.230 C 149.317 139.664,150.154 139.645,150.154 139.195 C 150.154 138.941,150.015 138.818,149.846 138.923 C 149.677 139.028,149.536 138.932,149.534 138.710 C 149.530 138.414,149.443 138.430,149.203 138.769 C 148.912 139.179,148.890 139.179,149.002 138.769 C 149.072 138.515,149.290 138.290,149.487 138.269 C 150.229 138.190,150.299 138.139,149.965 137.918 C 149.757 137.781,149.718 137.451,149.867 137.077 C 150.090 136.514,150.115 136.527,150.168 137.231 C 150.199 137.654,150.257 138.138,150.296 138.308 C 150.336 138.477,150.389 138.875,150.415 139.192 C 150.453 139.660,150.545 139.698,150.910 139.396 C 151.156 139.191,151.502 139.113,151.678 139.222 C 151.896 139.357,151.904 139.173,151.703 138.643 C 151.148 137.183,151.422 135.903,152.137 136.616 C 152.466 136.945,152.631 137.317,152.505 137.444 C 152.378 137.571,152.145 137.471,151.988 137.222 C 151.748 136.842,151.701 136.856,151.697 137.308 C 151.694 137.643,151.925 137.846,152.308 137.846 C 152.786 137.846,152.923 137.641,152.923 136.923 C 152.923 136.261,153.070 136.000,153.443 136.000 C 153.929 136.000,153.929 135.974,153.438 135.615 C 152.966 135.270,152.992 135.231,153.690 135.231 C 154.252 135.231,154.421 135.359,154.300 135.692 C 154.207 135.946,154.461 135.776,154.866 135.313 C 155.270 134.851,155.691 134.539,155.800 134.621 C 155.910 134.702,155.936 134.682,155.857 134.575 C 155.778 134.468,155.861 134.105,156.042 133.769 C 156.258 133.365,156.261 133.223,156.052 133.353 C 155.878 133.460,155.646 133.406,155.538 133.231 C 155.430 133.056,155.225 132.985,155.083 133.073 C 154.940 133.162,154.870 132.991,154.927 132.694 C 154.983 132.397,155.040 132.050,155.053 131.923 C 155.094 131.526,155.774 131.671,156.360 132.202 C 156.727 132.533,156.923 132.581,156.923 132.337 C 156.923 132.132,157.065 132.051,157.238 132.159 C 157.412 132.266,157.534 132.239,157.510 132.100 C 157.404 131.489,157.569 131.335,157.973 131.670 C 158.305 131.945,158.460 131.943,158.636 131.660 C 158.761 131.456,158.735 131.369,158.577 131.467 C 158.420 131.564,157.948 131.381,157.530 131.059 L 156.769 130.474 157.846 130.852 C 158.438 131.060,159.008 131.346,159.111 131.487 C 159.214 131.628,159.386 131.517,159.492 131.241 C 159.598 130.964,159.560 130.815,159.406 130.910 C 159.252 131.005,158.922 130.878,158.672 130.628 C 158.285 130.241,156.056 130.172,143.520 130.160 C 127.916 130.145,128.000 130.153,128.000 128.652 C 128.000 127.376,178.856 76.615,180.134 76.615 C 180.883 76.615,181.860 77.455,186.133 81.769 C 188.941 84.604,192.363 87.989,193.737 89.292 C 195.112 90.595,196.197 91.703,196.149 91.754 C 196.101 91.805,196.256 92.025,196.493 92.243 C 196.770 92.498,196.923 92.519,196.923 92.302 C 196.923 92.116,197.083 92.062,197.278 92.183 C 197.498 92.319,197.550 92.268,197.414 92.048 C 197.283 91.835,197.394 91.692,197.692 91.692 C 197.966 91.692,198.119 91.808,198.032 91.949 C 197.753 92.400,198.626 92.223,199.080 91.736 C 199.462 91.327,199.452 91.293,199.000 91.466 C 198.715 91.576,198.399 91.533,198.299 91.371 C 198.199 91.209,198.264 91.077,198.443 91.077 C 198.623 91.077,198.769 90.808,198.769 90.480 C 198.769 90.151,198.910 89.796,199.082 89.689 C 199.254 89.583,199.315 89.367,199.218 89.210 C 199.120 89.052,199.135 88.770,199.251 88.583 C 199.398 88.345,199.542 88.368,199.726 88.659 C 199.911 88.951,199.992 88.822,199.995 88.231 C 199.998 87.765,200.147 87.385,200.326 87.385 C 200.505 87.385,200.553 87.225,200.432 87.029 C 200.293 86.804,200.348 86.758,200.583 86.903 C 200.860 87.074,200.866 87.237,200.604 87.552 C 199.987 88.296,200.660 88.870,201.514 88.329 C 201.885 88.094,201.870 87.928,201.413 87.230 C 200.866 86.397,200.919 85.925,201.518 86.295 C 201.698 86.407,201.846 86.767,201.846 87.095 C 201.846 88.017,202.593 87.801,202.984 86.767 C 203.176 86.258,203.206 85.920,203.050 86.016 C 202.895 86.112,202.641 85.871,202.485 85.480 C 201.948 84.131,182.722 65.263,181.539 64.923 C 180.169 64.530,179.086 64.545,178.308 64.968 M202.551 86.770 C 202.329 87.616,202.154 87.540,202.154 86.597 C 202.154 86.164,202.279 85.887,202.433 85.982 C 202.586 86.077,202.639 86.431,202.551 86.770 M199.735 89.565 C 199.336 89.889,199.128 90.149,199.274 90.144 C 199.649 90.130,200.751 89.264,200.593 89.107 C 200.521 89.035,200.135 89.241,199.735 89.565 M155.236 132.300 C 154.987 132.702,155.695 133.043,156.047 132.691 C 156.244 132.494,156.185 132.327,155.877 132.208 C 155.617 132.108,155.328 132.150,155.236 132.300 M154.150 134.147 C 154.416 134.643,154.389 134.722,154.007 134.576 C 153.749 134.477,153.538 134.203,153.538 133.967 C 153.538 133.366,153.768 133.434,154.150 134.147 M86.051 201.072 C 86.051 201.439,85.956 201.456,85.564 201.159 C 85.296 200.956,85.019 200.750,84.949 200.702 C 84.878 200.655,85.097 200.615,85.436 200.615 C 85.775 200.615,86.051 200.821,86.051 201.072 M85.980 203.725 C 85.712 204.159,85.231 204.046,85.231 203.548 C 85.231 203.274,85.411 203.165,85.691 203.273 C 85.943 203.370,86.074 203.573,85.980 203.725 M84.122 205.283 C 83.971 205.527,84.069 205.578,84.427 205.440 C 84.719 205.328,84.877 205.364,84.780 205.521 C 84.684 205.676,84.781 205.905,84.995 206.028 C 85.209 206.152,85.282 206.139,85.157 206.001 C 85.031 205.862,85.083 205.563,85.271 205.336 C 85.539 205.013,85.475 204.923,84.979 204.923 C 84.630 204.923,84.244 205.085,84.122 205.283 " stroke="none" fill="#f2acfc" fill-rule="evenodd"></path></g></svg>