<svg id="svg" version="1.1" xmlns="http://www.w3.org/2000/svg" xmlns:xlink="http://www.w3.org/1999/xlink" width="400" height="400" viewBox="0, 0, 400,400"><g id="svgg"><path id="path0" d="M319.425 182.874 C 319.236 183.102,319.164 183.369,319.264 183.469 C 319.364 183.569,319.170 183.579,318.834 183.491 C 318.498 183.403,318.130 183.482,318.017 183.666 C 317.903 183.849,317.965 184.000,318.154 184.000 C 318.343 184.000,318.411 184.141,318.305 184.313 C 318.198 184.485,317.997 184.555,317.857 184.468 C 317.717 184.382,317.521 184.525,317.420 184.787 C 317.304 185.091,317.363 185.185,317.584 185.049 C 317.774 184.931,317.608 185.270,317.215 185.802 C 316.821 186.334,316.450 186.769,316.390 186.769 C 316.160 186.769,316.476 185.681,316.769 185.466 C 316.943 185.339,316.843 185.238,316.538 185.235 C 316.242 185.233,316.000 185.389,316.000 185.581 C 316.000 185.774,315.758 186.116,315.462 186.341 C 314.957 186.724,314.957 186.750,315.452 186.759 C 315.789 186.766,315.918 186.933,315.807 187.221 C 315.712 187.470,315.543 187.661,315.432 187.646 C 314.867 187.571,314.462 187.727,314.462 188.018 C 314.462 188.197,314.635 188.244,314.846 188.123 C 315.058 188.001,315.123 188.019,314.992 188.164 C 314.462 188.746,313.421 188.669,313.882 188.081 C 314.271 187.586,314.260 187.576,313.756 187.972 C 313.374 188.272,313.303 188.503,313.525 188.725 C 314.024 189.224,313.903 189.661,313.385 189.231 C 312.827 188.768,312.766 189.246,313.308 189.830 C 313.615 190.161,313.615 190.201,313.308 190.027 C 313.002 189.854,312.923 194.165,312.923 211.140 L 312.923 232.470 316.465 232.485 L 320.006 232.500 319.996 207.481 C 319.991 193.720,319.937 182.462,319.877 182.462 C 319.817 182.462,319.613 182.647,319.425 182.874 M271.897 230.359 C 271.788 230.469,271.854 230.748,272.046 230.979 C 272.315 231.303,272.297 231.363,271.967 231.243 C 271.547 231.089,268.923 235.315,268.923 236.145 C 268.923 236.346,269.304 236.706,269.769 236.945 C 270.235 237.183,271.845 238.107,273.347 238.997 C 274.849 239.887,276.114 240.615,276.157 240.615 C 276.200 240.615,278.137 241.723,280.462 243.077 C 282.786 244.431,284.723 245.538,284.766 245.538 C 284.809 245.538,286.114 246.300,287.665 247.231 C 290.944 249.198,290.846 249.176,291.398 248.077 C 291.632 247.612,292.430 246.272,293.171 245.100 L 294.519 242.969 293.798 242.417 C 293.401 242.113,292.315 241.443,291.385 240.929 C 290.454 240.414,289.069 239.632,288.308 239.191 C 286.373 238.069,280.986 234.966,279.692 234.228 C 279.100 233.890,277.715 233.095,276.615 232.462 C 275.515 231.828,274.155 231.046,273.593 230.724 C 273.010 230.391,272.671 230.308,272.805 230.531 C 272.994 230.845,272.948 230.847,272.569 230.541 C 272.310 230.331,272.007 230.249,271.897 230.359 M313.231 238.059 C 292.824 241.481,287.047 267.897,304.271 279.029 C 315.239 286.118,329.282 282.660,335.989 271.218 C 345.175 255.547,331.115 235.060,313.231 238.059 M321.231 245.903 C 337.026 251.795,333.321 275.385,316.601 275.385 C 298.301 275.385,295.806 249.665,313.692 245.408 C 314.805 245.143,320.131 245.492,321.231 245.903 M285.613 273.852 C 283.031 275.363,280.331 276.931,279.613 277.338 C 278.124 278.182,274.755 280.121,273.385 280.923 C 272.877 281.220,271.562 281.982,270.462 282.615 C 269.362 283.249,268.046 284.011,267.538 284.308 C 265.798 285.326,262.615 287.153,261.231 287.928 C 260.469 288.354,259.479 288.960,259.029 289.275 C 258.580 289.589,258.134 289.846,258.039 289.846 C 257.943 289.846,256.718 290.521,255.317 291.345 C 252.694 292.887,243.145 298.390,241.231 299.462 C 240.638 299.794,240.015 300.171,239.846 300.299 C 239.677 300.428,238.915 300.882,238.154 301.308 C 236.598 302.179,231.569 305.071,228.769 306.705 C 227.754 307.297,226.542 307.980,226.077 308.221 C 224.998 308.781,224.999 308.786,226.462 311.194 C 227.138 312.308,227.695 313.326,227.699 313.456 C 227.703 313.586,227.945 314.002,228.238 314.381 C 228.858 315.185,228.403 315.380,235.231 311.385 C 236.645 310.557,239.996 308.629,241.522 307.764 C 242.275 307.338,243.590 306.571,244.445 306.061 C 245.300 305.550,247.938 304.030,250.308 302.683 C 252.677 301.336,255.031 299.991,255.538 299.693 C 256.046 299.396,257.327 298.651,258.385 298.038 C 259.442 297.425,261.173 296.422,262.231 295.809 C 263.288 295.196,264.569 294.451,265.077 294.154 C 266.677 293.218,269.946 291.339,271.385 290.529 C 272.146 290.101,273.649 289.218,274.724 288.567 C 275.799 287.917,276.722 287.385,276.775 287.385 C 276.829 287.385,277.957 286.742,279.282 285.956 C 280.608 285.170,282.108 284.291,282.615 284.002 C 286.828 281.609,290.511 279.491,291.538 278.870 C 292.215 278.461,293.002 278.050,293.286 277.956 C 294.210 277.652,294.147 276.975,293.043 275.335 C 292.448 274.450,291.689 273.130,291.357 272.401 C 290.606 270.753,291.144 270.618,285.613 273.852 M205.548 296.077 C 205.543 296.373,205.712 296.618,205.923 296.622 C 206.135 296.626,205.965 296.892,205.547 297.214 C 205.129 297.535,204.679 297.731,204.547 297.650 C 204.415 297.569,204.308 297.658,204.308 297.847 C 204.308 298.052,204.716 298.153,205.308 298.096 C 206.465 297.985,206.773 297.146,206.021 296.152 C 205.607 295.604,205.557 295.596,205.548 296.077 M200.154 303.589 C 199.815 303.685,199.437 303.921,199.312 304.113 C 199.161 304.347,199.083 304.309,199.075 304.000 C 199.067 303.689,198.867 303.789,198.462 304.308 C 198.131 304.731,197.857 304.904,197.853 304.692 C 197.843 304.118,197.090 304.228,196.489 304.893 C 196.091 305.332,196.053 305.535,196.335 305.709 C 196.542 305.837,196.634 305.816,196.541 305.663 C 196.339 305.330,197.084 304.572,197.352 304.839 C 197.660 305.147,197.562 305.589,197.231 305.385 C 196.956 305.215,196.792 305.612,196.884 306.222 C 196.902 306.344,196.577 306.315,196.162 306.157 C 195.650 305.962,195.338 305.980,195.194 306.213 C 195.077 306.402,195.109 306.478,195.264 306.383 C 195.418 306.287,195.821 306.422,196.157 306.684 C 196.592 307.022,196.623 307.110,196.264 306.987 C 195.676 306.786,194.333 308.055,194.689 308.474 C 194.818 308.625,194.654 308.546,194.326 308.298 C 193.952 308.015,193.815 307.990,193.959 308.231 C 194.086 308.442,194.054 308.615,193.887 308.615 C 193.720 308.615,193.520 308.373,193.443 308.077 C 193.313 307.578,193.300 307.578,193.266 308.067 C 193.242 308.426,193.057 308.540,192.692 308.423 C 192.364 308.317,192.286 308.351,192.493 308.509 C 192.879 308.805,193.271 310.522,192.900 310.293 C 192.767 310.211,192.570 310.287,192.462 310.462 C 192.354 310.636,192.102 310.681,191.902 310.561 C 191.701 310.441,191.730 310.579,191.967 310.871 C 192.341 311.332,192.331 311.374,191.890 311.205 C 191.612 311.098,191.385 310.887,191.385 310.736 C 191.385 310.585,191.269 310.462,191.128 310.462 C 190.768 310.462,190.791 311.460,191.162 311.930 C 191.394 312.223,191.344 312.273,190.967 312.128 C 190.686 312.020,190.462 312.085,190.462 312.275 C 190.462 312.462,190.315 312.615,190.136 312.615 C 189.956 312.615,189.895 312.477,190.000 312.308 C 190.105 312.138,190.034 312.000,189.844 312.000 C 189.630 312.000,189.577 312.252,189.706 312.658 C 189.889 313.234,189.817 313.297,189.124 313.165 C 188.477 313.041,188.380 313.102,188.587 313.507 C 188.895 314.108,188.694 314.769,188.202 314.769 C 187.820 314.769,186.903 316.000,187.008 316.374 C 187.042 316.494,186.864 316.514,186.613 316.418 C 186.363 316.322,186.247 316.098,186.357 315.920 C 186.478 315.725,186.408 315.689,186.180 315.830 C 185.973 315.958,185.870 316.234,185.951 316.444 C 186.031 316.653,185.973 317.020,185.822 317.259 C 185.607 317.599,185.542 317.560,185.519 317.077 C 185.503 316.738,185.420 316.635,185.335 316.846 C 185.249 317.058,184.968 317.231,184.709 317.231 C 184.362 317.231,184.273 317.471,184.371 318.138 C 184.444 318.636,184.400 318.980,184.273 318.902 C 184.146 318.823,183.959 318.894,183.858 319.058 C 183.756 319.223,183.445 319.271,183.167 319.164 C 182.803 319.024,182.712 319.100,182.841 319.436 C 182.940 319.692,182.881 320.097,182.712 320.336 C 182.468 320.679,182.440 320.657,182.577 320.231 C 182.672 319.935,182.631 319.692,182.485 319.692 C 182.130 319.692,181.799 320.598,182.022 320.958 C 182.120 321.117,182.085 321.226,181.946 321.202 C 181.252 321.081,180.874 321.275,181.027 321.672 C 181.120 321.915,181.044 322.165,180.858 322.227 C 180.667 322.291,180.457 323.433,180.374 324.871 C 179.811 334.592,186.874 344.626,196.154 347.290 C 199.240 348.176,200.095 348.308,202.769 348.308 C 204.338 348.308,206.191 348.158,206.887 347.976 C 207.584 347.793,208.708 347.493,209.385 347.309 C 212.047 346.584,215.845 344.344,218.088 342.175 C 230.438 330.235,226.268 310.863,210.000 304.596 C 207.875 303.777,201.714 303.147,200.154 303.589 M206.253 311.204 C 220.340 314.873,222.079 333.405,208.923 339.656 C 206.452 340.830,200.329 341.287,198.431 340.439 C 191.591 337.384,188.556 333.636,187.859 327.385 C 186.734 317.293,196.534 308.672,206.253 311.204 " stroke="none" fill="#37d0fc" fill-rule="evenodd"></path><path id="path1" d="M229.054 75.521 C 228.950 75.934,228.955 76.417,229.064 76.594 C 229.188 76.795,229.064 76.840,228.735 76.713 C 228.338 76.561,228.270 76.619,228.460 76.948 C 228.600 77.188,228.606 77.287,228.474 77.168 C 228.199 76.920,227.385 77.640,227.385 78.132 C 227.385 78.313,227.231 78.462,227.044 78.462 C 226.848 78.462,226.790 78.236,226.906 77.932 C 227.018 77.641,226.998 77.516,226.862 77.653 C 226.727 77.790,226.615 78.201,226.615 78.566 C 226.615 78.934,226.443 79.196,226.231 79.154 C 226.019 79.112,225.846 79.362,225.846 79.710 C 225.846 80.059,225.708 80.258,225.538 80.154 C 225.369 80.049,225.231 80.104,225.231 80.275 C 225.231 80.563,227.080 81.746,230.462 83.622 C 231.223 84.044,231.985 84.495,232.154 84.624 C 232.451 84.849,233.369 85.377,236.308 87.011 C 237.069 87.434,238.038 88.008,238.462 88.287 C 238.885 88.566,239.992 89.192,240.923 89.678 C 241.854 90.164,243.194 90.955,243.902 91.435 C 244.609 91.915,245.250 92.308,245.327 92.308 C 245.403 92.308,247.368 93.415,249.692 94.769 C 252.017 96.123,253.958 97.231,254.005 97.231 C 254.052 97.231,254.970 97.763,256.045 98.413 C 257.120 99.064,258.623 99.947,259.385 100.375 C 260.146 100.804,261.600 101.637,262.615 102.225 C 266.424 104.433,270.662 106.865,272.000 107.612 C 272.762 108.036,273.516 108.505,273.677 108.653 C 274.193 109.129,275.386 108.978,275.188 108.462 C 275.072 108.158,275.198 108.000,275.557 108.000 C 275.857 108.000,276.015 107.913,275.908 107.806 C 275.568 107.465,276.334 106.406,276.793 106.582 C 277.034 106.674,277.231 106.577,277.231 106.366 C 277.231 105.897,278.325 104.923,278.853 104.923 C 279.064 104.923,279.419 104.632,279.641 104.275 C 279.863 103.919,279.897 103.720,279.715 103.832 C 279.533 103.944,279.385 103.903,279.385 103.740 C 279.385 103.577,278.588 102.993,277.615 102.444 C 275.642 101.329,275.882 101.466,269.077 97.529 C 261.533 93.164,258.939 91.667,257.077 90.609 C 256.400 90.224,254.600 89.183,253.077 88.294 C 250.063 86.536,247.163 84.854,245.659 83.992 C 237.617 79.384,232.037 76.148,231.559 75.816 C 231.089 75.488,230.868 75.480,230.500 75.778 C 230.125 76.082,230.084 76.074,230.288 75.735 C 230.443 75.477,230.377 75.212,230.116 75.047 C 229.452 74.626,229.256 74.713,229.054 75.521 M205.903 98.221 C 205.702 98.421,205.538 98.765,205.538 98.985 C 205.538 99.205,205.391 99.385,205.210 99.385 C 205.010 99.385,204.967 99.654,205.101 100.075 C 205.286 100.660,205.250 100.707,204.862 100.385 C 204.263 99.887,203.939 100.235,204.327 100.959 C 204.604 101.477,204.557 101.501,203.812 101.218 C 203.361 101.046,202.911 100.986,202.812 101.085 C 202.541 101.356,203.462 101.834,203.831 101.613 C 204.009 101.507,203.962 101.656,203.728 101.945 C 203.394 102.357,203.210 102.392,202.865 102.106 C 202.523 101.822,202.448 101.830,202.521 102.140 C 202.573 102.359,202.423 102.608,202.188 102.694 C 201.926 102.789,201.844 102.714,201.975 102.501 C 202.093 102.310,202.050 102.154,201.879 102.154 C 201.708 102.154,201.580 102.465,201.596 102.846 C 201.651 104.143,201.516 104.511,201.231 103.846 C 201.005 103.320,200.963 103.309,200.945 103.769 C 200.933 104.065,200.776 104.308,200.597 104.308 C 200.418 104.308,200.357 104.446,200.462 104.615 C 200.566 104.785,200.447 104.923,200.198 104.923 C 199.948 104.923,199.674 104.750,199.588 104.538 C 199.492 104.299,199.424 104.347,199.409 104.667 C 199.396 104.949,199.558 105.244,199.769 105.324 C 200.048 105.428,200.009 105.584,199.629 105.888 C 199.167 106.258,199.112 106.930,199.168 111.538 L 199.231 116.769 202.769 116.769 L 206.308 116.769 206.389 107.902 C 206.449 101.440,206.378 99.092,206.128 99.247 C 205.890 99.394,205.896 99.250,206.148 98.780 C 206.568 97.996,206.434 97.690,205.903 98.221 M194.308 122.805 C 188.469 123.586,179.175 125.873,179.527 126.443 C 179.608 126.574,179.345 126.617,178.943 126.541 C 178.383 126.434,178.223 126.530,178.260 126.952 C 178.286 127.255,177.997 127.661,177.617 127.856 C 177.237 128.050,177.018 128.300,177.130 128.412 C 177.242 128.524,177.183 128.615,177.000 128.615 C 176.817 128.615,176.597 128.442,176.511 128.231 C 176.419 128.001,176.346 128.063,176.332 128.385 C 176.319 128.681,176.481 128.932,176.692 128.943 C 176.904 128.953,176.765 129.087,176.385 129.240 C 176.004 129.393,175.692 129.662,175.692 129.836 C 175.692 130.011,175.546 130.154,175.366 130.154 C 175.187 130.154,175.126 130.015,175.231 129.846 C 175.335 129.677,175.208 129.538,174.947 129.538 C 174.603 129.538,174.503 129.789,174.580 130.454 C 174.669 131.220,174.606 131.324,174.190 131.091 C 173.848 130.900,173.508 130.974,173.101 131.329 C 172.647 131.726,172.568 131.739,172.760 131.385 C 172.957 131.020,172.898 131.028,172.478 131.423 C 172.029 131.844,172.008 132.020,172.339 132.551 C 172.991 133.595,172.140 134.393,171.376 133.455 C 170.991 132.984,170.824 132.914,170.841 133.231 C 170.898 134.288,170.750 134.794,170.441 134.602 C 170.260 134.491,170.191 134.171,170.287 133.892 C 170.384 133.613,170.186 133.731,169.847 134.154 C 169.508 134.577,169.085 135.098,168.907 135.312 C 168.729 135.525,168.668 135.837,168.772 136.004 C 168.875 136.171,168.686 136.308,168.351 136.308 C 168.017 136.308,167.674 136.135,167.588 135.923 C 167.503 135.712,167.422 135.822,167.409 136.169 C 167.396 136.516,167.557 136.972,167.767 137.182 C 168.161 137.577,167.531 138.281,167.050 137.983 C 166.934 137.912,166.764 138.142,166.671 138.496 C 166.501 139.146,165.842 139.042,165.851 138.366 C 165.854 138.146,165.975 138.184,166.154 138.462 C 166.409 138.856,166.453 138.845,166.457 138.385 C 166.463 137.656,165.944 137.704,165.534 138.470 C 165.337 138.837,165.048 139.003,164.831 138.873 C 164.609 138.739,164.630 138.859,164.884 139.172 C 165.362 139.762,165.688 139.876,165.355 139.337 C 165.219 139.117,165.271 139.065,165.491 139.201 C 166.014 139.525,165.934 139.674,165.058 140.007 C 164.625 140.172,164.355 140.444,164.459 140.611 C 164.568 140.788,164.441 140.837,164.157 140.728 C 163.715 140.558,163.719 140.474,164.206 139.885 C 164.656 139.340,164.620 139.349,163.989 139.941 C 163.272 140.612,163.261 140.673,163.781 141.060 C 164.289 141.439,164.258 141.495,163.373 141.804 C 162.847 141.988,162.493 142.264,162.589 142.419 C 162.684 142.573,162.530 142.888,162.247 143.119 C 161.792 143.489,161.757 143.469,161.949 142.956 C 162.135 142.463,162.097 142.433,161.700 142.763 C 161.436 142.982,161.289 143.462,161.362 143.864 C 161.456 144.386,161.373 144.533,161.053 144.410 C 160.812 144.317,160.615 144.382,160.615 144.554 C 160.615 144.725,160.304 144.785,159.923 144.687 C 159.283 144.522,159.265 144.552,159.692 145.081 C 160.109 145.598,160.103 145.635,159.631 145.458 C 159.257 145.318,159.157 145.389,159.279 145.708 C 159.481 146.235,159.254 146.270,158.446 145.838 C 157.909 145.550,157.882 145.592,158.151 146.299 C 158.437 147.052,158.263 147.249,157.439 147.106 C 157.299 147.082,157.273 147.204,157.380 147.377 C 157.487 147.550,157.423 147.692,157.238 147.692 C 155.709 147.692,161.355 152.328,166.077 154.950 C 167.963 155.997,167.941 155.908,166.833 157.952 C 166.122 159.265,164.490 162.911,163.369 165.692 C 162.649 167.478,161.832 170.020,161.093 172.769 C 159.442 178.915,159.262 179.870,158.574 186.077 L 158.021 191.077 147.931 191.077 L 137.841 191.077 138.016 189.308 C 138.271 186.730,138.751 183.413,139.074 182.000 C 140.132 177.369,141.456 172.821,142.318 170.856 C 145.004 164.730,148.338 158.866,151.193 155.243 C 151.722 154.573,152.110 153.832,152.056 153.597 C 152.003 153.361,152.091 153.251,152.253 153.351 C 152.414 153.450,153.076 152.876,153.724 152.074 C 154.371 151.272,155.074 150.508,155.284 150.376 C 155.734 150.096,155.517 149.348,154.921 149.119 C 154.627 149.006,154.521 149.203,154.560 149.787 C 154.597 150.343,154.464 150.615,154.154 150.615 C 153.900 150.615,153.730 150.432,153.777 150.208 C 153.825 149.977,153.714 149.892,153.519 150.012 C 153.273 150.164,153.271 150.317,153.512 150.558 C 153.956 151.002,153.941 151.479,153.491 151.201 C 153.292 151.078,153.218 151.116,153.324 151.287 C 153.633 151.786,152.605 153.036,152.211 152.641 C 151.788 152.219,150.975 152.202,151.234 152.620 C 151.340 152.792,151.556 152.853,151.714 152.756 C 151.871 152.659,152.000 152.726,152.000 152.905 C 152.000 153.084,151.853 153.231,151.674 153.231 C 151.495 153.231,151.434 153.369,151.538 153.538 C 151.721 153.834,151.328 153.969,150.562 153.874 C 150.363 153.850,150.099 153.993,149.976 154.193 C 149.825 154.437,149.884 154.474,150.154 154.308 C 150.424 154.141,150.482 154.179,150.332 154.422 C 150.209 154.622,149.876 154.747,149.592 154.700 C 149.304 154.653,149.073 154.819,149.069 155.077 C 149.064 155.331,148.960 155.699,148.837 155.895 C 148.714 156.092,148.698 156.474,148.802 156.745 C 148.946 157.120,148.861 157.188,148.445 157.028 C 148.071 156.885,147.969 156.932,148.122 157.178 C 148.244 157.376,148.197 157.538,148.018 157.538 C 147.839 157.538,147.692 157.270,147.692 156.941 C 147.692 156.613,147.562 156.263,147.403 156.165 C 147.243 156.067,147.139 156.370,147.172 156.839 C 147.217 157.498,147.108 157.672,146.692 157.602 C 146.396 157.552,146.154 157.656,146.154 157.833 C 146.154 158.009,146.396 158.165,146.692 158.178 C 146.988 158.191,147.065 158.270,146.863 158.352 C 146.661 158.434,146.572 158.700,146.666 158.943 C 146.901 159.556,146.463 159.496,145.953 158.846 C 145.720 158.550,145.553 158.446,145.582 158.615 C 145.685 159.221,145.032 160.425,144.802 160.053 C 144.329 159.288,143.607 159.651,143.789 160.560 C 143.943 161.328,143.844 161.471,142.934 161.800 C 142.368 162.005,141.828 162.374,141.733 162.620 C 141.631 162.887,141.341 162.995,141.012 162.889 C 140.631 162.766,140.581 162.797,140.848 162.990 C 141.303 163.319,141.245 164.905,140.781 164.824 C 140.605 164.794,140.508 164.977,140.564 165.231 C 140.621 165.485,140.564 165.590,140.439 165.464 C 140.313 165.339,140.025 165.390,139.798 165.579 C 139.494 165.831,139.385 165.830,139.385 165.576 C 139.385 165.386,139.531 165.231,139.710 165.231 C 139.890 165.231,139.938 165.071,139.817 164.876 C 139.684 164.661,139.732 164.604,139.937 164.730 C 140.126 164.847,140.427 164.630,140.617 164.239 C 140.930 163.594,140.922 163.582,140.507 164.097 C 140.259 164.405,140.005 164.613,139.944 164.559 C 139.882 164.505,139.627 164.639,139.377 164.857 C 139.127 165.074,138.646 165.448,138.308 165.687 C 137.703 166.116,137.704 166.120,138.362 165.955 C 139.044 165.783,139.215 166.455,138.626 166.991 C 138.481 167.123,138.462 167.058,138.584 166.846 C 138.844 166.395,138.496 166.352,137.856 166.756 C 137.564 166.941,137.245 166.912,136.951 166.675 C 136.595 166.387,136.547 166.391,136.728 166.692 C 136.855 166.904,136.813 167.077,136.634 167.077 C 136.454 167.077,136.308 167.232,136.308 167.422 C 136.308 167.674,136.423 167.672,136.733 167.414 C 137.061 167.142,137.200 167.169,137.339 167.531 C 137.463 167.853,137.330 168.000,136.913 168.000 C 136.338 168.000,136.171 168.406,136.279 169.538 C 136.312 169.882,136.238 169.861,135.989 169.455 C 135.805 169.155,135.522 168.992,135.361 169.092 C 135.199 169.192,135.147 169.402,135.244 169.560 C 135.341 169.717,135.266 169.846,135.077 169.846 C 134.888 169.846,134.813 169.975,134.910 170.133 C 135.007 170.290,134.959 170.498,134.803 170.595 C 134.646 170.691,134.280 171.566,133.988 172.539 C 133.696 173.512,133.270 174.895,133.041 175.612 C 127.333 193.490,131.246 217.573,142.639 234.680 C 144.982 238.199,145.468 238.645,145.756 237.542 C 145.844 237.205,146.039 237.006,146.189 237.099 C 146.339 237.191,146.462 237.112,146.462 236.923 C 146.462 236.734,146.600 236.665,146.769 236.769 C 146.938 236.874,147.077 236.814,147.077 236.637 C 147.077 236.208,148.058 235.077,148.301 235.227 C 148.406 235.292,148.669 235.062,148.884 234.717 C 149.182 234.241,149.185 234.146,148.898 234.323 C 148.648 234.477,148.599 234.429,148.753 234.180 C 148.881 233.973,149.209 233.890,149.483 233.995 C 149.757 234.100,149.883 234.088,149.763 233.968 C 149.642 233.847,149.701 233.559,149.893 233.328 C 150.166 232.999,149.937 232.451,148.853 230.838 C 144.335 224.112,140.795 215.865,139.380 208.769 C 138.885 206.286,138.212 201.953,138.053 200.231 C 137.845 197.968,137.110 198.108,148.615 198.218 L 158.000 198.308 158.081 199.231 C 158.720 206.512,159.837 212.607,161.674 218.840 C 162.136 220.405,162.769 221.462,162.769 220.667 C 162.769 220.506,163.115 220.288,163.538 220.181 C 163.962 220.075,164.308 219.835,164.308 219.649 C 164.308 219.424,164.125 219.445,163.769 219.709 C 163.473 219.929,163.613 219.731,164.081 219.269 C 164.548 218.808,165.058 218.508,165.213 218.605 C 165.369 218.701,165.583 218.639,165.689 218.467 C 165.796 218.295,165.736 218.154,165.557 218.154 C 165.377 218.154,165.231 218.015,165.231 217.846 C 165.231 217.677,165.335 217.566,165.462 217.599 C 166.044 217.753,167.033 217.167,166.877 216.761 C 166.772 216.488,167.018 216.181,167.529 215.948 C 168.151 215.665,168.305 215.422,168.167 214.941 C 167.011 210.910,165.538 202.415,165.538 199.778 L 165.538 198.289 175.443 198.201 C 185.185 198.114,185.358 198.101,185.938 197.441 C 186.263 197.071,186.652 196.804,186.803 196.846 C 187.063 196.919,187.102 196.828,187.192 195.923 C 187.213 195.712,187.438 195.538,187.692 195.538 C 187.946 195.538,188.257 195.287,188.382 194.980 C 188.514 194.658,188.762 194.516,188.968 194.643 C 189.191 194.781,189.243 194.730,189.105 194.507 C 188.981 194.307,189.095 194.068,189.363 193.966 C 189.627 193.864,189.751 193.634,189.640 193.454 C 189.512 193.246,189.631 193.201,189.966 193.329 C 190.281 193.450,190.417 193.408,190.304 193.225 C 190.122 192.930,190.825 192.000,191.231 192.000 C 191.340 192.000,191.636 191.792,191.890 191.538 C 192.300 191.128,190.862 191.077,178.945 191.077 L 165.538 191.077 165.538 189.641 C 165.538 188.283,165.722 186.829,166.484 182.154 C 167.575 175.457,169.744 168.689,172.992 161.846 C 174.335 159.015,174.292 159.051,175.639 159.702 C 179.730 161.678,188.918 163.958,195.538 164.639 C 197.400 164.831,198.954 165.016,198.992 165.050 C 199.030 165.084,199.072 169.504,199.085 174.872 C 199.102 181.392,199.213 184.567,199.422 184.439 C 199.594 184.332,199.654 184.036,199.556 183.781 C 199.432 183.458,199.519 183.370,199.843 183.495 C 200.168 183.619,200.315 183.468,200.332 182.990 C 200.345 182.615,200.425 182.477,200.508 182.683 C 200.628 182.979,200.747 182.979,201.067 182.683 C 201.291 182.477,201.411 182.204,201.334 182.077 C 201.257 181.950,201.341 181.846,201.520 181.846 C 201.700 181.846,201.846 181.643,201.846 181.394 C 201.846 181.119,202.027 181.012,202.308 181.119 C 202.627 181.242,202.769 181.099,202.769 180.658 C 202.769 180.237,202.916 180.076,203.200 180.184 C 203.436 180.275,203.735 180.180,203.863 179.973 C 204.025 179.710,203.965 179.676,203.663 179.858 C 203.296 180.079,203.294 180.040,203.650 179.601 C 203.881 179.316,204.177 179.150,204.308 179.231 C 204.439 179.312,204.527 179.206,204.504 178.997 C 204.481 178.787,204.559 178.615,204.679 178.615 C 204.799 178.615,205.106 178.338,205.362 178.000 C 205.617 177.662,205.841 177.523,205.858 177.692 C 205.875 177.862,206.008 177.723,206.154 177.385 C 206.299 177.046,206.428 174.115,206.440 170.871 L 206.462 164.972 208.538 164.790 C 216.466 164.096,222.346 162.597,221.638 161.450 C 221.526 161.270,221.595 161.229,221.799 161.355 C 221.994 161.476,222.154 161.428,222.154 161.249 C 222.154 161.070,222.300 160.923,222.480 160.923 C 222.659 160.923,222.706 161.096,222.584 161.308 C 222.456 161.531,222.480 161.585,222.643 161.436 C 222.921 161.181,222.965 161.040,223.038 160.154 C 223.060 159.900,223.211 159.692,223.375 159.692 C 223.539 159.692,223.581 159.935,223.469 160.231 C 223.278 160.735,223.298 160.736,223.786 160.253 C 224.073 159.969,224.308 159.657,224.308 159.560 C 224.308 159.199,225.495 158.213,225.692 158.410 C 225.805 158.523,225.870 158.477,225.835 158.308 C 225.700 157.638,225.860 156.896,226.107 157.048 C 226.251 157.137,226.552 156.868,226.775 156.451 C 227.238 155.585,227.771 155.418,227.480 156.231 C 227.272 156.811,227.320 156.777,228.010 155.864 C 228.409 155.336,228.408 155.296,228.000 155.520 C 227.746 155.659,228.220 155.132,229.053 154.348 C 229.886 153.564,230.666 152.923,230.785 152.923 C 230.904 152.923,231.192 152.681,231.424 152.385 C 231.815 151.886,231.802 151.881,231.249 152.308 C 230.844 152.620,230.729 152.639,230.894 152.366 C 231.027 152.144,231.504 151.816,231.953 151.637 C 232.422 151.450,232.605 151.250,232.383 151.168 C 231.829 150.962,232.232 150.462,232.951 150.462 C 233.907 150.462,233.985 149.625,233.149 148.361 C 230.363 144.152,223.313 136.368,218.923 132.656 L 217.385 131.355 218.462 131.564 C 219.566 131.778,224.590 133.348,225.692 133.825 C 226.031 133.971,227.069 134.397,228.000 134.772 C 230.905 135.941,235.731 138.518,238.571 140.416 C 240.543 141.733,241.362 142.131,241.534 141.853 C 241.720 141.552,241.808 141.560,241.938 141.888 C 242.032 142.123,242.116 141.989,242.130 141.587 C 242.145 141.138,242.385 140.805,242.766 140.705 C 243.102 140.617,243.311 140.437,243.229 140.305 C 243.147 140.173,243.287 139.985,243.540 139.888 C 243.793 139.791,244.000 139.485,244.000 139.208 C 244.000 138.901,244.169 138.768,244.433 138.869 C 244.707 138.975,245.001 138.708,245.235 138.144 C 245.438 137.654,245.693 137.282,245.802 137.319 C 246.546 137.567,245.825 136.598,244.650 135.770 C 237.366 130.638,229.150 126.780,221.231 124.775 C 220.131 124.496,218.746 124.146,218.154 123.996 C 217.079 123.725,216.254 123.576,212.769 123.027 C 210.176 122.618,196.901 122.459,194.308 122.805 M187.503 132.073 C 182.980 135.583,175.398 143.808,172.752 148.076 C 171.684 149.800,171.626 149.810,169.742 148.615 C 168.941 148.108,168.208 147.692,168.113 147.692 C 167.849 147.692,163.121 144.320,162.913 143.983 C 162.812 143.821,163.224 143.222,163.827 142.654 C 164.430 142.085,164.923 141.667,164.923 141.726 C 164.923 141.784,166.130 141.053,167.606 140.101 C 173.166 136.515,179.220 133.805,186.000 131.867 C 188.186 131.242,188.516 131.288,187.503 132.073 M199.147 145.107 L 199.063 157.600 196.839 157.404 C 192.426 157.017,185.306 155.477,181.538 154.096 C 180.608 153.754,179.535 153.404,179.154 153.317 C 178.773 153.230,178.462 153.002,178.462 152.810 C 178.462 151.557,188.893 139.892,191.767 137.932 C 192.318 137.556,193.115 136.925,193.538 136.531 C 194.419 135.710,198.773 132.615,199.048 132.615 C 199.149 132.615,199.193 138.237,199.147 145.107 M208.999 134.203 C 215.721 138.984,221.002 144.174,226.231 151.139 C 227.207 152.439,227.317 153.231,226.523 153.231 C 226.218 153.231,225.838 153.347,225.677 153.488 C 225.413 153.720,221.515 154.963,218.769 155.689 C 216.056 156.407,211.728 157.150,208.846 157.391 L 206.462 157.591 206.462 145.103 C 206.462 138.235,206.530 132.615,206.614 132.615 C 206.698 132.615,207.771 133.330,208.999 134.203 M170.154 135.505 C 170.154 135.721,169.965 135.897,169.735 135.897 C 169.480 135.897,169.373 135.677,169.462 135.337 C 169.620 134.732,170.154 134.862,170.154 135.505 M149.743 155.825 C 149.641 156.091,149.380 156.306,149.164 156.303 C 148.869 156.299,148.878 156.230,149.199 156.026 C 149.465 155.857,149.546 155.539,149.411 155.185 C 149.244 154.745,149.278 154.698,149.561 154.979 C 149.763 155.179,149.845 155.560,149.743 155.825 M142.952 162.817 C 143.099 163.053,143.036 163.088,142.764 162.920 C 142.478 162.743,142.409 162.805,142.534 163.129 C 142.637 163.398,142.538 163.590,142.295 163.590 C 141.830 163.590,141.837 163.043,142.308 162.697 C 142.707 162.404,142.696 162.402,142.952 162.817 M92.141 211.713 C 91.989 211.959,92.031 212.017,92.260 211.876 C 92.456 211.755,92.615 211.769,92.615 211.907 C 92.615 212.045,92.199 212.342,91.691 212.567 C 91.182 212.792,90.837 213.091,90.923 213.231 C 91.010 213.371,90.952 213.532,90.794 213.589 C 90.637 213.646,90.463 213.899,90.408 214.153 C 90.353 214.406,90.100 214.797,89.846 215.022 C 89.592 215.246,89.558 215.343,89.769 215.235 C 89.981 215.128,90.154 215.203,90.154 215.402 C 90.154 215.630,89.843 215.705,89.314 215.603 C 88.528 215.453,88.511 215.471,89.065 215.875 C 89.623 216.284,89.607 216.308,88.777 216.308 C 88.293 216.308,87.985 216.395,88.092 216.502 C 88.372 216.782,87.740 217.847,87.297 217.841 C 87.056 217.838,87.087 217.718,87.385 217.505 C 87.768 217.229,87.751 217.204,87.283 217.356 C 86.973 217.456,86.593 217.538,86.438 217.538 C 86.132 217.538,86.196 218.408,86.544 218.965 C 86.678 219.180,86.556 219.299,86.227 219.273 C 85.734 219.234,85.692 219.750,85.692 225.846 L 85.692 232.462 89.231 232.462 L 92.769 232.462 92.850 222.173 C 92.926 212.641,92.791 210.661,92.141 211.713 M92.235 213.363 C 91.942 213.578,91.799 213.851,91.918 213.970 C 92.038 214.089,91.897 214.095,91.606 213.983 C 91.228 213.838,91.077 213.936,91.077 214.326 C 91.077 214.626,90.984 214.779,90.871 214.666 C 90.526 214.321,91.428 212.959,91.885 213.134 C 92.117 213.224,92.308 213.120,92.308 212.905 C 92.308 212.689,92.411 212.616,92.538 212.743 C 92.665 212.870,92.528 213.149,92.235 213.363 M132.446 230.433 C 132.285 230.586,131.669 230.978,131.077 231.305 C 128.984 232.459,125.048 234.704,122.308 236.308 C 121.136 236.993,117.715 238.964,116.308 239.765 C 115.715 240.101,114.288 240.926,113.135 241.598 L 111.039 242.819 111.581 243.640 C 112.932 245.686,114.462 248.325,114.462 248.610 C 114.462 249.125,114.920 248.979,116.970 247.808 C 118.044 247.195,119.516 246.357,120.241 245.946 C 120.966 245.536,123.095 244.307,124.973 243.215 C 126.851 242.124,128.448 241.231,128.523 241.231 C 128.597 241.231,129.262 240.815,130.000 240.308 C 130.738 239.800,131.408 239.385,131.488 239.385 C 131.753 239.385,136.923 236.275,136.923 236.116 C 136.923 236.030,136.231 234.788,135.385 233.355 C 134.538 231.922,133.846 230.616,133.846 230.452 C 133.846 230.076,132.835 230.061,132.446 230.433 M86.154 238.025 C 77.013 239.654,70.564 245.230,67.641 254.030 C 66.793 256.582,66.621 263.150,67.340 265.538 C 69.760 273.584,74.262 278.500,82.000 281.547 C 94.745 286.566,110.011 276.678,111.538 262.415 C 113.023 248.550,99.578 235.632,86.154 238.025 M93.751 245.797 C 94.057 245.954,95.138 246.480,96.154 246.965 C 99.350 248.491,102.114 251.784,103.738 256.000 C 105.100 259.538,104.054 265.201,101.309 269.149 C 93.077 280.990,74.154 274.771,74.154 260.225 C 74.154 253.317,79.493 246.676,86.000 245.490 C 87.569 245.204,93.018 245.420,93.751 245.797 " stroke="none" fill="#c0bbfc" fill-rule="evenodd"></path><path id="path2" d="M330.615 111.692 C 330.720 111.862,330.649 112.000,330.458 112.000 C 330.020 112.000,329.412 112.606,329.146 113.308 C 329.034 113.604,328.765 113.844,328.548 113.841 C 328.269 113.838,328.288 113.742,328.615 113.510 C 329.026 113.220,329.026 113.199,328.615 113.323 C 328.362 113.399,328.190 113.621,328.234 113.816 C 328.278 114.011,328.105 114.251,327.851 114.348 C 327.596 114.446,327.447 114.622,327.520 114.739 C 327.592 114.857,327.524 115.154,327.369 115.399 C 327.154 115.739,327.085 115.748,327.082 115.440 C 327.076 114.945,326.054 115.878,325.969 116.455 C 325.940 116.658,326.529 117.428,327.279 118.167 C 335.382 126.153,331.262 140.287,319.970 143.244 C 314.982 144.550,307.800 142.326,305.111 138.643 C 304.791 138.205,304.376 137.848,304.188 137.851 C 304.000 137.853,304.054 137.990,304.308 138.154 C 304.702 138.409,304.691 138.453,304.231 138.457 C 303.935 138.459,303.692 138.661,303.692 138.905 C 303.692 139.149,303.555 139.433,303.388 139.536 C 303.207 139.648,303.165 139.501,303.284 139.170 C 303.441 138.733,303.310 138.773,302.665 139.361 C 302.214 139.772,301.846 140.276,301.846 140.482 C 301.846 140.688,301.505 140.942,301.088 141.047 C 300.604 141.168,300.389 141.393,300.495 141.668 C 300.591 141.918,300.415 142.176,300.074 142.284 C 299.096 142.595,299.403 143.340,301.176 144.960 C 311.867 154.731,328.286 152.360,335.719 139.972 C 340.832 131.448,339.667 120.903,332.771 113.308 C 331.276 111.661,330.009 110.712,330.615 111.692 M312.848 156.686 C 312.574 157.504,312.977 187.695,313.259 187.521 C 313.438 187.411,313.409 187.600,313.195 187.943 C 312.820 188.544,313.340 189.840,313.780 189.399 C 313.865 189.315,313.774 189.053,313.579 188.817 C 313.303 188.485,313.344 188.294,313.765 187.964 C 314.259 187.577,314.269 187.588,313.882 188.081 C 313.421 188.669,314.462 188.746,314.992 188.164 C 315.123 188.019,315.058 188.001,314.846 188.123 C 314.635 188.244,314.462 188.197,314.462 188.018 C 314.462 187.727,314.867 187.571,315.432 187.646 C 315.543 187.661,315.712 187.470,315.807 187.221 C 315.918 186.933,315.789 186.766,315.452 186.759 C 314.957 186.750,314.957 186.724,315.462 186.341 C 315.758 186.116,316.000 185.774,316.000 185.581 C 316.000 185.389,316.242 185.233,316.538 185.235 C 316.843 185.238,316.943 185.339,316.769 185.466 C 316.476 185.681,316.160 186.769,316.390 186.769 C 316.450 186.769,316.821 186.334,317.215 185.802 C 317.608 185.270,317.774 184.931,317.584 185.049 C 317.363 185.185,317.304 185.091,317.420 184.787 C 317.521 184.525,317.717 184.382,317.857 184.468 C 317.997 184.555,318.198 184.485,318.305 184.313 C 318.411 184.141,318.343 184.000,318.154 184.000 C 317.965 184.000,317.903 183.849,318.017 183.666 C 318.130 183.482,318.485 183.399,318.804 183.483 C 319.124 183.567,319.318 183.525,319.235 183.391 C 319.152 183.257,319.284 182.980,319.529 182.777 C 319.903 182.467,319.977 180.427,319.993 169.954 C 320.004 163.105,320.026 157.405,320.043 157.289 C 320.149 156.542,319.756 156.450,316.464 156.450 C 314.518 156.450,312.892 156.556,312.848 156.686 M270.769 171.608 C 270.515 171.704,270.195 171.973,270.058 172.205 C 269.921 172.438,269.691 172.556,269.547 172.467 C 269.403 172.378,269.324 172.548,269.372 172.845 C 269.476 173.486,268.967 174.217,268.582 173.979 C 268.432 173.887,268.152 174.158,267.959 174.582 C 267.766 175.006,267.315 175.398,266.958 175.453 C 266.600 175.508,266.339 175.714,266.378 175.912 C 266.417 176.109,266.165 176.360,265.818 176.471 C 265.416 176.598,265.251 176.840,265.364 177.135 C 266.038 178.891,267.255 185.383,267.559 188.846 L 267.755 191.077 259.744 191.077 C 251.263 191.077,250.323 191.208,249.847 192.458 C 249.685 192.886,249.376 193.200,249.161 193.156 C 248.945 193.113,248.802 193.245,248.842 193.450 C 248.885 193.666,248.722 193.750,248.458 193.648 C 248.206 193.552,248.000 193.626,248.000 193.813 C 248.000 194.001,248.173 194.156,248.385 194.159 C 248.649 194.162,248.629 194.252,248.322 194.446 C 248.077 194.601,247.742 194.646,247.578 194.545 C 247.407 194.439,247.363 194.577,247.475 194.869 C 247.582 195.148,247.571 195.345,247.450 195.306 C 247.094 195.191,245.831 196.190,246.053 196.412 C 246.165 196.524,246.084 196.615,245.874 196.615 C 245.486 196.615,243.692 198.253,243.692 198.606 C 243.692 198.993,241.100 201.494,240.855 201.343 C 240.441 201.087,239.768 203.078,239.418 205.594 C 238.628 211.275,236.303 219.446,234.100 224.283 C 232.448 227.910,231.355 230.154,231.241 230.154 C 231.179 230.154,230.528 229.900,229.795 229.589 C 228.296 228.954,224.480 227.644,222.615 227.124 C 221.938 226.935,220.633 226.570,219.713 226.313 C 216.959 225.543,214.462 226.359,214.462 228.029 C 214.462 228.202,214.323 228.258,214.154 228.154 C 213.985 228.049,213.846 228.194,213.846 228.476 C 213.846 228.822,213.684 228.927,213.348 228.798 C 212.964 228.650,212.886 228.749,213.011 229.227 C 213.100 229.568,213.062 229.778,212.927 229.694 C 212.791 229.611,212.597 229.758,212.496 230.021 C 212.395 230.285,212.199 230.431,212.061 230.345 C 211.923 230.260,211.426 230.597,210.956 231.095 C 209.995 232.113,210.044 232.155,212.555 232.450 C 213.453 232.555,215.668 232.993,217.478 233.424 C 219.288 233.855,221.152 234.280,221.619 234.370 C 222.087 234.459,222.545 234.655,222.637 234.805 C 222.730 234.954,223.000 235.077,223.237 235.077 C 224.052 235.077,227.077 236.352,227.077 236.695 C 227.077 238.870,215.529 250.643,208.805 255.324 L 206.462 256.956 206.445 246.247 C 206.431 236.426,206.389 235.596,205.946 236.231 C 205.681 236.612,205.306 236.923,205.115 236.923 C 204.923 236.923,204.585 237.332,204.363 237.832 C 204.142 238.331,203.693 238.825,203.365 238.929 C 203.037 239.033,202.769 239.325,202.769 239.577 C 202.769 239.830,202.621 239.945,202.441 239.833 C 202.260 239.722,202.037 239.920,201.944 240.273 C 201.852 240.627,201.660 240.845,201.519 240.757 C 201.377 240.670,201.109 240.883,200.923 241.231 C 200.737 241.579,200.453 241.782,200.292 241.683 C 200.132 241.583,200.000 241.722,200.000 241.991 C 200.000 242.261,199.781 242.565,199.513 242.668 C 199.120 242.818,199.105 242.906,199.436 243.115 C 199.758 243.319,199.761 243.376,199.451 243.380 C 199.140 243.384,199.062 244.788,199.088 249.923 C 199.107 253.519,199.051 256.531,198.966 256.615 C 198.789 256.790,194.652 253.896,192.919 252.385 C 192.288 251.835,191.563 251.385,191.308 251.385 C 190.714 251.385,190.089 252.128,190.387 252.480 C 190.513 252.628,190.370 252.561,190.070 252.331 C 189.586 251.960,189.548 251.979,189.734 252.495 C 189.850 252.815,189.830 252.973,189.689 252.845 C 189.363 252.549,188.308 253.493,188.308 254.081 C 188.308 254.326,188.125 254.457,187.901 254.371 C 187.677 254.285,187.321 254.493,187.109 254.832 C 186.891 255.182,186.867 255.361,187.054 255.245 C 187.236 255.132,187.385 255.178,187.385 255.346 C 187.385 255.514,187.078 255.748,186.704 255.867 C 186.056 256.073,186.081 256.130,187.243 257.114 C 188.423 258.112,188.506 258.436,187.441 257.887 C 186.295 257.296,184.612 257.171,184.812 257.692 C 184.914 257.960,184.858 258.139,184.687 258.090 C 184.515 258.040,184.093 258.321,183.749 258.713 C 183.405 259.104,183.009 259.451,182.869 259.482 C 182.730 259.513,182.653 259.653,182.700 259.792 C 182.746 259.932,182.658 259.968,182.504 259.872 C 182.211 259.691,181.311 260.583,181.484 260.881 C 181.539 260.976,181.356 261.133,181.077 261.231 C 180.798 261.329,180.545 261.542,180.516 261.704 C 180.486 261.867,180.347 261.962,180.208 261.915 C 180.068 261.869,180.036 261.963,180.136 262.125 C 180.236 262.287,180.177 262.506,180.005 262.612 C 179.488 262.932,179.650 263.303,180.385 263.481 C 180.765 263.573,182.115 263.951,183.385 264.320 C 191.388 266.650,204.438 267.654,211.692 266.498 C 215.512 265.890,219.140 265.192,220.769 264.751 C 221.615 264.523,222.654 264.245,223.077 264.133 C 242.319 259.056,262.261 241.272,269.487 222.745 C 269.894 221.703,270.194 220.957,270.747 219.615 C 275.406 208.313,276.413 190.049,273.076 177.385 C 272.412 174.867,271.373 171.379,271.295 171.409 C 271.260 171.422,271.023 171.512,270.769 171.608 M267.453 200.462 C 267.282 204.818,265.450 213.097,263.710 217.385 C 260.297 225.792,256.646 231.840,251.404 237.769 C 248.426 241.138,248.970 241.027,246.125 238.846 C 244.044 237.250,241.607 235.612,238.862 233.964 L 237.878 233.373 239.170 230.745 C 241.339 226.331,242.992 222.073,244.594 216.769 C 245.559 213.575,246.889 206.282,247.232 202.308 C 247.335 201.123,247.493 199.715,247.585 199.180 L 247.751 198.206 257.645 198.257 L 267.538 198.308 267.453 200.462 M238.308 242.338 C 240.169 243.565,242.012 244.828,242.402 245.145 L 243.112 245.722 240.710 247.434 C 234.097 252.147,227.271 255.410,219.974 257.347 C 219.057 257.590,218.031 257.886,217.692 258.004 C 217.330 258.131,217.520 257.857,218.152 257.340 C 222.508 253.781,227.914 248.058,231.481 243.231 C 234.143 239.628,234.129 239.643,234.557 239.893 C 234.758 240.010,236.446 241.111,238.308 242.338 M199.245 272.844 C 199.163 273.056,199.127 278.803,199.164 285.615 L 199.231 298.000 201.769 298.089 C 203.596 298.154,204.308 298.075,204.308 297.807 C 204.308 297.603,204.396 297.524,204.504 297.632 C 204.612 297.740,205.098 297.545,205.584 297.198 L 206.469 296.568 206.388 284.528 L 206.308 272.488 202.850 272.473 C 200.353 272.463,199.352 272.566,199.245 272.844 M150.453 291.680 C 150.841 291.926,150.830 291.996,150.376 292.170 C 150.085 292.282,149.846 292.575,149.846 292.820 C 149.846 293.066,149.708 293.182,149.538 293.077 C 149.369 292.972,149.231 293.029,149.231 293.203 C 149.231 293.377,149.000 293.431,148.719 293.323 C 148.374 293.191,148.280 293.244,148.429 293.486 C 148.553 293.686,148.484 293.846,148.275 293.846 C 148.067 293.846,147.987 293.936,148.097 294.046 C 148.351 294.300,147.078 295.422,146.759 295.225 C 146.579 295.113,145.846 296.614,145.846 297.096 C 145.846 297.186,150.743 300.080,151.231 300.279 C 151.400 300.348,152.067 300.736,152.712 301.142 C 153.358 301.547,154.327 302.132,154.866 302.440 C 155.405 302.749,156.746 303.520,157.846 304.154 C 158.946 304.788,160.331 305.582,160.923 305.920 C 161.515 306.258,163.385 307.332,165.077 308.308 C 166.769 309.283,168.638 310.357,169.231 310.695 C 169.823 311.033,171.208 311.828,172.308 312.462 C 176.213 314.712,176.977 315.125,177.051 315.025 C 177.092 314.969,177.648 313.957,178.287 312.776 C 178.927 311.596,179.717 310.290,180.043 309.875 C 180.721 309.013,180.576 308.772,178.769 307.757 C 178.177 307.424,176.827 306.651,175.769 306.038 C 171.411 303.512,170.087 302.769,169.941 302.769 C 169.856 302.769,169.417 302.505,168.964 302.183 C 168.290 301.703,163.908 299.162,158.251 295.970 C 157.712 295.666,156.711 295.064,156.026 294.632 C 155.342 294.200,154.724 293.846,154.653 293.846 C 154.582 293.846,153.613 293.292,152.499 292.615 C 151.384 291.938,150.366 291.387,150.236 291.389 C 150.106 291.392,150.204 291.523,150.453 291.680 M197.954 303.954 C 197.404 304.120,197.364 304.219,197.712 304.540 C 198.052 304.853,198.193 304.810,198.461 304.309 C 198.642 303.970,198.751 303.706,198.703 303.723 C 198.655 303.740,198.318 303.844,197.954 303.954 M195.228 304.729 C 191.004 306.316,186.659 309.762,184.121 313.538 C 182.401 316.097,180.715 320.296,181.270 320.639 C 181.501 320.782,181.475 320.899,181.189 321.008 C 180.958 321.096,181.071 321.153,181.440 321.136 C 181.809 321.118,182.051 321.006,181.978 320.887 C 181.789 320.582,182.167 319.692,182.485 319.692 C 182.631 319.692,182.672 319.935,182.577 320.231 C 182.440 320.657,182.468 320.679,182.712 320.336 C 182.881 320.097,182.940 319.692,182.841 319.436 C 182.712 319.100,182.803 319.024,183.167 319.164 C 183.445 319.271,183.756 319.223,183.858 319.058 C 183.959 318.894,184.146 318.823,184.273 318.902 C 184.400 318.980,184.444 318.636,184.371 318.138 C 184.273 317.471,184.362 317.231,184.709 317.231 C 184.968 317.231,185.249 317.058,185.335 316.846 C 185.420 316.635,185.503 316.738,185.519 317.077 C 185.542 317.560,185.607 317.599,185.822 317.259 C 185.973 317.020,186.031 316.653,185.951 316.444 C 185.870 316.234,185.973 315.958,186.180 315.830 C 186.408 315.689,186.478 315.725,186.357 315.920 C 186.247 316.098,186.363 316.322,186.613 316.418 C 186.864 316.514,187.042 316.494,187.008 316.374 C 186.903 316.000,187.820 314.769,188.202 314.769 C 188.694 314.769,188.895 314.108,188.587 313.507 C 188.380 313.102,188.477 313.041,189.124 313.165 C 189.817 313.297,189.889 313.234,189.706 312.658 C 189.577 312.252,189.630 312.000,189.844 312.000 C 190.034 312.000,190.105 312.138,190.000 312.308 C 189.895 312.477,189.956 312.615,190.136 312.615 C 190.315 312.615,190.462 312.462,190.462 312.275 C 190.462 312.085,190.686 312.020,190.967 312.128 C 191.344 312.273,191.394 312.223,191.162 311.930 C 190.791 311.460,190.768 310.462,191.128 310.462 C 191.269 310.462,191.385 310.585,191.385 310.736 C 191.385 310.887,191.612 311.098,191.890 311.205 C 192.331 311.374,192.341 311.332,191.967 310.871 C 191.730 310.579,191.701 310.441,191.902 310.561 C 192.102 310.681,192.354 310.636,192.462 310.462 C 192.570 310.287,192.767 310.211,192.900 310.293 C 193.271 310.522,192.879 308.805,192.493 308.509 C 192.283 308.349,192.352 308.313,192.673 308.415 C 192.998 308.519,193.244 308.386,193.330 308.060 C 193.455 307.584,193.470 307.586,193.503 308.077 C 193.522 308.373,193.685 308.615,193.864 308.615 C 194.044 308.615,194.086 308.442,193.959 308.231 C 193.815 307.990,193.952 308.015,194.326 308.298 C 194.654 308.546,194.818 308.625,194.689 308.474 C 194.333 308.055,195.676 306.786,196.264 306.987 C 196.623 307.110,196.592 307.022,196.157 306.684 C 195.821 306.422,195.418 306.287,195.264 306.383 C 195.109 306.478,195.077 306.402,195.194 306.213 C 195.338 305.980,195.650 305.962,196.162 306.157 C 196.577 306.315,196.902 306.344,196.884 306.222 C 196.792 305.612,196.956 305.215,197.231 305.385 C 197.662 305.651,197.616 305.123,197.169 304.677 C 196.741 304.249,196.489 304.255,195.228 304.729 " stroke="none" fill="#5fcafc" fill-rule="evenodd"></path><path id="path3" d="M279.424 103.932 C 279.519 104.561,279.337 104.923,278.927 104.923 C 278.339 104.923,277.231 105.867,277.231 106.366 C 277.231 106.577,277.034 106.674,276.793 106.582 C 276.334 106.406,275.568 107.465,275.908 107.806 C 276.015 107.913,275.857 108.000,275.557 108.000 C 275.198 108.000,275.072 108.158,275.188 108.462 C 275.303 108.761,275.179 108.925,274.836 108.929 C 274.369 108.933,275.717 109.800,279.846 112.149 C 280.523 112.535,283.124 114.048,285.626 115.513 C 290.529 118.384,290.496 118.377,291.279 116.679 C 291.569 116.052,292.265 114.809,292.826 113.917 C 294.129 111.847,294.139 111.900,292.231 110.847 C 291.342 110.357,290.062 109.635,289.385 109.242 C 288.708 108.850,287.531 108.178,286.769 107.751 C 286.008 107.323,284.346 106.358,283.077 105.607 C 280.600 104.140,279.370 103.576,279.424 103.932 M313.538 106.341 C 300.857 107.855,291.416 121.459,294.590 133.645 C 295.505 137.158,298.572 143.077,299.477 143.077 C 299.616 143.077,299.649 142.948,299.552 142.791 C 299.455 142.634,299.665 142.414,300.018 142.302 C 300.402 142.180,300.594 141.925,300.495 141.668 C 300.389 141.393,300.604 141.168,301.088 141.047 C 301.505 140.942,301.846 140.688,301.846 140.482 C 301.846 140.276,302.214 139.772,302.665 139.361 C 303.310 138.773,303.441 138.733,303.284 139.170 C 303.165 139.501,303.207 139.648,303.388 139.536 C 303.555 139.433,303.692 139.149,303.692 138.905 C 303.692 138.661,303.935 138.451,304.231 138.437 C 304.556 138.423,304.616 138.351,304.383 138.257 C 304.170 138.171,304.080 137.966,304.182 137.800 C 304.284 137.635,304.174 137.266,303.937 136.981 C 301.717 134.306,300.741 128.262,301.914 124.448 C 304.923 114.658,316.123 110.473,324.671 115.944 C 325.592 116.533,325.909 116.602,326.364 116.311 C 326.885 115.978,326.881 115.967,326.311 116.149 C 325.701 116.344,325.701 116.343,326.311 115.756 C 326.727 115.356,326.996 115.276,327.149 115.506 C 327.358 115.821,327.448 115.552,327.358 114.881 C 327.344 114.773,327.517 114.570,327.743 114.430 C 327.969 114.291,328.154 114.010,328.154 113.806 C 328.154 113.602,328.362 113.379,328.615 113.310 C 329.026 113.198,329.026 113.220,328.615 113.510 C 328.288 113.742,328.269 113.838,328.548 113.841 C 328.765 113.844,329.034 113.604,329.146 113.308 C 329.410 112.610,330.019 112.000,330.450 112.000 C 331.556 112.000,329.674 110.333,326.650 108.635 C 323.577 106.909,317.575 105.859,313.538 106.341 M245.227 138.163 C 244.999 138.713,244.705 138.974,244.433 138.869 C 244.169 138.768,244.000 138.901,244.000 139.208 C 244.000 139.485,243.793 139.791,243.540 139.888 C 243.287 139.985,243.147 140.173,243.229 140.305 C 243.311 140.437,243.102 140.617,242.766 140.705 C 242.377 140.807,242.152 141.128,242.149 141.587 C 242.146 142.111,242.072 142.193,241.879 141.888 C 241.656 141.537,241.590 141.536,241.474 141.885 C 241.398 142.114,241.658 142.555,242.052 142.865 C 242.447 143.176,242.769 143.593,242.769 143.794 C 242.769 144.201,235.472 149.185,234.506 149.438 C 234.166 149.527,233.814 149.793,233.723 150.030 C 233.632 150.267,233.285 150.462,232.951 150.462 C 232.232 150.462,231.829 150.962,232.383 151.168 C 232.605 151.250,232.422 151.450,231.953 151.637 C 231.504 151.816,231.027 152.144,230.894 152.366 C 230.729 152.639,230.844 152.620,231.249 152.308 C 231.802 151.881,231.815 151.886,231.424 152.385 C 231.192 152.681,230.891 152.923,230.755 152.923 C 230.620 152.923,230.108 153.304,229.619 153.769 C 229.129 154.235,228.218 155.077,227.595 155.640 C 226.972 156.204,226.462 156.801,226.462 156.966 C 226.462 157.132,226.323 157.182,226.154 157.077 C 225.869 156.901,225.691 157.590,225.835 158.308 C 225.870 158.477,225.805 158.523,225.692 158.410 C 225.495 158.213,224.308 159.199,224.308 159.560 C 224.308 159.657,224.073 159.969,223.786 160.253 C 223.298 160.736,223.278 160.735,223.469 160.231 C 223.581 159.935,223.539 159.692,223.375 159.692 C 223.211 159.692,223.060 159.900,223.038 160.154 C 222.965 161.040,222.921 161.181,222.643 161.436 C 222.480 161.585,222.456 161.531,222.584 161.308 C 222.706 161.096,222.659 160.923,222.480 160.923 C 222.300 160.923,222.154 161.070,222.154 161.249 C 222.154 161.428,221.981 161.475,221.769 161.353 C 221.558 161.232,221.487 161.245,221.613 161.384 C 221.738 161.522,221.687 161.822,221.498 162.049 C 220.773 162.922,226.155 161.473,229.739 159.829 C 230.272 159.585,230.864 159.385,231.055 159.385 C 231.333 159.385,233.323 163.219,234.808 166.615 C 235.211 167.539,236.962 172.626,237.269 173.769 C 237.417 174.319,237.678 175.288,237.849 175.923 C 238.943 179.990,240.000 186.555,240.000 189.285 L 240.000 191.077 223.231 191.077 L 206.462 191.077 206.440 183.923 C 206.427 179.641,206.312 177.016,206.154 177.385 C 206.008 177.723,205.875 177.862,205.858 177.692 C 205.841 177.523,205.636 177.636,205.403 177.944 C 205.170 178.251,204.863 178.501,204.720 178.500 C 204.578 178.499,204.481 178.696,204.504 178.938 C 204.527 179.180,204.439 179.312,204.308 179.231 C 204.177 179.150,203.881 179.316,203.650 179.601 C 203.294 180.040,203.296 180.079,203.663 179.858 C 203.965 179.676,204.025 179.710,203.863 179.973 C 203.735 180.180,203.436 180.275,203.200 180.184 C 202.916 180.076,202.769 180.237,202.769 180.658 C 202.769 181.099,202.627 181.242,202.308 181.119 C 202.027 181.012,201.846 181.119,201.846 181.394 C 201.846 181.643,201.700 181.846,201.520 181.846 C 201.341 181.846,201.257 181.950,201.334 182.077 C 201.411 182.204,201.291 182.477,201.067 182.683 C 200.747 182.979,200.628 182.979,200.508 182.683 C 200.425 182.477,200.345 182.615,200.332 182.990 C 200.315 183.468,200.168 183.619,199.843 183.495 C 199.497 183.362,199.431 183.456,199.587 183.862 C 199.725 184.221,199.680 184.337,199.458 184.199 C 199.221 184.053,199.117 184.931,199.111 187.149 C 199.107 188.886,199.097 190.481,199.090 190.692 C 199.080 190.976,198.192 191.077,195.714 191.077 C 193.136 191.077,192.244 191.185,191.890 191.538 C 191.636 191.792,191.340 192.000,191.231 192.000 C 190.825 192.000,190.122 192.930,190.304 193.225 C 190.417 193.408,190.281 193.450,189.966 193.329 C 189.631 193.201,189.512 193.246,189.640 193.454 C 189.751 193.634,189.627 193.864,189.363 193.966 C 189.095 194.068,188.981 194.307,189.105 194.507 C 189.243 194.730,189.191 194.781,188.968 194.643 C 188.762 194.516,188.514 194.658,188.382 194.980 C 188.257 195.287,187.946 195.538,187.692 195.538 C 187.438 195.538,187.213 195.712,187.192 195.923 C 187.171 196.135,187.137 196.454,187.115 196.634 C 187.094 196.813,186.963 196.889,186.824 196.803 C 186.553 196.635,185.406 197.816,185.627 198.037 C 185.699 198.110,188.689 198.184,192.271 198.203 C 195.854 198.222,198.853 198.349,198.938 198.485 C 199.048 198.663,199.154 217.912,199.080 224.308 C 199.078 224.479,198.240 224.615,197.189 224.615 C 193.991 224.615,183.615 226.598,181.077 227.694 C 180.738 227.840,179.354 228.335,178.000 228.794 C 176.646 229.253,175.371 229.758,175.167 229.917 C 174.254 230.630,171.320 224.719,169.050 217.589 C 168.762 216.686,168.340 215.875,168.112 215.787 C 167.883 215.700,167.786 215.482,167.895 215.305 C 168.013 215.115,167.947 215.073,167.735 215.204 C 167.537 215.327,167.445 215.542,167.532 215.681 C 167.618 215.821,167.468 216.020,167.197 216.124 C 166.926 216.228,166.782 216.512,166.875 216.756 C 167.033 217.167,166.049 217.755,165.462 217.599 C 165.335 217.566,165.231 217.677,165.231 217.846 C 165.231 218.015,165.377 218.154,165.557 218.154 C 165.736 218.154,165.796 218.295,165.689 218.467 C 165.583 218.639,165.369 218.701,165.213 218.605 C 165.058 218.508,164.548 218.808,164.081 219.269 C 163.613 219.731,163.473 219.929,163.769 219.709 C 164.125 219.445,164.308 219.424,164.308 219.649 C 164.308 219.835,163.962 220.075,163.538 220.181 C 163.115 220.288,162.752 220.498,162.731 220.649 C 162.710 220.800,162.670 221.096,162.644 221.308 C 162.574 221.859,164.394 226.388,166.183 230.116 C 167.026 231.873,167.676 233.336,167.627 233.368 C 164.897 235.153,158.378 239.584,157.749 240.081 L 156.882 240.766 155.345 239.075 C 154.499 238.145,153.001 236.382,152.016 235.157 C 150.600 233.396,150.153 233.015,149.884 233.339 C 149.697 233.564,149.642 233.847,149.763 233.968 C 149.883 234.088,149.757 234.100,149.483 233.995 C 149.209 233.890,148.881 233.973,148.753 234.180 C 148.599 234.429,148.648 234.477,148.898 234.323 C 149.185 234.146,149.182 234.241,148.884 234.717 C 148.669 235.062,148.406 235.292,148.301 235.227 C 148.058 235.077,147.077 236.208,147.077 236.637 C 147.077 236.814,146.938 236.874,146.769 236.769 C 146.600 236.665,146.462 236.749,146.462 236.956 C 146.462 237.164,146.371 237.243,146.261 237.133 C 146.151 237.023,145.873 237.294,145.643 237.737 C 145.245 238.504,145.306 238.636,146.966 240.578 C 155.546 250.624,166.374 258.333,177.920 262.617 C 179.374 263.157,180.600 262.876,180.128 262.111 C 180.032 261.957,180.068 261.869,180.208 261.915 C 180.347 261.962,180.486 261.867,180.516 261.704 C 180.545 261.542,180.798 261.329,181.077 261.231 C 181.356 261.133,181.539 260.976,181.484 260.881 C 181.311 260.583,182.211 259.691,182.504 259.872 C 182.658 259.968,182.746 259.932,182.700 259.792 C 182.653 259.653,182.730 259.513,182.869 259.482 C 183.009 259.451,183.405 259.104,183.749 258.713 C 184.093 258.321,184.489 258.032,184.629 258.070 C 184.769 258.109,184.863 257.867,184.838 257.532 C 184.813 257.197,184.603 256.923,184.371 256.923 C 182.237 256.923,172.617 252.531,167.691 249.308 C 162.603 245.979,162.369 245.755,163.262 245.072 C 164.924 243.799,168.353 241.509,169.846 240.673 L 171.538 239.726 174.308 243.452 C 177.076 247.177,184.855 255.532,185.849 255.847 C 186.478 256.047,187.385 255.744,187.385 255.334 C 187.385 255.172,187.236 255.132,187.054 255.245 C 186.867 255.361,186.891 255.182,187.109 254.832 C 187.321 254.493,187.677 254.285,187.901 254.371 C 188.125 254.457,188.308 254.326,188.308 254.081 C 188.308 253.493,189.363 252.549,189.689 252.845 C 189.830 252.973,189.850 252.815,189.734 252.495 C 189.553 251.993,189.591 251.968,190.010 252.316 C 190.415 252.652,190.480 252.647,190.402 252.283 C 190.350 252.043,190.491 251.884,190.715 251.931 C 190.939 251.977,191.035 251.873,190.928 251.700 C 190.821 251.527,190.903 251.385,191.111 251.385 C 191.319 251.385,189.962 249.896,188.096 248.077 C 183.880 243.965,178.462 237.556,178.462 236.680 C 178.462 236.401,179.922 235.818,183.846 234.530 C 187.189 233.433,191.277 232.647,197.615 231.881 L 199.077 231.704 199.077 237.237 C 199.077 242.402,199.379 244.187,199.910 242.157 C 199.998 241.821,200.186 241.617,200.327 241.704 C 200.469 241.792,200.737 241.579,200.923 241.231 C 201.109 240.883,201.377 240.670,201.519 240.757 C 201.660 240.845,201.852 240.627,201.944 240.273 C 202.037 239.920,202.260 239.722,202.441 239.833 C 202.621 239.945,202.769 239.830,202.769 239.577 C 202.769 239.325,203.037 239.033,203.365 238.929 C 203.693 238.825,204.142 238.331,204.363 237.832 C 204.585 237.332,204.924 236.923,205.117 236.923 C 205.860 236.923,206.462 235.410,206.462 233.539 L 206.462 231.671 208.077 231.860 C 208.965 231.964,209.864 232.103,210.073 232.168 C 210.283 232.232,210.423 232.187,210.386 232.066 C 210.274 231.707,211.762 230.161,212.049 230.338 C 212.193 230.427,212.395 230.285,212.496 230.021 C 212.597 229.758,212.791 229.611,212.927 229.694 C 213.062 229.778,213.100 229.568,213.011 229.227 C 212.886 228.749,212.964 228.650,213.348 228.798 C 213.684 228.927,213.846 228.822,213.846 228.476 C 213.846 228.194,213.985 228.049,214.154 228.154 C 214.323 228.258,214.462 228.195,214.462 228.013 C 214.462 227.831,214.949 227.208,215.545 226.630 L 216.628 225.578 215.160 225.394 C 214.353 225.293,212.942 225.077,212.026 224.913 C 211.109 224.749,209.481 224.615,208.407 224.615 L 206.455 224.615 206.535 211.462 L 206.615 198.308 223.308 198.259 L 240.000 198.211 240.005 200.259 C 240.008 201.671,240.100 202.164,240.301 201.846 C 240.462 201.592,240.724 201.385,240.884 201.385 C 241.208 201.385,243.692 198.935,243.692 198.616 C 243.692 198.255,245.480 196.615,245.874 196.615 C 246.084 196.615,246.165 196.524,246.053 196.412 C 245.831 196.190,247.094 195.191,247.450 195.306 C 247.571 195.345,247.582 195.148,247.475 194.869 C 247.363 194.577,247.407 194.439,247.578 194.545 C 247.742 194.646,248.077 194.601,248.322 194.446 C 248.629 194.252,248.649 194.162,248.385 194.159 C 248.173 194.156,248.000 194.001,248.000 193.813 C 248.000 193.626,248.206 193.552,248.458 193.648 C 248.722 193.750,248.885 193.666,248.842 193.450 C 248.802 193.245,248.945 193.113,249.161 193.156 C 249.376 193.200,249.685 192.884,249.848 192.456 C 250.011 192.027,250.458 191.550,250.842 191.396 C 251.377 191.181,251.097 191.111,249.636 191.096 C 247.422 191.074,247.516 191.219,247.242 187.385 C 246.610 178.537,243.417 167.105,239.272 158.851 L 237.847 156.014 238.693 155.504 C 241.005 154.111,246.719 150.216,247.648 149.401 L 248.702 148.476 250.218 150.161 C 253.357 153.651,257.031 158.503,258.418 160.991 C 260.578 164.864,261.296 166.275,262.300 168.615 C 262.917 170.054,263.543 171.508,263.691 171.846 C 263.839 172.185,264.263 173.362,264.635 174.462 C 265.006 175.562,265.351 176.509,265.401 176.567 C 265.584 176.778,266.514 176.090,266.412 175.818 C 266.355 175.664,266.600 175.497,266.958 175.446 C 267.315 175.395,267.766 175.006,267.959 174.582 C 268.152 174.158,268.432 173.887,268.582 173.979 C 268.967 174.217,269.476 173.486,269.372 172.845 C 269.324 172.548,269.412 172.383,269.568 172.480 C 269.723 172.576,269.934 172.438,270.035 172.173 C 270.137 171.909,270.413 171.692,270.648 171.692 C 271.361 171.692,271.143 170.678,269.682 167.190 C 265.888 158.133,260.957 150.780,254.014 143.827 C 247.714 137.517,245.962 136.388,245.227 138.163 M289.651 139.832 C 289.335 140.053,288.558 140.527,287.923 140.886 C 287.288 141.245,286.250 141.832,285.615 142.190 C 284.981 142.549,283.077 143.640,281.385 144.615 C 279.692 145.590,277.737 146.716,277.040 147.117 C 266.996 152.892,267.782 152.090,269.524 154.784 C 270.192 155.818,270.919 157.069,271.137 157.563 C 271.697 158.827,270.452 159.400,283.231 151.994 C 285.938 150.425,288.569 148.904,289.077 148.613 C 294.721 145.380,294.454 145.730,292.977 143.487 C 292.327 142.500,291.601 141.245,291.363 140.697 C 290.847 139.509,290.421 139.294,289.651 139.832 M114.847 271.458 C 114.676 271.671,114.227 272.469,113.848 273.231 C 113.470 273.992,112.821 275.069,112.405 275.623 C 111.434 276.918,111.564 277.440,113.077 278.302 C 113.754 278.687,115.208 279.521,116.308 280.154 C 117.408 280.788,118.923 281.655,119.676 282.082 C 120.429 282.508,121.744 283.272,122.599 283.779 C 124.274 284.773,124.922 285.150,128.000 286.923 C 131.782 289.102,131.811 289.118,139.595 293.561 C 140.134 293.869,141.135 294.474,141.820 294.907 C 142.505 295.339,143.142 295.692,143.235 295.692 C 143.329 295.692,143.768 295.930,144.211 296.220 C 145.428 297.017,145.864 296.964,146.208 295.977 C 146.380 295.482,146.629 295.144,146.759 295.225 C 147.078 295.422,148.351 294.300,148.097 294.046 C 147.987 293.936,148.067 293.846,148.275 293.846 C 148.484 293.846,148.553 293.686,148.429 293.486 C 148.280 293.244,148.374 293.191,148.719 293.323 C 149.000 293.431,149.231 293.377,149.231 293.203 C 149.231 293.029,149.369 292.972,149.538 293.077 C 149.708 293.182,149.846 293.066,149.846 292.820 C 149.846 292.575,150.064 292.290,150.331 292.188 C 150.933 291.956,150.473 291.424,148.884 290.515 C 147.801 289.896,144.514 288.003,142.923 287.083 C 142.415 286.790,140.131 285.474,137.846 284.160 C 135.562 282.846,131.477 280.488,128.769 278.920 C 126.062 277.352,123.362 275.794,122.769 275.457 C 122.177 275.120,120.792 274.322,119.692 273.684 C 115.042 270.987,115.176 271.048,114.847 271.458 " stroke="none" fill="#8ec3fc" fill-rule="evenodd"></path><path id="path4" d="M196.985 41.829 C 183.343 45.729,176.420 61.012,182.692 73.385 C 192.181 92.102,219.540 88.953,224.653 68.556 C 228.661 52.568,212.849 37.293,196.985 41.829 M207.933 49.285 C 223.620 55.115,219.615 78.433,202.923 78.452 C 187.314 78.470,181.899 57.383,195.671 50.211 C 197.173 49.429,197.986 49.154,200.769 48.488 C 202.035 48.185,206.229 48.652,207.933 49.285 M174.769 75.425 C 173.838 75.944,172.938 76.475,172.769 76.605 C 172.600 76.735,171.838 77.186,171.077 77.608 C 170.315 78.029,169.208 78.658,168.615 79.004 C 167.577 79.612,159.649 84.200,155.846 86.395 C 152.901 88.094,152.418 88.373,147.231 91.375 C 144.523 92.942,141.892 94.464,141.385 94.758 C 140.877 95.051,138.938 96.161,137.077 97.224 C 135.215 98.286,133.277 99.399,132.769 99.697 C 131.498 100.441,122.415 105.708,120.154 107.011 C 117.353 108.625,116.297 109.236,114.615 110.215 C 113.769 110.708,112.844 111.186,112.560 111.278 C 111.744 111.542,111.618 112.342,112.280 113.048 C 112.612 113.402,113.321 114.627,113.856 115.769 C 115.102 118.433,114.979 118.396,117.605 116.896 C 118.837 116.192,120.462 115.267,121.215 114.841 C 121.967 114.415,123.283 113.651,124.138 113.144 C 124.993 112.637,126.177 111.947,126.769 111.612 C 127.362 111.276,131.377 108.957,135.692 106.459 C 140.008 103.960,144.023 101.640,144.615 101.303 C 146.033 100.497,149.452 98.527,150.615 97.846 C 152.030 97.019,155.380 95.091,156.907 94.226 C 157.660 93.800,158.975 93.036,159.830 92.529 C 160.685 92.021,161.800 91.369,162.308 91.079 C 162.815 90.788,165.446 89.271,168.154 87.707 C 170.862 86.143,174.669 83.950,176.615 82.834 C 180.789 80.441,180.764 80.468,179.858 79.254 C 179.470 78.733,178.694 77.442,178.133 76.385 C 176.957 74.167,177.001 74.180,174.769 75.425 M228.006 75.462 C 227.757 76.012,227.541 76.531,227.524 76.615 C 227.423 77.141,226.627 78.462,226.412 78.462 C 226.270 78.462,226.154 78.695,226.154 78.981 C 226.154 79.422,226.247 79.400,226.769 78.840 C 227.108 78.477,227.385 78.095,227.385 77.991 C 227.385 77.607,228.243 76.960,228.474 77.168 C 228.606 77.287,228.600 77.188,228.460 76.948 C 228.275 76.629,228.336 76.560,228.684 76.694 C 229.032 76.828,229.122 76.726,229.014 76.316 C 228.934 76.008,229.024 75.464,229.214 75.108 C 229.506 74.563,229.474 74.462,229.009 74.462 C 228.685 74.462,228.272 74.874,228.006 75.462 M199.380 91.544 C 198.855 92.176,198.999 106.164,199.529 105.961 C 200.054 105.760,200.172 105.231,199.692 105.231 C 199.523 105.231,199.396 104.988,199.409 104.692 C 199.423 104.371,199.496 104.309,199.588 104.538 C 199.674 104.750,199.948 104.923,200.198 104.923 C 200.447 104.923,200.566 104.785,200.462 104.615 C 200.357 104.446,200.418 104.308,200.597 104.308 C 200.776 104.308,200.933 104.065,200.945 103.769 C 200.963 103.309,201.005 103.320,201.231 103.846 C 201.516 104.511,201.651 104.143,201.596 102.846 C 201.580 102.465,201.708 102.154,201.879 102.154 C 202.050 102.154,202.093 102.310,201.975 102.501 C 201.844 102.714,201.926 102.789,202.188 102.694 C 202.423 102.608,202.573 102.359,202.521 102.140 C 202.448 101.830,202.523 101.822,202.865 102.106 C 203.210 102.392,203.394 102.357,203.728 101.945 C 203.962 101.656,204.009 101.507,203.831 101.613 C 203.462 101.834,202.541 101.356,202.812 101.085 C 202.911 100.986,203.361 101.046,203.812 101.218 C 204.557 101.501,204.604 101.477,204.327 100.959 C 203.939 100.235,204.263 99.887,204.862 100.385 C 205.250 100.707,205.286 100.660,205.101 100.075 C 204.967 99.654,205.010 99.385,205.210 99.385 C 205.391 99.385,205.538 99.194,205.538 98.961 C 205.538 98.728,205.751 98.361,206.010 98.146 C 206.390 97.830,206.465 97.127,206.395 94.529 L 206.308 91.303 202.974 91.267 C 201.040 91.246,199.532 91.362,199.380 91.544 M85.692 106.443 C 74.747 108.247,66.946 117.402,66.929 128.462 C 66.923 132.615,67.107 133.615,68.535 137.171 C 76.061 155.910,103.374 155.245,110.299 136.154 C 116.017 120.390,102.212 103.721,85.692 106.443 M93.009 113.995 C 97.976 115.289,101.610 118.782,103.738 124.308 C 103.994 124.974,104.148 126.619,104.142 128.619 C 104.084 145.929,80.173 149.457,74.797 132.949 C 71.224 121.980,81.721 111.055,93.009 113.995 M178.008 127.089 C 178.135 127.295,177.934 127.341,177.444 127.218 C 177.021 127.112,176.591 127.175,176.477 127.360 C 176.364 127.543,176.063 127.692,175.808 127.692 C 172.370 127.692,158.267 137.075,151.620 143.784 C 144.894 150.572,135.172 165.501,135.806 168.066 C 135.878 168.357,135.795 168.564,135.622 168.528 C 135.449 168.491,135.238 168.654,135.152 168.889 C 135.062 169.139,135.134 169.232,135.326 169.113 C 135.507 169.002,135.805 169.155,135.989 169.455 C 136.238 169.861,136.312 169.882,136.279 169.538 C 136.171 168.406,136.338 168.000,136.913 168.000 C 137.330 168.000,137.463 167.853,137.339 167.531 C 137.200 167.169,137.061 167.142,136.733 167.414 C 136.423 167.672,136.308 167.674,136.308 167.422 C 136.308 167.232,136.454 167.077,136.634 167.077 C 136.813 167.077,136.855 166.904,136.728 166.692 C 136.547 166.391,136.595 166.387,136.951 166.675 C 137.245 166.912,137.564 166.941,137.856 166.756 C 138.496 166.352,138.844 166.395,138.584 166.846 C 138.462 167.058,138.481 167.123,138.626 166.991 C 139.215 166.455,139.044 165.783,138.362 165.955 C 137.704 166.120,137.703 166.116,138.308 165.687 C 138.646 165.448,139.062 165.135,139.231 164.993 C 139.400 164.851,139.655 164.717,139.797 164.696 C 139.940 164.674,140.259 164.405,140.507 164.097 C 140.922 163.582,140.930 163.594,140.617 164.239 C 140.427 164.630,140.126 164.847,139.937 164.730 C 139.732 164.604,139.684 164.661,139.817 164.876 C 139.938 165.071,139.890 165.231,139.710 165.231 C 139.531 165.231,139.385 165.386,139.385 165.576 C 139.385 165.830,139.494 165.831,139.798 165.579 C 140.025 165.390,140.313 165.339,140.439 165.464 C 140.564 165.590,140.621 165.485,140.564 165.231 C 140.508 164.977,140.605 164.794,140.781 164.824 C 141.245 164.905,141.303 163.319,140.848 162.990 C 140.581 162.797,140.631 162.766,141.012 162.889 C 141.341 162.995,141.631 162.887,141.733 162.620 C 141.828 162.374,142.368 162.005,142.934 161.800 C 143.844 161.471,143.943 161.328,143.789 160.560 C 143.607 159.651,144.329 159.288,144.802 160.053 C 145.032 160.425,145.685 159.221,145.582 158.615 C 145.553 158.446,145.720 158.550,145.953 158.846 C 146.463 159.496,146.901 159.556,146.666 158.943 C 146.572 158.700,146.661 158.434,146.863 158.352 C 147.065 158.270,146.988 158.191,146.692 158.178 C 146.396 158.165,146.154 158.009,146.154 157.833 C 146.154 157.656,146.396 157.552,146.692 157.602 C 147.108 157.672,147.217 157.498,147.172 156.839 C 147.139 156.370,147.243 156.067,147.403 156.165 C 147.562 156.263,147.692 156.613,147.692 156.941 C 147.692 157.270,147.839 157.538,148.018 157.538 C 148.197 157.538,148.244 157.376,148.122 157.178 C 147.969 156.932,148.071 156.885,148.445 157.028 C 148.861 157.188,148.946 157.120,148.802 156.745 C 148.698 156.474,148.714 156.092,148.837 155.895 C 148.960 155.699,149.064 155.331,149.069 155.077 C 149.073 154.819,149.304 154.653,149.592 154.700 C 149.876 154.747,150.209 154.622,150.332 154.422 C 150.482 154.179,150.424 154.141,150.154 154.308 C 149.884 154.474,149.825 154.437,149.976 154.193 C 150.099 153.993,150.363 153.850,150.562 153.874 C 151.328 153.969,151.721 153.834,151.538 153.538 C 151.434 153.369,151.495 153.231,151.674 153.231 C 151.853 153.231,152.000 153.392,152.000 153.590 C 152.000 153.787,152.072 153.876,152.161 153.788 C 152.412 153.537,151.967 152.599,151.681 152.776 C 151.542 152.862,151.340 152.792,151.234 152.620 C 150.975 152.202,151.788 152.219,152.211 152.641 C 152.605 153.036,153.633 151.786,153.324 151.287 C 153.218 151.116,153.292 151.078,153.491 151.201 C 153.941 151.479,153.956 151.002,153.512 150.558 C 153.271 150.317,153.273 150.164,153.519 150.012 C 153.711 149.893,153.824 149.974,153.777 150.195 C 153.730 150.413,153.993 150.611,154.361 150.637 C 154.951 150.677,154.995 150.593,154.737 149.914 C 154.374 148.960,154.547 148.745,155.172 149.370 C 155.705 149.903,156.139 150.012,155.846 149.538 C 155.742 149.369,155.874 149.231,156.142 149.231 C 156.474 149.231,156.591 149.012,156.512 148.538 C 156.449 148.158,156.454 148.007,156.524 148.205 C 156.593 148.402,156.853 148.641,157.102 148.736 C 157.465 148.876,157.489 148.791,157.227 148.301 C 156.995 147.867,156.998 147.692,157.238 147.692 C 157.423 147.692,157.487 147.550,157.380 147.377 C 157.273 147.204,157.299 147.082,157.439 147.106 C 158.263 147.249,158.437 147.052,158.151 146.299 C 157.882 145.592,157.909 145.550,158.446 145.838 C 159.254 146.270,159.481 146.235,159.279 145.708 C 159.157 145.389,159.257 145.318,159.631 145.458 C 160.103 145.635,160.109 145.598,159.692 145.081 C 159.265 144.552,159.283 144.522,159.923 144.687 C 160.304 144.785,160.615 144.725,160.615 144.554 C 160.615 144.382,160.812 144.317,161.053 144.410 C 161.373 144.533,161.456 144.386,161.362 143.864 C 161.289 143.462,161.436 142.982,161.700 142.763 C 162.097 142.433,162.135 142.463,161.949 142.956 C 161.757 143.469,161.792 143.489,162.247 143.119 C 162.530 142.888,162.684 142.573,162.589 142.419 C 162.493 142.264,162.847 141.988,163.373 141.804 C 164.258 141.495,164.289 141.439,163.781 141.060 C 163.261 140.673,163.272 140.612,163.989 139.941 C 164.620 139.349,164.656 139.340,164.206 139.885 C 163.719 140.474,163.715 140.558,164.157 140.728 C 164.441 140.837,164.568 140.788,164.459 140.611 C 164.355 140.444,164.633 140.169,165.077 140.000 C 165.735 139.750,165.932 139.077,165.348 139.077 C 165.264 139.077,165.298 139.250,165.426 139.462 C 165.583 139.723,165.490 139.711,165.136 139.424 C 164.581 138.974,164.419 138.612,164.908 138.914 C 165.068 139.013,165.350 138.813,165.534 138.470 C 165.944 137.704,166.463 137.656,166.457 138.385 C 166.453 138.845,166.409 138.856,166.154 138.462 C 165.975 138.184,165.854 138.146,165.851 138.366 C 165.842 139.042,166.501 139.146,166.671 138.496 C 166.764 138.142,166.934 137.912,167.050 137.983 C 167.531 138.281,168.161 137.577,167.767 137.182 C 167.557 136.972,167.396 136.516,167.409 136.169 C 167.422 135.822,167.503 135.712,167.588 135.923 C 167.674 136.135,168.017 136.308,168.351 136.308 C 168.686 136.308,168.875 136.171,168.772 136.004 C 168.668 135.837,168.729 135.525,168.907 135.312 C 169.085 135.098,169.508 134.577,169.847 134.154 C 170.186 133.731,170.384 133.613,170.287 133.892 C 170.191 134.171,170.260 134.491,170.441 134.602 C 170.750 134.794,170.898 134.288,170.841 133.231 C 170.824 132.914,170.991 132.984,171.376 133.455 C 172.140 134.393,172.991 133.595,172.339 132.551 C 172.008 132.020,172.029 131.844,172.478 131.423 C 172.898 131.028,172.957 131.020,172.760 131.385 C 172.568 131.739,172.647 131.726,173.101 131.329 C 173.508 130.974,173.848 130.900,174.190 131.091 C 174.606 131.324,174.669 131.220,174.580 130.454 C 174.503 129.789,174.603 129.538,174.947 129.538 C 175.208 129.538,175.335 129.677,175.231 129.846 C 175.126 130.015,175.187 130.154,175.366 130.154 C 175.546 130.154,175.692 130.011,175.692 129.836 C 175.692 129.662,176.004 129.393,176.385 129.240 C 176.765 129.087,176.904 128.953,176.692 128.943 C 176.481 128.932,176.319 128.681,176.332 128.385 C 176.346 128.063,176.419 128.001,176.511 128.231 C 176.597 128.442,176.817 128.615,177.000 128.615 C 177.183 128.615,177.242 128.524,177.130 128.412 C 177.018 128.300,177.227 128.058,177.593 127.874 C 178.333 127.501,178.710 126.769,178.161 126.769 C 177.968 126.769,177.899 126.913,178.008 127.089 M169.462 135.337 C 169.373 135.677,169.480 135.897,169.735 135.897 C 170.201 135.897,170.307 135.208,169.881 134.945 C 169.731 134.852,169.542 135.028,169.462 135.337 M114.846 139.766 C 114.674 139.979,114.105 141.009,113.581 142.055 C 113.058 143.100,112.488 144.042,112.316 144.149 C 111.287 144.784,111.372 145.523,112.559 146.272 C 113.658 146.966,124.529 153.250,127.692 155.021 C 128.454 155.447,130.092 156.396,131.333 157.129 C 134.143 158.788,133.903 158.826,135.086 156.538 C 135.634 155.481,136.340 154.248,136.656 153.799 C 137.606 152.449,137.388 152.153,134.077 150.293 C 132.342 149.318,129.954 147.940,128.769 147.232 C 127.585 146.523,125.992 145.592,125.231 145.163 C 123.772 144.342,120.584 142.510,118.769 141.450 C 115.333 139.442,115.164 139.370,114.846 139.766 M149.411 155.185 C 149.546 155.539,149.465 155.857,149.199 156.026 C 148.878 156.230,148.869 156.299,149.164 156.303 C 149.726 156.310,149.996 155.411,149.561 154.979 C 149.278 154.698,149.244 154.745,149.411 155.185 M85.667 156.590 C 85.119 157.137,85.580 219.253,86.131 219.253 C 86.463 219.253,86.636 219.113,86.525 218.934 C 86.193 218.404,86.139 217.538,86.438 217.538 C 86.593 217.538,86.973 217.456,87.283 217.356 C 87.751 217.204,87.768 217.229,87.385 217.505 C 87.087 217.718,87.056 217.838,87.297 217.841 C 87.740 217.847,88.372 216.782,88.092 216.502 C 87.985 216.395,88.293 216.308,88.777 216.308 C 89.607 216.308,89.623 216.284,89.065 215.875 C 88.511 215.471,88.528 215.453,89.314 215.603 C 89.843 215.705,90.154 215.630,90.154 215.402 C 90.154 215.203,89.981 215.128,89.769 215.235 C 89.558 215.343,89.592 215.246,89.846 215.022 C 90.100 214.797,90.353 214.406,90.408 214.153 C 90.463 213.899,90.637 213.646,90.794 213.589 C 90.952 213.532,91.010 213.371,90.923 213.231 C 90.837 213.091,91.187 212.791,91.703 212.565 C 93.008 211.992,92.940 213.713,92.850 183.692 L 92.769 156.462 89.282 156.462 C 87.364 156.462,85.737 156.519,85.667 156.590 M142.308 162.697 C 141.837 163.043,141.830 163.590,142.295 163.590 C 142.538 163.590,142.637 163.398,142.534 163.129 C 142.409 162.805,142.478 162.743,142.764 162.920 C 143.036 163.088,143.099 163.053,142.952 162.817 C 142.696 162.402,142.707 162.404,142.308 162.697 M92.308 212.905 C 92.308 213.120,92.117 213.224,91.885 213.134 C 91.428 212.959,90.526 214.321,90.871 214.666 C 90.984 214.779,91.077 214.626,91.077 214.326 C 91.077 213.936,91.228 213.838,91.606 213.983 C 91.897 214.095,92.038 214.089,91.918 213.970 C 91.799 213.851,91.942 213.578,92.235 213.363 C 92.528 213.149,92.665 212.870,92.538 212.743 C 92.411 212.616,92.308 212.689,92.308 212.905 " stroke="none" fill="#ecb0fc" fill-rule="evenodd"></path></g></svg>