<svg id="svg" version="1.1" xmlns="http://www.w3.org/2000/svg" xmlns:xlink="http://www.w3.org/1999/xlink" width="400" height="400" viewBox="0, 0, 400,400"><g id="svgg"><path id="path0" d="M103.538 68.189 C 102.015 68.954,100.042 69.987,99.154 70.485 C 98.265 70.983,97.538 71.304,97.538 71.198 C 97.538 71.092,97.188 71.236,96.761 71.516 C 96.333 71.796,95.827 71.929,95.636 71.811 C 95.445 71.694,95.373 71.733,95.476 71.898 C 95.719 72.292,90.956 74.613,90.493 74.327 C 90.297 74.206,90.176 74.263,90.223 74.455 C 90.270 74.646,86.673 76.642,82.231 78.890 C 77.788 81.138,74.154 82.933,74.154 82.879 C 74.154 82.824,73.704 83.030,73.154 83.335 C 72.604 83.640,71.430 84.281,70.546 84.759 L 68.938 85.628 82.084 92.182 C 89.315 95.787,95.401 98.885,95.609 99.067 C 95.818 99.249,96.059 99.396,96.146 99.394 C 96.602 99.383,99.638 101.069,99.517 101.266 C 99.439 101.392,99.537 101.596,99.735 101.719 C 99.960 101.858,100.013 101.808,99.876 101.586 C 99.544 101.050,100.494 101.154,101.055 101.714 C 101.321 101.980,101.538 102.130,101.538 102.048 C 101.538 101.966,102.723 102.498,104.172 103.231 L 106.805 104.564 109.282 103.341 C 110.644 102.668,111.834 102.193,111.926 102.285 C 112.018 102.377,112.245 102.256,112.431 102.016 C 112.815 101.522,143.634 86.055,144.239 86.053 C 145.464 86.048,143.155 84.762,131.276 78.830 C 124.052 75.222,118.220 72.142,118.317 71.985 C 118.414 71.828,118.298 71.774,118.059 71.866 C 117.820 71.958,115.270 70.849,112.393 69.401 C 106.289 66.329,107.037 66.432,103.538 68.189 M145.985 88.284 C 145.618 88.639,136.602 93.151,135.989 93.286 C 135.741 93.340,135.469 93.465,135.385 93.563 C 135.119 93.871,130.154 96.321,130.154 96.144 C 130.154 96.052,129.883 96.224,129.551 96.526 C 129.220 96.829,127.731 97.625,126.243 98.295 C 124.756 98.965,123.437 99.658,123.312 99.834 C 123.188 100.010,123.084 100.047,123.082 99.916 C 123.079 99.785,122.750 99.892,122.351 100.154 C 121.932 100.428,121.390 100.539,121.070 100.416 C 120.695 100.272,120.585 100.317,120.731 100.553 C 120.902 100.830,117.184 103.078,116.308 103.226 C 116.223 103.241,115.808 103.443,115.385 103.675 C 112.074 105.494,110.850 106.059,110.383 105.985 C 110.086 105.938,109.909 106.006,109.989 106.136 C 110.069 106.265,109.793 106.527,109.375 106.718 L 108.615 107.064 108.615 125.960 C 108.615 142.474,108.674 144.880,109.077 145.034 C 109.331 145.132,109.538 145.072,109.538 144.902 C 109.538 144.468,114.473 142.128,114.889 142.366 C 115.077 142.473,115.126 142.445,114.998 142.304 C 114.871 142.163,115.632 141.605,116.691 141.063 C 124.492 137.068,126.462 136.148,126.584 136.441 C 126.662 136.627,126.731 136.595,126.745 136.366 C 126.758 136.145,126.908 136.049,127.077 136.154 C 127.246 136.258,127.385 136.199,127.385 136.022 C 127.385 135.663,135.997 131.268,136.005 131.622 C 136.007 131.746,136.111 131.694,136.235 131.507 C 136.571 131.004,144.603 127.033,144.906 127.220 C 145.049 127.309,145.246 127.174,145.343 126.921 C 145.440 126.668,145.731 126.462,145.990 126.462 C 146.408 126.462,146.462 124.295,146.462 107.231 C 146.462 96.654,146.420 88.000,146.369 88.000 C 146.318 88.000,146.145 88.128,145.985 88.284 M67.084 107.236 L 67.088 126.164 71.313 128.265 C 73.838 129.521,75.502 130.525,75.449 130.759 C 75.394 130.999,75.542 131.082,75.827 130.973 C 76.288 130.796,80.898 132.784,81.265 133.317 C 81.369 133.468,81.549 133.566,81.665 133.535 C 82.091 133.422,86.154 135.736,86.159 136.094 C 86.162 136.334,86.258 136.313,86.435 136.032 C 86.655 135.686,86.862 135.758,87.507 136.403 C 87.948 136.843,88.308 137.080,88.308 136.931 C 88.308 136.541,91.122 138.125,91.796 138.894 C 92.107 139.248,92.272 139.365,92.162 139.154 C 92.053 138.942,92.077 138.769,92.216 138.769 C 92.651 138.769,96.941 141.110,96.787 141.264 C 96.707 141.344,96.893 141.428,97.200 141.452 C 97.927 141.506,100.615 142.772,100.615 143.060 C 100.615 143.182,100.788 143.285,101.000 143.288 C 101.212 143.291,102.137 143.661,103.058 144.109 C 103.978 144.557,104.774 144.923,104.827 144.923 C 104.880 144.923,104.916 136.373,104.908 125.923 L 104.892 106.923 96.103 102.615 C 91.268 100.246,87.245 98.135,87.163 97.925 C 87.080 97.714,86.896 97.614,86.754 97.702 C 86.612 97.790,83.892 96.556,80.709 94.961 C 72.226 90.708,67.356 88.308,67.210 88.308 C 67.139 88.308,67.082 96.825,67.084 107.236 M163.801 105.248 C 161.844 106.216,161.481 108.776,163.052 110.534 L 163.949 111.538 219.590 111.692 L 275.231 111.846 275.385 118.154 C 275.553 125.052,275.653 125.465,277.344 126.268 C 279.037 127.071,279.928 126.914,281.267 125.575 L 282.462 124.380 282.457 115.805 C 282.452 106.349,282.400 106.052,280.611 105.154 C 278.788 104.240,165.654 104.330,163.801 105.248 M220.615 138.759 L 219.538 139.648 219.538 195.080 L 219.538 250.512 220.543 251.410 L 221.548 252.308 278.859 252.308 C 328.691 252.308,336.255 252.249,336.814 251.857 C 337.168 251.609,337.552 251.501,337.668 251.617 C 337.784 251.733,337.793 251.604,337.688 251.330 C 337.566 251.013,337.751 250.655,338.202 250.340 C 338.589 250.068,338.737 249.846,338.530 249.846 C 338.239 249.846,338.154 246.575,338.154 235.385 C 338.154 227.431,338.050 220.923,337.923 220.924 C 337.796 220.924,337.682 221.401,337.670 221.982 C 337.648 223.047,336.206 225.538,335.613 225.538 C 335.446 225.538,335.499 225.296,335.732 225.000 C 336.113 224.514,336.102 224.502,335.625 224.876 C 335.334 225.103,335.127 225.448,335.164 225.642 C 335.281 226.257,332.597 227.385,331.016 227.385 L 329.548 227.385 329.466 236.538 L 329.385 245.692 278.923 245.692 L 228.462 245.692 228.462 195.077 L 228.462 144.462 278.308 144.377 C 305.723 144.331,328.465 144.368,328.846 144.460 L 329.538 144.627 329.538 153.810 L 329.538 162.993 331.462 163.159 C 334.621 163.432,337.301 165.496,337.713 167.973 C 337.814 168.580,337.944 169.215,338.001 169.385 C 338.058 169.554,338.116 163.087,338.130 155.014 C 338.146 144.968,338.047 140.103,337.816 139.596 C 336.964 137.725,340.897 137.840,278.523 137.856 L 221.692 137.870 220.615 138.759 M235.077 194.722 C 235.077 236.315,235.100 238.079,235.640 238.568 C 236.558 239.399,321.507 239.346,322.260 238.514 C 322.692 238.037,322.769 237.155,322.769 232.705 L 322.769 227.459 320.889 227.323 C 319.365 227.212,318.893 227.045,318.401 226.439 C 318.066 226.029,317.882 225.865,317.991 226.077 C 318.320 226.714,317.563 226.512,316.456 225.668 C 315.229 224.732,314.045 222.488,314.353 221.685 C 314.511 221.274,314.461 221.195,314.160 221.381 C 313.557 221.753,313.923 217.956,314.620 216.601 C 315.997 213.927,317.783 212.906,320.711 213.120 L 322.769 213.270 322.769 195.097 L 322.769 176.923 321.564 176.923 C 320.894 176.923,320.304 177.089,320.235 177.296 C 319.741 178.778,314.829 175.064,314.176 172.715 C 312.783 167.697,315.607 163.556,320.692 163.157 L 322.769 162.994 322.769 157.559 C 322.769 153.741,322.659 152.013,322.400 151.754 C 322.116 151.470,311.959 151.385,278.554 151.385 L 235.077 151.385 235.077 194.722 M101.077 161.440 C 98.200 162.885,94.877 164.560,93.692 165.162 C 92.508 165.764,91.296 166.372,91.000 166.513 C 90.704 166.654,90.150 166.934,89.769 167.135 C 89.388 167.335,84.526 169.778,78.965 172.562 L 68.853 177.624 70.811 178.607 C 71.888 179.147,74.085 180.239,75.692 181.034 C 78.533 182.439,79.637 183.001,81.231 183.854 C 81.654 184.080,83.013 184.765,84.252 185.374 C 85.490 185.984,86.736 186.609,87.021 186.762 C 87.306 186.916,89.408 187.968,91.692 189.100 C 93.977 190.233,95.915 191.244,96.000 191.349 C 96.085 191.453,96.292 191.563,96.462 191.594 C 96.938 191.679,101.130 193.691,103.692 195.065 C 106.883 196.776,105.660 197.203,124.106 187.948 C 133.271 183.350,141.659 179.141,142.747 178.596 L 144.726 177.605 143.209 176.823 C 140.874 175.620,138.977 174.672,134.462 172.452 C 132.177 171.328,129.823 170.157,129.231 169.849 C 128.638 169.541,127.669 169.074,127.077 168.812 C 126.485 168.549,125.377 167.990,124.615 167.570 C 121.476 165.837,107.049 158.771,106.693 158.791 C 106.481 158.803,103.954 159.995,101.077 161.440 M319.772 166.876 C 317.793 168.715,317.815 168.669,317.899 170.824 C 317.943 171.954,318.053 172.861,318.143 172.840 C 318.655 172.719,319.696 173.348,319.717 173.790 C 319.732 174.110,319.800 174.161,319.896 173.923 C 320.093 173.434,332.000 173.359,332.000 173.847 C 332.000 174.016,332.485 173.641,333.077 173.014 C 334.714 171.277,334.655 169.178,332.923 167.575 C 332.246 166.949,331.692 166.585,331.692 166.767 C 331.692 167.163,320.396 167.172,320.248 166.776 C 320.196 166.636,319.982 166.682,319.772 166.876 M337.846 171.672 C 337.846 173.665,334.794 177.470,333.473 177.124 C 333.170 177.045,332.923 177.106,332.923 177.260 C 332.923 177.413,332.646 177.538,332.308 177.538 C 331.969 177.538,331.692 177.400,331.692 177.231 C 331.692 176.789,330.854 176.851,330.641 177.308 C 330.497 177.615,330.426 177.615,330.282 177.308 C 329.633 175.916,329.540 178.370,329.613 195.000 L 329.692 213.077 331.692 213.088 C 334.659 213.103,337.300 215.036,337.709 217.491 C 337.812 218.110,337.944 218.754,338.001 218.923 C 338.058 219.092,338.116 208.327,338.130 195.000 C 338.143 181.673,338.085 170.769,338.000 170.769 C 337.915 170.769,337.846 171.176,337.846 171.672 M291.385 181.439 C 291.552 183.506,291.729 183.862,292.448 183.586 C 292.804 183.450,292.923 182.937,292.923 181.548 C 292.923 179.841,293.265 179.144,293.643 180.077 C 293.763 180.371,293.871 180.359,294.104 180.025 C 294.340 179.685,294.637 179.655,295.435 179.890 C 296.555 180.220,296.579 180.339,295.965 182.555 C 295.218 185.254,296.496 185.282,297.518 182.590 C 298.038 181.220,299.386 180.283,299.158 181.450 C 299.117 181.656,299.265 181.755,299.486 181.670 C 299.707 181.585,300.270 181.816,300.736 182.183 L 301.584 182.850 300.485 183.976 C 299.337 185.152,299.013 186.462,299.870 186.462 C 300.137 186.462,300.898 185.873,301.561 185.154 L 302.767 183.846 304.048 185.195 L 305.329 186.544 303.751 187.503 C 302.255 188.412,301.761 189.259,302.471 189.698 C 302.645 189.806,303.416 189.526,304.184 189.076 C 305.901 188.069,306.258 188.189,306.867 189.975 C 307.321 191.307,307.315 191.400,306.771 191.692 C 306.027 192.090,305.139 192.090,305.385 191.692 C 305.489 191.523,305.443 191.385,305.282 191.385 C 305.121 191.385,304.909 191.592,304.812 191.846 C 304.714 192.100,304.431 192.308,304.182 192.308 C 303.537 192.308,303.270 192.876,303.682 193.372 C 303.943 193.686,304.283 193.722,305.014 193.512 C 307.370 192.837,307.692 193.025,307.692 195.077 C 307.692 197.121,307.653 197.149,305.473 196.643 C 303.971 196.294,302.874 196.954,303.783 197.659 C 304.087 197.895,304.949 198.180,305.699 198.293 C 307.416 198.550,307.480 198.670,306.823 200.399 C 306.096 202.314,306.084 202.319,304.536 201.412 C 302.914 200.461,302.154 200.394,302.154 201.202 C 302.154 201.571,302.666 202.088,303.538 202.599 C 305.193 203.569,305.220 203.792,303.878 205.378 L 302.843 206.602 301.478 205.094 C 300.643 204.173,299.971 203.674,299.749 203.811 C 299.145 204.184,299.334 204.938,300.308 206.047 C 301.513 207.420,301.475 207.687,299.931 208.674 C 298.407 209.648,298.083 209.496,297.504 207.534 C 297.091 206.136,296.449 205.582,295.889 206.142 C 295.673 206.357,295.736 206.966,296.088 208.066 C 296.371 208.951,296.501 209.773,296.378 209.892 C 295.979 210.280,294.351 210.582,294.570 210.227 C 294.695 210.026,294.539 209.964,294.158 210.064 C 293.821 210.152,293.632 210.364,293.739 210.536 C 293.845 210.709,293.740 210.786,293.504 210.708 C 293.215 210.612,293.047 209.948,292.985 208.648 C 292.850 205.834,291.624 205.908,291.385 208.745 C 291.263 210.187,290.468 211.750,290.460 210.564 C 290.459 210.423,289.895 210.286,289.207 210.260 C 287.584 210.199,287.522 210.105,288.115 208.622 C 288.731 207.084,288.765 205.846,288.192 205.846 C 287.622 205.846,287.232 206.383,286.778 207.791 C 286.280 209.338,285.825 209.457,284.155 208.478 L 282.763 207.663 283.854 206.234 C 285.729 203.779,284.635 202.813,282.659 205.179 L 281.545 206.512 280.465 205.367 C 279.054 203.871,279.094 203.616,280.923 202.491 C 282.910 201.268,282.945 200.927,281.128 200.492 C 280.608 200.367,280.328 200.400,280.435 200.573 C 280.581 200.809,278.760 202.154,278.294 202.154 C 278.156 202.154,277.450 200.559,277.098 199.452 C 276.920 198.890,277.070 198.755,278.215 198.444 C 279.871 197.995,281.231 197.500,281.231 197.347 C 281.231 196.905,279.897 195.976,279.706 196.285 C 279.585 196.482,278.874 196.671,278.127 196.706 L 276.769 196.769 276.769 195.077 L 276.769 193.385 278.602 193.470 C 280.884 193.576,281.450 193.404,280.920 192.766 C 280.711 192.514,280.255 192.308,279.907 192.308 C 277.593 192.308,276.859 191.331,277.686 189.352 C 278.192 188.141,278.582 188.130,280.572 189.272 C 281.375 189.733,281.703 189.785,282.038 189.507 C 282.601 189.039,282.148 188.474,280.559 187.664 C 279.180 186.960,279.102 186.429,280.170 185.029 C 281.182 183.702,281.606 183.733,282.960 185.231 C 284.748 187.211,285.686 186.436,284.031 184.346 C 282.795 182.786,282.828 182.407,284.273 181.595 C 285.938 180.659,286.067 180.709,286.910 182.615 C 287.587 184.146,288.179 184.642,288.703 184.118 C 288.807 184.013,288.623 183.217,288.293 182.348 C 287.475 180.196,287.507 180.078,289.000 179.740 C 291.119 179.260,291.213 179.327,291.385 181.439 M67.077 199.229 L 67.077 218.151 79.462 224.348 C 86.273 227.756,94.714 231.979,98.218 233.734 C 101.723 235.488,104.666 236.923,104.757 236.923 C 104.848 236.923,104.923 228.411,104.923 218.007 L 104.923 199.091 95.854 194.580 C 90.621 191.978,86.867 189.938,86.978 189.757 C 87.089 189.578,87.020 189.537,86.817 189.663 C 86.622 189.783,86.082 189.672,85.616 189.416 C 84.150 188.608,67.395 180.308,67.232 180.308 C 67.147 180.308,67.077 188.822,67.077 199.229 M142.786 182.027 C 141.019 182.954,139.385 183.640,139.155 183.552 C 138.925 183.464,138.808 183.506,138.895 183.647 C 139.166 184.086,116.228 195.448,115.532 195.219 C 115.071 195.068,115.028 195.094,115.357 195.327 C 115.686 195.561,114.930 196.057,112.203 197.393 L 108.615 199.151 108.615 218.037 C 108.615 228.424,108.719 236.919,108.846 236.914 C 108.973 236.910,117.454 232.710,127.692 227.582 L 146.308 218.259 146.387 199.283 C 146.431 188.847,146.361 180.316,146.233 180.325 C 146.105 180.335,144.554 181.101,142.786 182.027 M291.230 188.309 C 291.150 188.439,290.620 188.633,290.053 188.739 C 284.231 189.831,284.033 199.317,289.785 201.586 C 296.406 204.196,302.085 195.109,296.872 190.246 C 295.439 188.909,291.661 187.612,291.230 188.309 M250.439 190.349 C 251.020 190.465,251.941 191.088,252.708 191.883 L 254.000 193.221 257.812 193.226 C 262.039 193.231,262.433 193.403,262.452 195.246 C 262.468 196.787,262.091 196.923,257.821 196.923 L 253.919 196.923 253.131 197.957 C 251.063 200.668,247.197 200.614,245.308 197.846 C 244.550 196.736,244.388 195.849,245.000 196.159 C 245.212 196.266,245.142 196.155,244.846 195.912 C 244.249 195.423,244.128 194.769,244.634 194.769 C 244.813 194.769,244.869 194.623,244.758 194.444 C 244.192 193.528,245.742 191.376,247.538 190.585 C 248.600 190.117,249.081 190.078,250.439 190.349 M325.846 216.623 C 318.107 216.822,317.846 216.933,317.846 220.035 C 317.846 222.504,318.903 223.242,322.606 223.356 C 323.954 223.397,325.166 223.498,325.298 223.580 C 325.430 223.662,325.538 223.582,325.538 223.403 C 325.538 223.224,325.746 223.077,326.000 223.077 C 326.254 223.077,326.464 223.250,326.466 223.462 C 326.469 223.719,326.571 223.693,326.774 223.385 C 326.964 223.095,327.163 223.038,327.308 223.231 C 327.573 223.584,331.692 223.657,331.692 223.308 C 331.692 223.181,331.906 223.077,332.168 223.077 C 334.235 223.077,334.944 218.961,333.154 217.357 L 332.154 216.462 325.846 216.623 M99.399 254.338 C 95.599 256.267,92.374 257.846,92.232 257.846 C 92.090 257.846,91.807 257.985,91.602 258.154 C 90.677 258.921,80.140 264.001,79.769 263.859 C 79.540 263.771,79.421 263.810,79.504 263.944 C 79.587 264.079,77.239 265.415,74.286 266.912 C 71.333 268.410,68.953 269.669,68.997 269.711 C 69.041 269.752,72.331 271.396,76.308 273.363 C 83.773 277.056,84.086 277.215,87.308 278.968 C 88.365 279.543,89.231 279.925,89.231 279.816 C 89.231 279.706,89.405 279.762,89.618 279.938 C 89.831 280.115,93.797 282.154,98.431 284.469 C 104.397 287.449,106.732 288.758,106.429 288.950 C 106.086 289.167,106.108 289.222,106.538 289.226 C 106.835 289.229,107.082 289.058,107.088 288.846 C 107.105 288.286,136.433 273.697,136.928 274.003 C 137.184 274.161,137.251 274.127,137.114 273.907 C 136.981 273.691,138.322 272.868,140.759 271.673 C 142.880 270.633,144.615 269.730,144.615 269.667 C 144.615 269.604,142.433 268.463,139.765 267.132 C 137.098 265.801,134.640 264.562,134.304 264.380 C 131.341 262.771,106.919 250.776,106.653 250.799 C 106.463 250.816,103.199 252.408,99.399 254.338 M235.919 259.918 C 236.032 267.921,235.735 267.734,248.212 267.678 L 256.999 267.638 258.031 266.699 C 258.598 266.183,259.145 265.501,259.246 265.183 C 259.347 264.866,259.523 264.665,259.638 264.736 C 259.809 264.843,259.613 255.094,259.439 254.846 C 259.409 254.804,254.088 254.769,247.615 254.769 L 235.846 254.769 235.919 259.918 M299.387 259.769 C 299.390 267.814,299.096 267.605,310.533 267.673 C 323.006 267.747,323.022 267.737,323.088 260.308 C 323.110 257.854,323.032 255.604,322.915 255.308 C 322.719 254.808,321.862 254.769,311.044 254.769 L 299.385 254.769 299.387 259.769 M323.473 258.923 C 323.475 259.769,323.535 260.079,323.605 259.611 C 323.676 259.143,323.674 258.451,323.601 258.073 C 323.528 257.694,323.470 258.077,323.473 258.923 M67.088 291.319 L 67.100 310.308 70.487 311.931 C 72.349 312.823,73.791 313.687,73.690 313.850 C 73.589 314.013,73.709 314.069,73.957 313.974 C 74.206 313.878,81.155 317.189,89.469 321.362 C 97.752 325.521,104.618 328.923,104.726 328.923 C 104.834 328.923,104.923 320.420,104.923 310.026 L 104.923 291.129 99.154 288.263 C 95.981 286.687,93.050 285.048,92.642 284.622 C 92.234 284.195,91.999 284.019,92.122 284.231 C 92.245 284.443,92.187 284.615,91.993 284.615 C 91.360 284.615,81.262 279.275,81.418 279.023 C 81.502 278.887,81.378 278.850,81.143 278.940 C 80.908 279.030,78.236 277.834,75.204 276.281 C 72.173 274.729,69.104 273.204,68.385 272.894 L 67.077 272.330 67.088 291.319 M135.615 277.691 C 129.735 280.640,124.921 282.954,124.918 282.834 C 124.916 282.714,124.812 282.775,124.688 282.971 C 124.455 283.336,118.635 286.212,118.272 286.141 C 118.160 286.119,117.984 286.228,117.881 286.384 C 117.573 286.845,109.524 290.797,109.244 290.624 C 108.676 290.273,108.615 292.159,108.615 310.179 C 108.615 331.017,108.453 329.615,110.698 328.200 C 113.180 326.636,139.220 313.835,139.613 313.986 C 139.844 314.075,139.956 314.023,139.862 313.872 C 139.769 313.721,141.164 312.857,142.962 311.952 C 144.760 311.048,146.285 310.169,146.349 310.000 C 146.414 309.831,146.431 301.286,146.387 291.011 L 146.308 272.330 135.615 277.691 M277.231 276.231 C 276.638 276.527,276.017 277.081,275.850 277.462 C 275.683 277.842,275.475 278.154,275.389 278.154 C 275.302 278.153,275.271 280.876,275.321 284.204 C 275.390 288.893,275.321 290.312,275.013 290.508 C 274.794 290.646,249.782 290.762,219.431 290.765 L 164.246 290.769 163.200 291.815 C 161.469 293.547,161.846 296.130,163.998 297.276 C 165.037 297.830,167.003 297.847,222.537 297.771 C 254.141 297.728,280.000 297.796,280.000 297.923 C 280.000 298.050,280.147 298.154,280.326 298.154 C 280.505 298.154,280.572 298.025,280.475 297.867 C 280.377 297.710,280.549 297.398,280.856 297.175 C 282.428 296.035,282.462 295.816,282.462 286.839 C 282.462 277.486,282.389 277.089,280.506 276.195 C 279.160 275.557,278.568 275.563,277.231 276.231 " stroke="none" fill="#131b33" fill-rule="evenodd"></path><path id="path1" d="M278.769 15.692 C 278.769 15.862,278.977 16.000,279.231 16.000 C 279.485 16.000,279.692 15.862,279.692 15.692 C 279.692 15.523,279.485 15.385,279.231 15.385 C 278.977 15.385,278.769 15.523,278.769 15.692 M280.686 15.750 C 280.876 16.321,281.538 16.415,281.538 15.872 C 281.538 15.604,281.319 15.385,281.051 15.385 C 280.783 15.385,280.619 15.549,280.686 15.750 M130.462 16.308 C 130.462 16.477,130.669 16.615,130.923 16.615 C 131.177 16.615,131.385 16.477,131.385 16.308 C 131.385 16.138,131.177 16.000,130.923 16.000 C 130.669 16.000,130.462 16.138,130.462 16.308 M282.658 25.137 C 282.312 25.483,282.447 25.846,282.923 25.846 C 283.177 25.846,283.385 25.716,283.385 25.557 C 283.385 25.169,282.904 24.891,282.658 25.137 M266.462 27.846 C 266.462 28.100,266.600 28.308,266.769 28.308 C 266.938 28.308,267.077 28.100,267.077 27.846 C 267.077 27.592,266.938 27.385,266.769 27.385 C 266.600 27.385,266.462 27.592,266.462 27.846 M126.933 31.709 C 127.036 31.875,127.239 31.936,127.385 31.846 C 127.530 31.756,127.738 31.825,127.846 32.000 C 127.954 32.175,128.171 32.238,128.329 32.141 C 128.871 31.805,128.612 31.538,127.681 31.473 C 127.136 31.435,126.825 31.533,126.933 31.709 M130.154 31.846 C 130.154 32.103,130.427 32.308,130.769 32.308 C 131.111 32.308,131.385 32.103,131.385 31.846 C 131.385 31.590,131.111 31.385,130.769 31.385 C 130.427 31.385,130.154 31.590,130.154 31.846 M270.769 34.641 C 270.769 35.184,271.432 35.090,271.622 34.519 C 271.689 34.318,271.524 34.154,271.256 34.154 C 270.988 34.154,270.769 34.373,270.769 34.641 M125.538 44.923 C 125.538 45.092,125.746 45.231,126.000 45.231 C 126.254 45.231,126.462 45.092,126.462 44.923 C 126.462 44.754,126.254 44.615,126.000 44.615 C 125.746 44.615,125.538 44.754,125.538 44.923 M258.462 51.385 C 258.462 51.554,258.669 51.692,258.923 51.692 C 259.177 51.692,259.385 51.554,259.385 51.385 C 259.385 51.215,259.177 51.077,258.923 51.077 C 258.669 51.077,258.462 51.215,258.462 51.385 M107.692 66.725 C 107.692 67.042,108.624 67.478,108.840 67.263 C 108.915 67.188,108.687 66.972,108.334 66.783 C 107.981 66.594,107.692 66.568,107.692 66.725 M109.538 67.649 C 109.538 67.965,110.470 68.401,110.686 68.186 C 110.761 68.111,110.533 67.895,110.180 67.706 C 109.827 67.517,109.538 67.491,109.538 67.649 M100.154 69.377 C 99.477 69.794,99.022 70.139,99.143 70.144 C 99.572 70.163,101.538 69.113,101.538 68.866 C 101.538 68.523,101.542 68.522,100.154 69.377 M85.231 76.923 C 84.638 77.247,84.265 77.518,84.400 77.526 C 84.726 77.543,86.462 76.640,86.462 76.454 C 86.462 76.252,86.444 76.259,85.231 76.923 M81.670 78.609 C 81.344 78.855,81.215 79.060,81.385 79.062 C 81.842 79.070,82.623 78.521,82.430 78.328 C 82.338 78.236,81.996 78.362,81.670 78.609 M140.000 82.693 C 140.000 82.823,140.277 83.102,140.615 83.313 C 140.954 83.525,141.231 83.591,141.231 83.461 C 141.231 83.331,140.954 83.052,140.615 82.841 C 140.277 82.629,140.000 82.563,140.000 82.693 M71.592 83.599 C 70.516 84.164,70.696 84.468,71.806 83.962 C 72.391 83.696,73.098 82.872,72.538 83.110 C 72.496 83.128,72.070 83.348,71.592 83.599 M69.418 84.768 C 69.098 85.010,68.682 85.265,68.495 85.335 C 68.256 85.424,68.269 85.583,68.538 85.869 C 68.856 86.205,68.923 86.189,68.923 85.775 C 68.923 85.498,69.200 85.184,69.538 85.077 C 69.877 84.969,70.154 84.752,70.154 84.595 C 70.154 84.229,70.119 84.237,69.418 84.768 M143.385 84.572 C 143.385 84.888,144.317 85.324,144.532 85.109 C 144.607 85.034,144.379 84.818,144.026 84.629 C 143.673 84.440,143.385 84.414,143.385 84.572 M69.538 86.297 C 69.538 86.382,70.231 86.802,71.077 87.231 C 71.923 87.660,72.615 87.941,72.615 87.857 C 72.615 87.772,71.923 87.352,71.077 86.923 C 70.231 86.494,69.538 86.213,69.538 86.297 M143.213 86.600 C 142.636 87.031,142.640 87.040,143.312 86.871 C 143.696 86.774,144.085 86.573,144.177 86.424 C 144.437 86.003,143.874 86.106,143.213 86.600 M66.974 87.897 C 66.862 88.010,66.800 92.822,66.838 98.590 L 66.907 109.077 67.069 98.462 C 67.248 86.727,67.256 87.616,66.974 87.897 M146.462 106.948 C 146.462 124.956,146.426 126.268,145.923 126.659 C 145.423 127.048,145.429 127.063,146.000 126.869 C 146.338 126.754,146.717 126.512,146.841 126.330 C 147.200 125.806,147.129 88.069,146.769 87.846 C 146.565 87.720,146.462 94.165,146.462 106.948 M68.136 88.477 C 68.797 88.971,69.360 89.074,69.100 88.653 C 69.008 88.504,68.619 88.303,68.236 88.206 C 67.563 88.037,67.560 88.046,68.136 88.477 M73.231 88.155 C 73.231 88.329,76.192 89.847,76.528 89.845 C 76.829 89.844,75.213 88.880,74.077 88.383 C 73.612 88.180,73.231 88.077,73.231 88.155 M137.674 89.375 C 137.346 89.623,137.215 89.827,137.385 89.827 C 137.554 89.827,137.961 89.623,138.290 89.375 C 138.618 89.126,138.748 88.923,138.579 88.923 C 138.410 88.923,138.003 89.126,137.674 89.375 M78.736 91.095 C 79.141 91.432,79.556 91.624,79.658 91.521 C 79.877 91.302,78.803 90.457,78.326 90.472 C 78.147 90.477,78.331 90.758,78.736 91.095 M132.480 91.856 C 131.720 92.431,132.220 92.424,133.231 91.846 C 133.677 91.591,133.806 91.406,133.538 91.405 C 133.285 91.405,132.808 91.607,132.480 91.856 M76.641 92.731 C 77.111 93.157,79.385 94.113,79.385 93.886 C 79.385 93.732,78.828 93.383,78.148 93.110 C 76.959 92.635,76.371 92.487,76.641 92.731 M83.692 93.353 C 83.692 93.578,86.546 95.095,86.693 94.948 C 86.768 94.873,86.124 94.453,85.261 94.016 C 84.398 93.578,83.692 93.280,83.692 93.353 M125.367 95.529 C 125.038 95.777,124.916 95.985,125.095 95.990 C 125.274 95.996,125.690 95.797,126.018 95.548 C 126.347 95.300,126.469 95.092,126.290 95.087 C 126.110 95.081,125.695 95.280,125.367 95.529 M87.692 95.533 C 87.692 95.615,88.662 96.143,89.846 96.707 C 91.031 97.272,92.000 97.638,92.000 97.521 C 92.000 97.404,91.094 96.876,89.986 96.347 C 87.916 95.358,87.692 95.278,87.692 95.533 M122.846 96.695 C 122.127 97.056,121.538 97.444,121.538 97.557 C 121.538 97.746,124.211 96.507,124.563 96.155 C 124.902 95.816,124.085 96.073,122.846 96.695 M128.357 96.665 C 127.623 97.002,127.090 97.346,127.173 97.430 C 127.338 97.594,129.846 96.391,129.846 96.148 C 129.846 95.968,129.967 95.926,128.357 96.665 M119.308 98.482 C 118.673 98.818,118.154 99.160,118.154 99.244 C 118.154 99.328,118.708 99.115,119.385 98.769 C 120.062 98.424,120.615 98.075,120.615 97.994 C 120.615 97.792,120.613 97.793,119.308 98.482 M116.484 99.853 C 115.587 100.531,116.026 100.610,117.077 99.960 C 117.585 99.645,117.792 99.392,117.538 99.396 C 117.285 99.401,116.810 99.606,116.484 99.853 M97.982 100.779 C 98.310 101.027,98.795 101.226,99.059 101.220 C 99.366 101.213,99.262 101.051,98.769 100.769 C 97.762 100.194,97.217 100.200,97.982 100.779 M114.077 101.097 C 112.335 102.004,112.140 102.365,113.769 101.668 C 114.404 101.397,115.096 101.103,115.308 101.016 C 115.519 100.929,115.692 100.734,115.692 100.582 C 115.692 100.235,115.795 100.203,114.077 101.097 M94.462 101.518 C 94.462 101.732,95.811 102.462,96.206 102.462 C 96.303 102.462,96.223 102.269,96.028 102.033 C 95.626 101.550,94.462 101.166,94.462 101.518 M101.538 102.300 C 101.538 102.380,101.988 102.665,102.538 102.934 L 103.538 103.422 102.769 102.795 C 102.029 102.191,101.538 101.994,101.538 102.300 M98.111 103.369 C 98.511 103.716,98.961 104.000,99.111 104.000 C 99.649 104.000,99.369 103.700,98.385 103.223 L 97.385 102.739 98.111 103.369 M103.692 103.329 C 103.692 103.461,104.350 103.886,105.154 104.273 C 106.808 105.069,106.599 104.697,104.846 103.727 C 104.212 103.375,103.692 103.196,103.692 103.329 M108.846 103.713 C 108.212 104.048,107.692 104.391,107.692 104.475 C 107.692 104.612,110.123 103.476,110.436 103.193 C 110.790 102.873,109.866 103.175,108.846 103.713 M164.923 104.231 C 164.923 104.489,206.140 104.424,206.399 104.165 C 206.490 104.074,197.195 104.000,185.744 104.000 C 174.292 104.000,164.923 104.104,164.923 104.231 M219.692 104.227 C 254.167 104.438,279.692 104.440,279.692 104.231 C 279.692 104.104,263.250 104.033,243.154 104.074 C 223.058 104.114,212.500 104.183,219.692 104.227 M281.900 106.020 C 282.586 107.182,282.619 107.529,282.714 114.615 C 282.836 123.685,282.744 124.430,281.334 125.760 C 280.141 126.885,280.382 127.165,281.607 126.077 C 283.031 124.812,283.077 124.488,283.077 115.697 C 283.077 107.004,282.984 106.303,281.689 105.228 C 281.349 104.946,281.418 105.204,281.900 106.020 M103.385 106.008 C 103.385 106.080,103.800 106.353,104.308 106.615 L 105.231 107.093 105.231 125.985 C 105.231 143.724,105.198 144.886,104.692 145.007 C 104.185 145.128,104.186 145.149,104.706 145.375 C 105.009 145.507,105.355 145.517,105.475 145.397 C 105.799 145.072,105.843 107.646,105.520 107.042 C 105.277 106.588,103.385 105.672,103.385 106.008 M161.846 106.462 C 161.650 106.829,161.558 107.199,161.642 107.283 C 161.727 107.368,161.957 107.137,162.154 106.769 C 162.350 106.402,162.442 106.032,162.358 105.947 C 162.273 105.863,162.043 106.094,161.846 106.462 M108.692 106.529 C 108.312 106.713,108.000 106.984,108.000 107.131 C 108.000 107.343,108.940 106.886,109.821 106.247 C 110.128 106.024,109.323 106.225,108.692 106.529 M161.851 109.705 C 162.162 110.524,163.627 111.976,164.154 111.988 C 164.323 111.991,163.942 111.503,163.308 110.901 C 162.673 110.300,162.154 109.608,162.154 109.365 C 162.154 109.122,162.019 108.923,161.854 108.923 C 161.660 108.923,161.659 109.199,161.851 109.705 M108.142 123.692 C 108.142 131.731,108.182 135.019,108.230 131.000 C 108.279 126.981,108.279 120.404,108.230 116.385 C 108.182 112.365,108.142 115.654,108.142 123.692 M66.904 118.308 C 66.904 122.877,66.947 124.789,66.999 122.557 C 67.052 120.325,67.052 116.586,66.999 114.249 C 66.947 111.912,66.904 113.738,66.904 118.308 M191.231 112.000 C 191.122 112.175,191.387 112.308,191.846 112.308 C 192.305 112.308,192.570 112.175,192.462 112.000 C 192.357 111.831,192.080 111.692,191.846 111.692 C 191.612 111.692,191.335 111.831,191.231 112.000 M274.769 117.828 C 274.769 121.381,274.889 123.730,275.077 123.846 C 275.278 123.970,275.385 121.952,275.385 118.018 C 275.385 114.211,275.272 112.000,275.077 112.000 C 274.883 112.000,274.769 114.148,274.769 117.828 M275.080 124.562 C 275.076 125.095,276.757 126.772,277.284 126.760 C 277.552 126.754,277.514 126.646,277.172 126.447 C 276.886 126.280,276.299 125.696,275.868 125.149 C 275.437 124.602,275.082 124.338,275.080 124.562 M141.174 128.934 C 140.550 129.263,139.948 129.681,139.837 129.862 C 139.725 130.043,140.339 129.822,141.201 129.371 C 142.678 128.599,143.071 128.290,142.538 128.321 C 142.412 128.329,141.797 128.604,141.174 128.934 M72.615 129.377 C 72.615 129.606,74.386 130.463,74.831 130.449 C 75.051 130.442,74.746 130.170,74.154 129.846 C 73.062 129.249,72.615 129.112,72.615 129.377 M137.739 130.651 C 136.919 131.078,136.314 131.493,136.394 131.574 C 136.598 131.777,139.385 130.397,139.385 130.093 C 139.385 129.778,139.479 129.746,137.739 130.651 M76.349 131.208 C 76.602 131.477,80.923 133.550,80.923 133.402 C 80.923 133.210,77.736 131.484,76.923 131.236 C 76.500 131.106,76.242 131.094,76.349 131.208 M134.154 132.462 C 133.392 132.869,132.908 133.203,133.077 133.203 C 133.246 133.203,134.008 132.869,134.769 132.462 C 135.531 132.054,136.015 131.720,135.846 131.720 C 135.677 131.720,134.915 132.054,134.154 132.462 M128.923 135.082 C 127.992 135.577,127.508 135.940,127.846 135.889 C 128.698 135.762,130.769 134.710,130.769 134.405 C 130.769 134.082,130.885 134.040,128.923 135.082 M83.103 134.561 C 83.795 135.096,86.154 136.278,86.154 136.089 C 86.154 135.826,83.722 134.459,83.256 134.461 C 83.101 134.461,83.032 134.506,83.103 134.561 M123.279 137.882 C 122.628 138.225,122.151 138.561,122.219 138.629 C 122.353 138.763,124.923 137.550,124.923 137.352 C 124.923 137.113,124.443 137.268,123.279 137.882 M223.385 137.426 C 224.249 137.658,311.692 137.693,311.692 137.462 C 311.692 137.335,291.719 137.247,267.308 137.266 C 242.896 137.286,223.131 137.358,223.385 137.426 M317.943 137.461 C 321.127 137.511,326.250 137.511,329.328 137.461 C 332.405 137.411,329.800 137.370,323.538 137.370 C 317.277 137.370,314.759 137.411,317.943 137.461 M90.084 138.155 C 90.638 138.493,91.262 138.763,91.469 138.756 C 91.893 138.742,89.865 137.571,89.385 137.553 C 89.215 137.546,89.530 137.817,90.084 138.155 M337.562 138.948 L 338.308 139.741 338.467 154.409 L 338.627 169.077 338.697 154.615 C 338.771 139.241,338.671 138.154,337.182 138.154 C 336.980 138.154,337.151 138.511,337.562 138.948 M120.787 139.241 C 120.459 139.489,120.329 139.692,120.498 139.692 C 120.667 139.692,121.074 139.489,121.403 139.241 C 121.731 138.992,121.862 138.789,121.692 138.789 C 121.523 138.789,121.116 138.992,120.787 139.241 M92.333 139.193 C 92.803 139.618,95.077 140.575,95.077 140.347 C 95.077 140.193,94.520 139.844,93.840 139.572 C 92.651 139.096,92.063 138.948,92.333 139.193 M219.271 139.769 C 218.919 141.083,219.052 250.070,219.407 250.848 C 219.766 251.637,220.923 252.518,220.923 252.003 C 220.923 251.832,220.788 251.692,220.623 251.692 C 219.351 251.692,219.374 252.828,219.458 194.470 C 219.502 164.004,219.520 139.077,219.497 139.077 C 219.475 139.077,219.373 139.388,219.271 139.769 M118.231 140.450 C 117.342 140.864,116.615 141.273,116.615 141.360 C 116.615 141.568,119.456 140.349,119.831 139.980 C 120.270 139.547,120.001 139.626,118.231 140.450 M97.538 141.682 C 97.538 141.767,98.231 142.187,99.077 142.615 C 99.923 143.044,100.615 143.326,100.615 143.241 C 100.615 143.157,99.923 142.736,99.077 142.308 C 98.231 141.879,97.538 141.597,97.538 141.682 M111.701 143.680 C 110.949 144.156,111.482 144.289,112.308 143.832 C 112.754 143.585,112.883 143.404,112.615 143.400 C 112.362 143.397,111.950 143.523,111.701 143.680 M102.462 144.265 C 102.462 144.403,102.808 144.674,103.231 144.867 C 103.654 145.060,104.000 145.104,104.000 144.966 C 104.000 144.827,103.654 144.556,103.231 144.364 C 102.808 144.171,102.462 144.126,102.462 144.265 M108.103 144.612 C 108.138 145.132,108.352 145.398,108.769 145.441 C 109.212 145.486,109.239 145.460,108.865 145.348 C 108.579 145.263,108.280 144.890,108.199 144.520 C 108.077 143.955,108.061 143.970,108.103 144.612 M110.285 144.455 C 109.959 144.702,109.831 144.906,110.000 144.909 C 110.457 144.916,111.239 144.367,111.046 144.174 C 110.953 144.082,110.611 144.208,110.285 144.455 M228.817 144.846 C 228.738 144.973,251.230 145.040,278.799 144.995 L 328.923 144.913 328.923 153.933 C 328.923 163.979,328.861 163.692,331.036 163.692 C 332.748 163.692,332.572 163.435,330.748 163.271 L 329.385 163.148 329.303 154.266 C 329.258 149.381,329.158 145.212,329.082 145.000 C 328.925 144.566,229.084 144.413,228.817 144.846 M234.663 151.000 C 234.535 151.207,277.614 151.205,309.692 150.996 C 316.462 150.952,302.381 150.883,278.403 150.843 C 254.424 150.802,234.741 150.873,234.663 151.000 M322.505 151.804 C 322.722 152.289,322.956 152.517,323.024 152.312 C 323.092 152.107,322.915 151.711,322.629 151.431 C 322.143 150.956,322.135 150.979,322.505 151.804 M109.846 159.834 C 109.846 159.918,110.400 160.270,111.077 160.615 C 111.754 160.961,112.308 161.174,112.308 161.089 C 112.308 161.005,111.754 160.653,111.077 160.308 C 110.400 159.962,109.846 159.749,109.846 159.834 M142.966 160.769 C 143.063 161.023,143.266 161.231,143.418 161.231 C 143.569 161.231,143.692 161.023,143.692 160.769 C 143.692 160.515,143.489 160.308,143.240 160.308 C 142.965 160.308,142.858 160.488,142.966 160.769 M148.615 162.462 C 148.615 162.631,148.823 162.769,149.077 162.769 C 149.331 162.769,149.538 162.631,149.538 162.462 C 149.538 162.292,149.331 162.154,149.077 162.154 C 148.823 162.154,148.615 162.292,148.615 162.462 M96.844 163.050 C 95.450 163.944,95.451 164.120,96.846 163.416 C 97.565 163.053,98.154 162.690,98.154 162.609 C 98.154 162.346,97.710 162.495,96.844 163.050 M319.953 163.420 C 319.693 163.585,320.141 163.685,321.154 163.688 C 322.042 163.690,322.769 163.586,322.769 163.456 C 322.769 163.128,320.460 163.099,319.953 163.420 M134.154 163.821 C 134.154 164.060,133.981 164.318,133.769 164.394 C 133.558 164.469,133.482 164.636,133.601 164.764 C 133.850 165.032,134.769 164.206,134.769 163.714 C 134.769 163.533,134.631 163.385,134.462 163.385 C 134.292 163.385,134.154 163.581,134.154 163.821 M141.436 163.590 C 141.046 163.980,141.233 164.308,141.846 164.308 C 142.188 164.308,142.462 164.103,142.462 163.846 C 142.462 163.378,141.811 163.215,141.436 163.590 M92.787 165.087 C 92.459 165.335,92.329 165.538,92.498 165.538 C 92.667 165.538,93.074 165.335,93.403 165.087 C 93.731 164.838,93.862 164.635,93.692 164.635 C 93.523 164.635,93.116 164.838,92.787 165.087 M336.285 166.070 C 336.805 166.701,337.231 167.454,337.231 167.744 C 337.231 168.034,337.384 168.366,337.571 168.482 C 338.088 168.801,337.586 167.443,336.684 166.081 C 336.263 165.444,335.788 164.923,335.629 164.923 C 335.470 164.923,335.765 165.439,336.285 166.070 M315.185 166.233 C 314.383 167.444,313.930 168.790,314.429 168.482 C 314.616 168.366,314.769 168.013,314.769 167.698 C 314.769 167.382,315.128 166.698,315.566 166.177 C 316.004 165.657,316.246 165.232,316.104 165.233 C 315.962 165.234,315.549 165.684,315.185 166.233 M90.846 165.914 C 90.465 166.098,90.154 166.369,90.154 166.516 C 90.154 166.664,90.569 166.570,91.077 166.308 C 92.468 165.588,92.260 165.232,90.846 165.914 M140.615 165.714 C 140.615 166.039,141.463 166.742,141.641 166.564 C 141.738 166.467,141.626 166.197,141.392 165.963 C 140.949 165.520,140.615 165.413,140.615 165.714 M123.692 166.755 C 123.692 167.058,124.884 167.526,125.101 167.309 C 125.174 167.236,124.887 167.019,124.463 166.826 C 124.039 166.633,123.692 166.601,123.692 166.755 M142.462 167.538 C 142.462 167.792,142.600 168.000,142.769 168.000 C 142.938 168.000,143.077 167.792,143.077 167.538 C 143.077 167.285,142.938 167.077,142.769 167.077 C 142.600 167.077,142.462 167.285,142.462 167.538 M125.538 167.676 C 125.538 167.787,126.162 168.180,126.923 168.550 C 127.685 168.920,128.301 169.121,128.294 168.996 C 128.276 168.712,125.538 167.401,125.538 167.676 M333.669 167.692 C 333.766 167.946,333.931 168.396,334.036 168.692 C 334.140 168.988,334.353 169.231,334.508 169.231 C 334.787 169.231,334.519 168.620,333.833 167.692 C 333.530 167.282,333.511 167.282,333.669 167.692 M317.577 168.500 C 317.374 168.946,317.278 169.381,317.364 169.467 C 317.451 169.553,317.667 169.239,317.846 168.769 C 318.268 167.659,318.057 167.447,317.577 168.500 M130.124 170.093 C 131.295 170.921,134.462 172.299,134.462 171.981 C 134.462 171.822,134.271 171.692,134.038 171.692 C 133.805 171.692,133.443 171.486,133.234 171.234 C 133.024 170.982,132.757 170.835,132.640 170.908 C 132.523 170.980,131.832 170.702,131.105 170.289 C 129.594 169.431,129.027 169.318,130.124 170.093 M338.608 194.000 C 338.608 207.538,338.646 213.032,338.692 206.208 C 338.738 199.384,338.738 188.307,338.692 181.592 C 338.646 174.878,338.608 180.462,338.608 194.000 M133.538 170.308 C 133.538 170.590,133.687 170.771,133.869 170.710 C 134.051 170.650,134.200 170.468,134.200 170.308 C 134.200 170.147,134.051 169.966,133.869 169.905 C 133.687 169.844,133.538 170.026,133.538 170.308 M79.000 171.868 C 78.535 172.121,78.154 172.457,78.154 172.615 C 78.154 172.773,78.638 172.616,79.231 172.267 C 80.813 171.333,80.616 170.992,79.000 171.868 M317.752 172.335 C 318.058 172.858,318.585 173.429,318.923 173.606 C 319.383 173.845,319.324 173.698,318.692 173.023 C 318.227 172.526,317.846 171.955,317.846 171.752 C 317.846 171.550,317.700 171.385,317.521 171.385 C 317.342 171.385,317.446 171.812,317.752 172.335 M334.154 171.752 C 334.154 171.955,333.773 172.526,333.308 173.023 C 332.676 173.698,332.617 173.845,333.077 173.606 C 333.793 173.233,334.960 171.385,334.479 171.385 C 334.300 171.385,334.154 171.550,334.154 171.752 M337.378 172.462 C 337.248 172.969,336.855 173.800,336.506 174.308 C 336.076 174.931,336.032 175.101,336.368 174.832 C 337.015 174.314,337.927 172.386,337.751 171.909 C 337.676 171.705,337.508 171.954,337.378 172.462 M134.772 172.256 C 134.773 172.369,135.327 172.777,136.002 173.163 C 136.678 173.549,137.230 173.757,137.228 173.625 C 137.227 173.493,136.673 173.085,135.997 172.718 C 135.322 172.351,134.770 172.143,134.772 172.256 M74.077 174.482 C 73.442 174.818,72.923 175.160,72.923 175.244 C 72.923 175.328,73.477 175.115,74.154 174.769 C 74.831 174.424,75.385 174.075,75.385 173.994 C 75.385 173.792,75.382 173.793,74.077 174.482 M323.016 174.076 C 324.760 174.131,327.529 174.131,329.170 174.075 C 330.811 174.020,329.385 173.975,326.000 173.975 C 322.615 173.976,321.273 174.021,323.016 174.076 M70.000 176.485 C 69.323 176.889,68.631 177.274,68.462 177.341 C 68.274 177.415,68.304 177.620,68.538 177.869 C 68.856 178.206,68.923 178.194,68.923 177.801 C 68.923 177.539,69.477 177.074,70.154 176.769 C 70.831 176.464,71.385 176.097,71.385 175.953 C 71.385 175.636,71.490 175.595,70.000 176.485 M317.231 176.287 C 317.231 176.413,317.577 176.674,318.000 176.867 C 318.423 177.060,318.768 177.117,318.767 176.993 C 318.766 176.870,318.419 176.609,317.998 176.414 C 317.576 176.218,317.231 176.161,317.231 176.287 M328.923 195.059 C 328.923 204.864,329.027 212.951,329.154 213.029 C 329.281 213.108,329.385 205.085,329.385 195.201 C 329.385 185.318,329.281 177.231,329.154 177.231 C 329.027 177.231,328.923 185.253,328.923 195.059 M69.231 178.300 C 69.231 178.380,69.646 178.661,70.154 178.923 C 70.662 179.186,71.077 179.281,71.077 179.134 C 71.077 178.988,70.724 178.707,70.293 178.511 C 69.435 178.120,69.231 178.079,69.231 178.300 M142.663 178.805 C 142.013 179.148,141.546 179.494,141.625 179.574 C 141.829 179.778,144.000 178.709,144.000 178.405 C 144.000 178.087,144.058 178.069,142.663 178.805 M288.923 179.914 C 287.727 180.129,287.658 180.370,288.307 182.077 C 288.921 183.694,288.867 184.615,288.159 184.615 C 287.626 184.615,287.278 184.104,286.643 182.385 C 286.011 180.674,286.117 180.706,284.412 181.705 C 282.809 182.645,282.814 182.585,284.157 184.274 C 285.398 185.835,285.439 186.021,284.644 186.446 C 284.149 186.711,283.859 186.532,282.795 185.303 L 281.533 183.846 280.459 185.051 C 279.105 186.570,279.092 186.495,280.923 187.634 C 282.570 188.658,282.871 189.407,281.794 189.805 C 281.426 189.941,281.267 190.140,281.439 190.246 C 281.612 190.353,282.049 190.164,282.412 189.826 C 283.251 189.044,282.910 188.420,281.019 187.278 L 279.665 186.460 280.217 185.705 C 281.128 184.459,281.578 184.481,282.824 185.830 C 284.097 187.209,284.100 187.210,284.943 186.758 C 285.810 186.295,285.680 185.620,284.427 184.092 C 283.816 183.346,283.366 182.699,283.427 182.654 C 283.488 182.609,284.050 182.280,284.675 181.922 L 285.811 181.272 286.343 182.713 C 287.647 186.243,289.750 185.914,288.813 182.327 C 288.346 180.537,288.399 180.308,289.282 180.308 C 289.592 180.308,289.846 180.169,289.846 180.000 C 289.846 179.831,289.812 179.711,289.769 179.734 C 289.727 179.757,289.346 179.838,288.923 179.914 M294.154 179.956 C 294.154 180.107,294.579 180.316,295.099 180.420 C 295.894 180.579,296.011 180.713,295.835 181.266 C 295.694 181.709,295.738 181.855,295.967 181.713 C 296.352 181.475,296.429 180.412,296.077 180.215 C 295.497 179.889,294.154 179.708,294.154 179.956 M66.920 199.270 L 66.923 218.540 67.615 219.000 C 68.015 219.266,68.308 219.323,68.308 219.135 C 68.308 218.957,68.032 218.723,67.695 218.616 C 67.092 218.425,67.080 218.090,66.999 199.211 L 66.916 180.000 66.920 199.270 M72.923 180.192 C 72.923 180.350,75.638 181.545,75.949 181.525 C 76.233 181.506,73.783 180.204,73.308 180.121 C 73.096 180.085,72.923 180.116,72.923 180.192 M139.077 180.665 C 138.485 180.994,138.255 181.186,138.567 181.092 C 138.879 180.998,139.467 180.837,139.875 180.735 C 140.282 180.632,140.615 180.425,140.615 180.274 C 140.615 179.897,140.328 179.970,139.077 180.665 M146.478 198.376 C 146.469 208.492,146.462 217.141,146.462 217.595 C 146.462 218.150,146.260 218.484,145.846 218.615 C 145.508 218.723,145.231 218.945,145.231 219.108 C 145.231 219.455,146.502 218.847,146.841 218.339 C 147.186 217.823,147.131 180.377,146.785 180.164 C 146.603 180.051,146.488 186.874,146.478 198.376 M290.974 180.205 C 290.480 180.699,290.774 183.294,291.388 183.849 C 292.566 184.915,293.538 183.978,293.538 181.776 C 293.538 180.646,293.423 180.035,293.231 180.154 C 293.062 180.258,292.923 181.083,292.923 181.985 C 292.923 183.123,292.788 183.678,292.484 183.795 C 291.755 184.075,291.285 183.140,291.342 181.526 C 291.396 179.991,291.351 179.828,290.974 180.205 M69.710 181.359 C 70.354 181.831,70.646 181.779,70.320 181.251 C 70.209 181.071,69.892 180.923,69.615 180.923 C 69.195 180.923,69.211 180.995,69.710 181.359 M143.218 181.251 C 142.883 181.794,143.236 181.870,143.869 181.391 C 144.389 180.997,144.398 180.941,143.941 180.933 C 143.655 180.927,143.330 181.071,143.218 181.251 M76.308 181.677 C 76.308 181.761,76.723 182.045,77.231 182.308 C 77.738 182.570,78.154 182.716,78.154 182.631 C 78.154 182.547,77.738 182.263,77.231 182.000 C 76.723 181.737,76.308 181.592,76.308 181.677 M300.070 182.153 L 300.910 182.811 300.128 183.636 C 299.107 184.715,298.647 185.538,299.066 185.538 C 299.241 185.538,299.385 185.409,299.385 185.250 C 299.385 185.091,299.800 184.506,300.308 183.950 C 301.449 182.701,301.450 182.715,300.231 182.044 L 299.231 181.495 300.070 182.153 M71.828 182.317 C 72.157 182.566,72.564 182.769,72.733 182.769 C 72.902 182.769,72.772 182.566,72.443 182.317 C 72.115 182.069,71.708 181.866,71.538 181.866 C 71.369 181.866,71.500 182.069,71.828 182.317 M297.932 182.223 C 297.762 182.439,297.536 182.981,297.430 183.428 C 297.198 184.400,296.361 184.801,295.779 184.218 C 295.463 183.903,295.437 183.595,295.672 182.976 C 295.844 182.524,295.865 182.154,295.718 182.154 C 295.349 182.154,295.014 183.624,295.229 184.301 C 295.676 185.710,297.186 185.132,297.972 183.250 C 298.488 182.016,298.469 181.542,297.932 182.223 M78.487 182.867 C 79.152 183.377,80.923 184.234,80.923 184.047 C 80.923 183.914,80.434 183.573,79.836 183.288 C 78.870 182.827,78.136 182.599,78.487 182.867 M137.855 183.988 C 137.606 184.145,137.478 184.350,137.570 184.442 C 137.662 184.534,138.004 184.407,138.330 184.160 C 138.979 183.670,138.585 183.527,137.855 183.988 M301.231 185.616 C 300.372 186.578,300.100 187.035,300.515 186.817 C 300.882 186.624,301.544 186.014,301.984 185.463 L 302.786 184.462 303.547 185.325 C 303.965 185.800,304.310 186.423,304.312 186.709 C 304.316 187.136,304.367 187.152,304.593 186.795 C 304.853 186.384,303.268 183.949,302.795 184.031 C 302.696 184.049,301.992 184.761,301.231 185.616 M81.846 184.590 C 81.846 184.861,83.701 185.632,83.892 185.441 C 83.947 185.386,83.509 185.111,82.919 184.829 C 82.329 184.548,81.846 184.440,81.846 184.590 M130.901 184.763 C 130.575 185.009,130.446 185.213,130.615 185.216 C 131.073 185.224,131.854 184.675,131.661 184.481 C 131.569 184.389,131.227 184.516,130.901 184.763 M78.154 185.393 C 78.154 185.464,78.569 185.737,79.077 186.000 C 79.585 186.263,80.000 186.349,80.000 186.192 C 80.000 186.035,79.585 185.762,79.077 185.585 C 78.569 185.408,78.154 185.321,78.154 185.393 M134.692 185.443 C 134.396 185.520,134.154 185.712,134.154 185.869 C 134.154 186.303,134.648 186.209,135.077 185.692 C 135.288 185.438,135.408 185.247,135.345 185.266 C 135.282 185.286,134.988 185.365,134.692 185.443 M85.710 186.606 C 86.039 186.854,86.515 187.057,86.769 187.056 C 87.037 187.056,86.908 186.870,86.462 186.615 C 85.450 186.037,84.950 186.031,85.710 186.606 M132.757 186.482 C 132.430 187.010,132.723 187.061,133.367 186.590 C 133.866 186.225,133.882 186.154,133.462 186.154 C 133.185 186.154,132.868 186.302,132.757 186.482 M302.861 187.451 C 301.570 188.222,301.289 189.118,302.088 189.917 C 302.573 190.402,302.821 190.461,303.274 190.198 C 303.784 189.901,303.753 189.864,302.990 189.856 C 301.341 189.837,301.898 187.964,303.749 187.305 C 303.971 187.226,304.085 187.094,304.000 187.011 C 303.915 186.929,303.403 187.126,302.861 187.451 M124.817 187.743 C 124.167 188.078,123.698 188.416,123.775 188.493 C 123.886 188.604,125.143 188.053,126.128 187.462 C 126.829 187.041,125.717 187.280,124.817 187.743 M88.000 187.523 C 88.000 187.607,88.415 187.891,88.923 188.154 C 89.431 188.416,89.846 188.562,89.846 188.477 C 89.846 188.393,89.431 188.109,88.923 187.846 C 88.415 187.584,88.000 187.438,88.000 187.523 M295.884 189.308 C 297.691 190.518,298.776 192.360,299.081 194.732 L 299.304 196.462 299.344 194.980 C 299.419 192.251,296.647 188.308,294.655 188.308 C 294.510 188.308,295.064 188.758,295.884 189.308 M304.819 188.821 C 304.339 189.073,304.015 189.349,304.100 189.434 C 304.185 189.519,304.547 189.432,304.903 189.241 C 305.817 188.752,306.849 190.168,306.520 191.462 C 306.488 191.588,306.600 191.692,306.769 191.692 C 307.152 191.692,307.151 191.511,306.762 190.110 C 306.329 188.552,305.888 188.259,304.819 188.821 M277.880 189.308 C 277.223 191.062,277.190 191.388,277.647 191.564 C 278.249 191.795,279.558 190.511,279.143 190.097 C 278.945 189.898,278.669 190.038,278.343 190.504 C 277.770 191.323,277.682 190.851,278.197 189.721 C 278.534 188.981,278.589 188.968,279.582 189.383 C 280.777 189.882,281.005 189.507,279.832 188.972 C 278.676 188.446,278.169 188.533,277.880 189.308 M287.424 189.730 C 284.862 191.923,284.100 195.329,285.538 198.158 C 286.237 199.533,288.241 201.707,288.537 201.412 C 288.623 201.326,288.253 200.886,287.716 200.434 C 284.462 197.696,284.479 192.812,287.754 189.789 C 289.368 188.299,289.143 188.259,287.424 189.730 M90.769 189.054 C 90.769 189.253,92.662 190.156,93.047 190.141 C 93.233 190.134,92.900 189.863,92.308 189.538 C 91.235 188.951,90.769 188.805,90.769 189.054 M117.747 191.300 C 115.915 192.224,114.479 193.043,114.554 193.118 C 114.630 193.194,115.159 192.987,115.730 192.659 C 117.502 191.642,118.173 191.546,118.365 192.280 C 118.543 192.961,118.921 193.116,119.221 192.631 C 119.321 192.470,119.104 192.179,118.740 191.985 C 118.001 191.589,119.199 190.468,120.366 190.464 C 120.848 190.462,121.431 189.926,121.185 189.712 C 121.125 189.660,119.578 190.375,117.747 191.300 M87.692 190.102 C 87.692 190.389,89.860 191.473,90.051 191.282 C 90.122 191.211,89.621 190.861,88.936 190.504 C 88.252 190.148,87.692 189.967,87.692 190.102 M125.547 190.142 C 125.298 190.299,125.170 190.503,125.262 190.595 C 125.354 190.688,125.696 190.561,126.022 190.314 C 126.671 189.824,126.277 189.680,125.547 190.142 M247.083 191.000 C 245.666 191.712,243.994 194.154,244.923 194.154 C 245.092 194.154,245.231 193.888,245.231 193.562 C 245.231 192.698,246.945 191.126,248.089 190.941 C 248.632 190.853,249.423 190.728,249.846 190.663 C 250.319 190.591,250.140 190.529,249.385 190.504 C 248.708 190.481,247.672 190.705,247.083 191.000 M123.405 191.207 C 123.107 191.565,123.155 191.614,123.675 191.478 C 124.023 191.387,124.308 191.191,124.308 191.041 C 124.308 190.626,123.811 190.717,123.405 191.207 M251.077 190.881 C 251.077 190.966,251.492 191.331,252.000 191.692 C 252.508 192.054,252.923 192.280,252.923 192.196 C 252.923 192.111,252.508 191.746,252.000 191.385 C 251.492 191.023,251.077 190.797,251.077 190.881 M279.261 191.643 C 279.186 191.765,279.598 192.013,280.178 192.194 C 280.757 192.375,281.231 192.419,281.231 192.292 C 281.231 191.967,279.428 191.373,279.261 191.643 M303.263 192.355 C 302.774 193.053,303.066 194.154,303.741 194.154 C 303.965 194.154,303.953 194.007,303.705 193.707 C 303.237 193.144,303.555 192.083,304.245 191.902 C 304.734 191.773,304.734 191.761,304.248 191.728 C 303.962 191.708,303.518 191.991,303.263 192.355 M92.615 192.622 C 92.615 192.798,92.829 193.024,93.090 193.125 C 93.812 193.402,93.897 193.103,93.217 192.678 C 92.836 192.440,92.615 192.420,92.615 192.622 M113.313 193.546 C 112.858 193.729,112.689 193.987,112.812 194.309 C 113.004 194.808,113.689 194.787,113.697 194.282 C 113.700 194.127,113.812 193.827,113.946 193.615 C 114.225 193.176,114.232 193.177,113.313 193.546 M117.231 193.503 C 117.231 194.000,118.425 194.095,118.986 193.643 C 119.493 193.234,119.481 193.225,118.846 193.532 C 118.380 193.758,118.154 193.764,118.154 193.549 C 118.154 193.374,117.946 193.231,117.692 193.231 C 117.438 193.231,117.231 193.353,117.231 193.503 M254.769 193.592 C 254.769 193.732,255.254 193.846,255.846 193.846 C 257.251 193.846,257.251 193.392,255.845 193.362 C 255.253 193.349,254.769 193.453,254.769 193.592 M260.453 193.552 C 260.353 193.714,260.529 193.846,260.843 193.846 C 261.960 193.846,262.494 194.985,261.853 196.000 C 261.629 196.355,260.649 196.502,257.627 196.637 L 253.692 196.813 257.568 196.868 C 261.825 196.929,262.462 196.687,262.462 195.013 C 262.462 193.968,260.899 192.830,260.453 193.552 M276.756 193.868 C 276.249 194.688,276.941 196.990,277.639 196.803 C 278.007 196.705,278.481 196.622,278.692 196.620 C 278.904 196.617,279.077 196.480,279.077 196.315 C 279.077 196.146,278.675 196.096,278.154 196.200 C 277.244 196.382,277.231 196.365,277.231 195.081 L 277.231 193.778 278.385 193.977 C 279.217 194.121,279.410 194.089,279.077 193.862 C 278.468 193.448,277.013 193.451,276.756 193.868 M304.923 193.855 C 304.601 194.070,304.879 194.102,305.846 193.962 C 307.570 193.711,307.815 193.537,306.436 193.543 C 305.858 193.546,305.177 193.686,304.923 193.855 M101.670 194.622 C 101.996 194.869,102.338 194.995,102.430 194.903 C 102.623 194.710,101.842 194.161,101.385 194.168 C 101.215 194.171,101.344 194.375,101.670 194.622 M111.394 194.450 C 111.145 194.607,111.016 194.811,111.108 194.903 C 111.200 194.995,111.543 194.869,111.869 194.622 C 112.517 194.131,112.123 193.988,111.394 194.450 M97.538 195.231 C 98.300 195.639,99.062 195.972,99.231 195.972 C 99.400 195.972,98.915 195.639,98.154 195.231 C 97.392 194.823,96.631 194.489,96.462 194.489 C 96.292 194.489,96.777 194.823,97.538 195.231 M104.154 195.780 C 104.831 196.200,105.869 196.636,106.462 196.748 C 107.277 196.902,107.091 196.757,105.692 196.150 C 103.004 194.982,102.785 194.930,104.154 195.780 M113.572 196.164 C 112.734 196.644,111.974 196.868,111.572 196.756 C 111.054 196.612,111.016 196.640,111.385 196.898 C 111.782 197.177,111.772 197.222,111.308 197.226 C 111.012 197.229,110.769 197.366,110.769 197.531 C 110.769 197.887,111.605 197.597,113.827 196.471 C 115.274 195.738,115.713 195.379,115.154 195.388 C 115.027 195.390,114.315 195.740,113.572 196.164 M100.000 196.264 C 100.000 196.580,100.932 197.017,101.147 196.801 C 101.222 196.727,100.995 196.511,100.642 196.322 C 100.289 196.133,100.000 196.107,100.000 196.264 M305.077 196.233 C 305.551 196.722,307.297 197.007,307.527 196.633 C 307.647 196.441,307.439 196.306,307.018 196.303 C 306.627 196.301,305.962 196.213,305.538 196.108 C 305.014 195.977,304.867 196.017,305.077 196.233 M303.153 196.692 C 302.984 196.904,302.946 197.354,303.069 197.692 C 303.257 198.208,303.316 198.146,303.439 197.307 C 303.603 196.187,303.586 196.150,303.153 196.692 M298.468 197.828 C 298.012 199.207,296.719 200.553,294.923 201.514 C 294.182 201.911,293.999 202.093,294.462 201.971 C 296.378 201.465,299.329 198.389,299.377 196.846 C 299.399 196.150,298.812 196.784,298.468 197.828 M252.808 197.676 C 252.163 198.660,250.661 199.440,249.338 199.477 C 248.704 199.495,248.417 199.617,248.592 199.792 C 249.132 200.332,251.014 199.678,252.354 198.484 C 253.090 197.828,253.607 197.205,253.503 197.098 C 253.399 196.991,253.086 197.251,252.808 197.676 M108.058 197.558 C 108.132 197.780,108.374 198.022,108.596 198.096 C 108.827 198.173,108.942 198.058,108.865 197.827 C 108.791 197.605,108.549 197.363,108.327 197.288 C 108.096 197.212,107.981 197.327,108.058 197.558 M280.207 198.061 C 279.132 198.626,279.311 198.930,280.422 198.424 C 281.006 198.157,281.714 197.334,281.154 197.571 C 281.112 197.589,280.686 197.809,280.207 198.061 M107.077 198.615 C 107.077 198.869,107.215 199.077,107.385 199.077 C 107.554 199.077,107.692 198.869,107.692 198.615 C 107.692 198.362,107.554 198.154,107.385 198.154 C 107.215 198.154,107.077 198.362,107.077 198.615 M108.692 198.529 C 108.312 198.713,108.000 198.985,108.000 199.135 C 108.000 199.392,108.512 199.173,109.538 198.477 C 110.142 198.067,109.578 198.102,108.692 198.529 M305.672 198.736 C 305.788 198.924,306.079 199.077,306.318 199.077 C 306.663 199.077,306.690 199.253,306.445 199.923 C 306.275 200.388,306.070 200.954,305.991 201.179 C 305.880 201.494,305.593 201.432,304.753 200.913 C 304.152 200.542,303.592 200.305,303.509 200.388 C 303.270 200.628,305.588 201.893,305.986 201.740 C 306.320 201.612,307.238 199.121,307.021 198.931 C 306.654 198.611,305.490 198.443,305.672 198.736 M105.159 217.612 C 105.251 238.967,105.369 237.471,103.666 236.602 C 102.968 236.246,102.474 236.079,102.568 236.232 C 102.852 236.691,105.220 237.652,105.465 237.407 C 105.714 237.158,105.863 202.990,105.626 200.385 C 105.212 195.835,105.085 200.526,105.159 217.612 M277.436 199.538 C 277.654 200.612,278.143 201.651,278.339 201.456 C 278.413 201.381,278.199 200.712,277.862 199.968 C 277.389 198.924,277.292 198.826,277.436 199.538 M281.791 200.325 C 282.967 200.797,282.552 201.871,280.847 202.769 C 279.101 203.689,279.099 203.701,280.451 205.158 L 281.518 206.308 282.728 204.923 C 283.393 204.162,283.882 203.481,283.815 203.410 C 283.748 203.340,283.237 203.809,282.680 204.453 C 281.770 205.506,281.604 205.584,281.033 205.228 C 279.552 204.303,279.594 203.784,281.220 202.899 C 283.277 201.780,283.616 199.966,281.758 200.020 L 281.077 200.039 281.791 200.325 M301.908 200.369 C 301.705 200.572,301.548 200.953,301.559 201.215 C 301.573 201.536,301.687 201.470,301.907 201.015 C 302.087 200.642,302.459 200.277,302.733 200.204 C 303.158 200.091,303.161 200.066,302.754 200.036 C 302.492 200.016,302.111 200.166,301.908 200.369 M279.418 200.957 C 279.013 201.285,278.751 201.623,278.836 201.708 C 278.921 201.792,279.321 201.593,279.726 201.265 C 280.130 200.937,280.392 200.599,280.308 200.515 C 280.223 200.430,279.823 200.629,279.418 200.957 M108.144 218.462 C 108.144 228.362,108.183 232.412,108.231 227.462 C 108.278 222.512,108.278 214.412,108.231 209.462 C 108.183 204.512,108.144 208.562,108.144 218.462 M304.244 203.462 C 304.474 203.739,304.360 204.082,303.835 204.692 C 302.897 205.781,302.721 205.761,301.551 204.429 C 301.016 203.819,300.525 203.372,300.461 203.436 C 300.397 203.500,300.896 204.168,301.570 204.920 L 302.796 206.288 303.872 205.113 C 304.848 204.048,304.946 203.077,304.078 203.077 C 303.994 203.077,304.068 203.250,304.244 203.462 M284.947 203.924 C 285.271 204.443,285.201 204.695,284.466 205.659 C 283.993 206.279,283.684 206.863,283.779 206.958 C 283.873 207.053,284.201 206.738,284.507 206.257 C 284.813 205.777,285.182 205.300,285.328 205.196 C 285.716 204.919,285.452 203.609,284.976 203.452 C 284.646 203.343,284.640 203.433,284.947 203.924 M298.974 203.590 C 298.479 204.085,298.888 205.179,300.049 206.462 C 301.431 207.989,301.334 207.584,299.879 205.753 C 299.084 204.754,299.003 204.497,299.323 203.984 C 299.675 203.421,299.425 203.139,298.974 203.590 M287.138 205.600 C 286.935 205.803,286.765 206.115,286.759 206.292 C 286.736 206.986,285.637 208.920,285.392 208.697 C 285.249 208.568,285.232 208.635,285.353 208.846 C 285.763 209.558,287.077 207.746,287.077 206.470 C 287.077 206.308,287.339 206.035,287.660 205.863 C 288.571 205.376,289.081 206.181,288.648 207.424 C 288.237 208.603,288.231 208.699,288.581 208.483 C 289.060 208.187,289.295 206.141,288.904 205.669 C 288.460 205.134,287.637 205.102,287.138 205.600 M295.560 205.714 C 294.899 206.375,295.012 208.000,295.719 208.000 C 295.866 208.000,295.822 207.639,295.621 207.197 C 295.308 206.509,295.338 206.334,295.833 205.972 C 296.616 205.399,297.072 205.825,297.700 207.716 C 297.977 208.549,298.296 209.230,298.409 209.230 C 298.700 209.228,300.615 208.040,300.615 207.861 C 300.615 207.780,300.139 207.994,299.557 208.338 L 298.498 208.962 298.119 207.635 C 297.484 205.412,296.558 204.717,295.560 205.714 M291.447 206.329 C 290.760 206.811,290.383 210.462,291.021 210.462 C 291.160 210.462,291.252 209.804,291.226 209.000 C 291.172 207.364,291.500 206.462,292.147 206.462 C 292.832 206.462,293.029 207.056,292.956 208.899 C 292.906 210.160,292.979 210.525,293.231 210.275 C 294.526 208.988,292.873 205.330,291.447 206.329 M283.087 207.298 C 283.099 207.605,284.615 208.718,284.786 208.547 C 284.857 208.476,284.502 208.112,283.996 207.738 C 283.491 207.364,283.081 207.166,283.087 207.298 M295.827 209.000 C 295.979 209.698,295.906 209.846,295.409 209.846 C 295.077 209.846,294.705 210.008,294.583 210.206 C 294.431 210.452,294.532 210.501,294.898 210.360 C 295.193 210.247,295.631 210.154,295.871 210.154 C 296.383 210.154,296.440 209.276,295.970 208.615 C 295.718 208.260,295.685 208.348,295.827 209.000 M287.893 209.375 C 287.695 209.889,287.819 209.989,289.000 210.271 C 289.502 210.391,289.846 210.346,289.846 210.160 C 289.846 209.987,289.504 209.846,289.087 209.846 C 288.538 209.846,288.376 209.718,288.504 209.385 C 288.602 209.131,288.543 208.923,288.374 208.923 C 288.204 208.923,287.988 209.126,287.893 209.375 M317.710 213.702 C 317.382 213.951,317.252 214.154,317.421 214.154 C 317.590 214.154,317.997 213.951,318.326 213.702 C 318.654 213.454,318.785 213.250,318.615 213.250 C 318.446 213.250,318.039 213.454,317.710 213.702 M333.846 213.684 C 333.846 213.765,334.296 214.048,334.846 214.315 L 335.846 214.800 335.120 214.169 C 334.439 213.578,333.846 213.353,333.846 213.684 M315.938 215.003 C 315.506 215.467,314.994 216.192,314.801 216.615 C 314.499 217.275,314.504 217.299,314.840 216.781 C 315.055 216.449,315.618 215.775,316.091 215.282 C 316.564 214.790,316.900 214.336,316.838 214.273 C 316.775 214.211,316.371 214.540,315.938 215.003 M320.308 216.292 C 320.308 216.507,322.275 216.615,326.172 216.615 C 329.473 216.615,331.963 216.497,331.869 216.344 C 331.620 215.942,320.308 215.890,320.308 216.292 M332.615 216.437 C 332.615 216.571,332.962 216.953,333.385 217.286 C 333.808 217.619,334.154 218.080,334.154 218.312 C 334.154 218.543,334.279 218.811,334.433 218.905 C 334.586 219.000,334.643 218.815,334.559 218.493 C 334.401 217.890,332.615 216.001,332.615 216.437 M318.096 217.298 C 317.497 218.234,317.198 219.079,317.471 219.067 C 317.719 219.056,318.809 216.861,318.648 216.699 C 318.591 216.643,318.343 216.912,318.096 217.298 M338.560 220.615 C 338.560 221.715,338.616 222.165,338.684 221.615 C 338.752 221.065,338.752 220.165,338.684 219.615 C 338.616 219.065,338.560 219.515,338.560 220.615 M68.615 219.318 C 68.615 219.602,70.152 220.412,70.338 220.226 C 70.396 220.169,70.031 219.879,69.529 219.582 C 69.027 219.285,68.615 219.166,68.615 219.318 M143.834 219.729 C 142.979 220.316,142.970 220.341,143.692 220.143 C 144.538 219.910,145.118 219.477,144.890 219.249 C 144.810 219.169,144.334 219.385,143.834 219.729 M70.769 220.485 C 70.769 220.693,72.368 221.273,72.520 221.121 C 72.590 221.051,72.224 220.847,71.708 220.667 C 71.192 220.487,70.769 220.405,70.769 220.485 M138.462 222.323 C 137.023 223.070,135.985 223.683,136.154 223.686 C 136.675 223.696,141.231 221.443,141.231 221.175 C 141.231 220.858,141.508 220.743,138.462 222.323 M317.250 221.077 C 317.250 221.246,317.454 221.653,317.702 221.982 C 317.951 222.310,318.154 222.441,318.154 222.271 C 318.154 222.102,317.951 221.695,317.702 221.367 C 317.454 221.038,317.250 220.908,317.250 221.077 M334.025 221.702 C 333.918 222.130,333.383 222.753,332.838 223.085 C 332.292 223.418,332.030 223.691,332.254 223.691 C 332.823 223.693,334.462 221.998,334.462 221.408 C 334.462 220.679,334.245 220.824,334.025 221.702 M72.926 221.455 C 72.928 221.586,73.482 221.924,74.157 222.208 C 75.742 222.873,75.740 222.655,74.154 221.846 C 73.477 221.501,72.924 221.325,72.926 221.455 M314.462 222.684 C 314.462 222.863,314.747 223.336,315.095 223.735 L 315.729 224.462 315.188 223.538 C 314.477 222.324,314.462 222.305,314.462 222.684 M76.308 223.224 C 76.308 223.342,78.148 224.308,78.373 224.308 C 78.442 224.308,78.421 224.183,78.326 224.030 C 78.153 223.749,76.308 223.012,76.308 223.224 M338.589 228.615 C 338.589 231.746,338.635 233.027,338.691 231.462 C 338.747 229.896,338.747 227.335,338.691 225.769 C 338.635 224.204,338.589 225.485,338.589 228.615 M133.462 224.791 C 132.345 225.397,132.384 225.572,133.538 225.137 C 134.046 224.945,134.462 224.680,134.462 224.548 C 134.462 224.245,134.474 224.242,133.462 224.791 M330.538 226.688 L 328.923 226.801 328.995 235.939 L 329.067 245.077 329.154 236.077 L 329.240 227.077 330.774 227.077 C 331.617 227.077,332.308 226.938,332.308 226.769 C 332.308 226.600,332.273 226.487,332.231 226.518 C 332.188 226.550,331.427 226.626,330.538 226.688 M320.385 226.990 C 320.850 227.060,321.612 227.060,322.077 226.990 C 322.542 226.919,322.162 226.861,321.231 226.861 C 320.300 226.861,319.919 226.919,320.385 226.990 M127.462 227.797 C 125.708 228.687,125.779 229.097,127.538 228.242 C 128.546 227.753,129.604 226.832,128.846 227.105 C 128.804 227.120,128.181 227.431,127.462 227.797 M88.640 229.143 C 88.626 229.349,88.892 229.665,89.231 229.846 C 89.648 230.069,89.846 230.073,89.846 229.857 C 89.846 229.682,89.650 229.538,89.410 229.538 C 89.171 229.538,88.905 229.365,88.819 229.154 C 88.702 228.864,88.658 228.861,88.640 229.143 M90.154 230.125 C 90.154 230.380,91.416 230.840,91.603 230.653 C 91.654 230.603,91.348 230.404,90.924 230.210 C 90.501 230.017,90.154 229.979,90.154 230.125 M122.385 230.330 C 121.234 230.954,121.304 231.214,122.462 230.615 C 122.969 230.353,123.385 230.072,123.385 229.992 C 123.385 229.794,123.352 229.805,122.385 230.330 M94.018 232.144 C 94.347 232.393,94.823 232.599,95.077 232.604 C 95.331 232.608,95.142 232.405,94.657 232.152 C 93.535 231.567,93.250 231.563,94.018 232.144 M118.077 232.533 C 117.442 232.794,116.923 233.129,116.923 233.279 C 116.923 233.428,117.477 233.268,118.154 232.923 C 118.831 232.578,119.385 232.229,119.385 232.148 C 119.385 232.066,119.350 232.013,119.308 232.030 C 119.265 232.046,118.712 232.273,118.077 232.533 M95.692 232.880 C 95.692 233.019,96.038 233.290,96.462 233.482 C 96.885 233.675,97.231 233.720,97.231 233.581 C 97.231 233.443,96.885 233.172,96.462 232.979 C 96.038 232.786,95.692 232.742,95.692 232.880 M97.538 233.802 C 97.538 234.119,98.470 234.555,98.686 234.340 C 98.761 234.265,98.533 234.049,98.180 233.860 C 97.827 233.671,97.538 233.645,97.538 233.802 M99.122 234.609 C 99.518 235.005,102.154 236.260,102.154 236.053 C 102.154 235.922,101.527 235.510,100.761 235.138 C 99.433 234.493,98.802 234.289,99.122 234.609 M112.848 235.157 C 112.214 235.510,111.751 235.854,111.818 235.921 C 111.962 236.065,114.462 234.825,114.462 234.609 C 114.462 234.352,114.033 234.497,112.848 235.157 M338.593 241.692 C 338.594 245.585,338.638 247.134,338.691 245.136 C 338.745 243.138,338.745 239.954,338.691 238.060 C 338.637 236.165,338.593 237.800,338.593 241.692 M110.290 236.452 C 109.961 236.700,109.831 236.904,110.000 236.904 C 110.169 236.904,110.576 236.700,110.905 236.452 C 111.233 236.203,111.364 236.000,111.195 236.000 C 111.025 236.000,110.618 236.203,110.290 236.452 M322.678 238.081 C 322.467 239.179,322.585 239.263,323.015 238.320 C 323.206 237.902,323.244 237.488,323.101 237.399 C 322.957 237.311,322.767 237.617,322.678 238.081 M236.148 239.375 C 236.407 239.794,321.124 239.805,321.383 239.387 C 321.511 239.179,307.431 239.077,278.769 239.077 C 251.247 239.077,236.029 239.183,236.148 239.375 M104.245 251.375 C 103.450 251.815,102.703 252.271,102.586 252.388 C 102.236 252.739,104.722 251.687,105.362 251.214 C 106.396 250.450,105.747 250.543,104.245 251.375 M107.692 250.776 C 107.692 250.952,107.906 251.178,108.167 251.278 C 108.889 251.555,108.974 251.256,108.294 250.832 C 107.913 250.594,107.692 250.574,107.692 250.776 M111.231 252.538 C 111.853 253.112,114.462 254.479,114.462 254.231 C 114.462 254.090,113.665 253.587,112.692 253.114 C 111.719 252.641,111.062 252.381,111.231 252.538 M221.645 252.688 C 221.840 252.812,247.615 252.914,278.923 252.914 C 310.231 252.914,336.006 252.812,336.201 252.688 C 336.397 252.563,310.622 252.462,278.923 252.462 C 247.225 252.462,221.449 252.563,221.645 252.688 M235.318 255.000 C 235.262 255.127,235.297 257.446,235.396 260.154 L 235.575 265.077 235.634 259.923 C 235.687 255.249,235.626 254.307,235.318 255.000 M323.006 255.147 C 323.184 255.362,323.391 255.954,323.465 256.462 C 323.591 257.322,323.603 257.309,323.646 256.264 C 323.679 255.478,323.541 255.085,323.187 254.949 C 322.805 254.802,322.761 254.850,323.006 255.147 M117.054 255.545 C 117.381 255.792,117.723 255.918,117.815 255.826 C 118.008 255.633,117.226 255.084,116.769 255.091 C 116.600 255.094,116.728 255.298,117.054 255.545 M259.817 259.846 C 259.817 262.554,259.864 263.620,259.921 262.216 C 259.979 260.812,259.978 258.597,259.921 257.293 C 259.863 255.990,259.816 257.138,259.817 259.846 M298.825 259.154 C 298.880 263.254,298.995 262.762,299.148 257.769 C 299.194 256.287,299.127 255.076,299.000 255.076 C 298.873 255.077,298.794 256.912,298.825 259.154 M94.018 256.471 C 93.567 256.813,93.534 256.923,93.882 256.923 C 94.136 256.923,94.613 256.720,94.941 256.471 C 95.392 256.130,95.426 256.020,95.077 256.020 C 94.823 256.020,94.347 256.223,94.018 256.471 M118.633 256.436 C 119.277 256.908,119.570 256.856,119.243 256.328 C 119.132 256.148,118.815 256.000,118.538 256.000 C 118.118 256.000,118.134 256.071,118.633 256.436 M120.923 257.372 C 120.923 257.457,121.477 257.809,122.154 258.154 C 122.831 258.499,123.385 258.713,123.385 258.628 C 123.385 258.543,122.831 258.191,122.154 257.846 C 121.477 257.501,120.923 257.287,120.923 257.372 M85.173 260.870 C 84.042 261.485,83.167 262.038,83.229 262.101 C 83.381 262.253,87.365 260.280,87.568 259.952 C 87.843 259.507,87.301 259.714,85.173 260.870 M126.472 260.231 C 126.477 260.358,127.343 260.850,128.395 261.325 C 130.571 262.308,130.444 261.986,128.185 260.795 C 126.525 259.920,126.457 259.897,126.472 260.231 M323.468 261.538 C 323.468 262.300,323.528 262.612,323.602 262.231 C 323.675 261.850,323.675 261.227,323.602 260.846 C 323.528 260.465,323.468 260.777,323.468 261.538 M77.770 264.588 C 76.414 265.222,76.036 265.539,76.641 265.537 C 76.881 265.536,77.631 265.194,78.308 264.777 C 79.728 263.902,79.449 263.804,77.770 264.588 M323.077 264.759 C 323.077 265.006,322.647 265.699,322.122 266.297 C 321.078 267.487,321.115 267.808,322.168 266.692 C 323.044 265.764,323.792 264.308,323.393 264.308 C 323.219 264.308,323.077 264.511,323.077 264.759 M298.977 264.837 C 298.859 265.026,298.982 265.400,299.250 265.668 C 299.827 266.245,300.206 266.319,299.771 265.769 C 299.604 265.558,299.405 265.184,299.328 264.938 C 299.234 264.634,299.122 264.601,298.977 264.837 M136.026 265.035 C 136.646 265.578,137.656 265.902,137.270 265.435 C 137.038 265.153,136.634 264.923,136.373 264.923 C 136.111 264.923,135.955 264.974,136.026 265.035 M259.385 265.156 C 259.385 265.340,259.010 265.936,258.553 266.479 C 257.858 267.306,257.830 267.400,258.381 267.056 C 259.144 266.579,259.891 265.327,259.590 265.026 C 259.477 264.913,259.385 264.971,259.385 265.156 M235.702 265.430 C 235.686 266.027,237.766 267.641,238.992 267.981 C 240.388 268.369,255.565 268.385,256.462 268.000 C 256.825 267.844,253.384 267.727,248.067 267.714 C 238.241 267.690,237.587 267.592,236.371 265.961 C 236.008 265.475,235.707 265.236,235.702 265.430 M74.385 266.328 C 73.581 266.746,72.923 267.149,72.923 267.222 C 72.923 267.429,75.387 266.275,75.776 265.886 C 76.268 265.393,76.042 265.465,74.385 266.328 M137.982 265.818 C 138.098 266.005,138.634 266.372,139.173 266.632 C 140.083 267.073,140.110 267.071,139.538 266.608 C 138.604 265.850,137.727 265.405,137.982 265.818 M300.582 267.095 C 300.987 267.432,301.392 267.634,301.483 267.543 C 301.679 267.347,300.595 266.481,300.154 266.482 C 299.985 266.482,300.177 266.758,300.582 267.095 M141.538 267.616 C 141.538 267.746,141.815 268.025,142.154 268.236 C 142.492 268.448,142.769 268.514,142.769 268.384 C 142.769 268.254,142.492 267.975,142.154 267.764 C 141.815 267.552,141.538 267.486,141.538 267.616 M311.231 267.685 C 300.274 267.883,300.461 268.308,311.505 268.308 C 318.124 268.308,319.682 268.226,320.172 267.856 C 320.500 267.607,320.631 267.431,320.462 267.464 C 320.292 267.497,316.138 267.597,311.231 267.685 M69.923 268.544 C 67.984 269.521,67.957 269.655,69.538 270.462 C 70.215 270.807,70.769 271.021,70.769 270.937 C 70.769 270.854,70.354 270.570,69.846 270.308 C 68.594 269.660,68.681 269.374,70.318 268.749 C 71.085 268.456,71.785 268.098,71.874 267.954 C 72.137 267.529,71.637 267.680,69.923 268.544 M66.840 291.462 C 66.879 302.165,66.948 307.808,66.993 304.000 C 67.206 286.072,67.209 272.000,67.000 272.000 C 66.873 272.000,66.801 280.758,66.840 291.462 M67.846 272.262 C 68.267 272.679,72.387 274.768,72.769 274.758 C 73.178 274.748,72.299 274.243,69.692 272.992 C 68.508 272.423,67.677 272.095,67.846 272.262 M139.701 272.296 C 139.452 272.453,139.324 272.657,139.416 272.749 C 139.508 272.841,139.850 272.715,140.176 272.468 C 140.825 271.977,140.431 271.834,139.701 272.296 M145.059 272.452 C 144.730 272.700,144.600 272.904,144.769 272.904 C 144.938 272.904,145.346 272.700,145.674 272.452 C 146.003 272.203,146.133 272.000,145.964 272.000 C 145.795 272.000,145.387 272.203,145.059 272.452 M146.475 290.682 C 146.469 300.969,146.463 309.604,146.462 309.871 C 146.462 310.139,146.116 310.543,145.693 310.769 C 145.270 310.995,144.980 311.236,145.047 311.304 C 145.216 311.473,146.429 310.744,147.186 310.019 C 147.591 309.630,147.681 309.381,147.442 309.301 C 147.166 309.209,147.077 304.705,147.077 290.762 C 147.077 279.367,146.965 272.275,146.782 272.162 C 146.596 272.047,146.483 278.856,146.475 290.682 M74.769 273.069 C 74.769 273.149,75.185 273.430,75.692 273.692 C 76.200 273.955,76.615 274.050,76.615 273.903 C 76.615 273.757,76.263 273.477,75.832 273.280 C 74.973 272.889,74.769 272.848,74.769 273.069 M142.923 273.476 C 142.246 273.746,141.622 274.068,141.535 274.190 C 141.449 274.313,141.005 274.507,140.548 274.621 C 140.091 274.736,139.553 275.028,139.351 275.271 C 139.041 275.645,139.106 275.666,139.775 275.412 C 141.002 274.945,144.308 273.239,144.308 273.072 C 144.308 272.990,144.273 272.937,144.231 272.953 C 144.188 272.969,143.600 273.205,142.923 273.476 M77.872 274.555 C 77.942 274.606,78.415 274.891,78.923 275.188 L 79.846 275.729 79.120 275.095 C 78.720 274.747,78.247 274.462,78.068 274.462 C 77.890 274.462,77.801 274.503,77.872 274.555 M277.694 275.383 C 277.584 275.560,277.835 275.661,278.291 275.623 C 278.723 275.587,279.077 275.450,279.077 275.318 C 279.077 274.968,277.916 275.022,277.694 275.383 M74.769 275.649 C 74.769 275.965,75.701 276.401,75.917 276.186 C 75.991 276.111,75.764 275.895,75.411 275.706 C 75.058 275.517,74.769 275.491,74.769 275.649 M132.932 275.680 C 132.683 275.838,132.555 276.042,132.647 276.134 C 132.739 276.226,133.081 276.099,133.407 275.853 C 134.056 275.362,133.662 275.219,132.932 275.680 M276.099 276.385 C 275.234 277.346,274.983 277.846,275.366 277.846 C 275.546 277.846,275.692 277.678,275.692 277.473 C 275.692 277.268,276.073 276.788,276.538 276.407 C 277.004 276.026,277.236 275.709,277.054 275.703 C 276.872 275.697,276.442 276.004,276.099 276.385 M281.507 276.780 C 282.032 277.378,282.488 277.897,282.520 277.934 C 282.553 277.970,282.662 281.600,282.763 286.000 L 282.948 294.000 283.012 286.405 C 283.079 278.524,282.973 277.667,281.772 276.385 C 280.708 275.249,280.472 275.601,281.507 276.780 M76.662 276.783 C 76.942 277.069,77.338 277.246,77.543 277.178 C 77.748 277.110,77.519 276.876,77.035 276.659 C 76.210 276.289,76.186 276.297,76.662 276.783 M130.905 276.759 C 130.140 277.338,130.686 277.345,131.692 276.769 C 132.185 276.487,132.289 276.326,131.982 276.319 C 131.718 276.313,131.233 276.511,130.905 276.759 M83.385 277.352 C 83.385 277.419,84.077 277.836,84.923 278.278 C 85.769 278.721,86.462 278.977,86.462 278.849 C 86.462 278.720,85.873 278.303,85.154 277.922 C 83.899 277.257,83.385 277.091,83.385 277.352 M127.923 278.204 C 127.458 278.374,127.077 278.643,127.077 278.803 C 127.077 278.962,127.492 278.878,128.000 278.615 C 128.713 278.247,129.305 277.726,128.846 277.870 C 128.804 277.884,128.388 278.034,127.923 278.204 M131.925 279.030 C 131.291 279.309,130.772 279.645,130.771 279.775 C 130.770 279.906,131.323 279.730,132.000 279.385 C 132.677 279.039,133.231 278.690,133.231 278.609 C 133.231 278.528,133.196 278.475,133.154 278.491 C 133.112 278.507,132.558 278.750,131.925 279.030 M274.769 284.458 L 274.769 290.147 219.783 290.152 C 189.541 290.155,164.694 290.260,164.568 290.386 C 164.319 290.634,274.355 290.560,275.016 290.311 C 275.486 290.135,275.510 278.769,275.040 278.769 C 274.891 278.769,274.769 281.329,274.769 284.458 M82.593 279.853 C 82.919 280.099,83.261 280.226,83.353 280.134 C 83.546 279.941,82.765 279.392,82.308 279.399 C 82.138 279.402,82.267 279.606,82.593 279.853 M84.131 280.468 C 84.457 280.715,84.800 280.841,84.892 280.749 C 85.085 280.556,84.303 280.007,83.846 280.014 C 83.677 280.017,83.805 280.221,84.131 280.468 M85.231 280.842 C 85.231 281.142,86.472 281.938,86.655 281.755 C 86.728 281.682,86.438 281.392,86.010 281.112 C 85.581 280.831,85.231 280.710,85.231 280.842 M127.213 281.375 C 126.884 281.623,126.762 281.831,126.941 281.836 C 127.120 281.842,127.536 281.643,127.864 281.394 C 128.193 281.146,128.315 280.938,128.136 280.933 C 127.957 280.927,127.541 281.126,127.213 281.375 M92.880 282.139 C 93.280 282.485,93.730 282.769,93.880 282.769 C 94.418 282.769,94.138 282.470,93.154 281.993 L 92.154 281.508 92.880 282.139 M125.367 282.298 C 125.038 282.546,124.908 282.750,125.077 282.750 C 125.246 282.750,125.653 282.546,125.982 282.298 C 126.310 282.049,126.441 281.846,126.271 281.846 C 126.102 281.846,125.695 282.049,125.367 282.298 M118.115 283.281 C 117.728 283.749,117.758 283.759,118.462 283.393 C 119.493 282.857,119.571 282.769,119.012 282.769 C 118.751 282.769,118.347 283.000,118.115 283.281 M119.462 285.152 C 118.912 285.426,118.462 285.775,118.462 285.927 C 118.462 286.142,120.147 285.304,120.897 284.716 C 121.253 284.438,120.341 284.715,119.462 285.152 M94.154 285.492 C 94.154 285.642,94.846 286.052,95.692 286.403 C 96.538 286.755,97.231 286.984,97.231 286.911 C 97.231 286.839,96.538 286.429,95.692 286.000 C 94.846 285.571,94.154 285.343,94.154 285.492 M98.633 287.836 C 98.962 288.085,99.438 288.288,99.692 288.287 C 99.960 288.286,99.831 288.101,99.385 287.846 C 98.373 287.268,97.874 287.262,98.633 287.836 M104.131 287.853 C 104.457 288.099,104.800 288.226,104.892 288.134 C 105.085 287.941,104.303 287.392,103.846 287.399 C 103.677 287.402,103.805 287.606,104.131 287.853 M107.557 288.471 C 106.797 289.046,107.296 289.040,108.308 288.462 C 108.754 288.207,108.883 288.021,108.615 288.021 C 108.362 288.020,107.885 288.223,107.557 288.471 M113.059 288.446 C 112.483 288.877,112.486 288.886,113.159 288.717 C 113.542 288.620,113.931 288.419,114.023 288.271 C 114.283 287.849,113.720 287.952,113.059 288.446 M105.161 309.591 C 105.222 323.591,105.150 328.803,104.892 329.114 C 104.618 329.444,104.648 329.538,105.025 329.538 C 105.332 329.538,105.574 329.171,105.684 328.538 C 105.997 326.733,105.715 291.130,105.385 290.800 C 105.179 290.595,105.105 296.858,105.161 309.591 M163.048 291.154 C 162.186 291.902,161.394 293.189,161.642 293.437 C 161.727 293.522,161.963 293.268,162.167 292.873 C 162.370 292.477,162.892 291.773,163.326 291.308 C 164.281 290.284,164.141 290.207,163.048 291.154 M108.140 303.846 C 108.140 310.446,108.181 313.102,108.230 309.749 C 108.280 306.395,108.280 300.995,108.230 297.749 C 108.180 294.502,108.140 297.246,108.140 303.846 M282.451 295.265 C 282.266 295.754,281.743 296.562,281.288 297.061 L 280.462 297.968 281.231 297.498 C 282.022 297.015,283.284 294.874,282.965 294.555 C 282.867 294.457,282.635 294.776,282.451 295.265 M161.538 295.374 C 161.538 295.791,163.431 297.902,163.629 297.705 C 163.718 297.615,163.512 297.299,163.170 297.002 C 162.829 296.705,162.451 296.150,162.331 295.769 C 162.115 295.086,161.538 294.798,161.538 295.374 M165.231 298.154 C 165.231 298.358,184.507 298.462,222.443 298.462 C 260.253 298.462,279.720 298.357,279.846 298.154 C 279.973 297.949,260.824 297.846,222.634 297.846 C 184.570 297.846,165.231 297.950,165.231 298.154 M291.692 305.846 C 291.692 306.015,291.900 306.154,292.154 306.154 C 292.408 306.154,292.615 306.015,292.615 305.846 C 292.615 305.677,292.408 305.538,292.154 305.538 C 291.900 305.538,291.692 305.677,291.692 305.846 M143.485 311.863 C 142.628 312.238,141.844 312.923,142.272 312.923 C 142.506 312.923,144.615 311.649,144.615 311.508 C 144.615 311.359,144.683 311.338,143.485 311.863 M70.593 312.468 C 70.919 312.715,71.261 312.841,71.353 312.749 C 71.546 312.556,70.765 312.007,70.308 312.014 C 70.138 312.017,70.267 312.221,70.593 312.468 M290.769 312.308 C 290.769 312.477,290.977 312.615,291.231 312.615 C 291.485 312.615,291.692 312.477,291.692 312.308 C 291.692 312.138,291.485 312.000,291.231 312.000 C 290.977 312.000,290.769 312.138,290.769 312.308 M140.439 313.378 C 140.113 313.625,139.985 313.829,140.154 313.832 C 140.611 313.839,141.393 313.290,141.199 313.097 C 141.107 313.005,140.765 313.131,140.439 313.378 M73.538 313.677 C 73.538 313.761,73.954 314.045,74.462 314.308 C 74.969 314.570,75.385 314.716,75.385 314.631 C 75.385 314.547,74.969 314.263,74.462 314.000 C 73.954 313.737,73.538 313.592,73.538 313.677 M77.846 316.015 C 78.913 316.739,79.521 316.950,78.769 316.335 C 78.346 315.989,77.862 315.705,77.692 315.704 C 77.523 315.703,77.592 315.843,77.846 316.015 M129.618 318.707 C 126.362 320.349,123.697 321.779,123.695 321.884 C 123.694 321.990,126.203 320.837,129.272 319.322 C 135.825 316.089,136.575 315.769,136.008 316.452 C 135.683 316.844,135.705 316.923,136.139 316.923 C 136.788 316.923,136.657 315.882,135.996 315.788 C 135.745 315.752,132.874 317.066,129.618 318.707 M108.125 322.308 C 108.125 325.015,108.172 326.082,108.229 324.678 C 108.286 323.274,108.286 321.058,108.228 319.755 C 108.171 318.451,108.124 319.600,108.125 322.308 M83.176 318.663 C 83.462 318.949,85.846 319.997,85.846 319.837 C 85.846 319.678,83.500 318.462,83.192 318.462 C 83.072 318.462,83.065 318.552,83.176 318.663 M272.213 321.735 C 271.968 321.981,272.246 322.462,272.634 322.462 C 272.793 322.462,272.923 322.254,272.923 322.000 C 272.923 321.524,272.560 321.389,272.213 321.735 M90.154 322.110 C 90.154 322.426,91.086 322.863,91.301 322.648 C 91.376 322.573,91.149 322.357,90.796 322.168 C 90.442 321.979,90.154 321.953,90.154 322.110 M122.077 322.512 C 121.442 322.856,120.923 323.270,120.923 323.432 C 120.923 323.761,122.635 322.832,123.138 322.231 C 123.551 321.737,123.467 321.760,122.077 322.512 M92.000 323.033 C 92.000 323.349,92.932 323.786,93.147 323.571 C 93.222 323.496,92.995 323.280,92.642 323.091 C 92.289 322.902,92.000 322.876,92.000 323.033 M279.203 325.039 C 278.942 325.718,279.289 326.065,279.759 325.595 C 280.036 325.317,280.038 325.145,279.764 324.872 C 279.490 324.598,279.357 324.638,279.203 325.039 M264.059 325.562 C 264.120 325.743,264.301 325.892,264.462 325.892 C 264.622 325.892,264.803 325.743,264.864 325.562 C 264.925 325.380,264.744 325.231,264.462 325.231 C 264.179 325.231,263.998 325.380,264.059 325.562 M113.268 326.960 C 112.358 327.375,111.687 327.790,111.778 327.880 C 111.869 327.971,112.371 327.824,112.894 327.553 C 113.430 327.276,113.846 327.199,113.846 327.377 C 113.846 327.953,114.303 327.698,114.663 326.921 C 114.859 326.499,114.997 326.165,114.971 326.179 C 114.945 326.193,114.178 326.544,113.268 326.960 M280.615 326.615 C 280.615 326.869,280.739 327.077,280.890 327.077 C 281.041 327.077,281.245 326.869,281.342 326.615 C 281.450 326.334,281.343 326.154,281.067 326.154 C 280.819 326.154,280.615 326.362,280.615 326.615 M100.615 327.342 C 100.615 327.480,100.962 327.751,101.385 327.944 C 101.808 328.137,102.154 328.181,102.154 328.043 C 102.154 327.904,101.808 327.633,101.385 327.441 C 100.962 327.248,100.615 327.203,100.615 327.342 M271.077 328.154 C 271.077 328.408,271.285 328.615,271.538 328.615 C 271.792 328.615,272.000 328.408,272.000 328.154 C 272.000 327.900,271.792 327.692,271.538 327.692 C 271.285 327.692,271.077 327.900,271.077 328.154 M264.308 328.923 C 264.308 329.092,264.593 329.231,264.941 329.231 C 265.290 329.231,265.489 329.092,265.385 328.923 C 265.280 328.754,264.995 328.615,264.751 328.615 C 264.507 328.615,264.308 328.754,264.308 328.923 M108.000 329.308 C 108.000 329.435,108.269 329.538,108.597 329.538 C 108.926 329.538,109.259 329.435,109.337 329.308 C 109.416 329.181,109.147 329.077,108.740 329.077 C 108.333 329.077,108.000 329.181,108.000 329.308 M266.462 330.308 C 266.462 330.562,266.600 330.769,266.769 330.769 C 266.938 330.769,267.077 330.562,267.077 330.308 C 267.077 330.054,266.938 329.846,266.769 329.846 C 266.600 329.846,266.462 330.054,266.462 330.308 M257.744 331.897 C 257.390 332.251,257.520 332.615,258.000 332.615 C 258.254 332.615,258.462 332.408,258.462 332.154 C 258.462 331.673,258.098 331.543,257.744 331.897 M259.571 332.128 C 259.674 332.396,259.893 332.615,260.059 332.615 C 260.463 332.615,260.210 331.916,259.750 331.763 C 259.525 331.688,259.456 331.828,259.571 332.128 M272.308 332.154 C 272.308 332.408,272.446 332.615,272.615 332.615 C 272.785 332.615,272.923 332.408,272.923 332.154 C 272.923 331.900,272.785 331.692,272.615 331.692 C 272.446 331.692,272.308 331.900,272.308 332.154 M260.812 336.521 C 260.466 336.868,260.601 337.231,261.077 337.231 C 261.331 337.231,261.538 337.100,261.538 336.941 C 261.538 336.553,261.058 336.275,260.812 336.521 M253.538 338.308 C 253.538 338.562,253.677 338.769,253.846 338.769 C 254.015 338.769,254.154 338.562,254.154 338.308 C 254.154 338.054,254.015 337.846,253.846 337.846 C 253.677 337.846,253.538 338.054,253.538 338.308 M255.692 339.077 C 255.692 339.419,255.897 339.692,256.154 339.692 C 256.410 339.692,256.615 339.419,256.615 339.077 C 256.615 338.735,256.410 338.462,256.154 338.462 C 255.897 338.462,255.692 338.735,255.692 339.077 M262.154 338.769 C 262.154 338.938,262.362 339.077,262.615 339.077 C 262.869 339.077,263.077 338.938,263.077 338.769 C 263.077 338.600,262.869 338.462,262.615 338.462 C 262.362 338.462,262.154 338.600,262.154 338.769 M126.923 341.538 C 127.028 341.708,127.313 341.846,127.557 341.846 C 127.800 341.846,128.000 341.708,128.000 341.538 C 128.000 341.369,127.715 341.231,127.366 341.231 C 127.018 341.231,126.818 341.369,126.923 341.538 M261.532 341.700 C 261.318 341.958,261.229 342.254,261.333 342.359 C 261.557 342.582,262.462 341.894,262.462 341.501 C 262.462 341.077,261.960 341.184,261.532 341.700 M256.000 345.692 C 256.000 345.946,256.208 346.154,256.462 346.154 C 256.715 346.154,256.923 345.946,256.923 345.692 C 256.923 345.438,256.715 345.231,256.462 345.231 C 256.208 345.231,256.000 345.438,256.000 345.692 M256.308 347.846 C 256.518 348.100,256.898 348.308,257.152 348.308 C 257.528 348.308,257.542 348.222,257.231 347.846 C 257.020 347.592,256.640 347.385,256.386 347.385 C 256.011 347.385,255.996 347.471,256.308 347.846 " stroke="none" fill="#41495c" fill-rule="evenodd"></path><path id="path2" d="M173.000 104.538 C 177.358 104.586,184.488 104.586,188.846 104.538 C 193.204 104.490,189.638 104.451,180.923 104.451 C 172.208 104.451,168.642 104.490,173.000 104.538 M201.011 104.535 C 201.990 104.597,203.514 104.596,204.396 104.534 C 205.278 104.472,204.477 104.422,202.615 104.423 C 200.754 104.423,200.032 104.474,201.011 104.535 M225.308 104.538 C 235.250 104.583,251.519 104.583,261.462 104.538 C 271.404 104.493,263.269 104.457,243.385 104.457 C 223.500 104.457,215.365 104.493,225.308 104.538 M282.595 115.692 C 282.595 120.008,282.639 121.773,282.691 119.615 C 282.744 117.458,282.744 113.927,282.691 111.769 C 282.639 109.612,282.595 111.377,282.595 115.692 M165.958 112.069 C 165.881 112.192,171.496 112.293,178.434 112.294 C 185.372 112.294,191.111 112.194,191.188 112.070 C 191.264 111.947,185.649 111.846,178.711 111.846 C 171.773 111.846,166.034 111.947,165.958 112.069 M193.965 112.056 C 193.894 112.172,198.287 112.271,203.729 112.278 C 209.170 112.284,213.545 112.212,213.451 112.118 C 213.202 111.868,194.119 111.808,193.965 112.056 M229.639 112.231 C 237.902 112.276,251.332 112.276,259.485 112.231 C 267.637 112.185,260.877 112.148,244.462 112.148 C 228.046 112.148,221.376 112.185,229.639 112.231 M279.846 144.925 L 230.615 145.082 279.923 145.079 L 329.231 145.077 329.303 153.692 L 329.374 162.308 329.461 153.713 C 329.509 148.985,329.442 145.039,329.313 144.943 C 329.183 144.848,306.923 144.840,279.846 144.925 M234.609 181.077 C 234.609 197.323,234.647 203.924,234.692 195.746 C 234.738 187.568,234.738 174.275,234.692 166.207 C 234.647 158.139,234.609 164.831,234.609 181.077 M322.784 158.179 C 322.804 161.070,322.889 163.368,322.972 163.284 C 323.229 163.027,323.246 152.923,322.989 152.923 C 322.857 152.923,322.764 155.288,322.784 158.179 M330.795 163.187 C 330.865 163.247,331.408 163.385,332.000 163.494 C 332.758 163.633,332.940 163.602,332.615 163.389 C 332.198 163.115,330.490 162.926,330.795 163.187 M314.051 169.744 C 313.938 169.856,313.846 170.295,313.846 170.718 C 313.846 171.699,314.250 171.328,314.294 170.305 C 314.332 169.450,314.336 169.459,314.051 169.744 M329.374 195.846 C 329.374 205.154,329.413 209.006,329.461 204.406 C 329.509 199.807,329.509 192.191,329.461 187.483 C 329.414 182.775,329.374 186.538,329.374 195.846 M322.839 195.905 C 322.801 205.076,322.873 212.643,323.000 212.722 C 323.210 212.852,323.206 200.695,322.992 185.231 C 322.947 181.931,322.878 186.734,322.839 195.905 M256.923 193.486 C 256.923 193.865,260.221 193.928,260.452 193.553 C 260.583 193.342,260.009 193.231,258.787 193.231 C 257.762 193.231,256.923 193.346,256.923 193.486 M234.600 225.231 C 234.600 231.069,234.641 233.458,234.692 230.538 C 234.742 227.619,234.742 222.842,234.692 219.923 C 234.641 217.004,234.600 219.392,234.600 225.231 M329.367 236.154 C 329.367 241.231,329.409 243.351,329.461 240.865 C 329.512 238.379,329.513 234.226,329.461 231.634 C 329.409 229.043,329.367 231.077,329.367 236.154 M322.805 232.366 C 322.785 235.022,322.874 237.260,323.003 237.339 C 323.224 237.475,323.172 228.989,322.946 228.000 C 322.888 227.746,322.825 229.711,322.805 232.366 M255.024 245.462 C 268.449 245.506,290.326 245.506,303.640 245.462 C 316.953 245.417,305.969 245.381,279.231 245.381 C 252.492 245.381,241.599 245.417,255.024 245.462 M235.195 260.308 C 235.195 262.423,235.245 263.288,235.305 262.231 C 235.365 261.173,235.365 259.442,235.305 258.385 C 235.245 257.327,235.195 258.192,235.195 260.308 M282.543 286.735 C 282.519 291.200,282.595 294.731,282.712 294.581 C 282.828 294.431,282.847 290.777,282.754 286.462 L 282.586 278.615 282.543 286.735 M108.071 316.615 C 108.071 317.208,108.135 317.450,108.212 317.154 C 108.289 316.858,108.289 316.373,108.212 316.077 C 108.135 315.781,108.071 316.023,108.071 316.615 " stroke="none" fill="#343c54" fill-rule="evenodd"></path><path id="path3" d="M172.251 111.923 C 175.520 111.973,180.781 111.973,183.943 111.923 C 187.105 111.873,184.431 111.832,178.000 111.832 C 171.569 111.832,168.982 111.873,172.251 111.923 M199.018 111.922 C 201.100 111.976,204.424 111.975,206.402 111.922 C 208.381 111.868,206.677 111.825,202.615 111.825 C 198.554 111.825,196.935 111.869,199.018 111.922 M214.663 111.923 C 214.584 112.050,227.994 112.154,244.462 112.154 C 260.929 112.154,274.339 112.050,274.260 111.923 C 274.182 111.796,260.772 111.692,244.462 111.692 C 228.151 111.692,214.741 111.796,214.663 111.923 M227.479 137.768 C 229.477 137.822,232.662 137.822,234.556 137.768 C 236.450 137.714,234.815 137.670,230.923 137.670 C 227.031 137.671,225.481 137.715,227.479 137.768 M258.231 137.769 C 267.835 137.814,283.550 137.814,293.154 137.769 C 302.758 137.724,294.900 137.687,275.692 137.687 C 256.485 137.687,248.627 137.724,258.231 137.769 M319.154 137.769 C 321.988 137.819,326.627 137.819,329.462 137.769 C 332.296 137.718,329.977 137.676,324.308 137.676 C 318.638 137.676,316.319 137.718,319.154 137.769 M228.316 182.400 C 228.317 207.011,228.422 219.966,228.620 219.843 C 229.033 219.588,229.027 145.867,228.614 145.231 C 228.419 144.930,228.315 157.876,228.316 182.400 M323.076 158.062 C 322.992 160.635,323.031 162.632,323.163 162.500 C 323.294 162.368,323.363 160.263,323.315 157.822 L 323.229 153.385 323.076 158.062 M322.231 166.674 C 322.527 166.751,323.012 166.751,323.308 166.674 C 323.604 166.596,323.362 166.533,322.769 166.533 C 322.177 166.533,321.935 166.596,322.231 166.674 M325.462 166.688 C 326.350 166.751,327.804 166.751,328.692 166.688 C 329.581 166.626,328.854 166.575,327.077 166.575 C 325.300 166.575,324.573 166.626,325.462 166.688 M313.949 169.098 C 313.848 169.363,313.894 169.709,314.051 169.867 C 314.229 170.044,314.338 169.860,314.338 169.385 C 314.338 168.500,314.214 168.408,313.949 169.098 M334.359 169.436 C 334.037 169.758,334.119 171.077,334.462 171.077 C 334.631 171.077,334.769 170.662,334.769 170.154 C 334.769 169.198,334.707 169.088,334.359 169.436 M322.862 173.768 C 324.521 173.823,327.152 173.823,328.708 173.768 C 330.265 173.712,328.908 173.666,325.692 173.667 C 322.477 173.667,321.203 173.713,322.862 173.768 M323.003 192.568 C 323.047 200.632,323.124 208.477,323.175 210.000 C 323.225 211.523,323.284 204.984,323.306 195.468 C 323.328 185.952,323.251 178.107,323.134 178.035 C 323.018 177.963,322.959 184.503,323.003 192.568 M314.077 218.639 C 313.950 218.767,313.846 219.153,313.846 219.497 C 313.846 219.950,313.939 220.030,314.183 219.787 C 314.368 219.601,314.472 219.215,314.413 218.928 C 314.355 218.641,314.204 218.511,314.077 218.639 M317.458 219.658 C 317.375 219.978,317.426 220.428,317.571 220.658 C 317.752 220.943,317.838 220.757,317.841 220.077 C 317.847 218.957,317.687 218.783,317.458 219.658 M334.331 219.784 C 334.193 220.257,334.166 220.730,334.271 220.835 C 334.615 221.179,334.818 220.688,334.698 219.797 L 334.581 218.923 334.331 219.784 M228.315 232.945 C 228.302 241.238,228.399 245.211,228.610 245.080 C 229.026 244.823,229.044 220.615,228.628 220.615 C 228.445 220.615,228.326 225.295,228.315 232.945 M323.005 230.076 C 323.152 234.856,323.276 235.326,323.331 231.308 C 323.360 229.150,323.281 227.384,323.154 227.384 C 323.027 227.384,322.960 228.595,323.005 230.076 M124.923 228.929 C 124.557 229.170,124.603 229.213,125.146 229.137 C 125.522 229.084,125.926 228.946,126.043 228.828 C 126.370 228.502,125.446 228.585,124.923 228.929 M229.111 245.483 C 229.026 245.621,229.364 245.675,229.862 245.602 C 230.361 245.529,230.769 245.415,230.769 245.350 C 230.769 245.115,229.264 245.236,229.111 245.483 M251.000 252.538 C 266.273 252.583,291.265 252.583,306.538 252.538 C 321.812 252.494,309.315 252.458,278.769 252.458 C 248.223 252.458,235.727 252.494,251.000 252.538 M299.143 260.513 C 299.107 262.403,298.997 264.203,298.900 264.513 C 298.737 265.032,298.750 265.035,299.064 264.548 C 299.278 264.215,299.369 262.731,299.307 260.548 L 299.208 257.077 299.143 260.513 " stroke="none" fill="#2f374a" fill-rule="evenodd"></path><path id="path4" d="M119.119 72.744 C 119.692 73.235,120.584 73.507,120.447 73.149 C 120.361 72.927,120.003 72.723,119.650 72.697 C 119.296 72.670,119.058 72.691,119.119 72.744 M105.068 126.154 C 105.068 136.562,105.106 140.819,105.154 135.615 C 105.201 130.412,105.201 121.896,105.154 116.692 C 105.106 111.488,105.068 115.746,105.068 126.154 M161.694 107.690 C 161.590 107.858,161.647 108.239,161.820 108.536 C 162.090 109.000,162.136 108.957,162.144 108.231 C 162.154 107.346,162.012 107.175,161.694 107.690 M108.452 126.462 C 108.452 136.362,108.491 140.412,108.538 135.462 C 108.586 130.512,108.586 122.412,108.538 117.462 C 108.491 112.512,108.452 116.562,108.452 126.462 M338.149 155.308 C 338.147 163.219,338.030 169.512,337.890 169.292 C 337.736 169.048,337.631 169.469,337.623 170.369 C 337.614 171.418,337.682 171.668,337.860 171.231 C 337.998 170.892,338.118 181.554,338.128 194.923 C 338.139 210.722,338.040 219.069,337.846 218.769 C 337.628 218.431,337.547 218.658,337.543 219.615 C 337.541 220.335,337.674 220.923,337.840 220.923 C 338.027 220.923,338.176 223.663,338.231 228.077 C 338.280 232.012,338.352 214.012,338.391 188.077 C 338.430 162.142,338.392 140.923,338.308 140.923 C 338.223 140.923,338.152 147.396,338.149 155.308 M228.509 144.538 C 228.380 144.747,262.733 144.746,310.923 144.536 C 320.908 144.492,306.481 144.423,278.864 144.382 C 251.247 144.341,228.588 144.412,228.509 144.538 M234.911 151.462 C 234.830 151.673,234.801 165.069,234.845 181.231 L 234.926 210.615 235.002 181.001 L 235.077 151.387 278.231 151.308 L 321.385 151.229 278.221 151.153 C 243.918 151.092,235.028 151.156,234.911 151.462 M321.337 166.846 C 321.259 166.973,323.556 167.077,326.443 167.077 C 329.330 167.077,331.692 166.973,331.692 166.846 C 331.693 166.719,329.395 166.615,326.586 166.615 C 323.778 166.615,321.416 166.719,321.337 166.846 M290.062 179.795 C 289.976 180.021,290.093 180.205,290.323 180.205 C 290.554 180.205,290.678 180.102,290.600 179.975 C 290.522 179.848,290.632 179.675,290.844 179.589 C 291.091 179.490,291.047 179.424,290.725 179.409 C 290.447 179.396,290.149 179.569,290.062 179.795 M248.692 190.366 C 248.988 190.443,249.473 190.443,249.769 190.366 C 250.065 190.289,249.823 190.225,249.231 190.225 C 248.638 190.225,248.396 190.289,248.692 190.366 M104.923 218.215 C 104.838 228.657,104.874 237.095,105.002 236.967 C 105.131 236.839,105.200 228.296,105.156 217.982 L 105.077 199.231 104.923 218.215 M105.616 200.462 C 105.619 201.138,105.682 201.379,105.756 200.996 C 105.830 200.614,105.827 200.060,105.750 199.766 C 105.673 199.471,105.613 199.785,105.616 200.462 M108.382 218.039 C 108.320 233.743,108.378 236.906,108.733 237.201 C 109.061 237.473,109.199 237.449,109.333 237.100 C 109.450 236.795,109.362 236.702,109.064 236.817 C 108.681 236.964,108.609 234.399,108.538 218.109 L 108.457 199.231 108.382 218.039 M234.909 225.692 C 234.909 232.123,234.950 234.798,235.000 231.636 C 235.049 228.474,235.050 223.212,235.000 219.943 C 234.950 216.674,234.909 219.262,234.909 225.692 M320.233 223.437 C 320.020 223.572,321.092 223.669,322.615 223.652 C 325.614 223.618,325.585 223.487,322.541 223.306 C 321.484 223.243,320.446 223.302,320.233 223.437 M328.852 223.608 C 329.405 223.676,330.235 223.675,330.698 223.604 C 331.160 223.534,330.708 223.478,329.692 223.480 C 328.677 223.482,328.299 223.539,328.852 223.608 M320.385 227.297 C 320.850 227.368,321.612 227.368,322.077 227.297 C 322.542 227.227,322.162 227.169,321.231 227.169 C 320.300 227.169,319.919 227.227,320.385 227.297 M330.231 227.297 C 330.696 227.368,331.458 227.368,331.923 227.297 C 332.388 227.227,332.008 227.169,331.077 227.169 C 330.146 227.169,329.765 227.227,330.231 227.297 M338.285 242.462 C 338.285 246.269,338.330 247.827,338.384 245.923 C 338.438 244.019,338.438 240.904,338.384 239.000 C 338.330 237.096,338.285 238.654,338.285 242.462 M254.255 245.769 C 268.103 245.814,290.672 245.814,304.409 245.769 C 318.146 245.725,306.815 245.689,279.231 245.689 C 251.646 245.689,240.407 245.725,254.255 245.769 M235.814 260.154 C 235.814 262.523,235.862 263.452,235.921 262.217 C 235.980 260.983,235.979 259.045,235.920 257.910 C 235.861 256.775,235.813 257.785,235.814 260.154 M323.077 260.000 C 323.077 262.256,323.161 264.019,323.263 263.916 C 323.476 263.704,323.433 256.254,323.218 256.038 C 323.140 255.961,323.077 257.744,323.077 260.000 M192.538 290.692 C 207.642 290.736,232.358 290.736,247.462 290.692 C 262.565 290.648,250.208 290.612,220.000 290.612 C 189.792 290.612,177.435 290.648,192.538 290.692 M104.923 310.215 C 104.838 320.657,104.874 329.095,105.002 328.967 C 105.131 328.839,105.200 320.296,105.156 309.982 L 105.077 291.231 104.923 310.215 M108.452 310.154 C 108.452 319.885,108.491 323.865,108.538 319.000 C 108.586 314.135,108.586 306.173,108.538 301.308 C 108.491 296.442,108.452 300.423,108.452 310.154 " stroke="none" fill="#242c44" fill-rule="evenodd"></path></g></svg>