<svg id="svg" version="1.1" xmlns="http://www.w3.org/2000/svg" xmlns:xlink="http://www.w3.org/1999/xlink" width="400" height="400" viewBox="0, 0, 400,400"><g id="svgg"><path id="path0" d="M316.898 161.292 C 316.470 161.689,316.016 162.284,315.889 162.614 C 315.696 163.118,315.613 163.141,315.373 162.761 C 315.091 162.315,314.917 162.680,315.040 163.462 C 315.061 163.588,314.785 163.692,314.429 163.692 C 313.979 163.692,313.835 163.834,313.957 164.154 C 314.065 164.435,313.958 164.615,313.683 164.615 C 313.434 164.615,313.265 164.719,313.308 164.846 C 313.350 164.973,313.246 165.121,313.077 165.176 C 311.657 165.632,311.594 167.101,312.878 169.846 C 313.234 170.608,313.528 171.480,313.532 171.785 C 313.535 172.090,313.802 172.852,314.125 173.478 C 314.447 174.103,314.850 175.169,315.021 175.846 C 315.485 177.694,316.294 179.970,317.098 181.692 C 317.493 182.538,317.908 183.646,318.020 184.154 C 318.133 184.662,318.547 185.769,318.941 186.615 C 320.372 189.688,321.986 189.363,304.400 189.538 C 292.623 189.656,288.862 189.784,288.569 190.077 C 288.358 190.288,288.066 190.462,287.920 190.462 C 287.775 190.462,287.755 190.288,287.877 190.077 C 287.999 189.865,287.471 190.345,286.705 191.143 C 285.939 191.941,285.240 192.523,285.153 192.435 C 285.066 192.348,284.852 192.685,284.677 193.185 C 284.494 193.711,283.631 194.645,282.627 195.403 C 281.473 196.274,280.953 196.864,281.069 197.168 C 281.215 197.548,281.165 197.559,280.769 197.231 C 280.369 196.898,280.324 196.916,280.487 197.341 C 280.663 197.800,282.248 197.852,297.802 197.910 C 320.540 197.995,321.044 198.002,321.434 198.243 C 322.126 198.671,321.798 211.263,321.077 211.977 C 320.475 212.573,319.859 212.589,293.077 212.726 C 263.799 212.875,264.456 212.866,264.724 213.134 C 264.821 213.232,264.753 213.589,264.571 213.928 C 264.306 214.425,264.189 214.462,263.972 214.118 C 263.775 213.807,263.699 213.900,263.692 214.462 C 263.686 214.982,263.601 215.102,263.431 214.833 C 263.249 214.547,262.939 214.781,262.320 215.674 C 261.848 216.355,261.338 216.835,261.185 216.741 C 261.033 216.647,260.928 216.684,260.952 216.823 C 261.052 217.400,260.907 217.872,260.673 217.728 C 260.536 217.643,260.016 217.842,259.519 218.169 C 259.022 218.497,258.784 218.766,258.990 218.767 C 259.203 218.768,259.286 218.977,259.181 219.248 C 259.080 219.512,258.837 219.666,258.642 219.591 C 258.446 219.516,258.286 219.716,258.286 220.035 C 258.286 220.599,259.039 220.615,285.579 220.615 C 300.591 220.615,313.057 220.686,313.283 220.772 C 313.611 220.898,313.688 222.601,313.672 229.311 C 313.661 233.921,313.700 235.996,313.758 233.923 C 313.827 231.501,313.983 230.154,314.196 230.154 C 314.378 230.154,314.448 229.946,314.350 229.692 C 314.253 229.438,314.281 229.231,314.412 229.231 C 314.544 229.231,314.920 229.013,315.249 228.746 C 315.577 228.480,315.638 228.364,315.385 228.488 C 315.131 228.612,315.026 228.601,315.151 228.462 C 315.277 228.324,315.207 228.002,314.997 227.748 C 314.660 227.340,314.697 227.336,315.317 227.720 C 315.926 228.097,316.057 228.093,316.312 227.692 C 316.507 227.386,316.608 227.360,316.611 227.615 C 316.613 227.827,316.735 228.000,316.880 228.000 C 317.026 228.000,317.078 227.619,316.996 227.154 C 316.873 226.460,316.919 226.377,317.254 226.692 C 317.799 227.206,318.050 227.177,318.282 226.572 C 318.451 226.130,318.409 226.121,317.949 226.495 C 317.484 226.874,317.448 226.858,317.635 226.359 C 317.751 226.049,317.846 225.660,317.846 225.495 C 317.846 225.329,318.262 225.259,318.771 225.340 C 319.280 225.420,319.625 225.371,319.538 225.230 C 319.452 225.090,319.555 224.906,319.767 224.820 C 320.001 224.726,319.940 224.654,319.615 224.640 C 318.865 224.606,318.937 224.132,319.692 224.132 C 320.031 224.132,320.308 224.249,320.308 224.392 C 320.308 224.535,320.446 224.566,320.615 224.462 C 321.080 224.174,320.984 223.692,320.462 223.692 C 320.208 223.692,320.000 223.531,320.000 223.333 C 320.000 223.136,320.091 223.065,320.202 223.177 C 320.314 223.288,320.589 223.226,320.814 223.040 C 321.396 222.556,321.510 223.034,321.631 226.462 C 321.712 228.755,321.739 228.500,321.757 225.280 C 321.781 220.775,321.720 220.931,323.917 219.752 C 325.871 218.702,327.289 217.433,328.462 215.684 L 329.385 214.308 329.473 203.270 C 329.555 192.905,329.525 192.163,328.973 191.104 C 328.650 190.483,328.281 189.496,328.155 188.911 C 328.028 188.325,327.595 187.224,327.193 186.464 C 326.791 185.704,326.462 184.764,326.462 184.375 C 326.462 183.986,326.182 183.120,325.840 182.450 C 325.499 181.781,325.134 180.609,325.029 179.847 C 324.925 179.085,324.724 178.462,324.582 178.462 C 324.441 178.462,324.099 177.665,323.823 176.692 C 323.547 175.719,323.148 174.646,322.935 174.308 C 322.723 173.969,322.326 172.931,322.054 172.000 C 321.782 171.069,321.277 169.759,320.933 169.089 C 320.589 168.418,320.308 167.571,320.308 167.205 C 320.308 166.839,320.040 165.934,319.712 165.193 C 319.385 164.452,319.041 163.431,318.949 162.924 C 318.858 162.416,318.594 161.863,318.364 161.693 C 318.134 161.523,317.886 161.201,317.812 160.977 C 317.714 160.682,317.463 160.768,316.898 161.292 M87.006 198.069 C 87.559 198.138,88.389 198.136,88.852 198.066 C 89.314 197.996,88.862 197.940,87.846 197.941 C 86.831 197.943,86.452 198.001,87.006 198.069 M327.682 216.326 C 327.252 217.131,327.133 217.077,327.309 216.157 C 327.389 215.736,327.578 215.468,327.728 215.561 C 327.883 215.656,327.863 215.988,327.682 216.326 M222.675 254.967 C 222.581 255.060,222.572 255.314,222.655 255.531 C 222.744 255.764,222.485 256.005,222.018 256.122 C 221.585 256.230,221.231 256.465,221.231 256.643 C 221.231 257.073,220.442 257.846,220.004 257.846 C 219.813 257.846,219.741 257.984,219.845 258.153 C 219.949 258.321,219.692 258.615,219.272 258.806 C 218.853 258.997,218.565 259.309,218.631 259.500 C 218.698 259.690,218.387 260.112,217.941 260.437 C 217.446 260.798,217.232 260.858,217.393 260.591 C 217.615 260.223,217.577 260.218,217.154 260.561 C 216.878 260.785,216.732 261.176,216.829 261.430 C 216.941 261.722,216.850 261.858,216.580 261.798 C 215.989 261.668,214.360 263.132,214.796 263.401 C 214.992 263.522,214.764 263.726,214.260 263.882 C 213.651 264.071,215.067 264.201,218.923 264.308 L 224.462 264.462 224.615 283.446 C 224.725 296.940,224.870 302.531,225.116 302.778 C 225.955 303.617,230.350 303.954,233.220 303.401 C 235.856 302.892,235.692 304.226,235.692 283.230 C 235.692 266.600,235.743 264.662,236.179 264.494 C 236.447 264.392,239.056 264.308,241.977 264.308 C 248.186 264.308,248.180 264.310,248.614 261.239 C 248.971 258.714,248.537 256.023,247.657 255.301 C 247.004 254.765,223.195 254.446,222.675 254.967 M254.448 255.462 C 253.741 255.938,253.301 256.554,253.071 257.389 C 252.666 258.860,252.425 299.385,252.821 299.383 C 252.962 299.383,253.120 297.617,253.172 295.460 C 253.283 290.902,253.622 289.408,254.494 289.636 C 254.814 289.720,255.156 289.659,255.253 289.502 C 255.351 289.344,255.316 289.235,255.177 289.260 C 254.574 289.364,254.256 289.201,254.256 288.786 C 254.256 288.542,254.388 288.369,254.549 288.402 C 254.710 288.435,254.884 288.207,254.936 287.895 C 254.988 287.583,255.132 287.237,255.257 287.126 C 255.381 287.014,255.394 287.171,255.285 287.473 C 255.163 287.812,255.255 288.088,255.524 288.191 C 255.765 288.283,255.890 288.589,255.803 288.872 C 255.669 289.309,255.697 289.305,255.993 288.844 C 256.185 288.546,256.238 288.131,256.111 287.921 C 255.931 287.621,255.980 287.618,256.338 287.907 C 256.712 288.209,256.803 288.163,256.842 287.652 C 256.918 286.639,257.511 286.117,258.179 286.475 C 258.640 286.722,258.720 286.690,258.576 286.317 C 258.478 286.060,258.283 285.920,258.143 286.007 C 258.003 286.093,257.802 286.023,257.695 285.851 C 257.420 285.406,258.257 285.463,258.753 285.923 C 259.084 286.231,259.124 286.231,258.950 285.923 C 258.831 285.712,258.867 285.538,259.030 285.538 C 259.193 285.538,259.259 285.277,259.175 284.957 C 259.067 284.545,259.296 284.213,259.956 283.823 C 260.470 283.520,260.832 283.179,260.762 283.065 C 260.692 282.951,260.976 282.923,261.394 283.003 C 261.867 283.094,262.154 283.007,262.154 282.772 C 262.154 282.547,261.937 282.471,261.615 282.583 C 261.109 282.760,261.109 282.746,261.621 282.348 C 261.956 282.087,262.095 281.703,261.984 281.347 C 261.868 280.977,261.960 281.031,262.240 281.498 C 262.617 282.127,262.703 282.156,262.874 281.709 C 262.992 281.402,263.229 281.282,263.459 281.414 C 263.672 281.537,263.743 281.523,263.617 281.385 C 263.491 281.246,263.661 280.941,263.995 280.708 C 264.423 280.407,264.569 280.013,264.493 279.360 C 264.434 278.852,264.459 278.510,264.549 278.600 C 264.639 278.690,264.925 278.592,265.185 278.382 C 265.561 278.077,265.610 278.078,265.426 278.385 C 265.278 278.631,265.379 278.769,265.708 278.769 C 266.108 278.769,266.179 278.584,266.031 277.923 L 265.841 277.077 266.318 277.846 C 266.761 278.561,266.782 278.566,266.607 277.923 C 266.476 277.436,266.553 277.231,266.869 277.231 C 267.116 277.231,267.405 276.885,267.511 276.462 C 267.664 275.852,267.898 275.692,268.639 275.692 C 269.171 275.692,269.494 275.562,269.389 275.391 C 269.286 275.225,269.352 274.810,269.535 274.468 C 269.856 273.869,269.780 273.846,267.472 273.842 C 263.517 273.835,263.800 274.199,263.749 269.061 C 263.695 263.518,262.840 264.000,272.728 264.000 L 280.573 264.000 281.287 263.000 C 282.299 261.581,282.339 257.116,281.351 255.792 L 280.703 254.923 268.094 254.843 L 255.486 254.762 254.448 255.462 M208.538 269.550 C 208.073 270.057,207.692 270.592,207.692 270.739 C 207.692 270.887,207.214 271.234,206.628 271.512 C 205.517 272.039,204.948 272.615,205.538 272.615 C 205.728 272.615,205.801 272.748,205.701 272.910 C 205.601 273.071,205.281 273.119,204.990 273.014 C 204.699 272.910,204.563 272.937,204.688 273.074 C 204.812 273.212,204.673 273.521,204.380 273.762 C 204.086 274.002,204.041 274.099,204.278 273.975 C 204.547 273.836,204.634 273.875,204.509 274.077 C 204.398 274.257,204.030 274.331,203.692 274.243 C 203.218 274.119,203.077 274.234,203.077 274.741 C 203.077 275.161,202.798 275.506,202.308 275.692 C 201.885 275.853,201.538 276.066,201.538 276.164 C 201.538 276.263,201.677 276.258,201.846 276.154 C 202.015 276.049,202.154 276.089,202.154 276.241 C 202.154 276.394,201.680 276.774,201.100 277.086 C 199.718 277.830,199.386 278.646,199.377 281.322 C 199.368 283.880,198.999 285.764,198.143 287.612 C 197.810 288.329,197.538 289.103,197.538 289.332 C 197.538 289.935,194.431 293.140,193.615 293.378 C 193.235 293.489,192.923 293.698,192.923 293.843 C 192.923 294.438,190.589 294.812,187.158 294.767 C 182.786 294.709,182.760 294.711,182.806 295.000 C 182.886 295.508,182.759 296.093,182.603 295.936 C 182.361 295.694,180.615 297.297,180.615 297.761 C 180.615 297.977,180.404 298.154,180.146 298.154 C 179.888 298.154,179.545 298.500,179.385 298.923 C 179.053 299.795,178.708 299.975,178.942 299.154 C 179.027 298.858,178.932 298.927,178.732 299.308 C 178.531 299.688,178.242 300.000,178.089 300.000 C 177.935 300.000,177.895 300.138,178.000 300.308 C 178.105 300.477,178.044 300.633,177.864 300.654 C 177.685 300.675,177.365 300.716,177.154 300.745 C 176.942 300.774,176.804 300.964,176.846 301.168 C 176.888 301.372,176.710 301.538,176.449 301.538 C 176.060 301.538,176.046 301.615,176.372 301.968 C 176.591 302.204,176.865 302.339,176.981 302.269 C 177.098 302.199,177.310 302.349,177.452 302.604 C 177.595 302.859,178.399 303.203,179.240 303.368 C 180.081 303.534,181.738 303.880,182.923 304.137 C 185.635 304.726,189.107 304.727,191.692 304.139 C 192.792 303.890,194.523 303.529,195.538 303.338 C 196.554 303.147,197.715 302.733,198.118 302.418 C 198.522 302.104,199.125 301.846,199.459 301.846 C 199.792 301.846,200.500 301.504,201.033 301.087 C 203.757 298.948,204.575 298.209,205.403 297.144 C 205.901 296.504,206.600 295.604,206.958 295.144 C 207.316 294.684,207.713 293.962,207.840 293.538 C 207.968 293.115,208.291 292.520,208.559 292.216 C 210.640 289.848,212.194 271.247,210.405 270.112 C 210.182 269.971,210.121 269.853,210.268 269.851 C 210.416 269.848,210.383 269.660,210.194 269.433 C 210.006 269.206,209.943 268.929,210.054 268.818 C 210.165 268.706,210.060 268.618,209.821 268.621 C 209.581 268.624,209.004 269.042,208.538 269.550 M137.578 340.499 C 137.197 340.690,136.879 340.967,136.873 341.115 C 136.867 341.263,136.730 341.348,136.570 341.303 C 136.410 341.258,136.320 341.462,136.370 341.757 C 136.423 342.068,136.267 342.297,136.000 342.301 C 135.746 342.305,135.538 342.481,135.538 342.692 C 135.538 342.904,135.466 343.042,135.377 343.000 C 135.289 342.958,134.882 343.235,134.473 343.615 C 134.065 343.996,133.620 344.308,133.486 344.308 C 133.352 344.308,133.156 344.653,133.050 345.076 C 132.944 345.499,132.504 346.018,132.072 346.230 C 131.153 346.681,130.532 347.558,130.883 347.908 C 131.018 348.043,148.105 348.193,168.855 348.240 C 189.606 348.288,206.515 348.259,206.433 348.176 C 206.350 348.093,204.107 348.007,201.449 347.985 C 198.788 347.962,196.615 347.818,196.615 347.664 C 196.615 347.510,196.819 347.385,197.067 347.385 C 197.328 347.385,197.449 347.203,197.354 346.954 C 197.128 346.366,197.849 345.971,198.184 346.499 C 198.356 346.772,198.454 346.793,198.457 346.560 C 198.459 346.361,198.253 345.989,197.998 345.734 C 197.710 345.446,197.652 345.197,197.844 345.078 C 198.014 344.973,198.154 345.033,198.154 345.213 C 198.154 345.392,198.362 345.538,198.615 345.538 C 198.869 345.538,199.077 345.391,199.077 345.210 C 199.077 345.017,199.342 344.966,199.718 345.085 C 200.334 345.281,200.340 345.259,199.865 344.534 C 199.409 343.837,199.411 343.746,199.889 343.351 C 200.305 343.008,200.434 343.002,200.541 343.321 C 200.730 343.881,201.538 343.180,201.538 342.457 C 201.538 341.884,202.322 341.416,202.793 341.707 C 202.945 341.801,202.987 341.663,202.887 341.401 C 202.750 341.044,202.907 340.923,203.506 340.923 C 204.400 340.923,204.611 340.452,203.769 340.336 C 201.668 340.044,138.176 340.201,137.578 340.499 " stroke="none" fill="#54cbfb" fill-rule="evenodd"></path><path id="path1" d="M327.319 216.103 C 327.235 216.541,327.330 216.821,327.562 216.821 C 327.772 216.821,327.863 216.616,327.765 216.360 C 327.636 216.025,327.707 215.971,328.025 216.162 C 328.398 216.387,328.400 216.350,328.039 215.905 C 327.500 215.241,327.483 215.245,327.319 216.103 M320.783 223.055 C 320.667 223.242,320.444 223.315,320.286 223.218 C 320.129 223.120,320.000 223.187,320.000 223.366 C 320.000 223.546,320.208 223.692,320.462 223.692 C 320.984 223.692,321.080 224.174,320.615 224.462 C 320.446 224.566,320.308 224.535,320.308 224.392 C 320.308 224.249,320.031 224.132,319.692 224.132 C 318.937 224.132,318.865 224.606,319.615 224.640 C 319.940 224.654,320.001 224.726,319.767 224.820 C 319.555 224.906,319.452 225.090,319.538 225.230 C 319.625 225.371,319.280 225.420,318.771 225.340 C 318.262 225.259,317.846 225.329,317.846 225.495 C 317.846 225.660,317.751 226.049,317.635 226.359 C 317.448 226.858,317.484 226.874,317.949 226.495 C 318.409 226.121,318.451 226.130,318.282 226.572 C 318.050 227.177,317.799 227.206,317.254 226.692 C 316.919 226.377,316.873 226.460,316.996 227.154 C 317.078 227.619,317.026 228.000,316.880 228.000 C 316.735 228.000,316.613 227.827,316.611 227.615 C 316.608 227.360,316.507 227.386,316.312 227.692 C 316.057 228.093,315.926 228.097,315.317 227.720 C 314.697 227.336,314.660 227.340,314.997 227.748 C 315.207 228.002,315.277 228.324,315.151 228.462 C 315.026 228.601,315.131 228.612,315.385 228.488 C 315.638 228.364,315.577 228.480,315.249 228.746 C 314.920 229.013,314.531 229.231,314.385 229.231 C 314.238 229.231,314.213 229.385,314.329 229.573 C 314.445 229.761,314.350 230.033,314.116 230.177 C 313.759 230.398,313.680 238.945,313.614 284.373 C 313.571 314.037,313.469 338.604,313.386 338.966 C 313.131 340.084,312.985 340.087,258.019 340.140 C 216.955 340.179,204.472 340.276,204.378 340.557 C 204.311 340.758,203.907 340.923,203.480 340.923 C 202.905 340.923,202.751 341.047,202.887 341.401 C 202.987 341.663,202.945 341.801,202.793 341.707 C 202.322 341.416,201.538 341.884,201.538 342.457 C 201.538 343.180,200.730 343.881,200.541 343.321 C 200.434 343.002,200.305 343.008,199.889 343.351 C 199.411 343.746,199.409 343.837,199.865 344.534 C 200.340 345.259,200.334 345.281,199.718 345.085 C 199.342 344.966,199.077 345.017,199.077 345.210 C 199.077 345.391,198.869 345.538,198.615 345.538 C 198.362 345.538,198.154 345.392,198.154 345.213 C 198.154 345.033,198.014 344.973,197.844 345.078 C 197.652 345.197,197.710 345.446,197.998 345.734 C 198.253 345.989,198.459 346.361,198.457 346.560 C 198.454 346.793,198.356 346.772,198.184 346.499 C 197.849 345.971,197.128 346.366,197.354 346.954 C 197.449 347.203,197.328 347.385,197.067 347.385 C 196.517 347.385,196.463 347.866,197.000 347.977 C 197.212 348.021,223.476 348.123,255.365 348.204 L 313.345 348.350 315.057 347.498 C 315.999 347.029,317.068 346.362,317.433 346.015 C 317.797 345.668,318.282 345.229,318.509 345.038 C 319.396 344.294,320.176 343.161,320.918 341.538 L 321.692 339.846 321.692 281.631 C 321.692 224.276,321.652 221.649,320.783 223.055 M269.520 274.497 C 269.345 274.823,269.286 275.225,269.389 275.391 C 269.494 275.562,269.171 275.692,268.639 275.692 C 267.898 275.692,267.664 275.852,267.511 276.462 C 267.405 276.885,267.116 277.231,266.869 277.231 C 266.553 277.231,266.476 277.436,266.607 277.923 C 266.782 278.566,266.761 278.561,266.318 277.846 L 265.841 277.077 266.031 277.923 C 266.179 278.584,266.108 278.769,265.708 278.769 C 265.379 278.769,265.278 278.631,265.426 278.385 C 265.610 278.078,265.561 278.077,265.185 278.382 C 264.925 278.592,264.639 278.690,264.549 278.600 C 264.459 278.510,264.434 278.852,264.493 279.360 C 264.569 280.013,264.423 280.407,263.995 280.708 C 263.661 280.941,263.491 281.246,263.617 281.385 C 263.743 281.523,263.672 281.537,263.459 281.414 C 263.229 281.282,262.992 281.402,262.874 281.709 C 262.703 282.156,262.617 282.127,262.240 281.498 C 261.960 281.031,261.868 280.977,261.984 281.347 C 262.095 281.703,261.956 282.087,261.621 282.348 C 261.109 282.746,261.109 282.760,261.615 282.583 C 261.937 282.471,262.154 282.547,262.154 282.772 C 262.154 283.007,261.867 283.094,261.394 283.003 C 260.976 282.923,260.692 282.951,260.762 283.065 C 260.832 283.179,260.470 283.520,259.956 283.823 C 259.296 284.213,259.067 284.545,259.175 284.957 C 259.259 285.277,259.193 285.538,259.030 285.538 C 258.867 285.538,258.831 285.712,258.950 285.923 C 259.124 286.231,259.084 286.231,258.753 285.923 C 258.257 285.463,257.420 285.406,257.695 285.851 C 257.802 286.023,258.003 286.093,258.143 286.007 C 258.283 285.920,258.478 286.060,258.576 286.317 C 258.720 286.690,258.640 286.722,258.179 286.475 C 257.511 286.117,256.918 286.639,256.842 287.652 C 256.803 288.163,256.712 288.209,256.338 287.907 C 255.980 287.618,255.931 287.621,256.111 287.921 C 256.238 288.131,256.185 288.546,255.993 288.844 C 255.697 289.305,255.669 289.309,255.803 288.872 C 255.890 288.589,255.765 288.283,255.524 288.191 C 255.255 288.088,255.163 287.812,255.285 287.473 C 255.394 287.171,255.381 287.014,255.257 287.126 C 255.132 287.237,254.988 287.583,254.936 287.895 C 254.884 288.207,254.710 288.435,254.549 288.402 C 254.388 288.369,254.256 288.542,254.256 288.786 C 254.256 289.201,254.574 289.364,255.177 289.260 C 255.316 289.235,255.351 289.344,255.253 289.502 C 255.156 289.659,254.814 289.720,254.494 289.636 C 253.622 289.408,253.283 290.902,253.172 295.460 C 253.120 297.617,252.992 299.383,252.887 299.383 C 252.457 299.386,253.210 301.962,253.819 302.572 C 254.473 303.225,254.595 303.231,267.744 303.231 L 281.010 303.231 281.639 302.389 C 282.843 300.777,282.621 296.104,281.287 294.996 C 280.959 294.723,278.438 294.572,272.375 294.462 L 263.920 294.308 263.883 288.395 L 263.846 282.482 270.897 282.492 L 277.948 282.502 278.877 281.572 C 280.207 280.242,280.196 276.602,278.856 274.912 L 278.000 273.833 273.919 273.868 C 270.223 273.900,269.807 273.960,269.520 274.497 " stroke="none" fill="#2ad1fb" fill-rule="evenodd"></path><path id="path2" d="M203.581 42.252 C 202.796 42.983,202.154 43.820,202.154 44.113 C 202.154 44.405,201.808 45.294,201.385 46.089 C 200.962 46.883,200.615 47.726,200.615 47.961 C 200.615 48.196,200.353 48.821,200.033 49.348 C 199.713 49.876,199.358 50.748,199.244 51.286 C 199.130 51.825,198.846 52.424,198.611 52.619 C 198.377 52.813,198.034 53.480,197.848 54.102 C 197.663 54.723,197.249 55.785,196.929 56.462 C 195.706 59.044,195.124 60.495,194.930 61.440 C 194.820 61.979,194.531 62.584,194.289 62.785 C 194.046 62.986,193.646 63.831,193.399 64.663 C 193.152 65.494,192.667 66.572,192.321 67.058 C 191.975 67.544,191.691 68.127,191.689 68.355 C 191.688 68.583,191.346 69.462,190.930 70.308 C 190.514 71.154,190.169 72.141,190.163 72.501 C 190.158 72.861,189.947 73.327,189.694 73.537 C 189.441 73.747,189.069 74.491,188.869 75.190 C 188.668 75.890,188.271 76.808,187.987 77.231 C 187.703 77.654,187.294 78.554,187.080 79.231 C 186.865 79.908,186.582 80.600,186.451 80.769 C 186.154 81.155,184.000 86.657,184.000 87.033 C 184.000 87.185,183.793 87.481,183.541 87.690 C 183.288 87.900,182.929 88.644,182.743 89.344 C 182.557 90.043,182.222 90.823,182.000 91.077 C 181.778 91.331,181.431 92.162,181.231 92.923 C 181.030 93.685,180.686 94.515,180.467 94.769 C 180.248 95.023,179.966 95.715,179.840 96.308 C 179.715 96.900,179.349 97.720,179.028 98.130 C 178.707 98.539,178.294 99.470,178.111 100.197 C 177.928 100.925,177.585 101.679,177.350 101.875 C 177.115 102.070,176.923 102.469,176.923 102.761 C 176.923 103.054,176.594 103.911,176.192 104.667 C 175.791 105.423,175.361 106.378,175.238 106.790 C 174.952 107.741,174.009 109.890,173.052 111.769 C 172.643 112.573,172.308 113.489,172.308 113.805 C 172.308 114.120,172.051 114.709,171.737 115.112 C 171.423 115.516,171.005 116.342,170.807 116.948 C 170.610 117.554,170.174 118.588,169.839 119.244 C 169.505 119.901,169.231 120.632,169.231 120.869 C 169.231 121.107,168.976 121.804,168.664 122.420 C 167.158 125.395,166.154 127.642,166.154 128.037 C 166.154 128.276,165.808 128.982,165.385 129.605 C 164.962 130.227,164.615 131.021,164.615 131.368 C 164.615 132.023,154.232 132.154,113.077 132.017 C 104.359 131.988,101.848 132.262,100.745 133.364 C 100.452 133.658,99.908 134.013,99.536 134.155 C 98.522 134.540,96.007 137.641,95.645 138.952 C 95.470 139.585,95.076 140.460,94.769 140.897 C 94.462 141.335,94.119 142.246,94.006 142.923 C 93.893 143.600,93.603 144.461,93.360 144.837 C 93.118 145.213,92.764 146.251,92.573 147.142 C 92.381 148.034,92.049 149.042,91.835 149.382 C 91.621 149.722,91.346 150.473,91.225 151.051 C 91.105 151.628,90.676 152.722,90.272 153.481 C 89.869 154.240,89.538 155.152,89.537 155.507 C 89.537 155.863,89.268 156.594,88.940 157.131 C 88.612 157.669,88.251 158.638,88.138 159.285 C 88.025 159.932,87.671 160.919,87.352 161.477 C 87.033 162.036,86.679 163.070,86.566 163.775 C 86.454 164.481,86.122 165.477,85.830 165.990 C 85.538 166.503,85.214 167.408,85.110 168.000 C 85.006 168.592,84.575 169.758,84.153 170.591 C 83.730 171.423,83.385 172.302,83.385 172.544 C 83.385 172.786,83.184 173.420,82.939 173.953 C 82.297 175.352,81.269 178.361,80.800 180.219 C 80.576 181.101,80.177 182.154,79.912 182.559 C 79.646 182.963,79.328 183.833,79.205 184.491 C 79.082 185.149,78.656 186.297,78.259 187.043 C 77.863 187.789,77.538 188.661,77.538 188.981 C 77.538 189.301,77.262 190.106,76.923 190.769 C 75.937 192.702,75.978 213.172,76.971 215.144 C 77.939 217.065,79.593 218.676,81.692 219.741 C 82.708 220.256,83.576 220.712,83.622 220.755 C 83.668 220.798,83.727 233.350,83.755 248.647 C 83.813 281.269,83.858 283.420,84.480 283.181 C 84.724 283.088,84.923 282.879,84.923 282.718 C 84.923 282.557,84.750 282.529,84.538 282.656 C 84.268 282.819,84.277 282.736,84.568 282.377 C 84.796 282.096,85.073 281.878,85.183 281.892 C 86.030 282.004,86.424 281.798,86.246 281.334 C 86.109 280.977,86.164 280.893,86.430 281.057 C 86.674 281.208,86.869 281.068,86.974 280.668 C 87.064 280.324,87.313 280.110,87.528 280.193 C 87.747 280.276,87.996 280.049,88.093 279.679 C 88.191 279.301,88.411 279.105,88.602 279.223 C 88.790 279.339,88.901 279.250,88.854 279.023 C 88.807 278.799,88.942 278.650,89.154 278.692 C 89.369 278.735,89.541 278.465,89.543 278.077 C 89.547 277.517,89.605 277.473,89.846 277.846 C 90.138 278.298,90.219 278.060,90.136 277.000 C 90.126 276.873,90.425 276.697,90.800 276.608 C 91.757 276.382,91.697 277.932,91.892 248.154 C 91.989 233.262,92.131 220.973,92.207 220.846 C 92.282 220.719,104.599 220.615,119.577 220.615 C 146.857 220.615,148.198 220.565,147.810 219.554 C 147.699 219.265,148.194 218.802,149.283 218.177 C 150.185 217.660,150.825 217.235,150.704 217.234 C 150.584 217.232,150.861 216.835,151.320 216.351 C 151.779 215.867,152.279 215.543,152.432 215.629 C 152.585 215.716,152.623 215.646,152.516 215.472 C 152.249 215.040,153.697 213.410,154.117 213.669 C 154.320 213.795,154.389 213.708,154.290 213.451 C 154.084 212.913,136.886 212.616,105.961 212.616 C 88.154 212.615,84.943 212.549,84.633 212.175 C 83.934 211.333,84.117 198.392,84.831 198.128 C 85.151 198.009,104.169 197.843,127.091 197.758 C 150.014 197.673,168.977 197.550,169.231 197.485 C 169.485 197.420,169.865 197.259,170.077 197.127 C 170.288 196.995,170.466 196.999,170.471 197.136 C 170.476 197.273,170.621 197.142,170.794 196.846 C 170.966 196.550,171.324 196.308,171.590 196.308 C 171.920 196.308,172.021 196.114,171.911 195.692 C 171.806 195.292,171.901 195.077,172.183 195.077 C 172.421 195.077,172.626 195.250,172.640 195.462 C 172.653 195.673,172.803 195.465,172.973 195.000 C 173.143 194.535,173.409 194.154,173.564 194.154 C 173.719 194.154,173.846 193.938,173.846 193.674 C 173.846 193.410,173.969 193.270,174.119 193.363 C 174.269 193.456,174.477 193.222,174.580 192.843 C 174.738 192.268,174.819 192.230,175.072 192.615 C 175.317 192.988,175.376 192.941,175.380 192.366 C 175.382 191.976,175.521 191.741,175.689 191.844 C 175.863 191.952,175.915 191.828,175.810 191.554 C 175.709 191.292,175.759 191.077,175.920 191.077 C 176.081 191.077,176.521 190.810,176.896 190.485 L 177.579 189.893 174.867 189.770 C 173.375 189.702,152.857 189.621,129.272 189.589 C 105.687 189.557,86.280 189.463,86.146 189.380 C 86.012 189.297,86.250 188.295,86.675 187.153 C 87.100 186.011,87.576 184.544,87.732 183.893 C 87.889 183.241,88.209 182.517,88.443 182.282 C 88.678 182.047,89.018 181.164,89.199 180.320 C 89.380 179.476,89.808 178.265,90.149 177.628 C 90.490 176.992,90.771 176.261,90.774 176.005 C 90.780 175.431,91.500 173.320,91.789 173.031 C 91.905 172.915,92.000 172.521,92.000 172.155 C 92.000 171.789,92.346 170.808,92.768 169.975 C 93.190 169.143,93.537 168.254,93.537 168.000 C 93.538 167.746,93.954 166.661,94.462 165.588 C 94.969 164.515,95.385 163.364,95.385 163.030 C 95.385 162.696,95.721 161.705,96.132 160.827 C 96.543 159.949,96.980 158.680,97.102 158.008 C 97.225 157.335,97.512 156.598,97.740 156.370 C 97.967 156.142,98.154 155.587,98.154 155.136 C 98.154 154.685,98.488 153.622,98.896 152.774 C 99.304 151.925,99.857 150.573,100.126 149.769 C 100.395 148.965,100.836 147.650,101.107 146.846 C 101.377 146.042,101.861 144.736,102.183 143.943 C 102.506 143.150,102.769 142.211,102.769 141.856 C 102.769 141.502,103.012 141.123,103.308 141.015 C 103.604 140.907,104.180 140.562,104.587 140.250 C 105.415 139.615,160.380 139.370,160.769 140.000 C 160.865 140.155,160.809 140.531,160.645 140.834 C 160.031 141.962,158.769 145.010,158.769 145.362 C 158.769 145.563,158.423 146.196,158.000 146.769 C 156.419 148.912,157.492 152.292,160.000 153.072 C 160.423 153.204,161.115 153.552,161.538 153.846 C 161.962 154.140,162.654 154.484,163.077 154.610 C 163.500 154.737,164.331 155.092,164.923 155.399 C 165.515 155.707,166.554 156.128,167.231 156.334 C 167.908 156.540,168.738 156.882,169.077 157.093 C 169.415 157.305,170.133 157.570,170.671 157.682 C 171.209 157.794,171.809 158.078,172.005 158.313 C 172.200 158.548,173.075 158.954,173.949 159.215 C 179.075 160.747,178.697 160.777,155.306 160.677 C 129.054 160.565,130.000 160.425,130.000 164.442 C 130.000 168.659,127.796 168.433,166.586 168.199 C 201.639 167.987,199.799 168.039,200.548 167.244 C 200.857 166.916,200.897 166.784,200.645 166.927 C 200.356 167.091,200.285 167.054,200.432 166.817 C 200.553 166.621,200.817 166.459,201.018 166.456 C 201.568 166.448,202.766 165.071,202.791 164.418 C 202.811 163.890,202.833 163.894,203.077 164.462 C 203.222 164.800,203.351 164.896,203.363 164.674 C 203.375 164.441,203.547 164.365,203.769 164.493 C 203.981 164.614,204.055 164.604,203.934 164.470 C 203.813 164.336,203.877 163.933,204.076 163.575 C 204.275 163.216,204.411 162.824,204.377 162.703 C 204.343 162.583,204.521 162.563,204.773 162.659 C 205.182 162.816,205.377 162.465,205.267 161.769 C 205.247 161.642,205.369 161.521,205.538 161.500 C 205.708 161.479,205.973 161.444,206.128 161.423 C 207.826 161.192,205.859 160.971,201.803 160.938 C 198.257 160.910,196.721 160.789,196.554 160.526 C 196.423 160.321,196.311 160.292,196.303 160.462 C 196.295 160.631,196.157 160.543,195.995 160.266 C 195.833 159.989,195.228 159.674,194.651 159.565 C 194.073 159.457,193.270 159.109,192.867 158.791 C 192.463 158.473,191.554 158.058,190.848 157.867 C 190.142 157.677,189.488 157.398,189.394 157.246 C 189.300 157.094,188.498 156.732,187.612 156.441 C 186.725 156.150,185.727 155.724,185.393 155.494 C 185.059 155.265,184.540 155.077,184.239 155.077 C 183.939 155.077,183.035 154.748,182.231 154.346 C 177.997 152.228,173.856 150.462,173.124 150.462 C 172.886 150.462,172.519 150.254,172.308 150.001 C 172.098 149.748,171.246 149.338,170.414 149.091 C 169.582 148.844,168.505 148.359,168.019 148.013 C 167.533 147.668,166.984 147.385,166.799 147.385 C 166.307 147.385,166.386 146.599,166.923 146.154 C 167.177 145.943,167.385 145.545,167.386 145.270 C 167.386 144.995,167.642 144.351,167.954 143.839 C 168.266 143.327,168.699 142.358,168.916 141.685 C 169.133 141.012,169.414 140.323,169.541 140.154 C 169.667 139.985,169.868 139.500,169.986 139.077 C 170.201 138.309,171.547 135.323,172.649 133.170 C 172.969 132.544,173.231 131.838,173.231 131.600 C 173.231 131.363,173.575 130.521,173.995 129.731 C 174.416 128.940,174.820 127.963,174.893 127.559 C 174.966 127.156,175.295 126.294,175.625 125.644 C 175.954 124.994,176.570 123.700,176.994 122.769 C 177.419 121.838,178.130 120.302,178.575 119.354 C 179.020 118.406,179.385 117.524,179.385 117.392 C 179.385 117.139,180.598 114.198,181.546 112.154 C 181.860 111.477,182.541 110.012,183.059 108.899 C 183.576 107.785,184.004 106.678,184.010 106.437 C 184.015 106.197,184.360 105.446,184.777 104.769 C 185.194 104.092,185.536 103.246,185.537 102.888 C 185.538 102.530,185.795 101.907,186.109 101.503 C 186.423 101.099,186.773 100.264,186.887 99.646 C 187.000 99.029,187.290 98.360,187.531 98.160 C 187.772 97.960,188.128 97.289,188.323 96.668 C 188.518 96.047,189.010 94.854,189.416 94.017 C 189.822 93.179,190.154 92.262,190.154 91.977 C 190.154 91.693,190.364 91.285,190.622 91.072 C 190.879 90.858,191.241 90.084,191.425 89.351 C 191.610 88.618,191.953 87.859,192.188 87.664 C 192.423 87.469,192.615 87.070,192.615 86.777 C 192.615 86.485,192.944 85.627,193.346 84.871 C 193.748 84.116,194.182 83.160,194.311 82.749 C 194.441 82.337,194.873 81.282,195.273 80.404 C 195.673 79.527,196.000 78.611,196.000 78.369 C 196.000 78.127,196.255 77.599,196.568 77.195 C 196.880 76.792,197.219 76.027,197.322 75.497 C 197.425 74.966,197.862 74.013,198.293 73.377 C 198.724 72.742,199.077 71.999,199.078 71.726 C 199.079 71.454,199.356 70.777,199.693 70.223 C 200.031 69.669,200.308 69.085,200.308 68.925 C 200.308 68.765,200.636 67.903,201.037 67.009 C 201.438 66.116,201.864 64.969,201.984 64.462 C 202.104 63.954,202.388 63.331,202.616 63.077 C 202.843 62.823,203.234 62.062,203.484 61.385 C 204.261 59.285,205.411 56.679,205.750 56.253 C 205.928 56.029,206.165 55.341,206.276 54.724 C 206.387 54.106,206.742 53.264,207.066 52.853 C 207.389 52.442,207.750 51.725,207.866 51.260 C 208.114 50.273,208.665 50.315,211.231 51.521 C 212.077 51.918,213.323 52.425,214.000 52.647 C 214.677 52.869,215.438 53.214,215.692 53.414 C 215.946 53.614,216.638 53.878,217.231 54.000 C 217.823 54.122,218.522 54.411,218.785 54.642 C 219.047 54.872,219.848 55.268,220.565 55.521 C 221.282 55.773,222.171 56.193,222.541 56.452 C 222.911 56.711,223.425 56.927,223.684 56.933 C 223.942 56.938,224.846 57.283,225.692 57.699 C 226.538 58.115,227.418 58.457,227.647 58.459 C 227.876 58.460,228.707 58.788,229.493 59.187 C 230.280 59.585,231.685 60.259,232.615 60.685 C 233.546 61.110,235.083 61.822,236.031 62.267 C 236.978 62.713,237.880 63.077,238.035 63.077 C 238.190 63.077,238.799 63.334,239.389 63.649 C 239.979 63.964,240.808 64.322,241.231 64.444 C 241.957 64.654,242.624 64.947,246.800 66.890 C 247.748 67.331,248.717 67.693,248.954 67.694 C 249.191 67.695,249.800 67.971,250.308 68.308 C 250.815 68.644,251.436 68.920,251.688 68.921 C 252.144 68.923,254.235 69.841,257.000 71.253 C 257.804 71.664,258.636 72.000,258.849 72.000 C 259.062 72.000,259.886 72.346,260.681 72.769 C 261.475 73.192,262.390 73.538,262.714 73.538 C 263.037 73.538,263.643 73.807,264.060 74.135 C 264.477 74.463,265.222 74.825,265.717 74.941 C 266.211 75.056,266.962 75.376,267.385 75.652 C 267.808 75.928,268.776 76.362,269.536 76.615 C 271.143 77.152,271.403 77.796,270.484 78.964 C 270.133 79.410,269.846 79.986,269.846 80.243 C 269.846 80.500,269.484 81.475,269.042 82.411 C 268.599 83.346,268.214 84.260,268.187 84.440 C 268.159 84.621,268.015 84.964,267.867 85.201 C 267.670 85.518,267.713 85.573,268.029 85.409 C 268.267 85.286,268.221 85.382,267.928 85.623 C 267.634 85.864,267.484 86.151,267.595 86.261 C 267.705 86.371,267.633 86.462,267.436 86.462 C 267.238 86.462,267.093 86.565,267.113 86.692 C 267.133 86.819,267.123 86.992,267.090 87.077 C 267.058 87.162,266.968 87.574,266.892 87.993 C 266.815 88.412,266.545 88.870,266.293 89.012 C 266.040 89.153,265.914 89.399,266.012 89.557 C 266.110 89.716,266.035 89.846,265.846 89.846 C 265.657 89.846,265.580 89.973,265.676 90.128 C 265.772 90.282,265.702 90.458,265.522 90.518 C 265.341 90.579,265.181 91.080,265.165 91.633 C 265.149 92.185,264.998 92.723,264.828 92.828 C 264.645 92.941,264.611 92.843,264.745 92.586 C 264.868 92.348,264.744 92.431,264.470 92.769 C 264.195 93.108,264.033 93.627,264.110 93.923 C 264.187 94.219,264.110 94.462,263.938 94.462 C 263.767 94.462,263.706 94.669,263.804 94.923 C 263.901 95.177,263.832 95.385,263.650 95.385 C 263.468 95.385,263.397 95.588,263.492 95.836 C 263.587 96.085,263.512 96.383,263.324 96.499 C 263.102 96.636,263.070 96.569,263.231 96.308 C 263.392 96.047,263.359 95.979,263.138 96.116 C 262.950 96.232,262.874 96.531,262.969 96.779 C 263.065 97.028,262.981 97.231,262.784 97.231 C 262.587 97.231,262.505 97.360,262.602 97.517 C 262.700 97.675,262.636 97.892,262.462 98.000 C 262.287 98.108,262.216 98.313,262.304 98.455 C 262.543 98.842,262.133 99.715,261.806 99.514 C 261.651 99.418,261.543 99.453,261.567 99.593 C 261.668 100.174,261.521 100.641,261.283 100.494 C 261.143 100.407,261.052 100.641,261.082 101.014 C 261.149 101.856,260.665 103.318,260.230 103.587 C 260.023 103.715,259.996 103.631,260.156 103.355 C 260.302 103.103,260.291 103.028,260.130 103.176 C 259.853 103.429,259.826 103.546,259.739 104.864 C 259.709 105.322,259.564 105.496,259.332 105.352 C 259.087 105.201,259.038 105.301,259.178 105.667 C 259.404 106.253,258.696 107.516,258.341 107.161 C 258.220 107.041,258.221 107.203,258.344 107.521 C 258.484 107.887,258.450 108.029,258.251 107.906 C 258.061 107.789,257.948 108.063,257.968 108.595 C 258.000 109.486,258.462 109.602,258.462 108.718 C 258.462 108.435,258.637 108.309,258.894 108.408 C 259.169 108.513,259.465 108.241,259.706 107.660 C 260.107 106.692,261.044 106.002,261.541 106.309 C 261.705 106.411,261.765 106.300,261.674 106.064 C 261.584 105.828,261.956 105.163,262.502 104.587 C 263.049 104.010,263.399 103.702,263.281 103.902 C 263.163 104.102,263.208 104.352,263.380 104.458 C 263.552 104.565,263.692 104.378,263.692 104.044 C 263.692 103.670,264.034 103.285,264.582 103.042 C 265.100 102.813,265.408 102.480,265.319 102.247 C 265.229 102.014,265.385 101.846,265.692 101.846 C 266.048 101.846,266.159 101.687,266.032 101.356 C 265.905 101.027,266.051 100.812,266.478 100.700 C 266.826 100.609,267.046 100.362,266.965 100.152 C 266.881 99.933,267.039 99.785,267.332 99.807 C 267.627 99.830,267.806 99.660,267.752 99.409 C 267.673 99.046,267.739 99.040,268.144 99.376 C 268.411 99.598,268.719 99.691,268.828 99.582 C 268.937 99.474,268.829 99.380,268.590 99.375 C 268.277 99.369,268.306 99.277,268.692 99.052 C 268.988 98.880,269.229 98.572,269.226 98.369 C 269.223 98.143,269.106 98.179,268.923 98.462 C 268.759 98.715,268.623 98.776,268.620 98.596 C 268.615 98.220,270.500 96.742,270.846 96.851 C 270.973 96.891,271.077 96.736,271.077 96.508 C 271.077 96.279,271.505 95.502,272.027 94.780 C 272.550 94.059,272.803 93.576,272.590 93.708 C 272.314 93.879,272.262 93.794,272.409 93.410 C 272.523 93.114,272.615 92.807,272.615 92.726 C 272.615 92.645,272.775 92.678,272.971 92.799 C 273.178 92.927,273.243 92.884,273.126 92.695 C 273.016 92.517,273.132 91.977,273.384 91.494 C 273.636 91.011,273.843 90.430,273.844 90.203 C 273.845 89.976,274.095 89.561,274.399 89.280 C 274.703 88.999,274.801 88.838,274.615 88.923 C 274.430 89.008,274.522 88.852,274.819 88.577 C 275.116 88.302,275.281 87.999,275.187 87.905 C 275.093 87.810,275.129 87.551,275.268 87.328 C 275.407 87.105,275.552 86.718,275.590 86.467 C 275.628 86.216,275.806 85.962,275.985 85.902 C 276.165 85.843,276.240 85.678,276.153 85.537 C 276.066 85.396,276.213 85.062,276.481 84.794 C 276.748 84.527,276.853 84.306,276.714 84.303 C 276.575 84.300,276.648 84.180,276.876 84.035 C 277.104 83.891,277.312 83.409,277.338 82.963 C 277.364 82.518,277.488 82.154,277.615 82.154 C 277.742 82.154,277.830 82.050,277.810 81.923 C 277.709 81.288,277.882 80.909,278.187 81.097 C 278.416 81.239,278.460 81.094,278.320 80.654 C 278.189 80.241,278.245 80.000,278.474 80.000 C 278.672 80.000,278.761 79.806,278.669 79.568 C 278.578 79.331,278.712 78.881,278.967 78.568 C 279.222 78.256,279.329 78.194,279.206 78.432 C 279.057 78.719,279.103 78.789,279.342 78.642 C 279.540 78.519,279.623 78.290,279.525 78.133 C 279.428 77.975,279.456 77.673,279.589 77.462 C 281.133 74.990,279.647 72.075,276.254 70.918 C 275.464 70.648,274.663 70.242,274.474 70.015 C 274.286 69.788,273.622 69.507,272.999 69.390 C 272.377 69.274,271.495 68.913,271.040 68.589 C 270.585 68.265,269.900 68.000,269.518 68.000 C 269.136 68.000,268.257 67.671,267.565 67.268 C 266.874 66.866,265.867 66.441,265.329 66.325 C 264.791 66.209,264.186 65.916,263.985 65.675 C 263.785 65.433,263.053 65.082,262.360 64.896 C 261.666 64.709,260.763 64.292,260.354 63.970 C 259.944 63.648,259.380 63.385,259.100 63.385 C 258.821 63.385,258.064 63.116,257.420 62.787 C 256.775 62.458,255.852 62.103,255.369 61.997 C 254.886 61.890,254.172 61.554,253.784 61.250 C 253.395 60.945,252.612 60.594,252.044 60.470 C 251.476 60.346,250.522 59.912,249.924 59.507 C 249.326 59.101,248.631 58.769,248.378 58.769 C 248.125 58.769,247.487 58.509,246.959 58.191 C 246.432 57.873,245.495 57.524,244.877 57.414 C 244.260 57.304,243.429 56.961,243.031 56.652 C 242.633 56.342,241.802 55.996,241.185 55.883 C 240.567 55.769,239.893 55.473,239.687 55.224 C 239.480 54.975,238.740 54.608,238.040 54.407 C 237.341 54.206,236.402 53.790,235.953 53.483 C 235.503 53.175,234.988 52.923,234.808 52.923 C 234.627 52.923,233.723 52.577,232.798 52.154 C 231.873 51.731,230.918 51.385,230.677 51.385 C 230.435 51.385,229.896 51.116,229.479 50.788 C 229.062 50.460,228.316 50.095,227.822 49.975 C 227.328 49.856,226.369 49.446,225.692 49.064 C 225.015 48.681,224.021 48.276,223.483 48.164 C 222.944 48.052,222.339 47.762,222.137 47.519 C 221.936 47.276,221.476 47.076,221.116 47.076 C 220.756 47.075,219.631 46.660,218.615 46.154 C 217.600 45.647,216.544 45.233,216.268 45.232 C 215.993 45.231,215.602 45.031,215.399 44.786 C 215.196 44.542,214.313 44.108,213.438 43.823 C 212.562 43.539,211.628 43.116,211.360 42.884 C 211.093 42.651,210.698 42.462,210.482 42.462 C 210.266 42.462,209.400 42.115,208.558 41.692 C 206.283 40.550,205.289 40.662,203.581 42.252 M257.082 109.838 C 256.833 110.241,257.541 110.582,257.894 110.229 C 258.091 110.032,258.031 109.865,257.723 109.747 C 257.463 109.647,257.175 109.688,257.082 109.838 " stroke="none" fill="#deb3fb" fill-rule="evenodd"></path><path id="path3" d="M263.615 132.217 C 263.996 132.290,264.619 132.290,265.000 132.217 C 265.381 132.144,265.069 132.084,264.308 132.084 C 263.546 132.084,263.235 132.144,263.615 132.217 M297.159 132.223 C 297.712 132.291,298.543 132.290,299.006 132.220 C 299.468 132.150,299.015 132.094,298.000 132.095 C 296.985 132.097,296.606 132.155,297.159 132.223 M304.242 133.108 L 304.946 133.629 304.265 134.353 C 303.891 134.751,303.393 135.077,303.159 135.077 C 302.925 135.077,302.818 135.215,302.923 135.385 C 303.028 135.554,302.967 135.692,302.787 135.692 C 302.608 135.692,302.496 135.865,302.538 136.077 C 302.581 136.288,302.477 136.446,302.308 136.427 C 302.138 136.407,301.585 136.811,301.077 137.323 C 300.506 137.900,300.359 138.181,300.692 138.060 C 301.629 137.721,301.277 138.066,299.923 138.813 L 298.615 139.534 276.462 139.710 L 254.308 139.886 277.595 139.911 L 300.882 139.937 301.979 140.774 C 302.637 141.276,303.077 141.876,303.077 142.272 C 303.077 142.635,303.334 143.415,303.648 144.005 C 303.963 144.594,304.317 145.735,304.437 146.538 C 304.556 147.342,304.765 148.000,304.901 148.000 C 305.038 148.000,305.391 148.858,305.685 149.908 C 305.979 150.957,306.407 152.101,306.636 152.450 C 306.865 152.799,307.206 153.801,307.393 154.676 C 307.581 155.551,307.929 156.429,308.167 156.626 C 308.405 156.823,308.693 157.490,308.807 158.108 C 308.921 158.725,309.340 160.099,309.738 161.161 C 310.136 162.222,310.462 163.338,310.462 163.640 C 310.462 164.658,311.859 166.233,312.296 165.706 C 312.504 165.456,312.834 165.281,313.030 165.318 C 313.225 165.354,313.350 165.212,313.308 165.000 C 313.265 164.788,313.434 164.615,313.683 164.615 C 313.958 164.615,314.065 164.435,313.957 164.154 C 313.835 163.834,313.979 163.692,314.429 163.692 C 314.785 163.692,315.061 163.588,315.040 163.462 C 314.917 162.680,315.091 162.315,315.373 162.761 C 315.613 163.140,315.696 163.116,315.890 162.607 C 316.017 162.273,316.489 161.675,316.938 161.279 C 317.838 160.485,317.760 158.328,316.793 157.254 C 316.552 156.987,316.260 156.354,316.143 155.846 C 315.765 154.199,314.162 149.406,313.726 148.615 C 313.493 148.192,313.202 147.362,313.079 146.769 C 312.957 146.177,312.606 145.277,312.300 144.769 C 311.994 144.262,311.646 143.292,311.527 142.615 C 311.407 141.938,311.052 140.957,310.737 140.434 C 310.423 139.912,310.121 139.196,310.067 138.844 C 309.873 137.569,307.999 135.434,305.736 133.910 C 304.233 132.897,303.232 132.360,304.242 133.108 M118.408 139.923 C 125.740 139.969,137.647 139.969,144.869 139.923 C 152.091 139.877,146.092 139.839,131.538 139.839 C 116.985 139.839,111.076 139.877,118.408 139.923 M275.246 162.794 C 275.359 162.976,275.021 163.547,274.495 164.061 C 273.969 164.575,273.538 165.126,273.538 165.285 C 273.538 165.445,273.400 165.489,273.231 165.385 C 273.062 165.280,272.923 165.387,272.923 165.623 C 272.923 166.246,271.156 167.754,270.968 167.292 C 270.884 167.086,270.807 167.155,270.794 167.449 C 270.773 167.892,270.368 167.991,268.231 168.079 L 265.692 168.182 268.808 168.245 C 273.662 168.343,275.167 167.716,275.695 165.375 C 275.987 164.080,275.783 162.462,275.328 162.462 C 275.170 162.462,275.133 162.611,275.246 162.794 M247.846 189.846 C 248.523 189.967,248.905 190.086,248.696 190.110 C 248.131 190.175,247.084 191.147,247.265 191.440 C 247.351 191.579,247.101 191.703,246.710 191.717 C 246.320 191.730,246.179 191.813,246.397 191.900 C 246.805 192.064,245.740 193.231,245.184 193.231 C 245.040 193.231,244.923 193.438,244.923 193.692 C 244.923 193.946,244.732 194.154,244.499 194.154 C 244.266 194.154,243.885 194.388,243.653 194.674 C 243.289 195.123,243.295 195.161,243.692 194.951 C 243.946 194.817,243.703 195.078,243.151 195.532 C 242.599 195.986,242.240 196.506,242.353 196.688 C 242.486 196.903,242.324 196.959,241.894 196.847 C 241.447 196.730,241.231 196.814,241.231 197.106 C 241.231 197.344,241.196 197.568,241.154 197.604 C 241.112 197.640,207.154 197.747,165.692 197.841 C 95.530 198.000,98.098 198.012,202.769 198.008 C 264.623 198.007,307.457 197.968,297.955 197.923 C 282.304 197.849,280.661 197.794,280.486 197.339 C 280.324 196.916,280.369 196.899,280.769 197.231 C 281.165 197.559,281.215 197.548,281.069 197.168 C 280.953 196.864,281.473 196.274,282.627 195.403 C 283.631 194.645,284.494 193.711,284.677 193.185 C 284.852 192.685,285.066 192.348,285.153 192.435 C 285.240 192.523,285.939 191.941,286.705 191.143 C 287.471 190.345,287.999 189.865,287.877 190.077 C 287.592 190.573,287.738 190.561,288.811 190.002 C 289.600 189.591,287.431 189.547,268.154 189.584 C 256.308 189.607,247.169 189.725,247.846 189.846 M321.657 206.154 C 321.657 208.269,321.706 209.135,321.766 208.077 C 321.826 207.019,321.826 205.288,321.766 204.231 C 321.706 203.173,321.657 204.038,321.657 206.154 M224.538 212.838 C 225.753 212.989,225.761 213.052,224.692 214.052 C 224.227 214.487,223.889 214.989,223.940 215.166 C 223.992 215.344,223.793 215.292,223.497 215.052 C 223.180 214.795,223.051 214.770,223.184 214.990 C 223.317 215.211,223.152 215.525,222.781 215.756 C 222.436 215.972,222.154 216.322,222.154 216.536 C 222.154 216.749,221.977 216.923,221.761 216.923 C 221.336 216.923,220.308 217.990,220.308 218.430 C 220.308 218.578,219.957 218.928,219.529 219.209 C 219.100 219.490,218.825 219.842,218.918 219.992 C 219.010 220.141,218.772 220.325,218.389 220.401 C 218.006 220.476,226.831 220.521,238.000 220.500 C 256.771 220.464,258.305 220.423,258.269 219.947 C 258.247 219.654,258.395 219.496,258.614 219.580 C 258.825 219.661,259.080 219.512,259.181 219.248 C 259.286 218.977,259.203 218.768,258.990 218.767 C 258.784 218.766,259.022 218.497,259.519 218.169 C 260.016 217.842,260.536 217.643,260.673 217.728 C 260.907 217.872,261.052 217.400,260.952 216.823 C 260.928 216.684,261.033 216.647,261.185 216.741 C 261.338 216.835,261.848 216.355,262.320 215.674 C 262.939 214.781,263.249 214.547,263.431 214.833 C 263.601 215.102,263.686 214.982,263.692 214.462 C 263.699 213.900,263.775 213.807,263.972 214.118 C 264.189 214.462,264.306 214.425,264.571 213.928 C 264.753 213.589,264.835 213.245,264.753 213.164 C 264.672 213.082,265.466 212.990,266.519 212.958 C 267.572 212.926,268.497 212.836,268.575 212.758 C 268.654 212.680,258.553 212.638,246.128 212.665 C 233.704 212.692,223.988 212.770,224.538 212.838 M183.964 254.348 C 183.944 254.495,183.944 254.719,183.964 254.846 C 183.984 254.973,183.842 255.077,183.649 255.077 C 183.456 255.077,183.100 255.319,182.857 255.615 C 182.591 255.940,182.506 255.970,182.642 255.692 C 182.775 255.421,182.752 255.336,182.588 255.487 C 182.320 255.732,182.280 255.853,182.192 256.667 C 182.171 256.864,182.062 256.934,181.951 256.822 C 181.839 256.711,181.553 256.898,181.314 257.238 C 181.076 257.578,180.731 257.764,180.547 257.650 C 180.346 257.526,180.301 257.587,180.434 257.801 C 180.704 258.239,179.818 259.191,179.387 258.925 C 179.216 258.819,179.077 258.953,179.077 259.222 C 179.077 259.491,178.869 259.791,178.615 259.889 C 178.362 259.986,178.154 260.189,178.154 260.341 C 178.154 260.773,176.960 261.854,176.577 261.769 C 176.387 261.727,176.161 261.885,176.075 262.120 C 175.971 262.406,176.050 262.467,176.315 262.303 C 176.582 262.138,176.635 262.181,176.478 262.435 C 176.350 262.642,176.053 262.737,175.819 262.647 C 175.584 262.557,175.407 262.583,175.425 262.703 C 175.516 263.313,175.351 263.708,175.077 263.538 C 174.795 263.364,174.632 263.785,174.740 264.407 C 174.765 264.547,174.643 264.573,174.469 264.466 C 174.296 264.359,174.154 264.418,174.154 264.597 C 174.154 264.776,173.946 264.923,173.692 264.923 C 173.438 264.923,173.231 265.131,173.231 265.385 C 173.231 265.638,173.063 265.812,172.857 265.769 C 172.652 265.727,172.342 266.004,172.169 266.385 C 171.996 266.765,171.610 267.077,171.312 267.077 C 171.013 267.077,170.769 267.289,170.769 267.548 C 170.769 267.807,170.562 268.099,170.308 268.196 C 170.054 268.294,169.846 268.650,169.846 268.989 C 169.846 269.410,169.700 269.548,169.385 269.427 C 169.085 269.312,168.922 269.436,168.921 269.779 C 168.919 270.072,168.371 270.620,167.690 271.009 C 167.014 271.395,166.452 271.949,166.440 272.240 C 166.422 272.682,166.375 272.668,166.154 272.154 C 165.928 271.628,165.886 271.616,165.868 272.077 C 165.856 272.373,165.700 272.615,165.520 272.615 C 165.341 272.615,165.274 272.744,165.371 272.902 C 165.469 273.059,165.417 273.270,165.255 273.369 C 164.914 273.581,164.932 273.378,164.770 278.888 C 164.686 281.739,164.783 283.837,165.061 285.196 C 166.058 290.074,166.527 291.871,166.919 292.305 C 167.149 292.560,167.439 293.177,167.563 293.676 C 168.198 296.220,173.407 301.522,175.692 301.951 C 176.448 302.093,176.632 302.063,176.308 301.850 C 175.913 301.591,175.924 301.547,176.385 301.543 C 176.681 301.541,176.888 301.372,176.846 301.168 C 176.804 300.964,176.942 300.774,177.154 300.745 C 177.365 300.716,177.685 300.675,177.864 300.654 C 178.044 300.633,178.105 300.477,178.000 300.308 C 177.895 300.138,177.935 300.000,178.089 300.000 C 178.242 300.000,178.531 299.688,178.732 299.308 C 178.932 298.927,179.027 298.858,178.942 299.154 C 178.708 299.975,179.053 299.795,179.385 298.923 C 179.545 298.500,179.888 298.154,180.146 298.154 C 180.404 298.154,180.615 297.977,180.615 297.761 C 180.615 297.297,182.361 295.694,182.603 295.936 C 182.759 296.093,182.886 295.508,182.806 295.000 C 182.786 294.873,182.925 294.769,183.115 294.769 C 183.655 294.769,182.799 293.877,181.726 293.323 C 180.138 292.501,178.242 289.767,177.850 287.734 C 177.699 286.950,177.359 285.702,177.095 284.961 C 176.553 283.440,176.427 276.323,176.909 274.462 C 178.843 266.996,180.274 265.153,185.004 264.038 C 187.881 263.360,193.449 263.970,194.309 265.058 C 194.479 265.273,194.929 265.548,195.309 265.668 C 195.689 265.789,196.000 266.006,196.000 266.151 C 196.000 266.296,196.327 266.806,196.727 267.284 C 197.127 267.762,197.555 268.500,197.679 268.923 C 197.802 269.346,198.187 270.297,198.535 271.036 C 198.988 271.999,199.221 273.308,199.359 275.652 C 199.473 277.585,199.643 278.669,199.774 278.302 C 199.896 277.960,200.482 277.419,201.075 277.099 C 201.668 276.780,202.154 276.394,202.154 276.241 C 202.154 276.089,202.015 276.049,201.846 276.154 C 201.677 276.258,201.538 276.263,201.538 276.164 C 201.538 276.066,201.885 275.853,202.308 275.692 C 202.798 275.506,203.077 275.161,203.077 274.741 C 203.077 274.234,203.218 274.119,203.692 274.243 C 204.030 274.331,204.398 274.257,204.509 274.077 C 204.634 273.875,204.547 273.836,204.278 273.975 C 204.041 274.099,204.086 274.002,204.380 273.762 C 204.673 273.521,204.812 273.212,204.688 273.074 C 204.563 272.937,204.699 272.910,204.990 273.014 C 205.281 273.119,205.601 273.071,205.701 272.910 C 205.801 272.748,205.728 272.615,205.538 272.615 C 204.948 272.615,205.517 272.039,206.628 271.512 C 207.214 271.234,207.692 270.873,207.692 270.709 C 207.692 270.544,208.181 269.936,208.778 269.356 C 209.612 268.545,209.800 268.177,209.589 267.766 C 209.438 267.472,209.378 267.051,209.457 266.831 C 209.536 266.611,209.240 265.887,208.800 265.222 C 208.360 264.557,208.000 263.917,208.000 263.798 C 208.000 262.711,202.501 256.923,201.468 256.923 C 201.280 256.923,200.902 256.721,200.629 256.474 C 198.871 254.883,184.146 253.004,183.964 254.348 M212.429 255.348 C 211.242 256.080,211.106 256.589,211.194 259.993 C 211.287 263.601,212.172 264.737,214.204 263.855 C 214.769 263.609,215.035 263.403,214.795 263.397 C 214.518 263.389,214.682 263.062,215.247 262.497 C 215.751 261.992,216.328 261.683,216.582 261.781 C 216.896 261.902,216.973 261.806,216.841 261.461 C 216.734 261.182,216.870 260.791,217.154 260.561 C 217.577 260.218,217.615 260.223,217.393 260.591 C 217.232 260.858,217.446 260.798,217.941 260.437 C 218.387 260.112,218.698 259.690,218.631 259.500 C 218.565 259.309,218.853 258.997,219.272 258.806 C 219.692 258.615,219.949 258.321,219.845 258.153 C 219.741 257.984,219.813 257.846,220.004 257.846 C 220.442 257.846,221.231 257.073,221.231 256.643 C 221.231 256.465,221.585 256.230,222.018 256.122 C 222.534 255.992,222.748 255.772,222.637 255.485 C 222.544 255.243,222.596 255.124,222.751 255.220 C 222.907 255.316,223.114 255.266,223.211 255.109 C 223.601 254.479,213.474 254.703,212.429 255.348 M252.687 260.308 C 252.687 260.900,252.750 261.142,252.827 260.846 C 252.905 260.550,252.905 260.065,252.827 259.769 C 252.750 259.473,252.687 259.715,252.687 260.308 M268.385 264.230 C 270.542 264.283,274.073 264.283,276.231 264.230 C 278.388 264.177,276.623 264.134,272.308 264.134 C 267.992 264.134,266.227 264.177,268.385 264.230 M252.721 267.231 C 252.722 268.585,252.776 269.100,252.841 268.376 C 252.906 267.653,252.905 266.545,252.839 265.915 C 252.773 265.285,252.720 265.877,252.721 267.231 M155.238 283.054 C 155.127 283.405,154.906 283.692,154.748 283.692 C 154.591 283.692,154.462 283.958,154.462 284.282 C 154.462 284.641,154.101 285.031,153.538 285.280 C 153.031 285.505,152.598 285.793,152.577 285.921 C 152.556 286.049,152.518 286.327,152.493 286.538 C 152.468 286.750,152.209 286.882,151.916 286.833 C 151.624 286.783,151.385 286.895,151.385 287.082 C 151.385 287.268,151.246 287.335,151.077 287.231 C 150.908 287.126,150.769 287.200,150.769 287.395 C 150.769 287.980,149.714 289.135,149.305 288.999 C 149.095 288.929,148.923 289.028,148.923 289.220 C 148.923 289.411,148.577 289.889,148.154 290.281 C 147.731 290.673,147.385 291.151,147.385 291.343 C 147.385 291.535,147.169 291.692,146.905 291.692 C 146.641 291.692,146.511 291.831,146.615 292.000 C 146.720 292.169,146.652 292.308,146.464 292.308 C 146.013 292.308,143.825 294.459,143.923 294.806 C 143.965 294.955,143.738 295.077,143.419 295.077 C 143.061 295.077,142.854 295.277,142.880 295.597 C 142.904 295.884,142.612 296.277,142.233 296.471 C 141.853 296.665,141.634 296.916,141.745 297.027 C 141.857 297.139,141.710 297.231,141.418 297.231 C 141.091 297.231,140.972 297.369,141.109 297.591 C 141.260 297.835,141.162 297.886,140.804 297.748 C 140.513 297.637,140.351 297.668,140.444 297.817 C 140.536 297.967,140.405 298.169,140.152 298.266 C 139.899 298.363,139.690 298.689,139.688 298.990 C 139.684 299.372,139.610 299.423,139.443 299.160 C 139.275 298.897,139.037 299.062,138.657 299.704 C 138.354 300.217,137.964 300.535,137.778 300.419 C 137.577 300.295,137.532 300.356,137.664 300.570 C 137.786 300.767,137.669 301.144,137.404 301.409 C 137.140 301.674,136.923 301.794,136.923 301.677 C 136.923 301.559,136.721 301.630,136.475 301.835 C 136.229 302.039,135.884 302.118,135.709 302.011 C 135.524 301.896,135.464 302.002,135.564 302.264 C 136.003 303.408,144.738 304.149,147.781 303.299 C 148.635 303.060,150.764 299.206,150.772 297.885 C 150.774 297.610,151.098 296.690,151.494 295.842 C 151.889 294.994,152.314 293.748,152.440 293.073 C 152.565 292.398,152.923 291.362,153.236 290.769 C 153.734 289.824,154.247 287.819,154.101 287.385 C 154.073 287.300,154.244 286.885,154.482 286.462 C 154.921 285.678,155.721 282.697,155.540 282.515 C 155.486 282.460,155.350 282.703,155.238 283.054 M210.841 284.308 C 210.841 284.900,210.904 285.142,210.981 284.846 C 211.059 284.550,211.059 284.065,210.981 283.769 C 210.904 283.473,210.841 283.715,210.841 284.308 M282.545 298.769 C 282.545 299.531,282.605 299.842,282.679 299.462 C 282.752 299.081,282.752 298.458,282.679 298.077 C 282.605 297.696,282.545 298.008,282.545 298.769 M98.040 340.372 C 98.123 340.507,97.540 341.275,96.743 342.078 C 95.947 342.881,95.383 343.289,95.490 342.984 C 95.809 342.077,95.190 342.677,94.776 343.675 C 94.567 344.180,94.307 344.564,94.198 344.528 C 93.788 344.391,92.645 345.804,93.019 345.984 C 93.220 346.081,93.059 346.099,92.662 346.024 C 92.264 345.949,92.011 345.959,92.098 346.046 C 92.441 346.390,91.234 347.288,90.839 346.984 C 90.553 346.763,90.495 346.807,90.625 347.146 C 91.056 348.268,91.884 348.309,112.861 348.254 C 124.149 348.224,132.796 348.147,132.077 348.082 C 131.277 348.010,130.769 347.811,130.769 347.568 C 130.769 347.083,131.756 346.154,132.271 346.154 C 132.478 346.154,132.792 345.738,132.969 345.231 C 133.146 344.723,133.390 344.308,133.511 344.308 C 133.631 344.308,134.065 343.996,134.473 343.615 C 134.882 343.235,135.289 342.958,135.377 343.000 C 135.466 343.042,135.538 342.904,135.538 342.692 C 135.538 342.481,135.746 342.305,136.000 342.301 C 136.267 342.297,136.423 342.068,136.370 341.757 C 136.317 341.448,136.447 341.256,136.678 341.303 C 136.897 341.348,137.042 341.212,137.000 341.000 C 136.958 340.788,137.123 340.615,137.366 340.615 C 137.610 340.615,137.874 340.512,137.952 340.385 C 138.031 340.258,129.048 340.147,117.991 340.140 C 106.934 340.132,97.956 340.236,98.040 340.372 " stroke="none" fill="#79c4fb" fill-rule="evenodd"></path><path id="path4" d="M272.981 92.220 C 272.590 92.981,272.345 93.678,272.436 93.769 C 272.527 93.860,272.694 93.672,272.809 93.352 C 272.923 93.031,273.215 92.537,273.458 92.254 C 273.701 91.970,273.853 91.535,273.796 91.287 C 273.738 91.034,273.381 91.443,272.981 92.220 M271.727 95.174 C 271.370 95.753,271.077 96.383,271.077 96.575 C 271.077 96.766,270.973 96.891,270.846 96.851 C 270.500 96.742,268.615 98.220,268.620 98.596 C 268.623 98.776,268.759 98.715,268.923 98.462 C 269.106 98.179,269.223 98.143,269.226 98.369 C 269.229 98.572,268.988 98.880,268.692 99.052 C 268.306 99.277,268.277 99.369,268.590 99.375 C 268.829 99.380,268.937 99.474,268.828 99.582 C 268.719 99.691,268.411 99.598,268.144 99.376 C 267.739 99.040,267.673 99.046,267.752 99.409 C 267.806 99.660,267.627 99.830,267.332 99.807 C 267.039 99.785,266.881 99.933,266.965 100.152 C 267.046 100.362,266.826 100.609,266.478 100.700 C 266.051 100.812,265.905 101.027,266.032 101.356 C 266.159 101.687,266.048 101.846,265.692 101.846 C 265.385 101.846,265.229 102.014,265.319 102.247 C 265.408 102.480,265.100 102.813,264.582 103.042 C 264.034 103.285,263.692 103.670,263.692 104.044 C 263.692 104.378,263.552 104.565,263.380 104.458 C 263.208 104.352,263.163 104.102,263.281 103.902 C 263.399 103.702,263.049 104.010,262.502 104.587 C 261.956 105.163,261.584 105.828,261.674 106.064 C 261.765 106.300,261.705 106.411,261.541 106.309 C 261.044 106.002,260.107 106.692,259.706 107.660 C 259.465 108.241,259.169 108.513,258.894 108.408 C 258.637 108.309,258.462 108.435,258.462 108.718 C 258.462 108.980,258.336 109.272,258.183 109.367 C 258.029 109.462,257.982 109.241,258.077 108.875 C 258.197 108.416,258.140 108.280,257.890 108.435 C 257.691 108.557,257.598 108.771,257.683 108.908 C 257.768 109.046,257.576 109.491,257.256 109.898 C 256.936 110.304,256.522 111.205,256.335 111.898 C 256.148 112.592,255.801 113.321,255.563 113.518 C 255.326 113.715,254.968 114.555,254.769 115.385 C 254.570 116.214,254.221 117.047,253.993 117.237 C 253.765 117.426,253.485 118.021,253.371 118.560 C 253.257 119.098,252.902 119.970,252.582 120.498 C 252.262 121.026,252.000 121.638,252.000 121.858 C 252.000 122.216,251.456 123.471,249.536 127.538 C 248.214 130.340,247.385 132.414,247.385 132.917 C 247.385 133.212,247.038 133.963,246.615 134.586 C 246.192 135.210,245.846 135.885,245.846 136.086 C 245.846 136.288,245.486 137.216,245.045 138.149 C 244.604 139.083,243.913 140.550,243.509 141.410 C 243.105 142.271,242.687 143.410,242.581 143.942 C 242.474 144.474,242.196 145.068,241.963 145.262 C 241.729 145.455,241.538 145.837,241.538 146.110 C 241.538 146.383,241.177 147.370,240.736 148.303 C 237.764 154.589,237.008 156.337,236.773 157.465 C 236.659 158.016,236.402 158.640,236.203 158.849 C 236.004 159.059,235.635 159.548,235.382 159.935 L 234.923 160.639 215.713 160.623 C 205.148 160.614,196.569 160.672,196.650 160.752 C 196.730 160.832,199.050 160.916,201.806 160.938 C 205.859 160.971,207.826 161.192,206.128 161.423 C 205.973 161.444,205.708 161.479,205.538 161.500 C 205.369 161.521,205.247 161.642,205.267 161.769 C 205.377 162.465,205.182 162.816,204.773 162.659 C 204.521 162.563,204.343 162.583,204.377 162.703 C 204.411 162.824,204.275 163.216,204.076 163.575 C 203.877 163.933,203.813 164.336,203.934 164.470 C 204.055 164.604,203.981 164.614,203.769 164.493 C 203.547 164.365,203.375 164.441,203.363 164.674 C 203.351 164.896,203.222 164.800,203.077 164.462 L 202.812 163.846 202.786 164.462 C 202.757 165.106,201.530 166.462,200.975 166.462 C 200.797 166.462,200.553 166.621,200.432 166.817 C 200.284 167.057,200.353 167.089,200.645 166.918 C 200.885 166.776,200.830 166.945,200.521 167.298 C 199.997 167.897,199.612 167.935,193.608 167.982 C 190.112 168.009,187.189 168.093,187.113 168.169 C 186.893 168.389,262.881 168.330,267.029 168.107 C 270.150 167.939,270.773 167.824,270.794 167.414 C 270.808 167.121,270.878 167.072,270.968 167.292 C 271.156 167.754,272.923 166.246,272.923 165.623 C 272.923 165.387,273.062 165.280,273.231 165.385 C 273.400 165.489,273.538 165.447,273.538 165.291 C 273.538 165.135,273.919 164.626,274.385 164.160 C 275.342 163.201,275.464 162.496,274.777 161.900 C 274.452 161.618,274.440 161.562,274.740 161.717 C 275.003 161.854,275.095 161.817,274.976 161.624 C 274.442 160.760,271.720 160.598,258.104 160.625 C 250.479 160.640,244.172 160.583,244.088 160.498 C 244.004 160.414,244.281 159.609,244.705 158.711 C 246.654 154.575,247.061 153.636,247.250 152.843 C 247.362 152.376,247.572 151.920,247.718 151.830 C 247.864 151.740,248.140 151.085,248.331 150.374 C 248.522 149.664,248.942 148.714,249.263 148.263 C 249.584 147.812,249.846 147.269,249.846 147.056 C 249.846 146.844,250.176 146.103,250.578 145.412 C 250.981 144.720,251.404 143.738,251.519 143.231 C 251.634 142.723,252.044 141.754,252.430 141.077 L 253.131 139.846 258.027 139.775 C 260.720 139.736,270.954 139.664,280.769 139.614 L 298.615 139.525 299.923 138.808 C 301.276 138.067,301.632 137.720,300.692 138.060 C 300.359 138.181,300.506 137.900,301.077 137.323 C 301.585 136.811,302.138 136.407,302.308 136.427 C 302.477 136.446,302.581 136.288,302.538 136.077 C 302.496 135.865,302.608 135.692,302.787 135.692 C 302.967 135.692,303.028 135.554,302.923 135.385 C 302.818 135.215,302.925 135.077,303.159 135.077 C 303.935 135.077,305.106 133.589,304.509 133.360 C 304.231 133.254,304.066 133.065,304.142 132.942 C 304.218 132.819,304.114 132.703,303.910 132.685 C 303.705 132.668,302.985 132.514,302.308 132.345 C 301.540 132.153,292.710 132.044,278.832 132.056 C 266.598 132.067,256.518 132.006,256.433 131.921 C 256.349 131.836,256.558 131.230,256.899 130.575 C 257.240 129.920,257.565 129.087,257.620 128.722 C 257.676 128.358,257.877 127.872,258.068 127.642 C 258.259 127.412,258.712 126.431,259.074 125.464 C 259.436 124.496,259.862 123.624,260.020 123.526 C 260.178 123.428,260.308 123.100,260.308 122.797 C 260.308 122.494,260.636 121.627,261.038 120.871 C 261.440 120.116,261.870 119.160,261.993 118.749 C 262.231 117.956,262.974 116.226,264.164 113.692 C 264.562 112.846,264.961 111.799,265.051 111.364 C 265.141 110.930,265.495 110.251,265.838 109.856 C 266.181 109.460,266.462 108.914,266.462 108.643 C 266.462 108.371,266.791 107.527,267.193 106.767 C 267.595 106.007,268.020 104.944,268.136 104.406 C 268.252 103.868,268.535 103.271,268.765 103.080 C 268.995 102.890,269.274 102.192,269.386 101.530 C 269.498 100.868,269.836 100.010,270.137 99.624 C 270.438 99.239,270.791 98.577,270.921 98.154 C 271.050 97.731,271.494 96.713,271.907 95.892 C 272.788 94.140,272.666 93.655,271.727 95.174 M261.610 99.697 C 260.651 101.364,260.752 101.680,261.725 100.056 C 262.163 99.325,262.471 98.676,262.410 98.615 C 262.348 98.553,261.988 99.040,261.610 99.697 M260.497 102.578 C 260.258 103.149,259.910 103.711,259.724 103.827 C 259.537 103.942,259.397 104.409,259.411 104.864 L 259.438 105.692 259.697 104.826 C 259.840 104.350,260.097 103.792,260.269 103.586 C 260.646 103.131,261.272 101.538,261.073 101.538 C 260.995 101.538,260.736 102.006,260.497 102.578 M258.676 106.749 C 258.389 107.236,258.154 107.751,258.155 107.894 C 258.156 108.037,258.440 107.688,258.787 107.119 C 259.134 106.550,259.368 106.035,259.308 105.975 C 259.248 105.914,258.963 106.263,258.676 106.749 M175.032 189.768 L 177.603 189.872 176.908 190.475 C 176.526 190.806,176.081 191.077,175.920 191.077 C 175.759 191.077,175.709 191.292,175.810 191.554 C 175.915 191.828,175.863 191.952,175.689 191.844 C 175.521 191.741,175.382 191.976,175.380 192.366 C 175.376 192.941,175.317 192.988,175.072 192.615 C 174.819 192.230,174.738 192.268,174.580 192.843 C 174.477 193.222,174.269 193.456,174.119 193.363 C 173.969 193.270,173.846 193.410,173.846 193.674 C 173.846 193.938,173.719 194.154,173.564 194.154 C 173.409 194.154,173.143 194.535,172.973 195.000 C 172.803 195.465,172.653 195.673,172.640 195.462 C 172.626 195.250,172.421 195.077,172.183 195.077 C 171.901 195.077,171.806 195.292,171.911 195.692 C 172.024 196.124,171.920 196.308,171.565 196.308 C 171.286 196.308,170.978 196.515,170.881 196.767 C 170.784 197.020,170.590 197.157,170.451 197.070 C 170.311 196.984,170.116 197.043,170.018 197.201 C 169.919 197.363,167.234 197.506,163.934 197.525 C 160.686 197.545,157.965 197.625,157.886 197.704 C 157.663 197.926,232.313 197.871,237.028 197.645 C 240.080 197.498,241.231 197.338,241.231 197.058 C 241.231 196.815,241.476 196.737,241.894 196.847 C 242.324 196.959,242.486 196.903,242.353 196.688 C 242.240 196.506,242.599 195.986,243.151 195.532 C 243.703 195.078,243.946 194.817,243.692 194.951 C 243.295 195.161,243.289 195.123,243.653 194.674 C 243.885 194.388,244.266 194.154,244.499 194.154 C 244.732 194.154,244.923 193.946,244.923 193.692 C 244.923 193.438,245.040 193.231,245.184 193.231 C 245.740 193.231,246.805 192.064,246.397 191.900 C 246.179 191.813,246.320 191.730,246.710 191.717 C 247.101 191.703,247.351 191.579,247.265 191.440 C 247.083 191.146,248.135 190.172,248.696 190.115 C 248.905 190.094,248.454 189.966,247.692 189.830 C 246.931 189.695,229.692 189.602,209.385 189.624 C 189.077 189.646,173.618 189.711,175.032 189.768 M144.969 212.843 C 152.837 212.920,154.116 212.997,154.273 213.405 C 154.387 213.701,154.328 213.800,154.117 213.669 C 153.697 213.410,152.249 215.040,152.516 215.472 C 152.623 215.646,152.585 215.716,152.432 215.629 C 152.279 215.543,151.779 215.867,151.320 216.351 C 150.861 216.835,150.584 217.232,150.704 217.234 C 150.825 217.235,150.185 217.660,149.283 218.177 C 148.202 218.797,147.699 219.266,147.808 219.551 C 147.900 219.789,147.738 220.122,147.449 220.290 C 146.868 220.629,216.427 220.761,218.110 220.424 C 218.636 220.319,218.996 220.117,218.908 219.976 C 218.821 219.835,219.100 219.490,219.529 219.209 C 219.957 218.928,220.308 218.578,220.308 218.430 C 220.308 217.990,221.336 216.923,221.761 216.923 C 221.977 216.923,222.154 216.749,222.154 216.536 C 222.154 216.322,222.436 215.972,222.781 215.756 C 223.152 215.525,223.317 215.211,223.184 214.990 C 223.051 214.770,223.180 214.795,223.497 215.052 C 223.793 215.292,223.992 215.344,223.940 215.166 C 223.889 214.989,224.242 214.473,224.727 214.020 C 225.211 213.567,225.511 213.101,225.393 212.983 C 225.276 212.865,205.080 212.766,180.513 212.761 C 155.946 212.757,139.951 212.794,144.969 212.843 M182.949 254.475 C 182.456 254.622,181.950 254.679,181.823 254.601 C 181.516 254.411,180.587 254.781,180.741 255.032 C 180.808 255.141,180.432 255.247,179.906 255.267 C 179.381 255.287,178.893 255.475,178.823 255.686 C 178.738 255.940,178.627 255.960,178.494 255.745 C 178.191 255.255,173.018 258.704,171.317 260.531 C 170.342 261.578,169.231 263.059,169.231 263.311 C 169.231 263.479,169.020 263.792,168.763 264.005 C 167.334 265.191,165.546 270.767,166.150 272.154 C 166.374 272.669,166.422 272.683,166.440 272.240 C 166.452 271.949,167.014 271.395,167.690 271.009 C 168.371 270.620,168.919 270.072,168.921 269.779 C 168.922 269.436,169.085 269.312,169.385 269.427 C 169.700 269.548,169.846 269.410,169.846 268.989 C 169.846 268.650,170.054 268.294,170.308 268.196 C 170.562 268.099,170.769 267.807,170.769 267.548 C 170.769 267.289,171.013 267.077,171.312 267.077 C 171.610 267.077,171.996 266.765,172.169 266.385 C 172.342 266.004,172.652 265.727,172.857 265.769 C 173.063 265.812,173.231 265.638,173.231 265.385 C 173.231 265.131,173.438 264.923,173.692 264.923 C 173.946 264.923,174.154 264.776,174.154 264.597 C 174.154 264.418,174.296 264.359,174.469 264.466 C 174.643 264.573,174.765 264.547,174.740 264.407 C 174.632 263.785,174.795 263.364,175.077 263.538 C 175.351 263.708,175.516 263.313,175.425 262.703 C 175.407 262.583,175.584 262.557,175.819 262.647 C 176.053 262.737,176.350 262.642,176.478 262.435 C 176.635 262.181,176.582 262.138,176.315 262.303 C 176.050 262.467,175.971 262.406,176.075 262.120 C 176.161 261.885,176.387 261.727,176.577 261.769 C 176.960 261.854,178.154 260.773,178.154 260.341 C 178.154 260.189,178.362 259.986,178.615 259.889 C 178.869 259.791,179.077 259.491,179.077 259.222 C 179.077 258.953,179.216 258.819,179.387 258.925 C 179.818 259.191,180.704 258.239,180.434 257.801 C 180.301 257.587,180.346 257.526,180.547 257.650 C 180.731 257.764,181.076 257.578,181.314 257.238 C 181.553 256.898,181.808 256.680,181.883 256.754 C 181.957 256.829,182.291 256.482,182.624 255.984 C 182.958 255.486,183.381 255.078,183.564 255.078 C 183.747 255.077,183.897 254.869,183.897 254.615 C 183.897 254.362,183.886 254.166,183.872 254.180 C 183.858 254.195,183.443 254.327,182.949 254.475 M122.000 254.888 C 120.666 255.469,120.217 256.142,120.385 257.303 C 120.628 258.988,121.581 262.240,122.033 262.930 C 122.267 263.288,122.584 264.194,122.736 264.944 C 123.043 266.454,124.097 269.618,124.947 271.582 C 125.250 272.283,125.592 273.391,125.707 274.044 C 125.821 274.697,126.127 275.568,126.386 275.979 C 126.645 276.391,127.103 277.637,127.404 278.749 C 128.454 282.632,129.827 286.812,130.948 289.538 C 131.330 290.469,131.713 291.646,131.797 292.154 C 131.882 292.662,132.239 293.625,132.591 294.296 C 132.943 294.966,133.231 295.962,133.231 296.508 C 133.231 297.055,133.345 297.573,133.485 297.659 C 133.625 297.746,133.996 298.662,134.309 299.696 C 134.918 301.707,135.702 302.477,136.481 301.830 C 136.724 301.628,136.923 301.559,136.923 301.677 C 136.923 301.794,137.140 301.674,137.404 301.409 C 137.669 301.144,137.786 300.767,137.664 300.570 C 137.532 300.356,137.577 300.295,137.778 300.419 C 137.964 300.535,138.354 300.217,138.657 299.704 C 139.037 299.062,139.275 298.897,139.443 299.160 C 139.610 299.423,139.684 299.372,139.688 298.990 C 139.690 298.689,139.899 298.363,140.152 298.266 C 140.405 298.169,140.536 297.967,140.444 297.817 C 140.351 297.668,140.513 297.637,140.804 297.748 C 141.162 297.886,141.260 297.835,141.109 297.591 C 140.972 297.369,141.091 297.231,141.418 297.231 C 141.710 297.231,141.857 297.139,141.745 297.027 C 141.634 296.916,141.853 296.665,142.233 296.471 C 142.612 296.277,142.904 295.884,142.880 295.597 C 142.854 295.277,143.061 295.077,143.419 295.077 C 143.738 295.077,143.965 294.955,143.923 294.806 C 143.825 294.459,146.013 292.308,146.464 292.308 C 146.652 292.308,146.720 292.169,146.615 292.000 C 146.511 291.831,146.641 291.692,146.905 291.692 C 147.169 291.692,147.385 291.535,147.385 291.343 C 147.385 291.151,147.731 290.673,148.154 290.281 C 148.577 289.889,148.923 289.411,148.923 289.220 C 148.923 289.028,149.095 288.929,149.305 288.999 C 149.714 289.135,150.769 287.980,150.769 287.395 C 150.769 287.200,150.908 287.126,151.077 287.231 C 151.246 287.335,151.385 287.268,151.385 287.082 C 151.385 286.895,151.624 286.783,151.916 286.833 C 152.209 286.882,152.468 286.750,152.493 286.538 C 152.518 286.327,152.556 286.049,152.577 285.921 C 152.598 285.793,153.031 285.505,153.538 285.280 C 154.046 285.055,154.462 284.666,154.462 284.414 C 154.462 284.162,154.635 283.763,154.846 283.527 C 155.775 282.492,155.952 282.208,155.778 282.035 C 155.677 281.933,155.824 281.596,156.105 281.285 C 156.387 280.974,156.524 280.627,156.411 280.513 C 156.298 280.400,156.358 280.308,156.545 280.308 C 156.732 280.308,156.891 279.996,156.898 279.615 C 156.929 278.006,156.972 277.840,157.302 278.044 C 157.525 278.182,157.573 278.072,157.440 277.727 C 157.326 277.430,157.364 277.277,157.525 277.377 C 157.803 277.548,158.456 275.721,158.460 274.765 C 158.461 274.508,158.738 273.782,159.077 273.150 C 159.415 272.519,159.694 271.690,159.695 271.309 C 159.697 270.927,160.043 269.875,160.465 268.969 C 160.886 268.064,161.231 267.025,161.231 266.659 C 161.231 266.294,161.577 265.345,162.000 264.550 C 162.423 263.755,162.769 262.805,162.769 262.437 C 162.769 262.070,163.125 260.977,163.560 260.008 C 165.348 256.023,164.069 254.462,159.016 254.462 C 154.722 254.462,153.274 255.384,152.805 258.417 C 152.691 259.154,152.372 260.192,152.097 260.725 C 151.821 261.257,151.357 262.592,151.066 263.692 C 150.774 264.792,150.389 266.108,150.211 266.615 C 149.232 269.396,148.308 272.627,148.307 273.268 C 148.306 273.671,148.021 274.466,147.674 275.035 C 147.327 275.605,146.900 276.851,146.726 277.805 C 146.551 278.758,146.161 279.954,145.859 280.462 C 145.556 280.969,145.224 281.951,145.120 282.644 C 145.016 283.337,144.667 284.513,144.343 285.259 C 144.020 286.005,143.676 287.296,143.580 288.128 C 143.281 290.710,142.332 290.859,141.988 288.377 C 141.877 287.578,141.515 286.383,141.182 285.723 C 140.850 285.064,140.435 283.748,140.262 282.800 C 140.088 281.852,139.746 280.853,139.501 280.580 C 139.256 280.306,138.914 279.203,138.741 278.129 C 138.568 277.054,138.301 276.024,138.148 275.839 C 137.995 275.654,137.666 274.750,137.417 273.829 C 137.168 272.907,136.678 271.361,136.328 270.392 C 135.979 269.423,135.692 268.335,135.692 267.973 C 135.692 267.611,135.422 266.811,135.091 266.196 C 134.760 265.580,134.265 264.246,133.991 263.231 C 132.127 256.333,131.790 255.617,130.071 254.927 C 128.603 254.338,123.321 254.312,122.000 254.888 M91.728 269.154 C 91.591 277.130,91.679 276.401,90.828 276.602 C 90.437 276.694,90.126 276.873,90.136 277.000 C 90.219 278.060,90.138 278.298,89.846 277.846 C 89.605 277.473,89.547 277.517,89.543 278.077 C 89.541 278.465,89.369 278.735,89.154 278.692 C 88.942 278.650,88.807 278.799,88.854 279.023 C 88.901 279.250,88.790 279.339,88.602 279.223 C 88.411 279.105,88.191 279.301,88.093 279.679 C 87.996 280.049,87.747 280.276,87.528 280.193 C 87.313 280.110,87.064 280.324,86.974 280.668 C 86.869 281.068,86.674 281.208,86.430 281.057 C 86.164 280.893,86.109 280.977,86.246 281.334 C 86.424 281.798,86.030 282.004,85.183 281.892 C 85.073 281.878,84.796 282.096,84.568 282.377 C 84.277 282.736,84.268 282.819,84.538 282.656 C 84.750 282.529,84.923 282.557,84.923 282.718 C 84.923 282.879,84.720 283.089,84.472 283.184 C 84.096 283.328,84.004 282.806,83.922 280.063 C 83.867 278.252,83.794 290.685,83.759 307.692 L 83.695 338.615 84.540 340.772 C 85.004 341.959,85.681 343.224,86.042 343.584 C 86.404 343.944,86.819 344.427,86.965 344.658 C 87.590 345.647,89.643 347.121,90.193 346.977 C 90.510 346.895,90.843 346.947,90.934 347.095 C 91.119 347.395,92.270 346.422,92.105 346.106 C 92.047 345.994,92.311 345.961,92.692 346.032 C 93.073 346.103,93.220 346.081,93.019 345.984 C 92.645 345.804,93.788 344.391,94.198 344.528 C 94.307 344.564,94.567 344.180,94.776 343.675 C 95.190 342.677,95.809 342.077,95.490 342.984 C 95.383 343.289,95.947 342.881,96.743 342.078 C 98.473 340.335,98.351 339.893,96.195 340.081 C 94.659 340.216,93.087 339.898,92.462 339.327 C 92.261 339.144,92.099 325.714,91.998 300.831 C 91.912 279.812,91.791 265.558,91.728 269.154 " stroke="none" fill="#93c2fb" fill-rule="evenodd"></path></g></svg>